<svg xmlns="http://www.w3.org/2000/svg" viewBox="0 0 940 117.57"><defs><style>.cls-1{fill:#f5fff5;}</style></defs><title>a-to-a</title><g id="Layer_2" data-name="Layer 2"><g id="Calque_1" data-name="Calque 1"><path class="cls-1" d="M803.68,57.42c-5.86,0-10,4.63-10,11.24s4.13,11.24,10,11.24,10-4.63,10-11.24S809.56,57.42,803.68,57.42Z"/><polygon class="cls-1" points="223.72 61.81 238.92 61.81 231.32 40.41 223.72 61.81"/><path class="cls-1" d="M509.49,57.42c-5.87,0-10,4.63-10,11.24s4.13,11.24,10,11.24,10-4.63,10-11.24S515.36,57.42,509.49,57.42Z"/><path class="cls-1" d="M158.39,57.42c-5.87,0-10,4.63-10,11.24s4.13,11.24,10,11.24,10-4.63,10-11.24S164.26,57.42,158.39,57.42Z"/><path class="cls-1" d="M0,0V117.57H940V0ZM766.27,33.15a6,6,0,0,1,6,5.94A6.12,6.12,0,0,1,766.11,45a6,6,0,0,1-5.94-5.95A6.11,6.11,0,0,1,766.27,33.15Zm-294.19,0A6,6,0,0,1,478,39.09,6.12,6.12,0,0,1,471.91,45,6,6,0,0,1,466,39.09,6.11,6.11,0,0,1,472.08,33.15ZM81.24,86.74H60.36V78.49h6.27l-3-8.92H43.25l-3.06,8.92H46.8v8.25H25.91V78.42h4.71L44.16,40.66H38.22V32.41H68.94v8.25H63L76.54,78.42h4.7ZM132,85.26a19.34,19.34,0,0,1-8.67,2.14c-4.38,0-7.93-1.48-9.74-4.94a11.62,11.62,0,0,1-1.24-5.7V58.16h-7V50.58h7V43l8.91-3.88V50.58h11v7.58h-11V75a5.08,5.08,0,0,0,.58,2.65c.66,1.16,2,1.74,3.8,1.74a18.25,18.25,0,0,0,7.1-1.91Zm26.35,2.14c-12,0-19.24-8.66-19.24-18.74,0-9.92,7.43-18.74,19.24-18.74,12,0,19.24,8.66,19.24,18.74C177.63,78.58,170.2,87.4,158.39,87.4Zm100.76-.66H238.26V78.49h6.28l-3.06-8.92H221.16l-3.06,8.92h6.6v8.25H203.82V78.42h4.71l13.54-37.76h-5.95V32.41h30.73v8.25H240.9l13.55,37.76h4.7v8.32Zm46.09,1c-10.74,0-19.41-6-19.41-12.63,0-3.88,2.32-6.45,5.7-6.45A5.66,5.66,0,0,1,297.47,74a7,7,0,0,1-.74,3.3,15.18,15.18,0,0,0,8.59,2.31c5.95,0,9.75-2.64,9.75-7.35,0-4.46-4.54-6.61-10-8.51C295,60.15,287.9,56.93,287.9,46.85c0-8.67,7-15.43,18-15.43,10.16,0,18,5.19,18,11.71,0,3.89-2.39,6.12-5.53,6.12a5.64,5.64,0,0,1-5.94-5.54,4.87,4.87,0,0,1,.58-2.56,13.73,13.73,0,0,0-7.19-1.65c-5.38,0-8.51,2.73-8.51,6.69,0,4.46,4.54,6.44,10,8.43,9.75,3.47,17.09,6.86,17.09,16.93C324.39,81.88,316.4,87.74,305.24,87.74Zm52.61-2.48a19.35,19.35,0,0,1-8.68,2.14c-4.37,0-7.92-1.48-9.74-4.94a11.74,11.74,0,0,1-1.23-5.7V58.16h-7V50.58h7V43l8.91-3.88V50.58h11v7.58h-11V75a5.08,5.08,0,0,0,.57,2.65c.67,1.16,2,1.74,3.8,1.74a18.25,18.25,0,0,0,7.11-1.91Zm49.72,1.48h-14V81c-3.47,3.38-7.36,6.43-12.65,6.43-4.38,0-7.59-1.81-9.41-4.78a14,14,0,0,1-1.82-7.26V58.16H364.3V50.58h14.36V73.13a8.18,8.18,0,0,0,.74,3.72,4.65,4.65,0,0,0,4.47,2.39c3.14,0,6.44-1.82,9.34-4.21V58.16h-5.62V50.58H402.2V79.32h5.37v7.42Zm48.81,0H442V82.79a14.92,14.92,0,0,1-10.66,4.62c-9.59,0-16.76-7.68-16.76-18.59,0-10.49,7.59-18.9,17.33-18.9A15.53,15.53,0,0,1,442,53.39V33.88h-5.46V26.3H451v53h5.37v7.42Zm26.34,0H462.83V79.32h5.53V58.16h-5.53V50.58h14.53V79.32h5.36Zm26.77.66c-12,0-19.24-8.66-19.24-18.74,0-9.92,7.43-18.74,19.24-18.74,12,0,19.24,8.66,19.24,18.74C528.73,78.58,521.3,87.4,509.49,87.4Zm67.06.34c-10.73,0-19.4-6-19.4-12.63,0-3.88,2.31-6.45,5.7-6.45A5.66,5.66,0,0,1,568.79,74a6.9,6.9,0,0,1-.75,3.3,15.24,15.24,0,0,0,8.6,2.31c6,0,9.75-2.64,9.75-7.35,0-4.46-4.54-6.61-10-8.51-10.08-3.64-17.17-6.86-17.17-16.94,0-8.67,7-15.43,18-15.43,10.16,0,18,5.19,18,11.71,0,3.89-2.4,6.12-5.53,6.12a5.63,5.63,0,0,1-5.94-5.54,4.78,4.78,0,0,1,.58-2.56,13.73,13.73,0,0,0-7.19-1.65c-5.38,0-8.52,2.73-8.52,6.69,0,4.46,4.55,6.44,10,8.43,9.75,3.47,17.09,6.86,17.09,16.93C595.72,81.88,587.71,87.74,576.55,87.74Zm46.75-.34c-12,0-19.24-8.66-19.24-18.74,0-9.92,7.43-18.74,19.24-18.74,12,0,19.24,8.66,19.24,18.74C642.54,78.58,635.12,87.4,623.3,87.4Zm46.25-.66h-20V79.32h5.61V33.88h-5.61V26.3h14.6v53h5.37v7.42Zm48.08,0h-14V81c-3.48,3.38-7.37,6.43-12.65,6.43-4.38,0-7.59-1.81-9.41-4.78a14,14,0,0,1-1.82-7.26V58.16h-5.36V50.58h14.36V73.13a8.18,8.18,0,0,0,.74,3.72,4.63,4.63,0,0,0,4.46,2.39c3.14,0,6.45-1.82,9.35-4.21V58.16h-5.63V50.58h14.61V79.32h5.38v7.42Zm31.63-1.48a19.39,19.39,0,0,1-8.68,2.14c-4.37,0-7.92-1.48-9.73-4.94a11.62,11.62,0,0,1-1.24-5.7V58.16h-7V50.58h7V43l8.91-3.88V50.58h11v7.58h-11V75a5,5,0,0,0,.58,2.65c.65,1.16,2,1.74,3.8,1.74A18.16,18.16,0,0,0,750,77.5Zm27.67,1.48H757V79.32h5.53V58.16H757V50.58h14.53V79.32h5.37v7.42Zm26.75.66c-12,0-19.23-8.66-19.23-18.74,0-9.92,7.42-18.74,19.23-18.74,12,0,19.25,8.66,19.25,18.74C822.92,78.58,815.5,87.4,803.68,87.4Zm70-.66H854.32V79.32h5V64.2a8.12,8.12,0,0,0-.74-3.72,4.62,4.62,0,0,0-4.46-2.39c-3.14,0-6.45,1.81-9.35,4.21v17h5v7.42H830.37V79.32h5.37V58.16h-5.37V50.58h14v5.77c3.47-3.38,7.36-6.43,12.64-6.43,4.3,0,7.44,1.73,9.33,4.62a13.77,13.77,0,0,1,1.9,7.43V79.32h5.37v7.42Zm22.06.75c-5.54,0-11.48-2-13.87-4.37a6.37,6.37,0,0,1-2.06-4.87,4.75,4.75,0,0,1,4.78-4.88,4.66,4.66,0,0,1,4.87,4.8,9.3,9.3,0,0,1-.16,1.48,18,18,0,0,0,6.52,1.16c3.64,0,6.62-1.24,6.62-3.89,0-1.81-1.58-2.89-7.11-4.37-10-2.65-14.21-5-14.21-11.24,0-5.62,4.63-11.47,14.79-11.47,4.38,0,9.66,1.64,12.13,4.12a6.34,6.34,0,0,1,2,4.62c0,2.9-1.81,4.88-4.46,4.88-2.88,0-4.86-1.74-4.86-4.46a5,5,0,0,1,.16-1.57,14.44,14.44,0,0,0-5.12-.91c-4.05,0-6,1.81-6,3.71,0,2.07,2.06,3.14,7.6,4.63,8.67,2.32,13.71,4.46,13.71,11C911,83.45,903.88,87.49,895.7,87.49Z"/><path class="cls-1" d="M423.84,68.75c0,6.93,4.3,10.9,9.59,10.9,3.38,0,6.11-1.48,8.59-3.63V60.48a14.87,14.87,0,0,0-8.59-2.81C428.38,57.67,423.84,61.56,423.84,68.75Z"/><path class="cls-1" d="M623.3,57.42c-5.86,0-10,4.63-10,11.24s4.14,11.24,10,11.24,10-4.63,10-11.24S629.17,57.42,623.3,57.42Z"/><polygon class="cls-1" points="45.81 61.81 61.02 61.81 53.41 40.41 45.81 61.81"/></g></g></svg>