<svg xmlns="http://www.w3.org/2000/svg" viewBox="0 0 800.1 482"><defs><style>.cls-1{fill:#f5fff5;}</style></defs><title>Asset 1</title><g id="Layer_2" data-name="Layer 2"><g id="Layer_1-2" data-name="Layer 1"><g id="Layer_1-2-2" data-name="Layer 1-2"><path class="cls-1" d="M19.9,412.1,7.2,446.9c0,.7-.3.7-1,.7H.7c-.7,0-.7-.3-.7-1l33.5-91.7a10,10,0,0,0,.6-4.2.68.68,0,0,1,.7-.7h8.5c.6,0,.6,0,1,.7l35.1,95.9c0,.7,0,1-.7,1H72.8c-.3,0-.6,0-1-.7L59.1,412.1Zm37.4-6.5c-3.3-9.4-14.6-40.3-17.6-49.8-2.6,9.1-10.7,30.9-17.6,49.8Zm29,7.4c0-21.8,16.3-36.7,38.4-36.7,5.9,0,8.8.3,12,1.3V342.8c0-.7,0-.7.6-.7h5.5c.6,0,.6,0,.6.7V443.3a1.1,1.1,0,0,1-.6,1,48.28,48.28,0,0,1-21.8,5.2C101.9,448.8,86.3,436.8,86.3,413Zm50.4-28.6c-2.9-1.3-7.2-2-12.4-2-20.2,0-30.9,14-30.9,30.2,0,22.1,14.3,29.9,28.3,29.9,4.6,0,10.7-.7,14.6-2.6V384.3h.4Zm86.2,28c0,21.8-13,36.4-31.5,36.4-22.4,0-32.2-19.2-32.2-36.4,0-20.8,13-36.4,32.2-36.4,18.5,0,31.5,14.6,31.5,36.4Zm-56.9-.3c0,16.3,9.1,30.2,25.7,30.2,11.4,0,24.1-8.8,24.1-29.9,0-15-7.2-30.2-25-30.2C176,382.5,166,394.5,166,412.1Zm78.3-70.3c.3,0,.6,0,.6.7v37.4a43.73,43.73,0,0,1,17.9-3.6c19.5,0,32.2,14,32.2,33.8,0,25.7-18.9,39-38.4,39a53.78,53.78,0,0,1-18.2-2.9c-.3,0-.6-.7-.6-1.3V342.5c0-.3.3-.7,1-.7Zm18.2,40.7c-7.5,0-12.7,1.3-17.2,3.6v55.3a43.09,43.09,0,0,0,12.4,1.6c16.3,0,30.9-11.1,30.9-32.2C288.6,394.2,278.8,382.5,262.5,382.5Zm51.1,28.9c-.6,17.6,8.8,30.9,26.7,30.9,6.2,0,12.7-1,18.2-4.2.3-.3.6,0,.6.3v4.9c0,.7,0,1-.6,1-4.6,2.6-10.7,4.6-19.5,4.6-23.7,0-32.8-18.2-32.8-36.1,0-20.5,11.7-36.7,30.6-36.7,20.2,0,27,16.6,27,27.6a32.22,32.22,0,0,1-.3,6.2,1.08,1.08,0,0,1-1,1c-2.3.3-9.4.3-15,.3H313.7v.2Zm32.5-5.8c8.8,0,10.4,0,10.7-.3v-2c0-6.5-3.9-21.1-20.5-21.1-14,0-21.5,11.4-23.1,23.4Zm86.8-48.8H399.7c-.3,0-.6,0-.6-1l1.3-4.9c0-.3.3-.7,1-.7H472c.7,0,.7,0,1,.7l.7,4.9c0,.7,0,1-.7,1H440.1v89.8c0,.7-.3,1-1,1h-5.2c-.7,0-1,0-1-1V356.8Zm39.7,20.5c.3,0,.3,0,.7.7,14.6,36.7,21.5,54.3,23.4,60.2,4.6-12,11.7-30.6,23.1-60.2,0-.3.3-.7,1-.7h5.5c.7,0,.7.3.7,1-11.1,31.2-25.4,66.7-41.3,102.1,0,.3-.7.7-1.3.7l-5.9.7c-.7,0-.7-.3-.3-1,4.6-9.1,10.4-22.4,15.3-34.1v-1.6c-3.3-7.8-18.2-44.2-27.3-67,0-.3,0-.7.3-.7l6.1-.1Zm123.6,32.5c0,26.3-20.5,39.3-40.3,39.3a38.09,38.09,0,0,1-10.1-1v32.2a.9.9,0,0,1-.7,1c-1.3,0-5.5.7-5.9.7s-.7,0-.7-.7V386.7a29.66,29.66,0,0,0-.3-4.2.91.91,0,0,1,.3-.7,58.57,58.57,0,0,1,24.7-5.5c19.7-.3,33,13,33,33.5Zm-50.4-24.4v55.9c3.3,1,6.8,1,10.7,1,16.6,0,32.5-10.7,32.5-32.2,0-16.6-9.8-28-26.7-28-6.1.4-12,1.3-16.5,3.3Zm68.3,26c-.7,17.6,8.8,30.9,26.7,30.9,6.2,0,12.7-1,18.2-4.2a.38.38,0,0,1,.6,0,.37.37,0,0,1,.1.3v4.9c0,.7,0,1-.7,1-4.6,2.6-10.7,4.6-19.5,4.6-23.7,0-32.8-18.2-32.8-36.1,0-20.5,11.7-36.7,30.6-36.7,20.2,0,27,16.6,27,27.6a32.22,32.22,0,0,1-.3,6.2,1.08,1.08,0,0,1-1,1c-2.3.3-9.4.3-15,.3H614.1v.2Zm32.5-5.8c8.8,0,10.4,0,10.7-.3v-2c0-6.5-3.9-21.1-20.5-21.1-14,0-21.5,11.4-23.1,23.4ZM686,446.9c0,.7,0,.7-.7.7h-5.9c-.3,0-.7,0-.7-.7V342.5a.68.68,0,0,1,.7-.7h5.9c.3,0,.7,0,.7.7Zm1.3-36.8c6.2-5.9,29.6-28,33.8-32.2a1.71,1.71,0,0,1,1.3-.7h6.8c.7,0,.7.7.3,1-3.9,4.2-28.9,26.7-34.1,31.5v.3c10.1,9.8,27.3,25.7,39,36.4.3.3,0,1-.3,1h-7.8c-.7,0-1,0-1.3-.7-9.4-8.8-29.9-27.6-37.7-35.1-.7-.5-.7-.8,0-1.5Zm54.6-55.6c0-2.9,2-5.2,4.6-5.2a4.91,4.91,0,0,1,4.9,4.9v.3a4.82,4.82,0,0,1-4.8,4.9h-.1c-3-.4-4.6-2.3-4.6-4.9Zm1.3,23.7c0-.7.3-1,.7-1h5.5c.3,0,.7,0,.7.7v68.6c0,.7,0,.7-.7.7h-5.2c-.7,0-1,0-1-1v-68Zm56.2,67.4a.9.9,0,0,1-.7,1,22.06,22.06,0,0,1-9.8,2.3c-9.4,0-15-4.6-15-17.9V383.8H763.2c-.7,0-1-.3-1-1v-4.6c0-.7,0-1,1-1h10.9c0-5.9.7-16.6,1.3-19.5a1.45,1.45,0,0,1,.7-1l5.5-1c.3,0,1,0,1,.3a186.28,186.28,0,0,0-1,21.1h16.5c.7,0,1,.3,1,1v4.6c0,.7-.3.7-1,1H781.5v47.5c0,6.8,2.9,11.4,9.8,11.4a20.54,20.54,0,0,0,8.1-1.6c.3,0,.7,0,.7.3v4.2Z"/><path class="cls-1" d="M267.1,0V259.2H532.8V0Zm11,11.1H521.4V248.2H278.1Z"/><path class="cls-1" d="M347.1,86.5H316.5c-1,0-1.3-.3-1-1.3l2.3-15.3c.3-1,.6-1.3,1.3-1.3h76.4c1,0,1.3.3,1.6,1.3l1.3,15.3c.3,1-.3,1.3-1.3,1.3H366.5V188.6c0,1-.3,1.3-1.3,1.3H348.3c-1,0-1.3-.3-1.3-1.3C347.1,188.6,347.1,86.5,347.1,86.5Zm83.2,52.7,28-37.7c.7-1,1-1.3,2-1.3h18.5c1,0,1.3.7.7,1.6-4.2,5.5-24.4,30.6-30.9,38.4-.3.3-.3.6,0,1L484,188.4c.3.6.3,1.3-1,1.3H461.5a2.33,2.33,0,0,1-2-1c-5.9-8.1-21.5-29.6-29.3-40.6v40.3c0,1-.3,1.3-1.3,1.3H411.7c-1.3,0-1.3-.3-1.3-1.3V69.6c0-.6.3-1,1.3-1h17.2a1.2,1.2,0,0,1,1.3,1v.3l.1,69.3Z"/></g></g></g></svg>