<svg xmlns="http://www.w3.org/2000/svg" viewBox="0 0 960 179.91"><defs><style>.cls-1{fill:#f5fff5;}</style></defs><title>bookforum</title><g id="Layer_2" data-name="Layer 2"><g id="Layer_1-2" data-name="Layer 1"><path class="cls-1" d="M77.13,82.9S95.28,82.57,95.2,43C95.12-.34,55.22.79,55.22.79H0V175.84H61.32s37.35-1.69,37.16-54C98.34,85.18,77.13,82.9,77.13,82.9ZM44.61,34.67S57,35.34,57,50c0,15.13-12.2,16.49-12.2,16.49H36.45l0-31.85ZM46.3,141.05H36.39l0-40H46.3s15.25,1.18,15.25,19.42C61.55,141.21,46.3,141.05,46.3,141.05ZM430.13,1.81h66.63v34.1H467.85V66.63h28.68v32.3H467.85v77.92H430.13ZM551.45,0c-45.62,0-47.21,41.33-47.21,41.33v99.84s1.35,39.3,48.79,38.62c44.26-.63,46.53-38.85,46.53-38.85V40.2S597.53,0,551.45,0Zm9,133.49s-.22,10.84-8.8,10.84c-10.18,0-9.72-10.84-9.72-10.84V45s.46-9,9.49-9c8.58,0,9,9,9,9ZM702.41,44.61c-.09-43.37-39.3-42.92-39.3-42.92H607.88V176.74h36.37l.06-77.47h13s3.14-.2,3.95.9a5.24,5.24,0,0,1,1,2.83v73.74h37.27V99.61a17.72,17.72,0,0,0-3.84-8.7c-3.64-4.14-9.6-4-9.6-4S702.48,85.28,702.41,44.61Zm-45.85,20.1H644.34l0-29.14h8.13s12.19-.23,12.42,14.46C665.14,64,656.56,64.71,656.56,64.71Zm146.15,76.23s1.81,38.85-44.73,38.85c-49.23,0-48.78-39.08-48.78-39.08L709,1.81h37.72V133.49s.23,11.06,9.71,11.06c8.59,0,8.81-11.06,8.81-11.06V1.81h37.5V140.94Zm119.12,35.91V72.5l-20.1,104.35H867.85L847.74,72.5V176.85H811.61V1.81h54.88S885,80,885,80.41s16.26-78.6,16.26-78.6h58.5l.23,175ZM152.3.11c-45.62,0-47.2,41.34-47.2,41.34v99.83s1.35,39.3,48.79,38.62c44.26-.63,46.52-38.85,46.52-38.85V40.32S198.38.11,152.3.11Zm9,133.49s-.23,10.84-8.81,10.84c-10.17,0-9.71-10.84-9.71-10.84V45.06s.45-9,9.48-9c8.59,0,9,9,9,9V133.6ZM255.78.11c-45.62,0-47.2,41.34-47.2,41.34v99.83s1.35,39.3,48.78,38.62c44.27-.63,46.53-38.85,46.53-38.85V40.32S301.86.11,255.78.11Zm9,133.49s-.23,10.84-8.81,10.84c-10.18,0-9.71-10.84-9.71-10.84V45.06s.45-9,9.48-9c8.59,0,9,9,9,9V133.6ZM388.47,75.94l35.22,100.91H381.8L351,90.57v86.28H312.57V1.81h38.85V66.4l30-64.59H423Z"/></g></g></svg>