<svg xmlns="http://www.w3.org/2000/svg" viewBox="0 0 480 523.6"><defs><style>.cls-1{fill:#f5fff5;}</style></defs><title>commercial-type</title><g id="Layer_2" data-name="Layer 2"><g id="Layer_1-2" data-name="Layer 1"><path class="cls-1" d="M190.6,260.3c0,183,49.7,238.8,104.9,245.7v17.6C135.5,523.6,0,434,0,260.3,0,75.9,166.2,0,295.5,0V18.3C238,31.4,190.6,77.4,190.6,260.3ZM479.9,196H460.8c-23-66.6-60.5-147.7-128.5-177.6V0C379,0,450.9,19.1,480,29.8L479.9,196Zm0,114.8H460.8C434.7,384.3,403.4,473.1,332.3,506v17.6c46.7,0,112.5-16.1,147.7-32.9l-.1-179.9Z"/></g></g></svg>