<svg xmlns="http://www.w3.org/2000/svg" viewBox="0 0 920 474.5"><defs><style>.cls-1{fill:#f5fff5;}</style></defs><title>cooper-hewitt</title><g id="Layer_2" data-name="Layer 2"><g id="Layer_1-2" data-name="Layer 1"><path class="cls-1" d="M565.68,4.14h-63.2V230h51.8V151.26h11.4c35.22,0,66.3-11.4,66.3-73.56S600.9,4.14,565.68,4.14Zm-5.19,99.46h-7.25V49.73h7.25c11.4,0,20.73,5.18,20.73,26.94S571.89,103.6,560.49,103.6Z"/><polygon class="cls-1" points="100.5 335.68 59.05 335.68 59.05 248.65 7.25 248.65 7.25 474.5 59.05 474.5 59.05 382.3 100.5 382.3 100.5 474.5 152.3 474.5 152.3 248.65 100.5 248.65 100.5 335.68"/><polygon class="cls-1" points="170.95 474.5 300.45 474.5 300.45 427.88 222.75 427.88 222.75 382.3 284.91 382.3 284.91 335.68 222.75 335.68 222.75 294.23 300.45 294.23 300.45 248.65 170.95 248.65 170.95 474.5"/><rect class="cls-1" x="571.89" y="248.65" width="51.8" height="225.86"/><polygon class="cls-1" points="642.34 294.23 681.71 294.23 681.71 474.5 732.48 474.5 732.48 294.23 771.85 294.23 771.85 248.65 642.34 248.65 642.34 294.23"/><polygon class="cls-1" points="790.5 294.23 828.83 294.23 828.83 474.5 880.63 474.5 880.63 294.23 920 294.23 920 248.65 790.5 248.65 790.5 294.23"/><polygon class="cls-1" points="642.34 230 771.85 230 771.85 183.38 694.14 183.38 694.14 137.79 756.31 137.79 756.31 91.17 694.14 91.17 694.14 49.73 771.85 49.73 771.85 3.11 642.34 3.11 642.34 230"/><path class="cls-1" d="M241.4,232.07c57,0,75.63-28,75.63-111.89v-8.29C317,28,298.38,0,241.4,0s-75.64,28-75.64,111.89v8.29C165.77,204.1,184.41,232.07,241.4,232.07ZM217.57,108.78c0-51.8,5.18-63.19,22.79-63.19h2.07c17.62,0,22.8,11.39,22.8,63.19v15.54c0,51.81-5.18,63.2-22.8,63.2h-2.07c-17.61,0-22.79-11.39-22.79-63.2Z"/><path class="cls-1" d="M81.85,187.52H77.7c-13.46,0-24.86-11.39-24.86-63.2V108.78c0-51.8,11.39-63.2,24.86-63.2h2.08c13.46,0,20.72,8.29,20.72,45.59h50.76V76.67c0-58-22.79-75.63-72.52-75.63C24.86,1,0,29,0,112.93v7.25H2.07c0,83.92,24.87,111.89,78.74,111.89,49.73,0,72.52-18.65,72.52-75.63v-6.21H102.57C101.53,178.2,94.28,187.52,81.85,187.52Z"/><path class="cls-1" d="M404.05,232.07c57,0,75.63-28,75.63-111.89v-8.29C479.68,28,461,0,404.05,0s-75.63,28-75.63,111.89v8.29C328.42,204.1,347.07,232.07,404.05,232.07ZM380.23,108.78c0-51.8,5.17-63.19,22.79-63.19h2.07c17.61,0,22.79,11.39,22.79,63.19v15.54c0,51.81-5.18,63.2-22.79,63.2H403c-17.62,0-22.79-11.39-22.79-63.2Z"/><path class="cls-1" d="M920,76.67c0-61.13-31.08-73.56-66.31-73.56H790.5V230h51.8V151.26h9.32L865.09,230H920l-23.83-91.17C907.57,130.54,920,114,920,76.67ZM849.55,103.6H842.3V49.73h7.25c11.4,0,20.72,5.18,20.72,26.94S861,103.6,849.55,103.6Z"/><polygon class="cls-1" points="489.01 411.31 486.94 411.31 464.14 248.65 434.1 248.65 404.05 248.65 381.26 411.31 380.23 411.31 366.76 248.65 312.88 248.65 343.96 474.5 411.31 474.5 434.1 320.13 435.13 320.13 456.89 474.5 525.27 474.5 555.32 248.65 501.44 248.65 489.01 411.31"/></g></g></svg>