<svg xmlns="http://www.w3.org/2000/svg" viewBox="0 0 960 370.19"><defs><style>.cls-1{fill:#f5fff5;}</style></defs><title>creative-quarterly</title><g id="Layer_2" data-name="Layer 2"><g id="Layer_1-2" data-name="Layer 1"><path class="cls-1" d="M136.15,6.93c5.55,0,10.54,1.11,15.25,5.27,3,2.77,4.44,8,4.72,15.25l1.11.56,3.05.27c0-10.53,1.1-19.68,2.77-24.68l-3.88-1.1-.56.27A3.62,3.62,0,0,1,155,6.1,9.33,9.33,0,0,1,150.85,5c-5-1.94-9.71-2.77-16.64-2.77C112.3,2.22,96.5,19.13,96.5,42.15c0,21.91,15,36.88,37.71,36.88,7.21,0,13.59-1.39,17.75-3.33a11.37,11.37,0,0,1,4.43-1.11c1.11,0,1.94.83,2.78,4.44l.55.28,4.44-1.39c-2.22-7.76-2.77-16.36-2.5-26.07l-3.6.28-.83.83c0,4.44-1.11,11.65-5,15.25-4.15,4.44-9.42,5.55-15.52,5.55C122.29,73.76,112.3,61,112.3,41,112.58,22.74,121.18,6.93,136.15,6.93Z"/><path class="cls-1" d="M227.94,31.06c0-14.42,0-20,.83-21.63.55-1.11,3.61-1.39,6.1-1.39,12.76,0,16.36,6.93,16.36,14.42,0,6.38-2.77,11.09-8,13.87-2.5,1.1-6.38,1.94-15.25,1.94V31.06ZM221,4.71a162.62,162.62,0,0,1-16.64-.55l-.28.28-.28,3.05.28.27c5.55.28,8,1.11,9.15,3.05,1.39,2.22,1.39,9.71,1.39,20.25V49.91c0,15.53-.28,18.86-2.22,21.08-1.11,1.38-3.61,2.21-9.43,2.49l-.28.28.28,3.6.28.28c5-.28,13.86-.55,17.75-.55,7.21,0,13.86.27,18.57.55l.28-.28.28-3.6-.28-.28c-5.54-.27-9.15-.55-10.26-2.77-1.11-1.94-1.66-9.43-1.66-20.24v-8c7.21,0,8.32.28,11.09,1.39,1.39.56,3.05,2.77,5.27,6.1,3.6,5.27,8.59,18.86,11.09,22.74,2.22,3.6,4.71,4.71,9.43,4.71,5,0,11.92-.27,14.14-.83l.56-.28.55-2.77-.55-.28a17.2,17.2,0,0,1-5.27-.83c-3.89-1.66-5.27-4.16-8.88-12.48-2.77-5.27-6.1-10.81-8.59-13.31a16.48,16.48,0,0,0-12.2-5.82v-.83c11.09-1.11,21.62-6.38,21.62-18.3,0-12.76-10.53-17.75-23.57-17.75C239,3.88,225.44,4.71,221,4.71Z"/><path class="cls-1" d="M325,77.09h29.67A147.31,147.31,0,0,1,376,78.47l1.11-1.66L379.9,53l-4.44-.55c-1.94,5.27-5.55,11.92-7.77,14.69-3.6,4.72-6.37,6.1-14.69,6.1-9.71,0-14.42-.27-17.19-3.6-1.39-1.94-2.22-7.77-2.22-17.75V41.31h8.59c9.43,0,11.1,6.38,12.48,14.7l4.72-1.11c-.28-3.6-.56-9.43-.56-13.59A149.43,149.43,0,0,1,360.21,25l-4.72-.27c-2.21,10-5.27,11.92-11.64,11.92H333.59V26.06c0-8.59.27-13.86,1.38-15.52,1.39-1.95,5.55-2.22,12.2-2.22,10,0,12.21,1.66,14.42,4.44A44.68,44.68,0,0,1,368.8,28l4.44-1.11L371.58,4.44,371,3.88a144.19,144.19,0,0,1-16.36.56H330.81c-6.65,0-15.25-.28-21.07-.56l-.28.28-.28,3.33.28.27c5.55,0,8,.84,9.15,2.78C320,12.75,320,20,320,30.5V49.36c0,15.53-.28,18.85-2.22,21.07-1.11,1.39-3.6,2.22-9.43,2.5l-.27.28.27,3.6.28.28C313.9,77.36,320.83,77.09,325,77.09Z"/><path class="cls-1" d="M439,46.58c2.77-8.31,7.21-19.41,11.09-28h1.11c3.61,9.7,7.49,20.24,10,28l-.27.56H439.52Zm-1.66,5.83L462,51.85l.56.28c3.05,8,4.71,13.59,4.71,16.92,0,3-3.05,4.15-10.26,4.43l-.27.56.27,3.6c7.21-.27,14.42-.55,19.69-.55s10.82.28,13.87.55l.27-3.88-.27-.28c-4.44-.27-6.1-1.94-7.77-4.43-2.77-4.16-9.7-26.62-19.69-53a47.39,47.39,0,0,1-3.32-15L457.54,0c-5.27,7.21-10,8.6-13.59,8.6L443.4,10a6,6,0,0,1,1.94,4.44,9.55,9.55,0,0,1-1.11,4.44c-8.32,21.07-16.09,41.59-19.69,48.8q-2.09,5-10.82,5.82l-.27.28.55,3.88a122.06,122.06,0,0,1,13.31-.55c6.66,0,12.48.27,17.75.55l.28-3.33-.28-.27c-8.87-.28-11.92-3.33-11.92-6.38s1.38-8.87,3.6-14.7Z"/><path class="cls-1" d="M564.85,50.74V9.43l.56-.83h3.05c6.93,0,9.7,1.38,13,5,1.94,2.77,5.55,9.7,8.6,16.36l1.11.27,2.49-1.11L592.31,5,591.2,3.33A89.2,89.2,0,0,1,573.45,5H543.23A79.62,79.62,0,0,1,526,3.33L524.92,5,523,29.39l3,1.11.56-.55c3-6.94,6.38-13.87,8.59-16.64,3.33-3.61,6.11-4.72,13.59-4.72h1.94l.56.84V49.91c0,15.53-.84,18.86-2.22,21.08-1.39,1.66-3.88,2.21-11.09,2.49l-.56.56.28,3,.55.55c6.66-.28,13.87-.55,18-.55,6.65,0,12.48.27,22.18.55l.28-.55.28-3.33-.56-.56c-6.93,0-10-.55-11.09-2.77C565.68,68.77,564.85,61.56,564.85,50.74Z"/><path class="cls-1" d="M651.09,32.44c0-15.8,1.11-19.41,3-21.35,1.39-1.39,3.61-2.5,10.26-2.77h.28L664.4,5l-.27-.28C658,5,651.09,5,647.21,5,640.28,5,632,5,625.3,4.43l-.27.28L624.75,8H625c6.1.28,8.87,1.11,10,3.05s2.22,9.7,2.22,20.24V50.19c0,15.53-1.11,18.85-3.05,21.07-1.11,1.67-3.61,2.22-10,2.5l-.28.28.28,3.6.27.28c5.83-.28,13-.56,16.92-.56,6.93,0,13.31.28,21.9.56l.28-.28.28-3.6-.28-.28c-6.38,0-9.15-.56-10.26-2.77-1.39-1.94-2.22-9.43-2.22-20V32.44Z"/><path class="cls-1" d="M728.73,29.12c-3.05-9.71-3.88-13-3.88-16.09s1.94-4.43,10.26-5l.56-.28-.56-3.6c-8.59.28-14.69.55-20.52.55-5,0-9.15,0-15.25-.27l-.27,3.33.55.27c3.6.56,5.82,1.94,7.21,4.72,2.5,4.43,7.76,21.07,20.52,52.13,1.94,4.71,4.71,11.92,5.27,14.42l1.94,1.11a25.7,25.7,0,0,1,7.49-2.22,58.71,58.71,0,0,1,2.49-7.49c5.55-12.2,11.65-26.9,16.09-38.27,3-8,5.54-14.41,8-18,1.66-3.05,3.33-5,8.32-6.1l.27-.28L777,4.44c-3.33.27-7.49.27-11.37.27-6.93,0-12.76-.27-18.58-.55l-.28,3.6L747,8c8.87,1.11,11.09,3.88,11.09,6.38,0,3-.83,7.21-3.33,15.25-2.49,8.6-8.32,23.57-12.75,33.83h-.84C737.89,54.63,732.34,38.82,728.73,29.12Z"/><path class="cls-1" d="M822.18,77.09h29.68a147.52,147.52,0,0,1,21.35,1.38l1.11-1.66L877.09,53l-4.44-.55c-1.94,5.27-5.54,11.92-7.76,14.69-3.61,4.72-6.38,6.1-14.7,6.1-9.7,0-14.42-.27-17.19-3.6-1.39-1.94-2.22-7.77-2.22-17.75V41.31h8.6c9.42,0,11.09,6.38,12.48,14.7l4.71-1.11c-.28-3.6-.56-9.43-.56-13.59A149.43,149.43,0,0,1,857.4,25l-4.71-.27c-2.22,10-5.27,11.92-11.65,11.92H830.78V26.06c0-8.59.28-13.86,1.39-15.52,1.38-1.95,5.54-2.22,12.2-2.22,10,0,12.2,1.66,14.42,4.44A45.06,45.06,0,0,1,866,28l4.43-1.11L868.77,4.44l-.83-.56a144.19,144.19,0,0,1-16.36.56H827.73c-6.66,0-15.25-.28-21.08-.56l-.27.28-.28,3.33.28.27c5.54,0,8,.84,9.15,2.78,1.38,2.21,1.38,9.42,1.38,20V49.36c0,15.53-.27,18.85-2.21,21.07-1.11,1.39-3.61,2.22-9.43,2.5l-.28.28.28,3.6.28.28C811.09,77.36,818,77.09,822.18,77.09Z"/><path class="cls-1" d="M30.78,202.7c-3.05,1.39-10.26,1.94-14.14,1.94-4.16,0-10.54-1.38-10.54-5.27,0-3.05,3.33-4.71,8.6-4.71,7.21,0,15.25,4.71,16.36,6.1S32.17,202.15,30.78,202.7ZM42.7,176.08c16.92,0,30.51-12.2,30.51-31.33,0-6.1-3-15.53-14.42-15.53-6.1,0-13,3.88-13,12.2,0,5,2.77,8,7.21,8,5.54,0,6.65-4.43,6.65-8.87,0-2.22.28-3.33,1.94-3.33,4.16,0,5.55,4.16,5.55,8,0,9.15-6.1,22.19-19.41,22.19-10.26,0-14.7-8.6-14.7-19.41,0-17.47,11.37-42.71,32.44-42.71,17.75,0,22.46,17.19,22.46,32.17a61.59,61.59,0,0,1-42.7,59.34c-8-6.1-19.41-11.65-28.84-11.65S0,190.78,0,197.71c0,8,7.49,11.65,16.64,11.65a77.45,77.45,0,0,0,21.07-3.05c8.6,5.27,38.55,36.32,62.12,36.32,19.68,0,31.05-10.26,31.05-18.58,0-4.15-2.77-9.7-9.7-9.7-4.44,0-7.76,4.71-7.76,8,0,2.78,1.1,3.88,3.6,6.1,1.94,1.94,1.11,7.49-5.55,7.49-10.53,0-35.21-16.36-59.34-33.83v-.55C71.82,195.49,104,177.47,104,139.76c0-16.64-7.21-39.93-38.27-39.93S18.86,129.5,18.86,150.3C18.3,169.43,30.5,176.08,42.7,176.08Z"/><path class="cls-1" d="M185.51,132.27l.56.28c4.71.27,9.42,1.11,11.36,3,1.11,1.11,2.78,4.43,3.06,8,.27,4.16,1.1,11.92,1.1,19.13v8c0,16.09-6.65,26.9-20.52,26.9-13,0-22.18-7.76-22.18-27.17V153.9c0-11.09.55-16.36,2.5-18.58,1.66-1.94,4.15-2.5,9.42-2.5l.56-.55-.28-2.77-.28-.28c-4.71.55-13.58.55-18,.55a160.16,160.16,0,0,1-17.19-.55l-.28.28-.28,3.32h.28c5.27.28,7.77,1.39,8.6,3.05.83,1.94.83,7.77.83,18.31v17.47c0,21.35,7.76,33.55,32.17,33.55,20,0,31.05-11.37,31.05-34.39v-10c0-18.86.28-23.29,1.94-25,1.39-1.66,3.89-2.77,6.66-3.32l.55-.28v-3.33c-2.77.56-9.7.56-14.14.56-6.65,0-10.26,0-17.19-.56v3.33Z"/><path class="cls-1" d="M268.15,171.65c2.77-8.32,7.21-19.42,11.09-28h1.11c3.6,9.7,7.48,20.24,10,28l-.28.55H268.42Zm-1.67,5.54,24.68-.55.56.27c3,8.05,4.71,13.59,4.71,16.92,0,3-3.05,4.16-10.26,4.44l-.28.55.28,3.61c7.21-.28,14.42-.56,19.69-.56s10.81.28,13.86.56l.28-3.89-.28-.27c-4.43-.28-6.1-1.94-7.76-4.44-2.77-4.16-9.71-26.62-19.69-53a47.55,47.55,0,0,1-3.33-15l-2.22-1.11c-5.26,7.21-10,8.6-13.58,8.6l-.56,1.38a5.91,5.91,0,0,1,1.94,4.44,9.4,9.4,0,0,1-1.11,4.44c-8.32,21.07-16.08,41.59-19.68,48.8q-2.08,5-10.82,5.83l-.28.27.56,3.88a122,122,0,0,1,13.31-.55c6.65,0,12.48.28,17.75.55l.27-3.32-.27-.28c-8.88-.28-11.93-3.33-11.93-6.38s1.39-8.87,3.61-14.7Z"/><path class="cls-1" d="M378,155.84c0-14.42,0-20,.84-21.63.55-1.11,3.6-1.39,6.1-1.39,12.75,0,16.36,6.94,16.36,14.42,0,6.38-2.78,11.1-8,13.87-2.5,1.11-6.38,1.94-15.26,1.94Zm-7.21-26.34a159.64,159.64,0,0,1-16.63-.56l-.28.28-.28,3.05.28.28c5.55.27,8,1.1,9.15,3,1.39,2.21,1.39,9.7,1.39,20.24v18.85c0,15.53-.28,18.86-2.22,21.08-1.11,1.39-3.61,2.22-9.43,2.5l-.28.27.28,3.61.28.28c5-.28,13.86-.56,17.74-.56,7.21,0,13.87.28,18.58.56l.28-.28.28-3.61-.28-.27c-5.54-.28-9.15-.56-10.26-2.78-1.11-1.94-1.66-9.43-1.66-20.24v-8c7.21,0,8.32.27,11.09,1.38,1.39.56,3.05,2.78,5.27,6.11,3.6,5.26,8.59,18.85,11.09,22.73,2.22,3.61,4.71,4.72,9.43,4.72,5,0,11.92-.28,14.14-.83l.56-.28.55-2.77-.55-.28a17.51,17.51,0,0,1-5.27-.83c-3.89-1.67-5.27-4.16-8.88-12.48-2.77-5.27-6.1-10.82-8.59-13.31a16.45,16.45,0,0,0-12.2-5.82v-.84c11.09-1.11,21.62-6.37,21.62-18.3,0-12.75-10.53-17.75-23.57-17.75C388.77,128.66,375.18,129.5,370.74,129.5Z"/><path class="cls-1" d="M503.57,175.53V134.21l.56-.83h3c6.94,0,9.71,1.38,13,5,1.94,2.77,5.54,9.7,8.59,16.36l1.11.28,2.5-1.11L531,129.77l-1.11-1.66a89,89,0,0,1-17.74,1.66H481.94a79.5,79.5,0,0,1-17.19-1.66l-1.11,1.66-1.94,24.4,3.05,1.11.55-.55c3.05-6.93,6.38-13.87,8.6-16.64,3.33-3.6,6.1-4.71,13.59-4.71h1.94l.55.83v40.48c0,15.53-.83,18.86-2.21,21.08-1.39,1.66-3.88,2.22-11.1,2.5l-.55.55.28,3.05.55.56c6.66-.28,13.87-.56,18-.56,6.65,0,12.47.28,22.18.56l.28-.56.27-3.33-.55-.55c-6.93,0-10-.56-11.09-2.78C504.4,193.83,503.57,186.07,503.57,175.53Z"/><path class="cls-1" d="M579.27,202.15h29.67a147.31,147.31,0,0,1,21.35,1.38l1.11-1.66L634.18,178l-4.44-.55A65.11,65.11,0,0,1,622,192.16c-3.61,4.72-6.38,6.11-14.7,6.11-9.71,0-14.42-.28-17.19-3.61-1.39-1.94-2.22-7.76-2.22-17.75V166.38h8.59c9.43,0,11.1,6.37,12.48,14.69l4.72-1.11c-.28-3.6-.56-9.42-.56-13.58A149.24,149.24,0,0,1,614.49,150l-4.72-.28c-2.21,10-5.26,11.92-11.64,11.92H587.87V151.13c0-8.6.27-13.87,1.38-15.53,1.39-1.94,5.55-2.22,12.2-2.22,10,0,12.21,1.66,14.42,4.44a44.87,44.87,0,0,1,7.21,15.25l4.44-1.11-1.66-22.46-.83-.56a144.19,144.19,0,0,1-16.36.56H584.82c-6.66,0-15.25-.28-21.08-.56l-.27.28-.28,3.33.28.27c5.54,0,8,.84,9.15,2.78,1.38,2.22,1.38,9.43,1.38,20v18.86c0,15.53-.27,18.85-2.22,21.07-1.11,1.39-3.6,2.22-9.42,2.5l-.28.28.28,3.6.27.28Z"/><path class="cls-1" d="M698.79,155.84c0-14.42,0-20,.83-21.63.55-1.11,3.6-1.39,6.1-1.39,12.76,0,16.36,6.94,16.36,14.42,0,6.38-2.77,11.1-8,13.87-2.5,1.11-6.38,1.94-15.25,1.94Zm-7.21-26.34a159.73,159.73,0,0,1-16.64-.56l-.28.28-.27,3.05.27.28c5.55.27,8,1.1,9.15,3,1.39,2.21,1.39,9.7,1.39,20.24v18.85c0,15.53-.28,18.86-2.22,21.08-1.11,1.39-3.6,2.22-9.43,2.5l-.27.27.27,3.61.28.28c5-.28,13.87-.56,17.75-.56,7.21,0,13.86.28,18.58.56l.27-.28.28-3.61-.28-.27c-5.54-.28-9.15-.56-10.26-2.78-1.1-1.94-1.66-9.43-1.66-20.24v-8c7.21,0,8.32.27,11.09,1.38,1.39.56,3,2.78,5.27,6.11,3.61,5.26,8.6,18.85,11.09,22.73,2.22,3.61,4.72,4.72,9.43,4.72,5,0,11.92-.28,14.14-.83l.56-.28.55-2.77-.27-.28a17.51,17.51,0,0,1-5.27-.83c-3.89-1.67-5.27-4.16-8.88-12.48-2.77-5.27-6.1-10.82-8.59-13.31a16.45,16.45,0,0,0-12.2-5.82v-.84c11.09-1.11,21.62-6.37,21.62-18.3,0-12.75-10.53-17.75-23.57-17.75C709.6,128.66,696,129.5,691.58,129.5Z"/><path class="cls-1" d="M814.7,157c0-15.81,1.38-19.41,3-21.35,1.11-1.67,4.43-2.5,11.09-2.78h.28l-.28-3.32-.28-.28c-6.38.28-13.59.28-17.19.28-6.66,0-15.25,0-21.08-.56l-.27.28-.28,3.05.28.27c5.54.28,8,1.11,9.15,3.05,1.11,2.22,1.38,9.71,1.38,20.25v18.85c0,15.53-.27,18.86-2.21,21.08-1.39,1.38-3.61,2.22-9.43,2.49l-.28.28.28,3.61.28.27c5-.27,11.92-.55,16.08-.55h30c9.15,0,15,.55,18.58,1.39l2.21-1.67L858.79,173l-3.89-.83-.83.28a59.24,59.24,0,0,1-8,19.13c-3,4.16-6.1,5.82-13.86,5.82-9.15,0-11.37-1.11-14.42-4.16-1.94-1.94-3-5.27-3-21.35V157Z"/><path class="cls-1" d="M913.41,180c0,10.26-.55,13.59-1.94,15.81-1.11,1.66-3.88,2.22-10.26,2.5l-.27.27.27,3.61.28.28c5.82-.28,13-.56,17.19-.56,6.93,0,13,.28,20,.56l.27-.28.28-3.61-.28-.27c-6.1,0-9.15-.56-10.26-2.78-1.11-1.94-1.11-8.87-1.11-15.8V169.43a5.29,5.29,0,0,1,1.39-3.61c4.71-6.1,11.92-16.08,15-21.07,2.78-4.44,5.27-7.77,7.49-9.43a15,15,0,0,1,8.32-2.5l.28-.27-.28-3.61a126.49,126.49,0,0,1-14.42.56c-6.65,0-11.64-.28-16.36-.56l-.28,3.61.28.27c7.76.28,11.09,1.94,11.09,5,0,2.22-.83,5-4.16,10.26a168.34,168.34,0,0,1-10.26,14.15c-11.09-11.93-16.91-23-16.91-26.07,0-1.94,3-3.33,9.7-3.33l.28-.27-.28-3.61c-6.37.56-13.86.56-17.74.56-6.66,0-12.2-.28-17.75-.56l-.28,3.61.28.27a11.44,11.44,0,0,1,10.26,5.83c4.44,6.93,12.48,18.85,18.86,27.73a5.42,5.42,0,0,1,1.38,3.6v10Z"/><path class="cls-1" d="M129.77,330.26c1.11-4.16,5.55-13,9.43-13,1.67,0,1.67,1.66,1.67,2.77a8,8,0,0,1-1.67,5.27c-1.66,2.22-6.38,4.71-9.43,5Zm-.83,2.49c6.66-1.38,12.76-4.15,15-6.1a8.45,8.45,0,0,0,2.21-5.54c0-4.72-2.77-6.38-5.54-6.38-3.88,0-7.21,2.22-10.26,5.27-4.16,4.16-8.32,13.31-8.32,20.52,0,3.88,1.39,9.15,7.76,9.15,7.21,0,10.82-6.66,12.48-10.26v-.28l-1.38-.83h-.28c-1.67,3.33-4.16,7.76-8.6,7.76-3.6,0-4.16-3.05-4.16-5.82A28.74,28.74,0,0,1,128.94,332.75Zm-18-38.82c0-.83-.83-2.21-1.39-1.94-2.77.28-7.76,1.11-12.2,1.94v.28l.28,1.39c4.16,0,5.54.27,5.54,2.21,0,2.22-5.27,16.64-16.91,50.47l.55.83,5-.83.56-.55c3.88-15.53,14.42-28.29,18.3-28.29,1.67,0,2.22,1.39,2.22,3.61,0,8.59-4.44,20.8-7.21,20.8-.83,0-1.66-.28-2.5-2.22-.55-1.11-.83-1.11-1.66-1.11-1.66,0-3,1.94-3,4.16,0,2.49,1.39,4.43,3.88,4.43,1.94,0,3.88-1.66,6.1-4.15,4.16-4.44,10.82-14.42,10.82-22.74,0-2.78-.83-7.49-5.55-7.49-5.82,0-12.48,8.87-15,13.87l-.56-.28C102.88,315,109,297.82,110.92,293.93Zm-51.58,23.3c0,1.38-1.38,1.66-2.22,1.66-2.22,0-4.16-2.22-4.16-5,0-7.76,7.21-9.43,11.93-9.43a32.23,32.23,0,0,1,7.21.83l.28.28L66,330c-2.78,10.26-3.88,14.14-5,15.25-.84.84-2.78,1.39-5.27,1.39l-.28.28v2.21c3.33-.27,7.21-.55,9.71-.55,3.6,0,8,.28,11.92.55l.28-.27.27-1.94-.27-.28c-4.72-.28-7.21-.83-7.21-3.61,0-1.94.55-4.15,2.49-12.47l6.1-24.13.28-.28a37.13,37.13,0,0,0,9.71,1.67c5.54,0,9.42-4.44,9.42-8,0-2.5-1.38-4.16-3.6-4.16a2.91,2.91,0,0,0-3,3,3.17,3.17,0,0,0,1.66,2.49c.83.56,1.67,1.11,1.67,1.67,0,1.11-.84,1.66-2.5,1.66-5.27,0-14.14-5.27-26.34-5.27-11.93,0-16.92,6.93-16.92,13.31,0,2.78,1.11,8.88,8.6,8.88A6.5,6.5,0,0,0,64.33,315c0-1.39-.83-4.16-3.88-4.16a3.45,3.45,0,0,0-3.33,3.6,2.53,2.53,0,0,0,1.67,2.5C59.06,316.67,59.34,317,59.34,317.23Z"/><path class="cls-1" d="M253.17,307.8c-.55,2.49-1.66,6.38-2.77,9.7l-5.55.28-.27.28-.56,2.49.28.28,5.27-.28v.28c-1.39,4.16-4.16,12.48-7.21,21.91a10.7,10.7,0,0,0-.83,4.43,3.27,3.27,0,0,0,3.05,2.78c4.71,0,11.92-7.21,15-10.82v-.55l-1.39-1.67h-.27c-1.94,2.78-6.94,7.21-8.32,7.21a1,1,0,0,1-1.11-1.11c0-2.21,3-11.64,7.21-23.29l8-.28.28-.27.83-2.5-.28-.28-7.76.56-.28-.28c1.11-3.33,3.05-8,4.44-11.37l-.83-.55C258.72,305.86,255.67,307,253.17,307.8ZM226.27,333c2.22,3.05,3.61,6.1,3.61,9.43,0,2.5-1.39,4.44-3.61,4.44s-4.15-1.67-5.26-4.72c-.56-1.66-1.11-2.49-2.5-2.49-1.66,0-3,2.22-3,3.88a5.76,5.76,0,0,0,1.39,3.6,9.87,9.87,0,0,0,6.65,2.5c5.55,0,11.37-6.38,11.37-11.65,0-1.94-.83-4.15-2.5-6.93l-2.77-3.88c-1.94-3-2.5-3.88-2.5-5.82,0-1.67,1.11-4.44,3.33-4.44,1.67,0,2.78,1.39,3.33,3.05s.83,2.22,1.94,2.22a3.64,3.64,0,0,0,3.33-3.61c0-2.49-3.33-4.16-7.21-4.16-4.44,0-9.71,5.83-9.71,10,0,2.22.28,3.6,2.22,6.38Zm-26.34-2.77c1.11-4.16,5.55-13,9.43-13,1.66,0,1.66,1.66,1.66,2.77a8,8,0,0,1-1.66,5.27c-1.39,2.22-6.38,4.71-9.43,5Zm-.55,2.49c6.65-1.38,12.75-4.15,15-6.1a8.45,8.45,0,0,0,2.22-5.54c0-4.72-2.77-6.38-5.55-6.38-3.88,0-7.21,2.22-10.26,5.27-4.16,4.16-8.32,13.31-8.32,20.52,0,3.88,1.39,9.15,7.77,9.15,7.21,0,10.81-6.66,12.47-10.26v-.28l-1.38-.83H211c-1.66,3.33-4.16,7.76-8.59,7.76-3.61,0-4.16-3.05-4.16-5.82A28.33,28.33,0,0,1,199.38,332.75Zm-33.83,9.16c0-8.88,11.37-22.74,16.08-22.74,1.66,0,1.94,1.11,1.94,2.22,0,8.87-8.32,24.68-13.87,24.68A4,4,0,0,1,165.55,341.91Zm18.58-48.53a1.4,1.4,0,0,0-1.39-1.67c-2.77.28-8.6,1.39-13,2v.27l.27,1.67c4.44,0,5.55.27,5.55,2.21,0,2.22-4.72,12.76-16.36,45.2l.28,1.39a12.61,12.61,0,0,0,8,5.27,13.26,13.26,0,0,0,7.21-2.5c6.1-3.88,15.53-16.64,15.53-26.9,0-2.21-1.11-5.54-4.44-5.54-5.27,0-10.54,4.71-14.42,9.7l-.28-.27C175,313.9,181.35,298.09,184.13,293.38Z"/><path class="cls-1" d="M321.66,309.46c1.67-6.1,3.33-10,5.55-12.2a5.8,5.8,0,0,1,4.16-1.94c1.38,0,1.66.56,1.66,2.77s.56,4.16,3.05,4.16c3.05,0,4.16-2.22,4.16-4.43,0-3.61-3.05-5.55-7.76-5.55a14.66,14.66,0,0,0-9.71,3.6c-4.43,3.61-6.1,8.32-7.48,12.76l-2.22,7.76-7.21.28-.83,2.77.27.28,6.94-.55v.27l-.84,2.78c-1.38,4.71-5,18.3-8,28.83-1.66,6.11-3.05,10-5,12.48a5.24,5.24,0,0,1-4.16,2.22c-1.38,0-1.94-.55-1.94-2.77s-.28-3.61-2.22-3.61a4.55,4.55,0,0,0-4.43,4.44c0,4.16,3.6,5.27,6.37,5.27,3.33,0,6.38-1.11,9.71-4.16a36.76,36.76,0,0,0,7.76-12.48c2.5-7.49,6.1-21.35,8-28.28l1.11-4.72,9.43-.27.83-2.5-.27-.28-8.88.56-.27-.28Zm-28,7.77c2.22,0,2.22,2.49,2.22,4.16,0,11.09-9.16,24.95-13.59,24.95-2.22,0-2.78-1.66-2.78-3.88C279.52,334.7,287.28,317.23,293.66,317.23Zm-2.22-2.5c-7.21,0-16.64,11.92-16.64,24.13,0,7.76,5.27,10.81,9.43,10.81,6.38,0,16.08-10.54,16.08-24.12,0-4.44-.83-6.94-2.77-8.88A8.54,8.54,0,0,0,291.44,314.73Z"/><path class="cls-1" d="M408.18,307.8c-.55,2.49-1.66,6.38-2.77,9.7l-5.55.28-.28.28-.55,2.49.28.28,5.27-.28v.28c-1.39,4.16-4.16,12.48-7.21,21.91a10.59,10.59,0,0,0-.84,4.43,3.27,3.27,0,0,0,3.05,2.78c4.72,0,11.93-7.21,15-10.82v-.55l-1.39-1.67h-.28c-1.94,2.78-6.93,7.21-8.31,7.21a1,1,0,0,1-1.11-1.11c0-2.21,3-11.64,7.21-23.29l8-.28.27-.27.84-2.5-.28-.28-7.76.56-.28-.28c1.11-3.33,3.05-8,4.44-11.37l-.84-.55A32.11,32.11,0,0,1,408.18,307.8Zm-13,17.75c1.11-.84,2.49-5,2.49-7.21,0-1.67-.27-3.61-2.21-3.61-4.72,0-10.26,8.6-13.31,14.42l-.28-.28c1.66-5,3.33-10.26,3.33-11.64,0-1.67-.84-2.5-1.94-2.5-2.78,0-7.21,1.67-13,7.76v.28l1.11,1.67h.28c1.94-1.95,4.71-4.16,6.1-4.16.83,0,1.11.83,1.11,1.66,0,1.66-2.5,11.09-8.32,26.9l.55.83,5.27-1.11.56-.83a80.09,80.09,0,0,1,4.71-14.42c4.72-7.76,8.32-11.92,10.26-11.92,1.39,0,2.22,1.38,2.5,3.88l.83.28ZM360.76,317a5.18,5.18,0,0,0-4.16-2.22c-4.43,0-10.26,4.16-15.25,11.37-4.16,6.38-6.37,12.48-6.37,16.36,0,3.05.83,6.65,5.26,6.65,5.27,0,11.1-8,13.59-12.2l.28.28a34.67,34.67,0,0,0-2.5,9.43c0,1.66,1.11,2.49,2.78,2.49,2.77,0,9.15-5,12.75-11.64v-.28l-1.38-1.39h-.28c-1.94,3.33-6.1,7.77-7.21,7.77-.56,0-.56-.28-.56-.83,0-2.22,3.33-12.48,8.6-26.07-.28-.83-2.22-1.66-3.33-1.66l-1.66,1.66h-.56V317ZM341.63,340.8c0-2.78,1.66-9.71,5.27-15.25,3.33-5.27,7.21-8.32,9.15-8.32,1.66,0,2.77,1.11,2.77,3,0,6.38-11.09,24.4-15.25,24.4C341.91,344.68,341.63,342.74,341.63,340.8Z"/><path class="cls-1" d="M444.23,320a7.23,7.23,0,0,1,4.16-1.11c1.38,0,2.77.28,2.77,1.66s-1.11,1.95-2.49,1.95A5.66,5.66,0,0,1,444.23,320Zm21.91,13.31c0,1.66-1.67,2.5-3.05,2.5-3.89,0-5.55-2.78-5.55-6.38,0-4.44,3.33-6.93,7.21-6.93,6.38,0,9.7,4.15,9.7,8.87,0,10.81-10.81,13-17.74,13-11.1,0-19.14-4.16-19.14-13.31a11.77,11.77,0,0,1,4.72-9.7,9.74,9.74,0,0,0,6.93,3.33c2.5,0,4.71-.84,4.71-4.16,0-2.78-2.77-3.61-5.54-3.61a12.48,12.48,0,0,0-5.27,1.39,10.64,10.64,0,0,1-1.11-4.71c0-4.16,2.77-8.6,7.76-8.6,4.44,0,7.21,2.77,7.21,6.38a8.44,8.44,0,0,1-1.11,4.16c0,.55.56.83,1.11.83a7.42,7.42,0,0,0,5-7.21c0-6.1-5.26-8.88-10.53-8.88-9.43,0-13,6.94-13,12.48a10.93,10.93,0,0,0,2.22,6.93V320c-3.88,2.22-9.15,7.21-9.15,14.42,0,13.31,12.76,16.36,22.19,16.36,15,0,24.12-7.21,24.12-18a10.37,10.37,0,0,0-4.16-8.6v-.28c7.77,1.39,14.42-3.05,14.42-10.26a7.7,7.7,0,0,0-8-8c-2.77,0-6.1,1.39-6.1,5a3,3,0,0,0,3.33,3.33,2.61,2.61,0,0,0,2.77-2.77c0-1.11.55-2.5,1.66-2.5,2.5,0,3.88,1.94,3.88,4.44,0,5-3.6,6.1-6.93,6.1s-8.32-1.66-11.64-1.66c-7.77,0-12.2,5.82-12.2,12.2,0,4.16,2.77,8.87,8.59,8.87,3.88,0,6.93-2.5,6.93-6.38,0-2.77-1.38-5.27-4.43-5.27-2.22,0-3.61.84-3.61,3.05a2.71,2.71,0,0,0,2.77,2.5C465.86,331.92,466.14,332.2,466.14,333.31Z"/><path class="cls-1" d="M628.63,322.49h0l.83,1.67h.28c1.94-1.67,4.44-3.88,6.1-3.88.56,0,1.11.27,1.11,1.38,0,2.78-4.16,15.53-8.6,27.45l.56.56,5-1.11.83-.83c4.16-16.64,15.25-27.18,17.75-27.18.55,0,1.38.28,1.38.84,0,2.49-6.93,19.41-8.31,23-.84,1.67-1.11,2.22-1.11,3.05,0,1.39,1.38,2.22,2.77,2.22,4.71,0,12.48-7.21,14.7-10v-.28l-1.11-1.66h-.56c-1.94,2.21-6.38,6.65-8,6.65a.59.59,0,0,1-.55-.55c0-.84,5.54-14.7,6.93-18s2.22-6.1,2.22-7.76-.84-2.77-3.61-2.77c-5.55,0-12.76,8.59-16.64,14.41l-.27-.27c1.66-4.44,3.32-9.71,3.32-11.93,0-1.66-1.11-2.21-2.77-2.21C637.23,314.73,632,319.17,628.63,322.49Zm-23.57,28c-8.6,2.77-13.31,5.27-13.31,10.26,0,6.66,10.26,8.87,15.81,8.87,7.76,0,20.24-2.49,20.24-13,0-4.16-5-7.21-14.14-9.43-7.49-1.66-8.88-3.32-8.88-5.27,0-1.66,1.39-3.88,4.44-4.43a16.63,16.63,0,0,0,9.43-3.05,15.2,15.2,0,0,0,4.71-10.82c0-1.66-.27-3.88-1.11-4.71v-.56a6,6,0,0,1,2.78-1.11c1.66,0,2.49,1.39,3.05,2.5l1.38-.28a12.92,12.92,0,0,0,1.11-4.71,2.11,2.11,0,0,0-1.94-2.22c-2.22,0-4.71,1.94-6.93,4.16-.56.56-.83.28-1.66-.28a8.94,8.94,0,0,0-5.83-1.94c-10.26,0-13.59,9.71-13.59,14.15,0,3.88,1.39,6.65,4.44,8,.56.27.56.83-.28,1.38-3.32,1.67-5.54,3.61-5.54,6.38-.28,3.05,3,4.72,5.82,6.1Zm4.72,1.11c7.76,1.94,11.36,5.27,11.36,7.77,0,4.43-2.49,7.21-10.26,7.21-4.71,0-12.47-2.5-12.47-6.66,0-4.71,3.6-6.65,7.76-8A13.45,13.45,0,0,1,609.78,351.61Zm4.43-34.94c2.5,0,3.33,2.78,3.33,5.27,0,4.44-2.5,13.59-7.49,13.59-3.33,0-3.6-3.33-3.6-5.55C606.17,325.55,609.5,316.67,614.21,316.67Zm-23.29-1.94c-4.44,0-9.71,4.44-12.48,7.76v.28l1.11,1.67h.28c1.66-1.95,4.43-4.16,5.82-4.16.55,0,.83.27.83,1.11,0,1.94-3.88,11.92-8,22.18a10.72,10.72,0,0,0-.83,3.6c0,1.39.83,2.5,2.77,2.5,5.27,0,12.2-8,13.87-10.26v-.83l-1.39-1.39h-.28c-1.38,2.22-5.54,6.38-7.21,6.38-.55,0-.83-.28-.83-.55,0-1.67,5.27-14.7,6.66-18s2.49-6.38,2.49-7.76C594,315.84,593.41,314.73,590.92,314.73Zm-.28-15c0,3.32,2.22,3.88,3.61,3.88,2.77,0,4.71-2.77,4.71-5.55s-1.66-3.88-3.61-3.88C593.14,294.21,590.64,297,590.64,299.76Zm-28,33.27c2.22,3.05,3.61,6.1,3.61,9.43,0,2.5-1.39,4.44-3.61,4.44s-4.16-1.67-5.27-4.72c-.55-1.66-1.1-2.49-2.49-2.49-1.66,0-3,2.22-3,3.88a5.76,5.76,0,0,0,1.39,3.6,9.89,9.89,0,0,0,6.65,2.5c5.55,0,11.37-6.38,11.37-11.65,0-1.94-.83-4.15-2.5-6.93L566,327.21c-1.94-3-2.49-3.88-2.49-5.82,0-1.67,1.1-4.44,3.32-4.44,1.67,0,2.78,1.39,3.33,3.05s.83,2.22,1.94,2.22a3.63,3.63,0,0,0,3.33-3.61c0-2.49-3.33-4.16-7.21-4.16-4.44,0-9.7,5.83-9.7,10,0,2.22.27,3.6,2.21,6.38Zm-26.06-2.77c1.11-4.16,5.54-13,9.43-13,1.66,0,1.66,1.66,1.66,2.77a8,8,0,0,1-1.66,5.27c-1.67,2.22-6.38,4.71-9.43,5Zm-.83,2.49c6.65-1.38,12.75-4.15,15-6.1a8.45,8.45,0,0,0,2.22-5.54c0-4.72-2.77-6.38-5.55-6.38-3.88,0-7.21,2.22-10.26,5.27-4.16,4.16-8.32,13.31-8.32,20.52,0,3.88,1.39,9.15,7.77,9.15,7.21,0,10.81-6.66,12.48-10.26v-.28l-1.39-.83h-.28c-1.66,3.33-4.16,7.76-8.59,7.76-3.61,0-4.16-3.05-4.16-5.82A28.33,28.33,0,0,1,535.74,332.75Zm-16.36-38.82h0v1.67c4.71,0,6.1.27,6.1,2.22,0,1.38-2.22,6.37-6.94,19.68h-.27a3.35,3.35,0,0,0-3.61-2.77c-3.6,0-9.7,4.16-14.42,11.65-4.15,6.37-6.37,12.2-6.37,16.63,0,2.78.83,6.38,5.27,6.38,5.26,0,11.09-7.76,13.58-12.2l.28.28c-1.66,4.71-2.5,8.32-2.5,9.43,0,1.66,1.39,2.49,3,2.49,2.78,0,8.88-5.27,12.48-11.64v-.28l-1.38-1.39h-.28c-1.94,3.33-6.38,7.77-7.21,7.77-.56,0-.56-.28-.56-.84,0-2.21,3-12.47,8-26.06,5.54-14.7,7.21-19.41,9.7-23.29a1.22,1.22,0,0,0-1.11-1.67A139.71,139.71,0,0,0,519.38,293.93ZM500.52,340.8c0-2.78,1.94-9.71,5.27-15.25,3.33-5.27,6.38-8.05,8.6-8.05s2.77,1.67,2.77,4.16c0,5.55-10.54,23.3-15,23.3C500.8,344.68,500.52,342.46,500.52,340.8Z"/><path class="cls-1" d="M675.22,345.23c0-3.6-1.94-5.82-4.72-5.82a4.66,4.66,0,0,0-4.71,4.71,3.56,3.56,0,0,0,3.6,3.89c.84,0,1.11.27,1.11,1.38,0,3.61-4.16,8.32-10,9.71v.55l1.11,1.39C668.84,359.93,675.22,353,675.22,345.23Z"/><path class="cls-1" d="M900.38,370.19c3.33,0,6.1-1.39,8.88-3.88,3.32-2.78,9.15-10.26,12.47-15.53C926.17,345,935,328.87,935,319.17c0-2.78-.83-5-3.32-5a4.81,4.81,0,0,0-4.44,4.71,5.33,5.33,0,0,0,1.66,3.6c.83.84.83,1.67.83,3.05,0,4.72-3.88,14.15-7.76,20.8a38.62,38.62,0,0,0,.28-5.54c0-6.66-.56-18.31-3.33-23.3a5,5,0,0,0-4.16-2.77c-3.6,0-7.76,5.27-9.15,8.32v.28l1.66,1.1h.28c.83-1.94,2.5-4.71,3.88-4.71.83,0,1.67.28,2.22,1.94,2.22,4.16,3.33,15.25,3.33,21.35a51.77,51.77,0,0,1-.56,9.43c-1.38,3.05-6.93,9.71-10,11.65-1.39.83-2.22,1.38-3.6,1.38-.84,0-1.67-.55-1.67-1.94,0-1.94-.55-3.6-2.77-3.6a5,5,0,0,0-5,5C893.73,368.53,896.5,370.19,900.38,370.19Zm-6.93-26.9c0-1.38,1.38-6.38,4.16-13.31,4.71-13,11.92-32.16,13.59-35.77.27-.83-.84-2.22-1.39-1.94-2.77.28-8.6,1.11-13,1.94v.28l.27,1.38c4.44,0,5.83.28,5.83,2.22,0,2.22-4.16,11.65-15.81,45.48a9.72,9.72,0,0,0-.83,3.33c0,1.11,1.66,2.49,3.33,2.49,4.71,0,11.37-7.21,14.42-10.81h0l-.84-1.67h-.27c-1.94,2.78-7.21,7.21-8,7.21C893.73,344.12,893.45,343.85,893.45,343.29Zm-6.38-17.74c1.11-.84,2.5-5,2.5-7.21,0-1.67-.28-3.61-2.22-3.61-4.72,0-10.26,8.6-13.31,14.42l-.28-.28c1.67-5,3.33-10.26,3.33-11.64,0-1.67-.83-2.5-1.94-2.5-2.77,0-7.21,1.67-13,7.76v.28l1.1,1.67h.28c1.94-1.95,4.72-4.16,6.1-4.16.83,0,1.11.83,1.11,1.66,0,1.66-2.49,11.09-8.32,26.9l.56.83,5.27-1.11.55-.83a79.33,79.33,0,0,1,4.72-14.42c4.71-7.76,8.31-11.92,10.26-11.92,1.38,0,2.21,1.38,2.49,3.88l.83.28Zm-43.26,4.71c1.11-4.16,5.55-13,9.43-13,1.66,0,1.66,1.66,1.66,2.77a8,8,0,0,1-1.66,5.27c-1.66,2.22-6.38,4.71-9.43,5Zm-.83,2.49c6.66-1.38,12.76-4.15,15-6.1a8.5,8.5,0,0,0,2.21-5.54c0-4.72-2.77-6.38-5.54-6.38-3.89,0-7.21,2.22-10.26,5.27-4.16,4.16-8.32,13.31-8.32,20.52,0,3.88,1.38,9.15,7.76,9.15,7.21,0,10.82-6.66,12.48-10.26v-.28l-1.39-.83h-.27c-1.67,3.33-4.16,7.76-8.6,7.76-3.61,0-4.16-3.05-4.16-5.82A28.74,28.74,0,0,1,843,332.75ZM826.62,307.8c-.55,2.49-1.66,6.38-2.77,9.7l-5.55.28-.28.28-.55,2.49.28.28,5.27-.28v.28c-1.39,4.16-4.16,12.48-7.21,21.91a10.59,10.59,0,0,0-.84,4.43,3.27,3.27,0,0,0,3,2.78c4.72,0,11.93-7.21,15-10.82v-.55l-1.39-1.67h-.28c-1.94,2.78-6.93,7.21-8.31,7.21a1,1,0,0,1-1.11-1.11c0-2.21,3.05-11.64,7.21-23.29l8-.28.28-.27.83-2.5-.28-.28-7.76.56-.28-.28c1.11-3.33,3-8,4.44-11.37l-.83-.55C832.17,305.86,829.12,307,826.62,307.8Zm-13,17.75c1.11-.84,2.49-5,2.49-7.21,0-1.67-.27-3.61-2.21-3.61-4.72,0-10.26,8.6-13.31,14.42l-.28-.28c1.66-5,3.33-10.26,3.33-11.64,0-1.67-.83-2.5-1.94-2.5-2.78,0-7.21,1.67-13,7.76v.28l1.11,1.67H790c1.94-1.95,4.71-4.16,6.1-4.16.83,0,1.11.83,1.11,1.66,0,1.66-2.5,11.09-8.32,26.9l.56.83,5.26-1.11.56-.83A80.09,80.09,0,0,1,800,333.31c4.72-7.76,8.32-11.92,10.26-11.92,1.39,0,2.22,1.38,2.5,3.88l.83.28ZM779.2,317a5.19,5.19,0,0,0-4.16-2.22c-4.43,0-10.26,4.16-15.25,11.37-4.16,6.38-6.37,12.48-6.37,16.36,0,3.05.83,6.65,5.26,6.65,5.27,0,11.1-8,13.59-12.2l.28.28a34.67,34.67,0,0,0-2.5,9.43c0,1.66,1.11,2.49,2.78,2.49,2.77,0,9.15-5,12.75-11.64v-.28l-1.38-1.39h-.28c-1.94,3.33-6.1,7.77-7.21,7.77-.56,0-.56-.28-.56-.83,0-2.22,3.33-12.48,8.6-26.07-.28-.83-2.22-1.66-3.33-1.66l-1.66,1.66h-.56V317ZM760.07,340.8c0-2.78,1.66-9.71,5.27-15.25,3.33-5.27,7.21-8.32,9.15-8.32,1.66,0,2.77,1.11,2.77,3,0,6.38-11.09,24.4-15.25,24.4C760.35,344.68,760.07,342.74,760.07,340.8ZM741.77,343c0-1.94,3.05-11.64,9.43-27.73l-.56-.55-5.27,1.11-.83.83c-5,18.3-15.25,27.18-18,27.18-.56,0-.84-.28-.84-1.11,0-2.5,5.83-16.36,8.32-22.19a19.07,19.07,0,0,0,.84-3.33c0-1.66-.84-2.49-2-2.49-4.71,0-10,3.88-13.31,7.76v.28l.84,1.39h.27c1.67-2.22,4.44-4.16,5.83-4.16.55,0,.83.27.83,1.38,0,1.39-4.72,12.76-6.38,17.47-1.39,3.61-1.94,5.83-1.94,7.21a2.83,2.83,0,0,0,2.77,3.05c6.1,0,13-8.32,16.09-13.31l.27.28c-1.94,4.71-3.33,9.43-3.33,10.81,0,1.67,1.39,2.22,2.78,2.22,4.71,0,11.37-6.38,13.86-9.7v-.83l-1.11-1.39h-.27c-1.39,2.22-6.38,6.65-8.05,6.65C741.77,343.85,741.49,343.57,741.77,343Zm-39.38-.27c-2.49,7.21-6.1,21.07-8,23-1.11,1.11-3.88,1.67-5.55,1.67l-.27.27.27,1.67.28.28a99.31,99.31,0,0,1,12.2-.84c1.67,0,5.82.28,7.77.28l.27-.28.28-1.66-.28-.28c-5,0-6.65-.55-6.65-2.49,0-1.11.27-3.33,3.6-15.25,2.78-9.71,7.77-25.79,11.09-33.28L716,314.73a21.36,21.36,0,0,0-4.44,2.77c-.28-1.38-2.49-2.77-5.27-2.77-9.43,0-19.69,14.14-19.69,26.34,0,5.27,3,8.05,6.11,8.05,3.32,0,7.21-3.05,9.7-6.66v.28Zm-10-1.94c0-9.15,8-23.57,13.31-23.57,2.22,0,2.77,2.49,2.77,5.82,0,5.55-8,22.18-13.31,22.18C693,345.23,692.41,343.85,692.41,340.8Z"/></g></g></svg>