<svg xmlns="http://www.w3.org/2000/svg" viewBox="0 0 700 838.33"><defs><style>.cls-1{fill:#f5fff5;}</style></defs><title>darden-studio</title><g id="Layer_2" data-name="Layer 2"><g id="Layer_1-2" data-name="Layer 1"><path class="cls-1" d="M694.11,825.58c0,.49-4.41,6.38-4.9,6.38H677c-.5,0-4.91-5.89-4.91-6.38V794.67c0-.49,4.42-6.37,4.91-6.37h12.26c.49,0,4.9,5.88,4.9,6.37Zm-2.94-43.17H675a2.55,2.55,0,0,0-2,1c-2.45,3-7.85,9.32-7.85,9.81v34.34c0,.49,4.91,6.87,7.85,9.81a3.71,3.71,0,0,0,2,1h15.21a2.55,2.55,0,0,0,2-1c2.45-2.94,7.85-9.32,7.85-9.81V793.2c0-.49-6.38-8.83-8.83-10.79m-56.41,55.92h0a2.82,2.82,0,0,0,2.94-2.94v-50a3.16,3.16,0,0,0-2.94-2.94h0a3.16,3.16,0,0,0-2.94,2.94v50A3.16,3.16,0,0,0,634.76,838.33Zm-61.81,0h21.58a2.55,2.55,0,0,0,2-1c2.45-2.94,7.84-9.32,7.84-9.81V793.2c0-.49-4.9-6.86-7.84-9.81a3.78,3.78,0,0,0-2-1H573a3.16,3.16,0,0,0-2.94,2.94v50A3.16,3.16,0,0,0,573,838.33Zm3.43-8.83V791.24a3.17,3.17,0,0,1,3-2.94h14.22c.49,0,4.91,5.88,4.91,6.37v30.91c0,.49-4.42,6.38-4.91,6.38H579.33C577.36,832.45,576.38,831,576.38,829.5Zm-36.79-47.09h0a2.82,2.82,0,0,0-2.94,2.94v40.23c0,.49-5.39,6.38-5.88,6.38H519c-.49,0-5.88-5.89-5.88-6.38V785.35a3.17,3.17,0,0,0-2.95-2.94h0a3.16,3.16,0,0,0-2.94,2.94v42.19c0,.49,5.89,7.36,8.83,9.81a3.71,3.71,0,0,0,2,1h14.23a2.55,2.55,0,0,0,2-1c2.94-2.94,8.83-9.81,8.83-9.81V785.35C542.54,783.88,541.07,782.41,539.59,782.41Zm-74.07,8.83v44.15a3.16,3.16,0,0,0,2.94,2.94h0a3.16,3.16,0,0,0,3-2.94V791.24a3.16,3.16,0,0,1,2.94-2.94h8.83a3.16,3.16,0,0,0,2.94-2.95h0a3.16,3.16,0,0,0-2.94-2.94H453.75a3.16,3.16,0,0,0-2.94,2.94h0a3.16,3.16,0,0,0,2.94,2.95h8.83A2.82,2.82,0,0,1,465.52,791.24Zm-37.77,29.43v4.91c0,.49-4.41,6.87-4.9,6.87H410.58c-.49,0-6.37-5.89-6.37-6.87v-3.93a3.17,3.17,0,0,0-2.95-2.94h0a3.16,3.16,0,0,0-2.94,2.94v5.89c0,.49,6.38,6.87,9.81,9.81.49.49,1,.49,2,.49h14.23a2.55,2.55,0,0,0,2-1c2.45-2.94,7.85-9.32,7.85-9.81V815.77c0-1-.49-1.47-8.34-5.4l-13.73-6.86c-6.38-3.44-6.87-3.44-6.87-4.42v-4.41c0-.5,4.41-6.87,4.9-6.87h11.28c.5,0,6.87,5.88,6.87,6.87v5.39h2.95a3.16,3.16,0,0,0,2.94-2.94V793.2c0-.49-6.87-7.35-9.81-9.81-.49-.49-1-.49-2-.49H409.11a2.55,2.55,0,0,0-2,1c-2.45,3-7.85,9.32-7.85,9.81V804c0,1,.49,1.47,8.83,5.39l14.23,6.87c4.9,2.45,5.39,2.45,5.39,4.41m-99.58,17.66H335V782.41h-5.89v45.13l-22.07-45.13h-8.34v55.92h5.89V790.26Zm-80-29.43H259.5V803H248.21v-15.2h23.06v-5.4H242.33v55.92H274.7v-5.88h-26V808.9ZM180,838.33h25.51c2-2,8.83-10.3,8.83-10.79V793.2c0-.49-6.38-8.83-8.83-10.79H180Zm5.89-5.88V788.3h17.16c.5,0,4.91,5.88,4.91,6.37v30.91c0,.49-4.42,6.38-4.91,6.38H185.92ZM125.58,788.3H139.8c1,0,3.93,3.92,3.93,4.41v6.87c0,.49-4.42,6.38-4.91,6.38H125.09V788.3Zm24.53,13.24V790.75c0-.49-4.91-6.87-7.85-8.83H119.2v55.92h5.89v-27h12.75c.49,0,10.3,15.7,10.3,16.68l.49,10.3H155l-1-12.26c0-.49-8.34-12.76-10.79-16.68,3.43-2.94,6.87-6.87,6.87-7.36m-74.57-9.81,8.34,24.53H67.69ZM54,838.33h5.89l5.39-16.68H85.35l5.4,16.68h5.88L78,782.41h-4.9Zm-54,0H25.51c2-2,8.83-10.3,8.83-10.79V793.2c0-.49-6.38-8.83-8.83-10.79H0Zm5.89-5.88V788.3H23.06c.49,0,4.9,5.88,4.9,6.37v30.91c0,.49-4.41,6.38-4.9,6.38H5.89Z"/><path class="cls-1" d="M610.48,114.3,357.85,1.47a21.7,21.7,0,0,0-15.7,0L89.52,114.3a14.31,14.31,0,0,0-7.85,12.26v482.2A14.32,14.32,0,0,0,89.52,621L342.15,733.85a21.7,21.7,0,0,0,15.7,0L610.48,621a14.31,14.31,0,0,0,7.85-12.26V126.56A14.31,14.31,0,0,0,610.48,114.3Zm-14,484.4a6.15,6.15,0,0,1-4,5.73L353.21,711.32a6.69,6.69,0,0,1-3,.59,10.75,10.75,0,0,1-3.24-.5l-.22-.09L107.5,604.43a6.15,6.15,0,0,1-4-5.73V136.13a6.15,6.15,0,0,1,4-5.73L346.79,24c1.74-.88,4.45-.67,6.2-.09l.22.09L592.5,130.4a6.15,6.15,0,0,1,4,5.73Z"/><path class="cls-1" d="M590.81,135l-.22-.09L351.33,28.55a4.73,4.73,0,0,0-2.45-.1L109.3,135l-.11,0a1.21,1.21,0,0,0-.77,1.1V598.7a1.24,1.24,0,0,0,.77,1.1l.22.09L348.67,706.77a4.73,4.73,0,0,0,2.45.1l239.58-107,.11,0a1.24,1.24,0,0,0,.77-1.1V136.13A1.21,1.21,0,0,0,590.81,135ZM545.48,384.58c-21.58,86.34-102,116.75-150.1,116.75-41.16,0-73-15.12-99.82-31.41-22.74,20.88-49.33,29-77.76,29-47.58,0-69.66-17.66-69.66-42.19,0-27,25.51-35.81,52.49-35.81,27.39,0,52.21,15,78,31.27,13.31-25.89,22.64-59.52,30.43-88.66,20.6-76,42.68-120.67,113.31-138.33l2,3.43c-46.61,10.3-55.43,60.34-74.08,135.39-12.13,47.85-29.4,80.42-50.14,101.55,24.2,14.52,50,27,80.07,27,51.5,0,101.54-29.43,123.61-129.5,21.59-95.65-30.9-169.24-140.78-169.24-33.85,0-132.94,10.31-132.94,71.13,0,20.11,12.27,37.28,35.81,37.28,16.19,0,33.85-17.66,18.64-37.28l2-1.47C309,282.06,288,331.61,243.8,331.61c-30.42,0-50-21.59-50-48.08,0-66.22,93.21-95.65,172.18-95.65C482.2,187.88,574.91,267.84,545.48,384.58Z"/><path class="cls-1" d="M183.46,459.15c0,17.65,12.76,35.31,44.15,35.31,20.44,0,35.95-15.19,48.22-37.11-22.28-14.57-41.23-27.15-60-27.15C196.22,430.2,183.46,443.94,183.46,459.15Z"/></g></g></svg>