<svg xmlns="http://www.w3.org/2000/svg" viewBox="0 0 960 253.5"><defs><style>.cls-1{fill:#f5fff5;}</style></defs><title>dissection</title><g id="Layer_2" data-name="Layer 2"><g id="Layer_1-2" data-name="Layer 1"><path class="cls-1" d="M64.48,48.63,64.3,28.46c-.18-12.07-2.52-16.93-17.83-13.33l-.36-1.26L97.62,0V119.42c0,12.06,1.08,18.91,15.67,16l.18,1.27c-14.77,4.5-25.22,6.84-32.6,6.84-13.33,0-16.57-7-16-19.63-8.29,12.79-17.29,19.63-29.18,19.63C16.57,143.55,0,126.26,0,100.68,0,72.05,20.53,46.47,51.87,46.47A40.24,40.24,0,0,1,64.48,48.63ZM64.3,68.26c0-14.59-.72-20.35-11.17-20.35C40.52,47.91,35.3,62,35.3,95.28c0,8.82,0,39.26,14.41,39.26,6.12,0,10.09-5.58,14.59-12.42Zm49.89,74V141c14.05,0,15.67-3.6,15.67-22.88V74.93c0-12.07-2.52-16.93-17.83-13.33l-.36-1.26,51.51-13.87v71.68c0,19.28,1.62,22.88,15.67,22.88v1.26Zm51.69-123A19.45,19.45,0,1,1,146.43,0,19.21,19.21,0,0,1,165.88,19.27Zm20.18,85.56h1.26c4.14,30.43,30.44,37.28,43,37.28,11.53,0,19.82-5.59,19.82-12.61,0-19.63-64.12-17.47-64.12-52.95,0-22.15,25.21-30.08,43.94-30.08a76.31,76.31,0,0,1,22.16,3.42L264,46.65l1.81,31.7h-1.27c-2.16-21.79-22.15-30.44-35.3-30.44-10.44,0-17.47,5.58-17.47,12.43,0,20.53,62.86,15.13,62.86,50.61,0,19.45-19.09,32.6-44.31,32.6a133.63,133.63,0,0,1-29-3.78L188,143.19Zm99.42,0h1.26c4.14,30.43,30.44,37.28,43,37.28,11.53,0,19.82-5.59,19.82-12.61,0-19.63-64.12-17.47-64.12-52.95,0-22.15,25.21-30.08,43.94-30.08a76.31,76.31,0,0,1,22.16,3.42l11.89-3.24,1.8,31.7H364c-2.16-21.79-22.15-30.44-35.3-30.44-10.44,0-17.47,5.58-17.47,12.43,0,20.53,62.86,15.13,62.86,50.61,0,19.45-19.09,32.6-44.31,32.6a133.63,133.63,0,0,1-29-3.78l-13.33,3.42ZM417,84.65c0,18.92,9.91,37.47,33.32,37.47,14.23,0,24-6.85,30.26-17.29l1.08.54c-8.47,21.43-24.68,38.18-50.43,38.18-29.36,0-48.09-20.17-48.09-49S408,46.47,437.31,46.47c29.72,0,46.11,15.31,40.35,38.18Zm0-1.8h28.82c2.88-11.17,3.06-34.94-11.35-34.94C421.64,47.91,417.14,70.24,417,82.85ZM542,46.47c16,0,39.8,5.4,39.8,25,0,11.53-8.28,16.76-16.93,16.76-8.1,0-15.49-4.87-16-15.13,4-1.8,6.31-6.13,6.31-11a14,14,0,0,0-14.05-14.23c-15.13,0-19.45,21.43-19.45,34.4,0,25.4,16.57,39.09,34.4,39.09,9,0,20.53-3.43,27-13.33l1.08.54c-8.82,19.27-24.31,34.94-49,34.94-25.75,0-46.29-18.37-46.29-47C488.82,67,510.8,46.47,542,46.47Zm45.75,1.26h3.78c14.77,0,25.4-3.06,33-9.37,5.4-6.84,8.47-16,8.47-26.65h1.8v36h19.81v1.8H634.72V112c0,7,.18,19.63,10.08,19.63,4.87,0,9-2.52,13.15-5.58l.72.9c-9.9,8.46-22.33,16.57-37.82,16.57-12.43,0-19.45-11.35-19.45-25.4V49.53H587.71v-1.8Zm69.88,94.56V141c14,0,15.67-3.6,15.67-22.88V74.93c0-12.07-2.52-16.93-17.83-13.33l-.36-1.26,51.51-13.87v71.68c0,19.28,1.62,22.88,15.67,22.88v1.26Zm51.69-123A19.45,19.45,0,1,1,689.83,0,19.21,19.21,0,0,1,709.28,19.27ZM828.7,95.1c0,27.92-22.88,48.45-52.42,48.45-29.36,0-52.23-20.53-52.23-48.45,0-28.1,22.87-48.63,52.23-48.63C805.82,46.47,828.7,67,828.7,95.1Zm-36.57,0c0-20.53,0-47.19-15.85-47.19-15.67,0-15.67,26.66-15.67,47.19,0,21.07,0,47,15.67,47C792.13,142.11,792.13,116.17,792.13,95.1Zm109.15,47.19V141c9.55,0,9.73-4.86,9.73-19.27V77.63c0-7.39-.9-17.11-11.35-17.11-4.32,0-10.44,2.34-15.85,7v54.22c0,11.34.18,19.27,9.91,19.27v1.26h-58.9V141c14,0,15.67-3.6,15.67-22.88V74.93c0-12.07-2.52-16.93-17.83-13.33l-.36-1.26,51.87-13.87-.54,19.45c17.83-14.59,28.82-19.45,39.81-19.45,14.59,0,20.89,8.1,20.89,26.47v45.21C944.33,137.43,946,141,960,141v1.26ZM190.29,201q6.35,0,9.83,3.23a12.29,12.29,0,0,1,0,17.14q-3.48,3.23-9.83,3.22h-9.2v14l4.51.36v2.44H173.27v-2.44l4.51-.36V203.84l-4.51-.36V201h17Zm-9.2,20.76h9.2c3.33,0,5.83-.84,7.5-2.54a8.72,8.72,0,0,0,2.51-6.39,8.85,8.85,0,0,0-2.5-6.44c-1.66-1.71-4.17-2.57-7.51-2.57h-9.2v17.94Zm35.45-10.39.42,5v.36a10.59,10.59,0,0,1,3.48-4.34,8.75,8.75,0,0,1,5.23-1.57,8.28,8.28,0,0,1,1.23.1,6.5,6.5,0,0,1,1,.21l-.44,3.1-2.47-.16a7.48,7.48,0,0,0-5.14,1.76,9.73,9.73,0,0,0-2.87,4.83v17.92l4.52.36v2.44H209.14V239l4.52-.36V214.22l-4.52-.37v-2.46h7.4Zm15.09,14.55a16.13,16.13,0,0,1,3.63-10.87,13.07,13.07,0,0,1,19.27,0,16.13,16.13,0,0,1,3.63,10.87v.92a16.12,16.12,0,0,1-3.62,10.88,13.1,13.1,0,0,1-19.28,0,16.12,16.12,0,0,1-3.63-10.88Zm3.33.92a14.34,14.34,0,0,0,2.63,8.76,9.29,9.29,0,0,0,14.61,0,14.28,14.28,0,0,0,2.63-8.76v-.92a14.27,14.27,0,0,0-2.64-8.71,9.25,9.25,0,0,0-14.6,0,14.33,14.33,0,0,0-2.63,8.71v.92Zm49.46,10.2a10.4,10.4,0,0,1-3.86,3.63A11.48,11.48,0,0,1,275,242a10,10,0,0,1-8.42-4q-3-4-3-10.73v-.58q0-7.19,3-11.5a9.8,9.8,0,0,1,8.47-4.31,10.28,10.28,0,0,1,9.26,5.08V201l-4.52-.36v-2.46h7.85v40.45l4.52.36v2.44h-7.49Zm-17.5-9.84a15.24,15.24,0,0,0,2.18,8.65,7.39,7.39,0,0,0,6.56,3.21,9.36,9.36,0,0,0,5.33-1.44,9.49,9.49,0,0,0,3.34-4v-14.2a10.29,10.29,0,0,0-3.2-4.16,8.65,8.65,0,0,0-5.42-1.61,7.23,7.23,0,0,0-6.58,3.59,17.65,17.65,0,0,0-2.21,9.33v.59Zm52.4,9.23a10.22,10.22,0,0,1-3.87,4.08,11.19,11.19,0,0,1-5.78,1.44,9.09,9.09,0,0,1-7.41-3.22q-2.68-3.21-2.68-10V214.21l-3.71-.36v-2.46h7v17.43q0,5.49,1.87,7.88a6.36,6.36,0,0,0,5.31,2.38,9.82,9.82,0,0,0,6-1.66,8.81,8.81,0,0,0,3.15-4.6v-18.6l-4.27-.37v-2.46h7.6v27.2l4,.36v2.44h-6.93Zm24.93,2.72a9.46,9.46,0,0,0,5.82-1.89,6.17,6.17,0,0,0,2.52-5.24h2.94l.05.17a8.23,8.23,0,0,1-3.31,7,12.38,12.38,0,0,1-8,2.8q-6.11,0-9.46-4.2a16.81,16.81,0,0,1-3.35-10.8V225.8A16.79,16.79,0,0,1,334.79,215a11.39,11.39,0,0,1,9.43-4.21,15.22,15.22,0,0,1,6.35,1.3,12.66,12.66,0,0,1,4.69,3.55l.13,6.55h-2.82L352,216.9a9.57,9.57,0,0,0-3.31-2.37,11.16,11.16,0,0,0-4.51-.87q-4.83,0-7.14,3.45a15.3,15.3,0,0,0-2.32,8.69V227a15.38,15.38,0,0,0,2.31,8.76Q339.37,239.17,344.25,239.17ZM375,242a12.06,12.06,0,0,1-9.37-4.15,15.23,15.23,0,0,1-3.71-10.55v-1.52a15.65,15.65,0,0,1,3.7-10.68,11.43,11.43,0,0,1,8.94-4.24,11.12,11.12,0,0,1,8.68,3.5q3.15,3.48,3.16,9.31v2.83H365.21v.8a13.24,13.24,0,0,0,2.7,8.47,8.57,8.57,0,0,0,7.08,3.43,14.51,14.51,0,0,0,5.27-.86,10.49,10.49,0,0,0,3.74-2.47l1.42,2.27a12,12,0,0,1-4.27,2.82A16.51,16.51,0,0,1,375,242Zm-.44-28.31a8,8,0,0,0-6.17,2.81,12,12,0,0,0-2.92,7.06l.05.14h17.58v-.83a9.63,9.63,0,0,0-2.3-6.55A7.88,7.88,0,0,0,374.55,213.66Zm38.62,23.4a10.37,10.37,0,0,1-3.85,3.63,11.52,11.52,0,0,1-5.55,1.28,9.93,9.93,0,0,1-8.41-4q-3-4-3-10.73v-.58q0-7.19,3-11.5a9.77,9.77,0,0,1,8.47-4.31,10.71,10.71,0,0,1,5.43,1.32,10.84,10.84,0,0,1,3.83,3.76V201l-4.52-.36v-2.46h7.84v40.45l4.52.36v2.44h-7.48Zm-17.49-9.84q0,5.43,2.17,8.65a7.39,7.39,0,0,0,6.56,3.21,9.42,9.42,0,0,0,5.34-1.44,9.63,9.63,0,0,0,3.34-4v-14.2a10.31,10.31,0,0,0-3.21-4.16,8.65,8.65,0,0,0-5.42-1.61,7.24,7.24,0,0,0-6.58,3.59,17.65,17.65,0,0,0-2.2,9.33v.59ZM455.42,201q6.3,0,9.8,2.65t3.51,8A8.64,8.64,0,0,1,467,217a9,9,0,0,1-4.78,3.19,9.67,9.67,0,0,1,6,3.47,9.84,9.84,0,0,1,2.31,6.46q0,5.4-3.51,8.31t-9.38,2.91H439.12v-2.44l4.52-.36V203.85l-4.52-.36V201h16.3Zm-8.48,18.1h9.29a10.55,10.55,0,0,0,6.78-1.93,6.85,6.85,0,0,0,2.39-5.67,6.76,6.76,0,0,0-2.55-5.75c-1.7-1.28-4.17-1.93-7.43-1.93h-8.48v15.28Zm0,2.8v16.66h10.65a10.37,10.37,0,0,0,7-2.2,7.73,7.73,0,0,0,2.55-6.17,8.07,8.07,0,0,0-2.32-6q-2.31-2.33-6.72-2.33Zm58.33-8.07-3,.25-12.11,32.08a17.33,17.33,0,0,1-3,5.18,6.8,6.8,0,0,1-5.44,2.14,8.86,8.86,0,0,1-1.41-.13,6.76,6.76,0,0,1-1.22-.26l.39-2.77c.22,0,.58.08,1.06.13s.84.06,1,.06A4.28,4.28,0,0,0,485,249a14.37,14.37,0,0,0,2.24-4l1.56-4L478.13,214.1l-3.05-.25v-2.46h10.31v2.46l-3.57.28,7.32,19.13,1.05,3.61h.17l8.2-22.74-3.66-.28v-2.46h10.37ZM550.1,201v2.47l-4.52.36v26.08a11.81,11.81,0,0,1-3.28,8.78,11.57,11.57,0,0,1-8.5,3.26q-5.68,0-9-2.94t-3.16-8.6l.05-.16h3.11c0,2.92.77,5.13,2.33,6.64s3.77,2.26,6.65,2.26a8,8,0,0,0,6.07-2.51,9.37,9.37,0,0,0,2.39-6.73V203.85l-4.52-.36V201H550.1Zm4.13,37.92,4.52-.36V203.84l-4.52-.36V201h12.34v2.46l-4.52.36v15.75h5.52l13.59-15.88-3.89-.23V201h11.29v2.46l-3.55.34-14.45,17.05,15.58,17.74,3.64.33v2.44H578.27v-2.44l3.83-.22-14.5-16.33h-5.55v16.19l4.52.36v2.44H554.23v-2.44ZM623.57,201A16.37,16.37,0,0,1,635.8,206a17.36,17.36,0,0,1,4.82,12.67v5.19a17.29,17.29,0,0,1-4.82,12.67,16.43,16.43,0,0,1-12.23,4.91H607.33V239l4.52-.36V203.85l-4.52-.36V201h16.24Zm-8.42,2.82v34.74h8.42a12.82,12.82,0,0,0,9.86-4.18,15,15,0,0,0,3.87-10.59v-5.27A14.86,14.86,0,0,0,633.41,208a12.82,12.82,0,0,0-9.84-4.19Zm45,38.13a12.06,12.06,0,0,1-9.37-4.15A15.23,15.23,0,0,1,647,227.27v-1.52a15.65,15.65,0,0,1,3.7-10.68,11.44,11.44,0,0,1,8.94-4.24,11.12,11.12,0,0,1,8.68,3.5q3.15,3.48,3.16,9.31v2.83H650.33v.8a13.24,13.24,0,0,0,2.7,8.47,8.57,8.57,0,0,0,7.08,3.43,14.51,14.51,0,0,0,5.27-.86,10.49,10.49,0,0,0,3.74-2.47l1.42,2.27a12,12,0,0,1-4.27,2.82A16.51,16.51,0,0,1,660.11,242Zm-.44-28.31a8,8,0,0,0-6.17,2.81,12,12,0,0,0-2.92,7.06l0,.14h17.58v-.83a9.63,9.63,0,0,0-2.3-6.55A7.89,7.89,0,0,0,659.67,213.66Zm39.54,7h-2.72l-.39-4.25a8.47,8.47,0,0,0-3.15-2,12.23,12.23,0,0,0-4.36-.72,8.17,8.17,0,0,0-5.45,1.56,4.74,4.74,0,0,0-1.82,3.68,4.32,4.32,0,0,0,1.57,3.43c1,.91,3.13,1.71,6.25,2.39a20.27,20.27,0,0,1,8,3.26,6.71,6.71,0,0,1,2.67,5.61,7.25,7.25,0,0,1-3,6.06,12.91,12.91,0,0,1-8,2.31,18.69,18.69,0,0,1-6-.92,14.56,14.56,0,0,1-4.73-2.62v-6h2.69l.47,4.27a7.75,7.75,0,0,0,3.37,1.93,14.9,14.9,0,0,0,4.25.6,9.22,9.22,0,0,0,5.69-1.58,4.71,4.71,0,0,0,2.08-3.83,4.89,4.89,0,0,0-1.73-3.69q-1.74-1.57-6.26-2.58a20.92,20.92,0,0,1-7.94-3.09A6.32,6.32,0,0,1,678,219a7.24,7.24,0,0,1,2.91-5.81,11.78,11.78,0,0,1,7.68-2.37,17.34,17.34,0,0,1,6,1,12.35,12.35,0,0,1,4.45,2.73Zm6.43,18.29,4.52-.36V214.21l-4.52-.36v-2.46h7.82v27.19l4.52.36v2.44H705.64Zm7.82-36.15h-3.3v-4.66h3.3Zm10.23,23.85q0-7.19,3.06-11.5a9.85,9.85,0,0,1,8.5-4.31,10.62,10.62,0,0,1,5.53,1.4,11.17,11.17,0,0,1,3.86,4l.39-4.79h2.8V241q0,5.79-3.13,9.15T736,253.5a22.14,22.14,0,0,1-4.62-.53,17.89,17.89,0,0,1-4.28-1.44l.88-2.8a19.14,19.14,0,0,0,3.79,1.33,17.65,17.65,0,0,0,4.17.47q4.27,0,6.43-2.52a10.44,10.44,0,0,0,2.17-7v-3.8a10.51,10.51,0,0,1-3.86,3.53,11.52,11.52,0,0,1-5.46,1.24,10,10,0,0,1-8.46-4q-3-4-3.05-10.73v-.58Zm3.32.58a15.13,15.13,0,0,0,2.2,8.63,7.45,7.45,0,0,0,6.59,3.23,9.33,9.33,0,0,0,5.39-1.47,9.54,9.54,0,0,0,3.32-4V219.65a10.57,10.57,0,0,0-3.19-4.29,8.54,8.54,0,0,0-5.46-1.65,7.28,7.28,0,0,0-6.62,3.61,17.53,17.53,0,0,0-2.23,9.31v.59Zm27.76,11.72,4.51-.36V214.21l-4.51-.36v-2.46h7.45l.31,5.24a10.73,10.73,0,0,1,3.89-4.29,11,11,0,0,1,5.81-1.51c3.26,0,5.73,1,7.43,3s2.55,5.09,2.55,9.3v15.48l4.52.36v2.44H774.37V239l4.51-.36V223.14q0-5.16-1.92-7.29a7,7,0,0,0-5.48-2.13,8.58,8.58,0,0,0-5.7,1.84,10.35,10.35,0,0,0-3.17,4.89v18.14l4.52.36v2.44H754.76v-2.45Z"/></g></g></svg>