<svg xmlns="http://www.w3.org/2000/svg" viewBox="0 0 600 600"><defs><style>.cls-1,.cls-2{fill:#f5fff5;}.cls-1{opacity:0.6;isolation:isolate;}</style></defs><title>djr</title><g id="Layer_2" data-name="Layer 2"><g id="Layer_1-2" data-name="Layer 1"><path class="cls-1" d="M0,600V501.82H223.64V600H0Z"/><path class="cls-1" d="M376.36,98.18V0H600V98.18H376.36Z"/><path class="cls-1" d="M376.36,600V501.82H600V600H376.36Z"/><path class="cls-1" d="M0,98.18V0H98.18V98.18H0Z"/><path class="cls-1" d="M501.82,474.54V376.36H600v98.18H501.82Z"/><path class="cls-2" d="M0,474.54V125.45H98.18v349.1H0Z"/><path class="cls-2" d="M125.45,474.54V0h98.19V474.55H125.45Z"/><path class="cls-2" d="M250.91,600V125.45h98.18V600H250.91Z"/><path class="cls-2" d="M250.91,98.18V0h98.18V98.18H250.91Z"/><path class="cls-2" d="M376.36,474.54V125.45h98.19v349.1H376.36Z"/><path class="cls-2" d="M501.82,349.09V125.45H600V349.09H501.82Z"/></g></g></svg>