<svg xmlns="http://www.w3.org/2000/svg" viewBox="0 0 960 295.28"><defs><style>.cls-1,.cls-2{fill:#f5fff5;}.cls-1{opacity:0.5;isolation:isolate;}</style></defs><title>font-lab</title><g id="Layer_2" data-name="Layer 2"><g id="Layer_1-2" data-name="Layer 1"><path class="cls-1" d="M213.28,120a10.69,10.69,0,0,0-1.75-.51c.23-.1.59,0,1.13.26a3.61,3.61,0,0,0,.63.24A0,0,0,0,1,213.28,120Zm1.26,0v-1.26h-.75c0,.67-.17,1.08-.5,1.25C213.84,120.17,214.3,120.22,214.54,120Zm44,41.75a2,2,0,0,1,1.51-.5,9,9,0,0,0,1.76-3.4,20.44,20.44,0,0,1,1.5-3.9h.51a6.52,6.52,0,0,1,2-4v-3.52h.25v-2.77c-.34,0-.5-.08-.5-.25a.71.71,0,0,1,.25-.5,2.22,2.22,0,0,1-1.64-.63,3.56,3.56,0,0,0-1.38-.88v-3.27a2.22,2.22,0,0,1-.25-1l-4.53.5v-.75h-2v-.76a.22.22,0,0,1-.25-.25c0-.16-.17-.25-.5-.25h-2l-.26-.75-5.28.25-.5.5H247c-.34,0-.55-.08-.63-.25s-.29-.25-.63-.25a.69.69,0,0,0-.5.25,1,1,0,0,1-.76.25c-.16,0-.42-.17-.75-.5l-.75-.76-.76-.25v-.76H241v.26h-2c0-.17-.21-.46-.63-.88s-.71-.63-.88-.63h-.25c-.17,0-.25.25-.25.75h-6.29a1.85,1.85,0,0,1-1.38,1.13c-.59.09-1.22.21-1.89.38v-.25h-9.3v-.5h-3v.25c0,.17-.17.25-.51.25l-6.28.25v-.75a5.46,5.46,0,0,1-1.14-.13,6,6,0,0,0-1.13-.12v.25h-4.27c0,.34-.09.5-.25.5a.23.23,0,0,0-.26.25c-.17,0-.25-.25-.25-.75H199.7c.34-.67,1.18-1,2.52-1V131.3H203c-.33-.34-.46-.63-.37-.88s.29-.38.63-.38h1v-.76c.51.34.84.21,1-.38s.41-.88.75-.88v-1.25l-.25-.26c.17-.5.59-.66,1.26-.5h1.26q0-4.28,3-6c0-.29.1-.44.27-.51-.41-.09-.82-.18-1.27-.25-1.18-.16-1.76,0-1.76.5-.5,0-.76.09-.76.25h-.22l.1-.12c.25-.42.54-.46.88-.13a1.64,1.64,0,0,1,1.26-2v-1.26a.7.7,0,0,0,.88-.12l.62-.63H213a1.06,1.06,0,0,1,.12-.63,1,1,0,0,0,.13-.63l.88-.88a3.35,3.35,0,0,1,.88-.63,1,1,0,0,0,1-.5h2a3.28,3.28,0,0,1,1-1.63c.67-.76,1-1.3,1-1.64a3.77,3.77,0,0,0-.13-.75.59.59,0,0,0-.63-.51c-.67,0-1,.09-.88.25s0,.26-.37.26l-.76-.76.5-2a1.19,1.19,0,0,0,.38-1.13.72.72,0,0,1,.38-.88,1.51,1.51,0,0,0,1.38-.25,6.67,6.67,0,0,0,1.39-1,2.26,2.26,0,0,1,.37-1.13,2.29,2.29,0,0,0,.38-1.13,4.11,4.11,0,0,0,1-.76c.66-.67,1-1.09,1-1.25a1.58,1.58,0,0,1-.75-.76,1.45,1.45,0,0,1-.51-1,5.25,5.25,0,0,1-.62,2.39,5.21,5.21,0,0,0-.88,1.64,6.38,6.38,0,0,0-.76.88.85.85,0,0,1-.75.38,2.42,2.42,0,0,0-1.76-.76V98.09a3.2,3.2,0,0,0,.75-1.5c.17-.67.58-.84,1.26-.51a9.16,9.16,0,0,0,.63-1.51c.08-.33.46-.41,1.13-.25a8.57,8.57,0,0,1,2.77-2,3.2,3.2,0,0,0,.75-1.38c.16-.59.67-.88,1.51-.88V88.29h.75c.34,0,.51.08.51.25s.16.25.5.25c0-.67,0-1,.12-.88s.13,0,.13-.38a2,2,0,0,0-.13-.63,2.88,2.88,0,0,1-.12-.88,1.18,1.18,0,0,1,.38-.88,1,1,0,0,0,.37-.63h1.26a1.7,1.7,0,0,1,.5-1.25c.34-.34.51-.59.51-.76a1.77,1.77,0,0,0-.13-.75,1.07,1.07,0,0,1-.13-.51c0-.67.55-1.13,1.64-1.38a17.34,17.34,0,0,1,1.88-.38l1-1a2.42,2.42,0,0,1,1.76-.51,4,4,0,0,1-.25-1.25V76h.25a5.35,5.35,0,0,1,1.51-2.39,2,2,0,0,0,.5-2.39.73.73,0,0,0,.51-.25.71.71,0,0,1,.25-.5,1.71,1.71,0,0,1,.5,1.26h.75l-.25-1.26a.45.45,0,0,1,.51-.51c.33,0,1.17-.08,2.51-.25h2.39c.25,0,.38.09.38.25,0,.34-.09.51-.25.51v.75l1.26-.25a.69.69,0,0,0,.5.25c.16,0,.25.17.25.51h2.26v.75H255v.25h2.76a1.05,1.05,0,0,0,.63.88c.42.25.46.55.13.88a2.47,2.47,0,0,0,.5-1.76c.33,0,.67-.25,1-.75h.75c0,.33.29.63.88.88s.71.79.38,1.63a1.45,1.45,0,0,0,.5-1,2.22,2.22,0,0,1,.25-1h1.26L263.84,74c.33,0,.46,0,.37-.13s0-.12.38-.12a1.71,1.71,0,0,0,1.26-.51c.16-.33.33-.5.5-.5a.22.22,0,0,0,.25-.25h1.26a3.52,3.52,0,0,0,1,.75.83.83,0,0,1,.5.76h1.26c0-.33.08-.5.25-.5a.73.73,0,0,1,.5.25c.5,0,.92.34,1.26,1h.25l.5-.5v.25a4.34,4.34,0,0,1,1.26.51,4.52,4.52,0,0,0,2,.5h1.76v2h1.26c.34-.5.59-.75.76-.75h1c.84,0,1.34.25,1.51.75h-.25v1a1.66,1.66,0,0,0,.5.37c.17.09.25.47.25,1.14.51-.34.8-.34.88,0a1.17,1.17,0,0,0,.63.75h.51l.25-.25H289a.22.22,0,0,0,.25.25h.25c.17-.16.25-.58.25-1.26a.45.45,0,0,1,.51.51h2v-.76H293c.84,1.34,1.59,2.1,2.27,2.26V82c.66,0,1.08.17,1.25.5-.17.17,0,.46.51.88a2.17,2.17,0,0,0,1.25.63,1.19,1.19,0,0,0,.63-.25,1.52,1.52,0,0,1,.88-.25,2.25,2.25,0,0,1,1.76.88,3.39,3.39,0,0,0,1.76,1.13,1.91,1.91,0,0,1,.76-.25h.5v3A2.06,2.06,0,0,1,307.35,90h.5c0-.66.13-1,.38-.88s.46,0,.63-.37h5c0,.34.25.5.75.5a2.94,2.94,0,0,1,1.26.25l1,2a2.66,2.66,0,0,1,1.39.38,2.23,2.23,0,0,0,1.13.38c.16,0,.25,0,.25-.13s.08-.12.25-.12h.25a2.2,2.2,0,0,1,1.26.62,2.11,2.11,0,0,0,1.26.63,2.32,2.32,0,0,0,1-.63A15.47,15.47,0,0,0,325,91.55h2.52l2,1.76c.5-.83,1-1.17,1.51-1q-.51-1,0-1.14a1.55,1.55,0,0,0,.75-.37h2c.33-.34.62-.63.88-.88l.62-.63A1,1,0,0,0,336,89a.69.69,0,0,1,.5-.25,2.72,2.72,0,0,1,.5-1.51c.34,0,.51-.08.51-.26s.25-.25.75-.25c.17,0,.34.13.51.38s.33.38.5.38c.5,0,1-.38,1.38-1.13a1.4,1.4,0,0,1,1.64-.88h.75a2.94,2.94,0,0,0,.38,1.25c.25.51.54.76.88.76.5,0,.92-.33,1.26-1a1.59,1.59,0,0,1,1.5-1V83.25h1.26V80.74a2,2,0,0,0,.25-1.26.85.85,0,0,1-.12-.75.92.92,0,0,0-.13-.76c-.34-.33-.46-.63-.37-.88s-.13-.46-.63-.63V73.19l.5-.5a11,11,0,0,0,.5-1.76v-.5h.76a3.73,3.73,0,0,1,1-.76c.34-.16.5-.58.5-1.25,0-.34-.08-.55-.25-.63s-.25-.38-.25-.88l.5-.51V63.89c-.33-.17-.42-.34-.25-.5s.09-.42-.25-.76a.22.22,0,0,1-.25-.25v-.5a2.16,2.16,0,0,1,.75-1.51.85.85,0,0,0-.37-.76.81.81,0,0,1-.38-.75,1.59,1.59,0,0,1-.88-.25,1.22,1.22,0,0,0-.63-.26,2.44,2.44,0,0,0-1.26.51v-.51h-2.51V57.1c.33,0,.5-.09.5-.26-.34,0-.5-.2-.5-.62V55.08c-1.51,0-2.27-.33-2.27-1-.84,0-1.3-.17-1.38-.5s-.46-.51-1.13-.51a.44.44,0,0,1-.5-.5l-.25-.25-.76-.25v-.51l-4.52-1.51a3,3,0,0,0-1-1,11.33,11.33,0,0,1-1.26-.76V48c-1.34-.67-2.51-1.3-3.52-1.89a13.89,13.89,0,0,0-3.52-1.38V44a11.55,11.55,0,0,1-3.52-1c-.67-.33-1.43-.67-2.26-1a.86.86,0,0,0-.76.38c-.17.25-.5.3-1,.13h-.75V41.25h-3.27c0-.67-.17-.92-.5-.76a1.06,1.06,0,0,1-1,0V40h-1.26c-.67-.33-1.38-.67-2.13-1a12.43,12.43,0,0,1-1.89-1,5.51,5.51,0,0,0-.88.12c-.42.09-.8-.2-1.13-.88h-2.27c0-.33-.16-.41-.5-.25a1.24,1.24,0,0,1-1.26-.25l.51-.75a6.15,6.15,0,0,0-1.14.12c-.42.09-.79-.12-1.13-.63a6.12,6.12,0,0,0-1.13.13.72.72,0,0,1-.88-.38h-2.52v-.5L291,34.46V34h-2.52v-.5h-3c-.34-.16-.43-.25-.26-.25H285l-2-.5v-.25h-4.78v-1h-2.76v-.25h-3.27a1.39,1.39,0,0,0-.88-.51.82.82,0,0,1-.63-.25c.33-.83.2-1.38-.38-1.63a4.16,4.16,0,0,1-1.38-.88V25.65c-.17,0-.26-.16-.26-.5V21.88a.9.9,0,0,1-.5-.88V19.87q-1,0-.63-.63c.25-.41.21-.71-.12-.88l-.76-2.77a3.35,3.35,0,0,1-.75-2c-.67-.67-1-1.17-1-1.51-.84-.83-1.59-1.63-2.26-2.39A11.79,11.79,0,0,1,260.82,7a1,1,0,0,1-.76-1V4.27a10.62,10.62,0,0,1-1.25-2.13A7.16,7.16,0,0,0,257.3,0l.5,1.26V4c0,.17,0,.25.13.25s.12.09.12.26v.25a1.48,1.48,0,0,1-.38.76,7.55,7.55,0,0,1-.63.75h-1.76a1.43,1.43,0,0,0-.5-1,1.67,1.67,0,0,1-.5-1.25q-1,0-1.26-.51h-3.27Q249.24,4,249,4V5.54A6.7,6.7,0,0,1,253,7a1.52,1.52,0,0,0-.88.26,1.52,1.52,0,0,1-.88.25h-1.51c.34.34.34.75,0,1.26s-.59.75-.75.75a.8.8,0,0,1-.76-.5,2.4,2.4,0,0,0-.5-2.14c-.5-.59-1-1.21-1.51-1.89a1,1,0,0,0-.5-1,.22.22,0,0,1-.25-.25c-.17,0-.26,0-.26-.13s-.08-.13-.25-.13q-.51.51-.75.51L244,3.77a1.19,1.19,0,0,1-.51-.12,1,1,0,0,0-.5-.13q0,.51-1.26,1.26V7l-1.25,3h-.26a3.63,3.63,0,0,1-.75,1.63q-.75,1.14-1.26,1.14c-.34,0-.54-.08-.63-.26s-.29-.25-.63-.25c-1,0-1.63.63-1.88,1.89a12.07,12.07,0,0,1-.88,2.89,8.82,8.82,0,0,1-1,.88c-.34.25-.42.8-.25,1.64a11.09,11.09,0,0,0-2.52,2.26,30.18,30.18,0,0,1-2.26,2.52c-.34.34-.5.59-.5.75-.17.34-.59.38-1.26.13a5.18,5.18,0,0,0-1.76-.38.58.58,0,0,1-.63-.5.59.59,0,0,0-.63-.51,1.62,1.62,0,0,0-1.51,1v-1h-2.51l-1.51,1a1.52,1.52,0,0,1-.88-.25,1.54,1.54,0,0,0-.88-.25h-.25l-.5.5-3.53.25h-3.52V23.89H205v1.26c-.33-.16-.59-.12-.75.13a1.14,1.14,0,0,1-1,.37c-.17,0-.5-.25-1-.75v-1H201l.25,1.26a.8.8,0,0,1-.75.5l-1.26,2h-1.51c0,.33,0,.46-.13.37a1,1,0,0,0-.63-.12h-.75v-.25a2.2,2.2,0,0,0-1.26-.63,2.17,2.17,0,0,1-1.25-.63h-.76c.33.67.33,1,0,1a.79.79,0,0,0-.75.51h-2.52c.17,0,0-.25-.5-.76a.69.69,0,0,1-.25-.5l-.76,1.76a4.41,4.41,0,0,0-1.26.25,2.43,2.43,0,0,0-1.25,1c-2.19-.33-3.44-.5-3.78-.5h-1c.33-.34.5-.59.5-.76-.17,0-.5.25-1,.76l-.5.5h-1v-1h.75a.22.22,0,0,0,.25-.25h-3.77a2,2,0,0,1-1.26.25v1h-.75a1.43,1.43,0,0,0-.26,1,1.67,1.67,0,0,0-1.25.51l-.51-.51a1.25,1.25,0,0,0-.63.26,2.64,2.64,0,0,1-1.38.25V32.7h-.75a1.52,1.52,0,0,0-.26-.88,1.28,1.28,0,0,1-.25-.63c-1.17,0-1.76-.42-1.76-1.26v-.5c0-.5.09-.75.25-.75-.16-.34-.42-.17-.75.5a12.33,12.33,0,0,1-.76,1.26l-1.25-.76c.33.84.25,1.13-.25.88a1,1,0,0,0-1.26.13h-2.77a1.41,1.41,0,0,1-.88.5h-.88a2.11,2.11,0,0,0-1.38.88,1.07,1.07,0,0,1-.88.63,1.16,1.16,0,0,1-1.26-.76.82.82,0,0,1-.5.76.73.73,0,0,1-.25-.5c0-.17-.17-.26-.51-.26a.7.7,0,0,0-.5.26,2.08,2.08,0,0,1-1.51.5,2,2,0,0,1-1.26.75c0,.34-.08.5-.25.5-.34,0-.5.09-.5.26V34l-.25-.5v1.76h-3.27a5.72,5.72,0,0,1-1.76.76,5.82,5.82,0,0,1-2.27.75,2.93,2.93,0,0,1-.88-.12,1.91,1.91,0,0,0-.63-.13v-1a1.37,1.37,0,0,0-1,.62,1.06,1.06,0,0,1-1.26.38,1.52,1.52,0,0,1-.25,1h-1.26v-.76h-2a2.91,2.91,0,0,1-.25,1.26l-1.76-.76v-.5a6.48,6.48,0,0,1-1.51.76,2.43,2.43,0,0,0-1.26,1h-2.26c-.34.51-1.35.76-3,.76l-3,1.51v.5H120L112.18,44c-.34.67-.63.88-.88.63s-.55-.21-.88.12c-.17.34-.47.42-.88.25a1,1,0,0,0-1.14.26,4.64,4.64,0,0,1-1.51.25c-.67.34-1.21.63-1.63.88a3.19,3.19,0,0,1-1.64.37,3.21,3.21,0,0,1-.62,1.89,1.43,1.43,0,0,1-1.89.38.22.22,0,0,0-.25.25c0,.17-.17.25-.51.25-.16,0-.25-.12-.25-.38s-.17-.37-.5-.37a10.64,10.64,0,0,1-.88.75,1.87,1.87,0,0,1-1.13.5v1a1.47,1.47,0,0,1,.5,1c0,.17-.17.25-.5.25h-1a2.21,2.21,0,0,0-1-.25,1,1,0,0,0-1,.75c0-.33-.09-.5-.25-.5a.22.22,0,0,1-.25-.25H91.55c0,.34-.12.46-.38.38s-.46,0-.62.37a.74.74,0,0,0-.26-.5H90a6.24,6.24,0,0,1-1,1.51,5.54,5.54,0,0,1-1.76,1v.25H84.51a5.52,5.52,0,0,1-2.64,2.14,24.29,24.29,0,0,0-3.4,1.63,1.83,1.83,0,0,0-.75.63q-.25.38-1.26.12l-2.52,1.26a1.12,1.12,0,0,0-.88.5,1.3,1.3,0,0,1-1.13.51v1.25a1,1,0,0,0-1,.51h-2a2.73,2.73,0,0,1-1.25.25,3.91,3.91,0,0,1-2.14,2.77,30.53,30.53,0,0,1-3.14,1.25,3.41,3.41,0,0,1-.51,1.64,1,1,0,0,1-1.51.37c0,.68-.37,1.06-1.13,1.14a1.2,1.2,0,0,0-1.13,1.38,3.51,3.51,0,0,0-1.26.13,1.83,1.83,0,0,1-.75.12q-.51,0-.51-.12c0-.09-.08-.13-.25-.13a5.71,5.71,0,0,1-1.13.88c-.42.25-.72.21-.88-.13A5.77,5.77,0,0,1,51.18,75a11.45,11.45,0,0,0-2.39,1.5c.17.51.34.76.51.76h.25c0,.34-.38.67-1.14,1a4.84,4.84,0,0,1-1.63.5,3.23,3.23,0,0,1-.38.63,2.66,2.66,0,0,1-1.13.12,3.2,3.2,0,0,0-.76,1.26c-.16.5-.58.67-1.25.5a2.82,2.82,0,0,1-1.38,1.39c-.6.25-1.22.54-1.89.88l-.25-.26a2.46,2.46,0,0,0-1,1.39c-.17.59-.59.79-1.26.63a1.06,1.06,0,0,1-.75.25,2.53,2.53,0,0,1-1.26,2,9,9,0,0,1-2.26.76,5.13,5.13,0,0,1-1.39,2q-.89.75-1.38,1.26a5,5,0,0,1-1.63,2.13,24.63,24.63,0,0,1-2.39,1.64,4.45,4.45,0,0,0-.76,2.26H24.9a17.46,17.46,0,0,0-1.39,2.14,2.66,2.66,0,0,1-1.88,1.38v1H20.12a1.23,1.23,0,0,1-.63,1.13c-.42.25-.8.46-1.13.63a4.64,4.64,0,0,1-1.51,3.27,5.23,5.23,0,0,0-1.76,2.77,7.85,7.85,0,0,0-3.52,4H10.31a2.47,2.47,0,0,1-.5,1.76,1.45,1.45,0,0,0-.51,1,2.45,2.45,0,0,0,.13,1,1.85,1.85,0,0,1,.12.76,3.49,3.49,0,0,1-.12.75,3.21,3.21,0,0,0-.13.76c-.5-.17-.84,0-1,.37a3.4,3.4,0,0,1-.76,1.14H6.79l-.25,5a6.41,6.41,0,0,0-.88.5,1.54,1.54,0,0,1-.88.25V128l.5.5a1.28,1.28,0,0,1-.25.63,1.52,1.52,0,0,0-.25.88H4a13.65,13.65,0,0,0-.63,1.38,4,4,0,0,0-.12,1.13H2.76l-.25,3c.51,0,.76.17.76.5v.25c0,.34-.34.76-1,1.26a15.65,15.65,0,0,0-1.51,1.26,1,1,0,0,1-.12.63c-.09.08-.13.29-.13.63l.51.5a.22.22,0,0,1-.25.25.53.53,0,0,1-.13.38.48.48,0,0,0-.13.37v.51a1,1,0,0,0,.13.5,1.82,1.82,0,0,1,.13.76,1,1,0,0,1-.76,1,1.16,1.16,0,0,0,.76,1.26.67.67,0,0,0-.76.75,1.52,1.52,0,0,0,.25.88,1.56,1.56,0,0,1,.25.88.73.73,0,0,1-.25.51.73.73,0,0,0-.25.5,4.08,4.08,0,0,0,.25,1.26,4,4,0,0,1,.25,1.26l1.51.75-.5,1.26q1.26.25,1.26,1.26a.5.5,0,0,1-.13.37c-.08.09,0,.3.13.63v3h.5v3c.33,0,.46.21.38.63A1.17,1.17,0,0,0,4,163.74V162h.75a27.84,27.84,0,0,1,2,2.64c1,1.43,1.68,2.14,2,2.14s.55,0,.63-.13a1.06,1.06,0,0,1,.63-.12,16.23,16.23,0,0,1,1.76,1,7.16,7.16,0,0,0,1.76,1,1.52,1.52,0,0,0,.88-.25,1.22,1.22,0,0,1,.63-.25q0-1,.51-1.26t.75,0c.33,0,.54.09.63.25s.29.25.63.25c.33-.84.83-1.26,1.51-1.26a1.22,1.22,0,0,1,.88.38,1.2,1.2,0,0,0,.88.38c.33,0,.83-.42,1.51-1.26l.5-1.76c-.67,0-1-.25-.88-.75a1.36,1.36,0,0,0-.38-1.26l.51-6.79v-.25l.25.25.5-3c.17,0,.25-.25.25-.75a1.19,1.19,0,0,0-.12-.51,1.6,1.6,0,0,1-.13-.75,2.85,2.85,0,0,1,1.38-2.27c.92-.66,1.39-1.17,1.39-1.5a.58.58,0,0,0-.38-.63c-.25-.09-.3-.3-.13-.63,0-.34,0-.42-.12-.25s-.05.08.12-.26h.76a4.84,4.84,0,0,1,1-2.26h.76a2.39,2.39,0,0,1,.75-.88,2.44,2.44,0,0,0,.76-.88v-2.77c.33,0,.67-.25,1-.75s.67-.67,1-.5A3.49,3.49,0,0,1,33,134.44a3.53,3.53,0,0,0,1.76-1.89h1v-1H34.46a2.7,2.7,0,0,1,.5-.76,1,1,0,0,0,.25-.75,1.86,1.86,0,0,0,1.76.12l1.76-.88v-2.51q1-.26,2-2h.51c.67.67,1.08,1,1.25,1a5.65,5.65,0,0,0,.76-1.63,3.15,3.15,0,0,1,1.26-1.64,4.4,4.4,0,0,0,.25-1.76c.5-.16.75-.66.75-1.51L47.28,118a.73.73,0,0,0-.25-.51c-.17-.16-.08-.25.25-.25h1.51c0,.34.25.5.76.5a1.54,1.54,0,0,0,.88-.25,1.59,1.59,0,0,1,.88-.25,1.77,1.77,0,0,1,1.51-1.51c.83-.16,1.09-.83.75-2a5.12,5.12,0,0,0,2.52-.38,2,2,0,0,1,1.25-.38c.17,0,.26,0,.26.13s.16.13.5.13v-.76l-.5-.5v-.76h.75c0,.34.33.51,1,.51a2.38,2.38,0,0,0,1.51-.63c.5-.42.92-.8,1.25-1.13a1.35,1.35,0,0,0,1.64-.13,10.68,10.68,0,0,1,1.38-.88,1.74,1.74,0,0,1,1.26-.5v-1.26a1.34,1.34,0,0,0,1.89-.75,1.33,1.33,0,0,1,1.88-.76,4.78,4.78,0,0,1,.76-2.51q.5.5.75.12a5.75,5.75,0,0,1,.76-.88h1.25c.67-.16,1.17-.92,1.51-2.26H76l2-2h2c0-.34.08-.51.25-.51h.51a2.27,2.27,0,0,1,2-1.25c0-.17.16-.42.5-.76a2.74,2.74,0,0,0,2.14-1,3,3,0,0,1,2.39-1,1.58,1.58,0,0,1,1.13-1.26,5.54,5.54,0,0,0,1.64-.75h2.76c.34-.84,1.26-1.26,2.77-1.26a.66.66,0,0,1,.75-.75,3.56,3.56,0,0,1,.88-1.26,1.85,1.85,0,0,0,.63-1,3,3,0,0,0,1.89-.37,2.93,2.93,0,0,1,1.89-.38c.16-.67.41-1,.75-1h.75c0-.33.09-.5.26-.5a.73.73,0,0,1,.5.25,4.53,4.53,0,0,1,2.77-.75.89.89,0,0,1,1-1,2.29,2.29,0,0,0,1.13-.38,2.27,2.27,0,0,1,1.14-.37l1-.51a3.62,3.62,0,0,1,1.51-.25l2-1.51a.22.22,0,0,0,.25.25,2.7,2.7,0,0,0,.76-.5.69.69,0,0,1,.5-.25c0,.34.08.5.25.5H117a2.49,2.49,0,0,1,1-1.26,1.68,1.68,0,0,1,1.76,0,5.23,5.23,0,0,1,4.15-2.13A13.53,13.53,0,0,0,128.78,76l2,.51c-.17-.51-.34-.76-.5-.76s-.26-.16-.26-.5a.45.45,0,0,1,.51-.5h.75c0,.33.08.5.25.5a.22.22,0,0,1,.25.25h.76v-.25h2.26v-.75a1.5,1.5,0,0,0,1.39-.63c.25-.42.46-.8.62-1.14a3.91,3.91,0,0,0,2.77-.75h3v.5h.25l.5-.5h2.27v-1h4v-.25l.51-.25h3.27a.9.9,0,0,1,.88-.5h.88c0-.5.41-.76,1.25-.76.34,0,.55.09.63.25s.29.26.63.26c.5,0,.76-.17.76-.51h2.76a1,1,0,0,0,.26.76c0,.34,0,.54.12.63a.52.52,0,0,1,.13.37h2c0-1.17.42-1.76,1.26-1.76v-.75h-.25c-.17,0-.26-.25-.26-.76H168a1.57,1.57,0,0,0,.38.76,1.06,1.06,0,0,0,.88.5.44.44,0,0,0,.5-.5H173c.17-.67.51-1,1-.88a1.35,1.35,0,0,0,1.26-.38v.76h4a2.22,2.22,0,0,1,1.76-.88,2.93,2.93,0,0,0,1.76-.63h3.27c.34.33.76.29,1.26-.13s.84-.54,1-.38v1c.33,0,.5.25.5.75a2,2,0,0,1,1.26-.75h.5v.75c.16-.5.42-.75.75-.75.17.34.34.25.51-.25s.33-.59.5-.25c.33-.34.42-.17.25.5s-.08,1,.25,1c0-.5,0-.75.13-.75s.29.17.63.5a1.43,1.43,0,0,1,2.51,0,1.65,1.65,0,0,0-1,.38.7.7,0,0,1-1-.13,1.45,1.45,0,0,0-.25,1.39c.16.42,0,.8-.5,1.13-.51,0-.76.17-.76.5a3.91,3.91,0,0,1-.5,1.51h-.5a14.78,14.78,0,0,1-2,4.65A20.05,20.05,0,0,0,187.38,82a4.28,4.28,0,0,0-1.76,2.26,14.16,14.16,0,0,0-1,3.77.52.52,0,0,0-.37.13.5.5,0,0,1-.38.13h-.25a2.73,2.73,0,0,0-.25,1.25h-.51a1.74,1.74,0,0,0-.5,1.26c0,.5-.34.92-1,1.26-.34.84-.68,1.59-1,2.26a2.28,2.28,0,0,1-1.51,1.26,2.59,2.59,0,0,1-.13.88,2.88,2.88,0,0,0-.12.88l-4,7.54h-.5a4.81,4.81,0,0,1-1.51,2.77,1.74,1.74,0,0,1-.5,1.26l-1.26,2.26a2.8,2.8,0,0,0-.25,1.26H170a9.7,9.7,0,0,1-1.51,3.39q-1,1.4-2,2.64a11.32,11.32,0,0,1-.13,1.39,1,1,0,0,1-1.13.88,7.39,7.39,0,0,1-1.51,2.89,10.8,10.8,0,0,0-1.76,3.14c-.34.34-.46.59-.38.76s0,.34-.37.5a2.74,2.74,0,0,1-.26,1.26,1.74,1.74,0,0,1-.5,1.26h-.75a9.72,9.72,0,0,1-.13,1.51,2.3,2.3,0,0,1-.63,1.25,1,1,0,0,0-.5,1h-.76v.76h-2.77a.73.73,0,0,0-.25.5.25.25,0,0,1-.5,0v.25a.22.22,0,0,1-.25-.25l-.25-.5h-2.77a.69.69,0,0,0-.25.5.22.22,0,0,1-.25.25v-.25a.22.22,0,0,1-.25-.25c0-.17-.17-.26-.51-.26,0,.68-.12,1-.37.88s-.55.05-.89.38h-2.26v.25c0,.17-.17.25-.5.25h-2.77c0-.33,0-.5-.12-.5s-.13-.08-.13-.25h-2.52a2,2,0,0,1-1.76.76h-.25c-.17,0-.33-.17-.5-.51h-2.77a4.26,4.26,0,0,1-1.38.88,4.32,4.32,0,0,0-1.38.88h-2.77c0-.67-.42-1-1.26-1a5.46,5.46,0,0,0-2.13,1.13,5.25,5.25,0,0,1-2.64,1.13v.25c-1,.34-1.81.63-2.39.88a7.08,7.08,0,0,1-2.64.38c.16.34-.17.5-1,.5a3.2,3.2,0,0,1-1.13-.5c-.59-.34-.88-.59-.88-.76h-2q-.25.51-.51.51a.7.7,0,0,1-.5-.26,1.8,1.8,0,0,1-.63,1.51,1.9,1.9,0,0,1-1.13.51c-.67,0-1,0-.88-.13s-.05-.29-.38-.63h-.76a1.85,1.85,0,0,1-.12.76,2.46,2.46,0,0,0-.13,1,1,1,0,0,0,.13.5,1.19,1.19,0,0,1,.12.51v1h-2l-2.26,1-2.52.5c-.84.51-1.26,1-1.26,1.51a1.52,1.52,0,0,0,.26.88,1.32,1.32,0,0,1,.25.63,1.85,1.85,0,0,1-.51,1.13,2.59,2.59,0,0,1-1.5.88,1.9,1.9,0,0,1-.13,2c-.42.5-.8.92-1.13,1.25a2.1,2.1,0,0,1,.75,1.26h5.28c.34.34.59.5.76.5a1.87,1.87,0,0,0,1.13-.5q.63-.49.63-.75h3c0-.34.08-.55.25-.63s.25-.29.25-.63h2.52v.5h2.26a1.71,1.71,0,0,1,1.26-.5,2.06,2.06,0,0,1,1.25.75,2.42,2.42,0,0,1,.76,1.76l1.26-.5h2c.33,1.18,1.26,1.43,2.77.76a1.12,1.12,0,0,0,.37,1,.86.86,0,0,1,.38.76h4l1.26,1v-.5a.22.22,0,0,1,.25-.25l1.26,1.76h2v-.5h2.27l.5-.76a.75.75,0,0,1,.5.25,2.93,2.93,0,0,0,.76.51l.75.75a1.85,1.85,0,0,0,.76-.12,1.6,1.6,0,0,1,.75-.13,2.18,2.18,0,0,1,1.76,1h2v1.26h1v1.25c-.34.17-.46.38-.38.63s0,.55-.37.88a7,7,0,0,1-.63,1,1.63,1.63,0,0,0-.38,1c-.34.34-.47.55-.38.63s-.12.3-.63.63a5.12,5.12,0,0,1-.12,1.51,3.51,3.51,0,0,0-.13,1.26,3.13,3.13,0,0,0-.76,1.26,4,4,0,0,1-1,1.51h-.25v1.76h1.25a4.33,4.33,0,0,0,.63.5c.25.17.38.34.38.5a2.59,2.59,0,0,1-.13.88,2.93,2.93,0,0,0-.12.88h-1.26l-.5-.5h-.26a3.52,3.52,0,0,0-.5-2,60.44,60.44,0,0,0-2.77,7.54h-.5c-.17.67-.8.8-1.89.38s-1.63-.21-1.63.63a6,6,0,0,0-2.26,5h-1a.84.84,0,0,1,.13,1.13,2.18,2.18,0,0,1-.88.88,8.56,8.56,0,0,1-1.64,3.4,8.81,8.81,0,0,0-1.63,3.89h-.26a3.66,3.66,0,0,0-.5,2,5.45,5.45,0,0,0-1.51,4,1,1,0,0,0-.63.12c-.08.09-.29.13-.62.13a2.8,2.8,0,0,1-.26,1.26,1.7,1.7,0,0,1-.5,1.26H120c0,.33,0,.54-.13.62a1.06,1.06,0,0,0-.12.63c-.34.17-.5.68-.5,1.51-.34.34-.47.55-.38.63s0,.3-.38.63l-.25,1.51h1v.75a2.17,2.17,0,0,0-1.76.63,14.54,14.54,0,0,1-1,1.13v1.51h.75c0,.34.08.55.25.63s.25.29.25.63v2a2.39,2.39,0,0,0-.62,1.39,4.08,4.08,0,0,1-.63,1.63c-.34-.17-.47-.38-.38-.63a2.88,2.88,0,0,0,.12-.88c-.33,0-.42-.08-.25-.25s.09-.25-.25-.25h-.75a9.78,9.78,0,0,0-.88,1.63,4.68,4.68,0,0,1-.88,1.39v2.26a1.94,1.94,0,0,0-.76,1.76,4.69,4.69,0,0,0-.38,1.13,1.83,1.83,0,0,1-.88,1.14h-.25c-.34,1-.67,2-1,3.14a8.76,8.76,0,0,1-1.51,2.89l-.25,3.52a2.15,2.15,0,0,0-.76,2.27c.17,1-.42,1.59-1.76,1.76v1l.5.51v1h-.5a4.93,4.93,0,0,1-.25,1.51,1,1,0,0,1-1,.76l-.25,2.76c-.67.67-.92,1-.75,1l-.51,3.52c-.33,0-.54.08-.62.25s-.3.25-.63.25v3.52h-.51l-.25,2.77c-.34,0-.5.25-.5.76,0,.33.08.54.25.62s.25.3.25.63v.26c0-.18-.25,0-.75.5l.25,2.76-.25,3.27c-.34.34-.42.59-.25.76s.08.5-.25,1h-.76l-.5,5.78c-.17,0-.34.21-.5.63s-.34.63-.51.63c0,.33.25.58.76.75v6.79a3.56,3.56,0,0,1,1.26.88.81.81,0,0,0,.75.38l2.77-.75h.75q-.25.5-.12.63a1,1,0,0,1,.12.62v2l.5.25h.26a2,2,0,0,0,1,2,3,3,0,0,1,1-1.38,2.17,2.17,0,0,1,1.26-.63.58.58,0,0,1,.62.5.6.6,0,0,0,.63.5l.76-1c0-.51-.17-.76-.51-.76l-.25-2.76.25-3.52.51-.51c0-.34-.09-.54-.25-.63s-.26-.29-.26-.63a1,1,0,0,0,.76-.25l.5-.5a2.93,2.93,0,0,0-.5-.75,6,6,0,0,1-.76-1.26c0-.34.34-.51,1-.51-.5-.67-.17-1,1-1v-1.76c-.34,0-.51-.09-.51-.25a.73.73,0,0,1,.25-.51v-.75h.76v-.76c-.34,0-.5-.08-.5-.25s-.09-.25-.26-.25a1,1,0,0,1,.76-.25c-.34-.34-.3-.72.12-1.13a4.38,4.38,0,0,1,1.14-.88v-1h2.39a1.41,1.41,0,0,1,.88.5l-1,.51c0,.66-.13,1.09-.38,1.25a1.15,1.15,0,0,0-.37,1,2.73,2.73,0,0,1,1.25-.25c.34-.34.46-.63.38-.88s0-.55.38-.88v-3.27a10.64,10.64,0,0,0,1.76-1.64,4.47,4.47,0,0,0,1-1.88H120a3.14,3.14,0,0,1,.25-2.27,18,18,0,0,0,1-1.76l1.25,1.26H122v2.27h-1a35.14,35.14,0,0,1-1.76,5H119a1,1,0,0,1-.25.75,1,1,0,0,0-.25.76,1.68,1.68,0,0,1,1.26-.51,2.54,2.54,0,0,1,.63-1.88,3.56,3.56,0,0,0,.88-1.64.84.84,0,0,1,.25,1,.82.82,0,0,0,.25,1c.16,0,.21.08.12.25s0,.25.13.25l3.77.25,1-3.27,2-1.51c0-.5.33-.92,1-1.26v-4.27a3.31,3.31,0,0,0,.75-1.26,1.17,1.17,0,0,1,1.26-.75,27.73,27.73,0,0,1,1.13-2.9,6.48,6.48,0,0,1,1.89-2.39v-.75l-1.26.5c0-.34-.13-.5-.38-.5s-.21-.17.13-.5c0-.17-.05-.26-.13-.26s0-.16.38-.5v-.75c-.5,0-.76-.09-.76-.25.34-.34.42-.59.26-.76s-.09-.34.25-.5h3.52v-1c1,.33,1.55,0,1.63-.88a1.42,1.42,0,0,1,1.64-1.38,4.94,4.94,0,0,1,1.38-2.27,5.44,5.44,0,0,0,1.38-1.76l1.51-4.27h.51a2.1,2.1,0,0,1,.63-1.76,2.78,2.78,0,0,0,.88-1.26l-.26-.25.26-2c.5,0,.62-.21.37-.63s-.21-.72.13-.88a1,1,0,0,1,.5,1,1.87,1.87,0,0,0,1.13-.5,1.79,1.79,0,0,1,1.64-.25l-1.26-1.26,1.51-1,.5-2.52a1.43,1.43,0,0,0,.5-1,3.13,3.13,0,0,1,.76-1.51h.75l.51-2.26a5.58,5.58,0,0,1,.63-1,1.65,1.65,0,0,0,.37-1l2-1.51v-1.26a.67.67,0,0,1,.76-.75v-2h-.76l.51-1.77v.51h.25c0-.34.08-.51.25-.51h.25l.5-.75c-.67,0-1.09-.08-1.25-.25a7.06,7.06,0,0,1,.12-1.51,3.83,3.83,0,0,0,.13-1v-.5c.67.67,1,1.09,1,1.26h1c-.17-.34,0-.63.38-.88s.63-.46.63-.63l.75-1.76a5.48,5.48,0,0,1,.26-1.76c0,.17.45.12,1.38-.13a1.6,1.6,0,0,0,1.38-1.63V203l-.25-.51.25-3.27a2.12,2.12,0,0,0,.88-.88,1.07,1.07,0,0,1,.88-.63l.76.76a.57.57,0,0,0,.62-.38.59.59,0,0,1,.63-.38v-1.25l-.5-.51v-.75H168v-.76c.33.34.63.34.88,0s.2-.83-.13-1.51c.67,0,.88-.29.63-.88s0-.88.63-.88v-.75h-.76a3.2,3.2,0,0,1-.63,1.89,2.74,2.74,0,0,0-.63,1.38h-.75l.5-2.77a.41.41,0,0,0,.38-.25c.08-.16.29-.25.63-.25v-2.77a1.5,1.5,0,0,0,1-1.13c.17-.58.51-.71,1-.37l1.76-3.27c.67.33,1.09.21,1.26-.38s.5-.71,1-.38c-.16-.33.3-.54,1.39-.63s1.72-.29,1.88-.63v-2h.76a1.7,1.7,0,0,1,.5-1.26v-3a1.74,1.74,0,0,0,.5-1.26h1c0-.84.25-1.26.76-1.26v-1.51h1c-.34-.67-.29-1.13.13-1.38a5.1,5.1,0,0,0,.88-.63,1.19,1.19,0,0,1,1-1.26v-2.51A.62.62,0,0,0,185,164a1.6,1.6,0,0,1,.38-1.25h1.26a3.8,3.8,0,0,0,1,2v-1.51h1.26c0,.34.08.54.25.63s.25.29.25.63h.76v-1.26a2,2,0,0,0-1.64-.38c-.75.09-1.13-.29-1.13-1.13a1,1,0,0,1,.25-.75c.34,0,.55-.09.63-.26s.29-.25.63-.25c0,.17.42.42,1.26.76a2.18,2.18,0,0,0,.25,1,2.35,2.35,0,0,1,.25,1h.76c-.34-.84-.3-1.42.12-1.76a2.72,2.72,0,0,0,.88-1.51h2.52l.5-.26h.75v3.53a3,3,0,0,1,1.76.37c.34.25.76.55,1.26.88l1-1.76,1.51-1h2.51c-.5,1-.46,1.68.13,2a1.49,1.49,0,0,1,.63,1.76,1.59,1.59,0,0,0,.75-.38,1,1,0,0,1,1.26.13.67.67,0,0,1,.75-.76h.51a5.12,5.12,0,0,0,.12,1.51,1.67,1.67,0,0,1,.13.76h2.76l2.77,1.76h2.77c0-.84.21-1.34.63-1.51s.63-.33.63-.5h3.77c0,.17.16.37.5.62a.64.64,0,0,1,.25.88,14.71,14.71,0,0,0,1.76-1,19.3,19.3,0,0,1,1.76-1,3.9,3.9,0,0,0,.76-1c.16-.34.58-.42,1.26-.26a2.4,2.4,0,0,1,2-1,4,4,0,0,1,1.51.5c.66.34,1,.67,1,1,0,.5-.17.75-.5.75h-.5a2.86,2.86,0,0,1-.13.88,1.9,1.9,0,0,0-.12.63l.25.25V168h2.51l.51-.5h.25a3,3,0,0,1,1.51.88,5.89,5.89,0,0,1,1.25,1.38,3.46,3.46,0,0,1,2-1.25c.33-.51.5-.72.5-.63s.08,0,.25-.38c1-.33,1.42-.59,1.26-.75s.25-.26,1.26-.26a3,3,0,0,0,.88-.12c.25-.08.37.21.37.88H245c0-.34.21-.54.63-.63a1.18,1.18,0,0,0,.88-.63H249v.5h.25c.34,0,.84-.33,1.51-1s1.17-1,1.51-1h2c.51.51.84.76,1,.76v-2a5.78,5.78,0,0,0,1.38-.88A4.06,4.06,0,0,1,258.56,161.73ZM508.8,189.9a.23.23,0,0,1,.25-.26c.34,0,.51.09.51.26a.22.22,0,0,0,.25.25v-4.78a1.83,1.83,0,0,0,.5-1.38c0-.59.42-1.13,1.26-1.64v-2.77c.17-.16.25-.58.25-1.25,0-.34-.5-.67-1.51-1v-1.76a1,1,0,0,0-.75.25,1,1,0,0,1-.76.25v2h-.5v2.26c-.5,0-.75.17-.75.5.5.34.75.59.75.76a.44.44,0,0,1-.5.5h-1a1.09,1.09,0,0,1-.5.88c-.34.25-.5.46-.5.63,0,.34.33.88,1,1.63s1.17,1.31,1.51,1.64a.66.66,0,0,0-.75.75,2,2,0,0,0,.75,1.26.66.66,0,0,0-.75.75q.75,0,.75.51C508.63,190.15,508.8,190.07,508.8,189.9ZM544,128.53a1.65,1.65,0,0,0,.76-.76,1.84,1.84,0,0,0,.37-.5,2.28,2.28,0,0,1,.38-.5h-.75c0,.67-.26,1-.76,1h-.75A.67.67,0,0,0,544,128.53ZM659.2,63.64l-.5-.5-1.51-.76h-1.51v.25h-1.26v-1a2.28,2.28,0,0,1-1.76-.13,4.41,4.41,0,0,0-1.51-.63V59.62h-.75c-.51.84-.93,1.25-1.26,1.25h-.5a2.4,2.4,0,0,0-.76-1.76h-3.52q0-.24-.63-.63a2.25,2.25,0,0,1-.88-.88H641.6v1.26h-.76a1.09,1.09,0,0,1-.5.88,1.32,1.32,0,0,0-.51,1.13.22.22,0,0,1-.25-.25c0-.16-.17-.25-.5-.25V56.85c.33,0,.5-.25.5-.76a1.13,1.13,0,0,0-.37-1,5.39,5.39,0,0,1-.88-.76h-1.51v1.26h-1c-.34-.5-.59-.75-.76-.75-1,0-1.5.37-1.5,1.13s-.42,1.13-1.26,1.13a1,1,0,0,1-.5-.13,1.19,1.19,0,0,0-.51-.12,1.17,1.17,0,0,0-.88.38,1.54,1.54,0,0,1-1.13.37c0,.84-.21,1.35-.63,1.51a3.27,3.27,0,0,0-1.13.76l-.76,2.51a1.45,1.45,0,0,0-1-.5,2.22,2.22,0,0,1-1-.25c-.34.17-.5.34-.5.5a.22.22,0,0,1-.25.25,21.14,21.14,0,0,1-1.76-1.51c-.17.34-.34.47-.5.38s-.34,0-.51.38c0,.17-.17.38-.5.63a1.55,1.55,0,0,1-.75.37,1.42,1.42,0,0,1-1-.5,1.47,1.47,0,0,0-1-.5v1a.45.45,0,0,1,.51.51v3.27h-2.77c.17.5-.17,1.17-1,2a2.35,2.35,0,0,0-.25,1c0,.33-.25.5-.75.5a4.8,4.8,0,0,1-2.27,2.51V73.7a3.08,3.08,0,0,0-1.51.75l-1.5,1a3,3,0,0,1-1,2.39,2.38,2.38,0,0,0-1,1.64A2.7,2.7,0,0,0,605,81a1.38,1.38,0,0,1-1.38,1,3.69,3.69,0,0,1-1.26,1.76,3.68,3.68,0,0,0-1.26,1.76,4.51,4.51,0,0,1-1.38,1.64,1.91,1.91,0,0,0-.88,1.63l-1.26.75a8.84,8.84,0,0,1-2,2.77,4.73,4.73,0,0,1-1.26,1.89,4.76,4.76,0,0,0-1.26,1.88h-2.26c0-.5-.17-.75-.5-.75s-.55.12-.63.38a.59.59,0,0,1-.63.37v-.75h-3l-.75,2a6.64,6.64,0,0,1-1.39-.13c-.42-.08-.63.05-.63.38h-3l-.26-.25a.5.5,0,0,0-.38.13.51.51,0,0,1-.37.12H579c-.34-.33-.59-.46-.76-.38s-.42,0-.75-.37a1,1,0,0,1-.76-.25l-.5-.51a1.2,1.2,0,0,0-.51.13,1.11,1.11,0,0,1-.5.12l-.5-.25h-3.27l-.25.25a2.09,2.09,0,0,0-.76-.25,1.88,1.88,0,0,1-.75.25H568.4a.89.89,0,0,1-1,1c-.17,0-.25-.16-.25-.5v-.5h-3.28c0,.67-.16,1-.5,1-.17,0-.42-.16-.75-.5v-.5a2.73,2.73,0,0,0-.25,1.25h-.76v-.25h-1.26c0,.17-.17.42-.5.76h-1.51c-.34-.34-.55-.46-.63-.38s-.29,0-.62-.38h-4.28v.25h-5.28v.51h-2.77l-.25.5h-.25v-.25a1.07,1.07,0,0,1-.51-.13,1.15,1.15,0,0,0-.5-.12c-.34,0-.5,0-.5.12s-.17.13-.5.13L542,98.1l-.25.25h-.25c0-.34-.25-.42-.75-.25a1.6,1.6,0,0,1-1.26,0,.45.45,0,0,0-.51-.51.77.77,0,0,0-.5.25.72.72,0,0,1-.5.26c-.34,0-.5-.09-.5-.26s-.17-.25-.51-.25a1.51,1.51,0,0,0-.75.38,2.07,2.07,0,0,1-1.26.38,1.42,1.42,0,0,1-1-.25c-.35.33-.59.46-.76.37a1.18,1.18,0,0,0-.5-.12c-.67,0-.93,0-.76-.13s-.09-.29-.75-.63c0,.68-.13.88-.38.63s-.55-.21-.88.13h-8.55c0-.17-.08-.25-.26-.25a5.49,5.49,0,0,0-2.76,1.25h-4.53v.25h-2l-.25-.25c-.67,0-1,.09-1,.25h-3l-.25.51H507a.73.73,0,0,1-.5-.25,1,1,0,0,0-.76-.26q-.75,0-.75.51H501.5c-.34.5-.54.75-.63.75h-1.38v-.75l-1.52,1h-4.52c0-.16-.13-.29-.38-.37a.59.59,0,0,1-.38-.63c-.33.84-.79,1.25-1.38,1.25a1.6,1.6,0,0,0-1.38.76h-2.52a3.08,3.08,0,0,1-2.26.75,4,4,0,0,1-2.52,1,2.82,2.82,0,0,1-1,1,4.12,4.12,0,0,0-1,.75l-.75,2.26h-.5v1.26a1.45,1.45,0,0,1,1,.5h2.77v2a2.22,2.22,0,0,1-1,.25v1a.8.8,0,0,1,.5.76h1.26a3.89,3.89,0,0,0,.13,1,3.8,3.8,0,0,1,.12,1,8.75,8.75,0,0,1,2.52.38c.84.25,1.68.46,2.51.63v.5h1.51v-.75h2v.75h1.52l1,1c.34.33.67.67,1,1a3.37,3.37,0,0,1,1.26.88.86.86,0,0,0,.76.38.66.66,0,0,0,.75-.75h3.27a4.12,4.12,0,0,0,1,.75,1,1,0,0,1,.5,1H505a1.55,1.55,0,0,1,1.76-1.76c.5,0,.75.08.75.25a1.65,1.65,0,0,0,.38,1,1.72,1.72,0,0,1,.38,1h3.52v.5h1.26q-.51-.75-.63-.75c-.08,0-.13-.17-.13-.51v-.75h1.26l.76,1a1.19,1.19,0,0,1,1.25-1l.25.25c0-.5.17-.67.51-.5s.75,0,1.25-.5h2.77a.66.66,0,0,0,.75.75c.35,0,.51-.13.51-.38s.25-.37.75-.37a1,1,0,0,1,.26.75h2.51v1h-3.27v.5h-3.52l-3.27,1.51c0,.67.25,1,.75,1a1.43,1.43,0,0,1,1.64-.5,1.33,1.33,0,0,0,1.64-.75c.16-.34.54-.46,1.13-.38s.88,0,.88-.38h2.26v.25h3a1.56,1.56,0,0,0,.88.76,2.57,2.57,0,0,1,1.13,1h-.5v.76h.5a1.38,1.38,0,0,1,1.26-1.13,14.5,14.5,0,0,1,1.51-.13c0-.33.08-.5.25-.5v.5H534c0-.33,0-.54.12-.63a1,1,0,0,0,.13-.63h2.51c.17.68.46,1,.88.88a6.13,6.13,0,0,1,1.13-.12.8.8,0,0,0,.76.5q0-.75,1.26-.75c0,.5.08.75.25.75v3.77q.75.26.63.51c-.09.17,0,.33.37.5a1.44,1.44,0,0,0,.26-1h1V126a4.53,4.53,0,0,1,2.77-.75V123.5h.75a.8.8,0,0,0,.76.5,2.22,2.22,0,0,0,1.26-.63c.5-.41.83-.71,1-.88a3.06,3.06,0,0,0,1.76-.5h1.51c.34.67.76,1,1.26.88s.92.29,1.26,1.13h1.51v-1.26h.75c.34.51.67.76,1,.76.16,0,.25,0,.25-.13s.16-.12.5-.12c.17,0,.25,0,.25-.13s.17,0,.51.38h3.52c0,.34.08.5.25.5h.25a1,1,0,0,0,.76-.25,1,1,0,0,1,.75-.25,4.84,4.84,0,0,1,1.63.5c.76.34,1.39.59,1.89.76.33,1,.59,1.42.75,1.25s.26.26.26,1.26a3.51,3.51,0,0,1-.88,1.64c-.59.75-1,1.13-1.14,1.13a9.77,9.77,0,0,1-1.5,3.39,9.56,9.56,0,0,0-1.51,3.4h-.25a3.4,3.4,0,0,1-1,2.51,6.64,6.64,0,0,0-1.51,2.27l-1,1.26c0,.5-.17.75-.5.75h-.25v1.26c-.5.67-.92,1.22-1.26,1.63a4.08,4.08,0,0,0-.75,1.64l-.25,1.51-.14.39a2.27,2.27,0,0,0-.49.49,1.07,1.07,0,0,1-.88.63,19.65,19.65,0,0,1-5.28,7,2.73,2.73,0,0,1-1.26,1.88,1.88,1.88,0,0,0-1,1.64l-2,2a7.59,7.59,0,0,0-1,1.26,3.06,3.06,0,0,0-.51,1.76c-1.34,0-2.18.42-2.51,1.25a10,10,0,0,1-1.51,2.52c0,.5-.17.76-.51.76a4.59,4.59,0,0,1-2,1.51,11,11,0,0,1-1.63,2.26,11.15,11.15,0,0,1-1.89,1.76l-1,1.26a8.63,8.63,0,0,1-1.76,2.13,13,13,0,0,0-1.76,1.89,3.81,3.81,0,0,0-2,1,24.52,24.52,0,0,1-2,1.76c-.17,0-.25.25-.25.75l-2,2a19.46,19.46,0,0,0-1.76,2h-.76l-1.26,1.26a1.42,1.42,0,0,1-1,.25L518.48,193l-2.89,2.89c-1,1-2,1.93-3,2.77a4.42,4.42,0,0,1-2.26,1.26h-.51q0-1.52-.75-1.89c-.5-.25-.59-1-.25-2.39-.34.17-.51,0-.51-.5h.51v-.76c-.51-.16-.72-.25-.63-.25s.12-.16.12-.5-.08-.5-.25-.5h.76V190.4c-.34,0-.51-.08-.51-.25h-1.5c0,.17-.18.21-.51.12s-.5,0-.5.13v6.79a.22.22,0,0,0-.25.25c0,.17-.17.34-.51.5v-6.79c-.5,0-.75-.16-.75-.5v-.25c0-.5.16-.76.5-.76H505a3,3,0,0,1,.26-2.13,3.82,3.82,0,0,0,.5-1.89H505v-.76c.33-.33.5-.58.5-.75a.44.44,0,0,1-.5-.5c.33,0,.54-.25.62-.76a2.3,2.3,0,0,1,.63-1.26H507v-3.52q.49,0,.63-.75a2.25,2.25,0,0,1,.62-1.26l-.75-.5h.25a.73.73,0,0,1,.5-.25V172h.51v-2.27h1.76v2c-.17,0-.25.34-.25,1a1,1,0,0,0,.12.63c.09.08.13.29.13.63h1.25a2.69,2.69,0,0,1,.26-1.39,2.75,2.75,0,0,0,.25-1.38h.75a2.17,2.17,0,0,1-.12-1.88c.25-.59.79-.8,1.63-.63v-1.26h-.75v-3c.66,0,1-.16.88-.5a1.61,1.61,0,0,1,.38-1.26V160c-.34.34-.63.38-.88.13a1.09,1.09,0,0,0-.63-.38,1,1,0,0,0-.63.13,1.06,1.06,0,0,1-.63.12,1.49,1.49,0,0,0-.25-1,1,1,0,0,1-.26-.76v-.5h1.26c0,.34.08.55.26.63a1.38,1.38,0,0,1,.5.63c.16-.34.41-1,.75-2a8.67,8.67,0,0,1,.51-1.25c0-.34-.09-.46-.26-.38s-.25-.21-.25-.88h.51v-2.52c-.34,0-.55-.29-.63-.88a2.46,2.46,0,0,0-.63-1.38,1.5,1.5,0,0,0-.5-.63c-.17-.08-.26-.29-.26-.63h-1.25a2.25,2.25,0,0,1-.88.88c-.42.25-.8.47-1.13.63l-.76-.75a.81.81,0,0,0,.88-.76c.08-.5.17-1,.25-1.51a4.29,4.29,0,0,1,.38-1.25c.16-.34.58-.42,1.26-.26-.17-.5-.42-.71-.76-.62a3.68,3.68,0,0,1-.75.12c0-.33-.09-.5-.25-.5a.22.22,0,0,1-.25-.25c.33-.34.5-.59.5-.76-.84.17-1.35,0-1.51-.5a2.33,2.33,0,0,0-1.26-1.26h-1.76c.33-.67.29-1.13-.13-1.38s-.46-.71-.12-1.39l-.63.63c-.09.09-.29.13-.63.13a3.91,3.91,0,0,1-1.51-.5,1.58,1.58,0,0,1-.75-.76c-.34,0-.76.3-1.26.88s-.92.88-1.26.88l-1-.5a2.93,2.93,0,0,1-.76-.5,1,1,0,0,0-.75-.26,2,2,0,0,0-1.26.38,9.92,9.92,0,0,0-1,.88h-4.52c0,.34-.17.47-.51.38a4.37,4.37,0,0,0-1-.13,1.55,1.55,0,0,1-1.12,1.64,1.41,1.41,0,0,0-1.14,1.38H483.9v.25h-4.78l-.25.51a.22.22,0,0,1-.25.25h-.25a1.2,1.2,0,0,1-.88-.38,1.24,1.24,0,0,0-.88-.38,1.67,1.67,0,0,0-1,.38,2.07,2.07,0,0,1-1.26.38,1.48,1.48,0,0,1-1.26.75c-.5,0-.92.34-1.25,1h-3.52c0,.17-.17.25-.51.25h-.25c-1,1.34-1.93,2-2.77,2,.17.68,0,1-.37.88a.73.73,0,0,0-.88.38h-3.78c-.17.67-.46.88-.88.63a2.26,2.26,0,0,0-1.13-.38,5.32,5.32,0,0,1-3.14,1.89,25.25,25.25,0,0,0-3.9,1.13c0,.5-.34.8-1,.88a12.14,12.14,0,0,1-1.51.13l-.75,1a3.52,3.52,0,0,0-2.39.76,7,7,0,0,1-2.39,1.25c0,.34,0,.55.13.63s-.13.13-.63.13h-.25v-1.76h.25v-2.27c0-.33.08-.5.25-.5h.25v-1.51h-.76V150.4a1.89,1.89,0,0,0,.26-.75,4.14,4.14,0,0,0-.26-1.26l.26-.75h1.25c.34.33.59.5.76.5h.5a1,1,0,0,0,.76.25,1.18,1.18,0,0,1,1.13-.37,7.31,7.31,0,0,0,1.38.12v-1.26h-1.26l1.51-2h-1.51l-.25.5h-.25c-.34-.33-.55-.41-.63-.25s-.29.09-.63-.25v-.75a1.45,1.45,0,0,1,1-.51,5.22,5.22,0,0,1,.12-1.51,4.48,4.48,0,0,1,.63-.75h.76c.5.34.5.84,0,1.51h2.51l1-3.27h.5c-.34-.67-.29-1.09.13-1.26a.83.83,0,0,0,.63-.75c0-.84.16-1.35.5-1.51a7.2,7.2,0,0,0,.25-1.26,15.08,15.08,0,0,1,1.64-2.26,3.72,3.72,0,0,0,.88-2.52l1.51-1.26a8.78,8.78,0,0,1,1.25-2.51,22.92,22.92,0,0,0,1.51-2.27l-.75-.5c0-.66.41-1,1.25-1a2.58,2.58,0,0,1,.26-1.51l.5-.51a.59.59,0,0,0-.38-.63.57.57,0,0,1-.38-.62,6.12,6.12,0,0,1,.76-1.51,16.81,16.81,0,0,1,1.26-1.76v-3.52H463v-2.52c-.5,0-.75-.16-.75-.5v-.25c0-.17.25-.42.75-.76v-2.51h-.75v-2.77c-.34,0-.51-.12-.51-.38a.85.85,0,0,0-.25-.63h-2.76c0,.17,0,.26.12.26s.13.16.13.5v.25h-1.26a12.1,12.1,0,0,0-.63-1.51,4.53,4.53,0,0,1-.38-2,13.38,13.38,0,0,1-2.14-1.38,9.8,9.8,0,0,0-2.39-1.39v-.5a2.16,2.16,0,0,1-1.88.13c-.42-.26-.88-.55-1.38-.88a.86.86,0,0,0-.63-.26,1.34,1.34,0,0,1-.88-.5h-1.26a.91.91,0,0,0-.88-.5h-1.13a1,1,0,0,0-.76-.25v.25h-4.27v.5h-3a.22.22,0,0,1-.25-.25v-.25h-8.3c0,.34,0,.5.12.5s.13.17.13.5l-.25.26v.5a.23.23,0,0,1,.25.25h-.25q-1.26,0-1.26-.75a1,1,0,0,0,.25-.76h-1v1.26q.75,0,.75,1.26a2.59,2.59,0,0,1-.88-.13c-.25-.08-.54,0-.88.38h-2.26a2.3,2.3,0,0,1-1.26.63,1.83,1.83,0,0,0-1.26,1.13H417.5c0,.5-.17.67-.5.5a.51.51,0,0,0-.76.25h-2.77c.34.51.29.76-.12.76h-1.13a4.73,4.73,0,0,1-1.51.25c-.67.34-1.35.71-2,1.13a3.82,3.82,0,0,1-2,.63,2.31,2.31,0,0,1-1.38.63c-.59.09-1.22.21-1.89.38-.33.67-.62.92-.88.75a1.29,1.29,0,0,0-.62-.25,5.66,5.66,0,0,1-1.64.75,1.58,1.58,0,0,0-1.13,1.26c0,.17.16.25.5.25a.22.22,0,0,1,.25.25v.26a.44.44,0,0,1-.5.5,2.28,2.28,0,0,0-2-1.26,1.39,1.39,0,0,0-1.39,1c-.25.67-1.55,1.17-3.89,1.51a1.22,1.22,0,0,1-1,.88,6.19,6.19,0,0,0-1.76.63,3.18,3.18,0,0,1-2.39,1.51,10.37,10.37,0,0,0-3.14,1,.58.58,0,0,1-.38.63c-.25.09-.38.21-.38.38a11.22,11.22,0,0,0-3.39,1.38,11.29,11.29,0,0,1-3.4,1.38,6.28,6.28,0,0,1-2.51,1.51,4.53,4.53,0,0,0-2.27,1.51l-3.77,1a2,2,0,0,1-2.77,1.76,3,3,0,0,1-1.38.75,2.26,2.26,0,0,0-1.38,1.26h-1.26a9.7,9.7,0,0,0-.88,1,.91.91,0,0,1-1.13.26,1.38,1.38,0,0,1-.51.63.41.41,0,0,0-.25.37,1.06,1.06,0,0,0-.75.25,1,1,0,0,1-.76.26c-.33,0-.54-.09-.63-.26s-.29-.25-.63-.25L354,128.15a7.53,7.53,0,0,0-1.22,1.66l-.16,0a6.76,6.76,0,0,0-2,.25c-.34-.33-.63-.46-.88-.37s-.47,0-.63-.38v-2.52h-1.26a3,3,0,0,1-1.63.76,4,4,0,0,0-1.64.5c-.17.34-.34.5-.5.5s-.25.09-.25.26h-2a1,1,0,0,0,.26.75.77.77,0,0,1,.25.5,7.87,7.87,0,0,1-1.39.76,3.49,3.49,0,0,0-1.13.75H339c.16.67.12,1.05-.13,1.14a1.15,1.15,0,0,0-.63.62v3.53c0,.16,0,.25.13.25s.12.08.12.25v.75a2.87,2.87,0,0,0-1.25.25H335a10,10,0,0,1-1,.89,2.53,2.53,0,0,1-1.51.37,3.18,3.18,0,0,1-1.51,1.76,4.68,4.68,0,0,1-.13.88q-.12.63-.63.63v.76c.34-.17.59-.13.76.12a1.82,1.82,0,0,0,.75.63v2.52c-.16,0-.25,0-.25.12s-.08.13-.25.13H331l2.77,1v1.51l-1.51,1.26v1H333l.5-.25h2.27a6.89,6.89,0,0,1,1,.63,1.09,1.09,0,0,1,.51.88h6.54a2.69,2.69,0,0,0,1,1.26c.34.17.51.67.51,1.51a8.86,8.86,0,0,1,2.51,1.63,3.26,3.26,0,0,1,1.26,2.39c.83-.16,1.13,0,.88.63a1.17,1.17,0,0,0,.12,1.38v4c-.33.34-.42.63-.25.88s.17.46,0,.63h-.75v3a1.69,1.69,0,0,0-.76,1.13,1.54,1.54,0,0,1-1,1.13v5c0-.16-.09-.08-.25.25v2.77a2.14,2.14,0,0,0-.63,1.13,7.54,7.54,0,0,1-.63,1.64h-.5v2.51a8.72,8.72,0,0,1-1.39,2.64,9.62,9.62,0,0,0-1.38,2.39,10.75,10.75,0,0,0-1.13,1.38c-.42.59-.8,1.14-1.14,1.64v.75H339a16.45,16.45,0,0,0-1,1.76,2.22,2.22,0,0,1-1.51,1.26c-1,1.35-1.93,2-2.77,2a4.26,4.26,0,0,1-.25,1.76,1.86,1.86,0,0,0-1.63,1,2.77,2.77,0,0,1-1.39,1.26c-.16.34-.67.5-1.51.5-.84.67-1.59,1.3-2.26,1.89a7.29,7.29,0,0,1-2.51,1.38,3.23,3.23,0,0,1-1.14.75,3.66,3.66,0,0,0-1.38,1.26h-2.76a1.8,1.8,0,0,1-.76,1.38,2.11,2.11,0,0,1-1.26.63h-.25c-.17,0-.34-.16-.5-.5h-2.27a.44.44,0,0,1-.5.5h-6l-4-2v-.5a.61.61,0,0,0-.75-.38.61.61,0,0,1-.76-.38h-2.51c-.17-.33-.68-.5-1.51-.5a8.5,8.5,0,0,1-1.64-1,9.28,9.28,0,0,0-1.63-1,6.1,6.1,0,0,0-1.64-2.27,3.21,3.21,0,0,1-1.13-2.51l-2-2.26v-3.27c-.34,0-.55-.09-.63-.25s-.3-.26-.63-.26v-3h-.25v-3.27c-.84.33-1.34.33-1.51,0a1.91,1.91,0,0,1-.25-.76,5.8,5.8,0,0,0,.88-1.13,1.05,1.05,0,0,1,.88-.63v-4.78h.25v-3.52c.5-.33.71-.67.63-1a3.89,3.89,0,0,1-.13-1h.76V174.8c.33-.33.5-.54.5-.63s.08-.21.25-.37a6.05,6.05,0,0,0,.63-2c.08-.67.29-1,.63-1v-2.27l2-2.51.76-1.51a.69.69,0,0,1-.5-.25.23.23,0,0,1-.26-.25,1.2,1.2,0,0,0,.88-.38c.26-.25.46-.38.63-.38-.17-.33,0-.67.51-1A1.25,1.25,0,0,1,297,162v-.75h-2V161c.17,0,.29-.17.38-.5s.38-.51.88-.51c.16,0,.25.17.25.51a.44.44,0,0,0,.5.5l2-2.52a5.71,5.71,0,0,1,1.63-2.51c.76-.67,1.55-1.43,2.39-2.27v-.75h.75c0-1.17.34-1.76,1-1.76a1.28,1.28,0,0,1,.5-1.51c.51-.33.92-.33,1.26,0a9.61,9.61,0,0,0,1.64-2.14,2,2,0,0,1,1.88-1.13,1,1,0,0,0,.51-1c.33.17.71-.08,1.13-.75s.79-1,1.13-1c0-.5.17-.75.5-.75h.25l.51-.5c0-.17.08-.26.25-.26s.25-.16.25-.5h.75a2.32,2.32,0,0,0,.88-.75,8.12,8.12,0,0,1,.63-.76,2.52,2.52,0,0,0,1.89-1c.58-.67,1-1.17,1.38-1.51h.25l.51-.5c0-.17.08-.26.25-.26s.25-.16.25-.5a3.57,3.57,0,0,0,2.26-1.13,3.48,3.48,0,0,1,2-1.13v-.76H327a1.55,1.55,0,0,1,.26-.88,1.59,1.59,0,0,0,.25-.88c1.51.34,2.47,0,2.89-.88a3.61,3.61,0,0,1,2.64-1.88,1.14,1.14,0,0,1,1.38-.51c.59.17.88-.16.88-1,1,0,1.6-.13,1.77-.38a3.56,3.56,0,0,1,1.5-.88,1.46,1.46,0,0,0,1.14-1.38c.08-.76.62-1,1.63-.63.67-.34,1.3-.67,1.89-1a16.19,16.19,0,0,1,2.14-1,3.76,3.76,0,0,0,1.25-1.64q.51-1.12,2-.63a2,2,0,0,1,.26-1.13,2.75,2.75,0,0,0,.25-1.38,8.68,8.68,0,0,0,1.26-1c.33-.33.66-.67,1-1l1.26-.76a1.76,1.76,0,0,0,.38-1.51,1,1,0,0,1,.88-1.26v-.75c-.34.17-.63,0-.88-.38a1.08,1.08,0,0,0-.88-.63,2.28,2.28,0,0,1,1-.25,1,1,0,0,1,.63.38,1.2,1.2,0,0,0,.88.38,2.74,2.74,0,0,0,1.38-.63c.59-.42.88-.71.88-.88a4,4,0,0,1,1.76-.51c.67-.33,1.22-.62,1.64-.88a1.68,1.68,0,0,1,1.63.13c0-.84-.33-1.26-1-1.26-.34-.83-.67-1.26-1-1.26q-.51.51-.75.51h-.25c-1.18,0-1.51-.59-1-1.76h-1.76c0,.84-.67,1.25-2,1.25a1,1,0,0,1-.63-.37,1.18,1.18,0,0,0-.88-.38,9.33,9.33,0,0,0-2.77,1.38,7.71,7.71,0,0,1-3.27,1.38,4.61,4.61,0,0,1-.88,1.14c-.42.42-.8.46-1.13.12a10.61,10.61,0,0,1-3.27,2.27,22.69,22.69,0,0,1-4,1.25,1.79,1.79,0,0,0-1.14.63,2,2,0,0,1-1.88.38,2.41,2.41,0,0,1-2,1c-.68.67-.93,1-.76,1a9.07,9.07,0,0,1-2.14.76,5.68,5.68,0,0,0-1.88.75,1,1,0,0,1-1,1.13,15.07,15.07,0,0,1-2,.13,3,3,0,0,0-1.13,1.51q-.37,1-1.89,0v1.26a4.36,4.36,0,0,0-3.52,2,9.77,9.77,0,0,0-2.77.88,3.61,3.61,0,0,0-1.76,2.39,6.27,6.27,0,0,0-2.26.5l-2.51,1c0,.34-.09.55-.26.63s-.25.29-.25.63h-1.51a8,8,0,0,0-1,1.25c-.34.51-.84.59-1.51.25-.5.34-.93.63-1.26.89a4.53,4.53,0,0,1-1.76.62,7.8,7.8,0,0,1-.75,1,1,1,0,0,0-.26.75,8.4,8.4,0,0,0-1.38,1,2.25,2.25,0,0,0-.88,1.76,2.15,2.15,0,0,0-1.38.88,1.49,1.49,0,0,1-1.39.63c-.33.34-.67.72-1,1.13s-.93.47-1.76.13A4.24,4.24,0,0,0,291,141c-.17.75-.84,1-2,.63l-2.52,2.76a2.25,2.25,0,0,1-.88,1.76,2.83,2.83,0,0,1-1.88.76v1.25l-4.78,4.28a1.92,1.92,0,0,1-.88,1.63,16.16,16.16,0,0,0-1.89,1.64,2.27,2.27,0,0,1-1.26,2,2.27,2.27,0,0,0-1.25,2,8.81,8.81,0,0,0-3.15,3.4c-.75,1.43-1.55,2.89-2.39,4.4h-.25c0,.67-.17,1.05-.5,1.13a1.16,1.16,0,0,0-.76.63v1.51a1.62,1.62,0,0,0-1.51,1,4.52,4.52,0,0,0-.5,2h-.75a1.17,1.17,0,0,0-.38,1.13c.08.42-.21.8-.88,1.13a6.29,6.29,0,0,0-.63,1.76,2.57,2.57,0,0,1-1.13,1.51,1.91,1.91,0,0,0-.25.76q0,.25-.51.75v1.26h1.26v1.26H259.8a3.84,3.84,0,0,0-.63,1.51,3.81,3.81,0,0,1-.63,1.51,4.89,4.89,0,0,0,.13,1.25c.08.34-.13.59-.63.76a6.6,6.6,0,0,0,.13,1.38c.08.42-.05.63-.38.63v3.27H257v4.78a.75.75,0,0,0-.5.25V199c0,.5.17.76.5.76V203h1.51a7.2,7.2,0,0,1,1.26.25c-.34.84-.8,1.17-1.38,1a1.31,1.31,0,0,0-1.38.26v2c.66.17,1,1.25,1,3.27a10.39,10.39,0,0,0,1.26,1.51,2.08,2.08,0,0,1,.5,2,2.39,2.39,0,0,1,1,2,15.53,15.53,0,0,0,1.38,2,7.38,7.38,0,0,1,1.13,2,38.38,38.38,0,0,0,3.27,2.9,6.18,6.18,0,0,1,2.27,3.39,2.28,2.28,0,0,1,1.25,1.39c.17.58.67.71,1.51.37l1.26,1a1.73,1.73,0,0,0,1.26.5v.5h5.53c.5.34.76.67.76,1h3.27v.5h2.51l.25.51h5.28a.74.74,0,0,0,.26.5.22.22,0,0,0,.25.25,4.07,4.07,0,0,1,1.63-1.26,5.16,5.16,0,0,1,1.89-.75c0-.17.08-.26.25-.26l.5.51h4c0-.51.21-.67.63-.51s.71.09.88-.25a3,3,0,0,0,.75-.5.71.71,0,0,1,.5-.25v.5h1.26q-.49-1,.63-.63a1.57,1.57,0,0,0,1.89-.63h2.76a3.71,3.71,0,0,1,2.27-.75,5.6,5.6,0,0,1,2.14-1,16.63,16.63,0,0,0,2.39-.75c.16-.67.41-1,.75-.88a3.58,3.58,0,0,0,.75.12,3.17,3.17,0,0,1,1.77-.5l.75-.75a1.22,1.22,0,0,0,.88-.38,1.54,1.54,0,0,1,1.13-.38,3.9,3.9,0,0,0,.76-1,1,1,0,0,1,1-.51v-.5h2.27a8.13,8.13,0,0,0,1.88-1,3,3,0,0,1,1.89-.51l3-1.51h2.26a1,1,0,0,1,.63-1,1.59,1.59,0,0,0,.88-.76,3.07,3.07,0,0,0-.13-.75c-.08-.34,0-.5.13-.5h1c-.34-.51-.26-.88.25-1.14a3.9,3.9,0,0,1,1.76-.37q0-.51.75-.51v-.5a.23.23,0,0,1,.25-.25q.51,0,.51-.75a1.56,1.56,0,0,0,2-.51,14.3,14.3,0,0,1,1.26-1.51c.5,0,1-.41,1.51-1.25h1.25a1.81,1.81,0,0,0,1.26-.76,1.64,1.64,0,0,1,1-.75V205a2.78,2.78,0,0,0,1.76-1c.16,0,.29-.12.38-.38s.46-.37,1.13-.37a3,3,0,0,1,.5-1.89,3.7,3.7,0,0,1,1.26-1,7.53,7.53,0,0,0,1.38-.88,2.66,2.66,0,0,0,.88-1.5h2a8,8,0,0,1,2.52-2.77,2.25,2.25,0,0,1,1.13-2.14,8.29,8.29,0,0,1,2.39-.88L367,190.9l1.76-1.26v-3.26a5,5,0,0,0,.88-1.26,2,2,0,0,1,1.38-1v-.75q-.25,0-.75-.51v-.75a1.72,1.72,0,0,0,1-.38,1.29,1.29,0,0,1,1.25-.12c-.5-.51-.33-.76.51-.76a1.39,1.39,0,0,1,1.25-1.51,1.71,1.71,0,0,0,1.51-1.25c-.34-.34-.46-.51-.37-.51s.12-.08.12-.25l.5-1a2.69,2.69,0,0,0,.51-.75,3.38,3.38,0,0,0,.75-1.13c.17-.42.33-.63.5-.63V172a2.2,2.2,0,0,1,.63-.25q.12,0,.63-.51h2.52a3.9,3.9,0,0,0,.75-1,3.93,3.93,0,0,1,.76-1v-2.51c-.34-.17-.42-.46-.25-.88a1,1,0,0,0-.26-1.14h-2v-2c.84-.33,1.13-.75.88-1.26s.13-1,1.13-1.5a.5.5,0,0,1,.26-.76,4,4,0,0,0,1-.75c0-.17.17-.42.5-.76v-3.77a3.34,3.34,0,0,1-.75-.5.74.74,0,0,0-.5-.26v-3c0-.34.08-.51.25-.51.67.17,1,.47.88.88a1.19,1.19,0,0,0,.38,1.14v-2.52c-.17-.33-.47-.92-.88-1.76a3.53,3.53,0,0,0-1.89-1.76v-2.26H381c0-.84-.08-1.34-.25-1.51a2.7,2.7,0,0,1-.25-1.51c-.84.34-1.34.29-1.51-.13a1.65,1.65,0,0,0-.75-.88v-1.26l-2-1.25a6.4,6.4,0,0,0-1.14-1.64,3.41,3.41,0,0,1-.79-1.47l.16-.16a5.46,5.46,0,0,1,2.27-2.9,13.75,13.75,0,0,1,3.52-1.38c.34,0,.46-.16.38-.5a1,1,0,0,1,.37-1h2c-.33-.33-.25-.5.26-.5h.5a1.74,1.74,0,0,1,1.26.5c.17,0,.21-.08.12-.25s0-.25.13-.25h4c-.17,0-.33-.21-.5-.63a2.79,2.79,0,0,1-.25-.88c0-.67.5-1.21,1.51-1.64a7,7,0,0,1,2-.62v-1c1.17.17,2,0,2.39-.63s1.3-.71,2.64-.37c-.34-.84-.17-1.18.5-1a6.68,6.68,0,0,0,1.51.25,5,5,0,0,1,1.51-.25v-1.26c.67.34,1.17.34,1.51,0l.76-.75h2.51v-.76h4.28v-.5h5v.5h3.52a4.8,4.8,0,0,0,3.52,1.51,8.83,8.83,0,0,0,1,1.64,4.4,4.4,0,0,0,1.5,1.13v6.79a.59.59,0,0,0-.62.5.6.6,0,0,1-.63.5,6.7,6.7,0,0,1-1,3.78,6.19,6.19,0,0,0-1,3.52,12.36,12.36,0,0,0-.76,1.25q-.25.51-.75,1.77H419a.75.75,0,0,0-.25.5c0,.17-.17.42-.5.75v1c-.67.67-.92,1-.76,1a4.18,4.18,0,0,1-.62,1.88,21.93,21.93,0,0,0-1.14,2.39H415a2.64,2.64,0,0,1-.25,2.52,5.21,5.21,0,0,1-1.76,1.51c-.34,1.84-1,2.93-2,3.27a1,1,0,0,1-.75,1v1.76a8.82,8.82,0,0,0-.88,1,.69.69,0,0,0,.13,1,2.07,2.07,0,0,0-1.26.76v2a1.1,1.1,0,0,0-1.51.25V166a2.68,2.68,0,0,0-2,.76.65.65,0,0,1-.26.88,8.76,8.76,0,0,0-1,.88V170a8.76,8.76,0,0,0-.88,1,2.53,2.53,0,0,0-.38,1.51c-.17,0-.25,0-.25.13s-.17.12-.5.12l-.76,2.77c-.34,0-.5.09-.5.25a.22.22,0,0,1-.25.25,1.68,1.68,0,0,1-.51,1.26c-.33,0-.5,0-.5.13s-.34.29-1,.62c.17.67.09,1.1-.25,1.26a3.9,3.9,0,0,0-1,.76,8.67,8.67,0,0,1-1.26,2.76,6.06,6.06,0,0,0-1,2.77q-1,1-2.13,2a3.22,3.22,0,0,0-1.14,2.52l-.5,1.51h-1.51a2.52,2.52,0,0,1-1,1.88c-.67.59-1,1.05-1,1.38,0,.17,0,.26.13.26s.12.17.12.5h-1v1.26a1,1,0,0,1,1,.75c0,.34.09.5.25.5s.26.25.26.76a4.41,4.41,0,0,1-.51,2c-.33.17-.5.34-.5.5s-.17.25-.5.25V203h.75v3.52c.34,0,.46.25.38.76a7.26,7.26,0,0,0-.13,1.26c.51,0,.71.12.63.37a2.93,2.93,0,0,0-.12.88,1.17,1.17,0,0,0,1.13.38,1.61,1.61,0,0,1,1.38.63h2.27V210h3.27a.67.67,0,0,0,.75.76c1.17,0,1.59-.5,1.26-1.51a6.26,6.26,0,0,0,2.14-1.38l1.88-1.89c-.34,0-.67-.25-1-.75.5-.17.71-.26.62-.26s0-.16.38-.5h.25c-.17-.67-.12-1,.13-1.13a1.55,1.55,0,0,0,.63-.38h2.51a6,6,0,0,1,1-1.51,2.47,2.47,0,0,1,1.76-.5,6.31,6.31,0,0,0,1.64-1.13c.41-.42,1-.46,1.88-.13a3.66,3.66,0,0,1,.88-1.26,3.4,3.4,0,0,0,.88-1.25v-1.26c.34-.5,1.09-.75,2.27-.75a1.27,1.27,0,0,1,.37-1.39,1.31,1.31,0,0,1,1.64-.12c-.17-.67.08-.92.75-.76s1.09.17,1.26,0a6.14,6.14,0,0,0,2.77-4h1.25a1,1,0,0,1,.26-.76,1,1,0,0,0,.25-.75h1.26v-1a4,4,0,0,0,1.76-.5,2.36,2.36,0,0,0,1.25-1.76,4.52,4.52,0,0,1-2-.5q.75-1,1.38-.63a.85.85,0,0,0,1.14-.13q.5,0,.75-.63c.17-.41.59-.46,1.26-.12v-1.26h1.26a2.28,2.28,0,0,1,.88-1.76,2,2,0,0,1,2.13-.25c.84-.33,1.55-.63,2.14-.88a11.09,11.09,0,0,1,2.39-.63,9.16,9.16,0,0,0,.5-1.26c.17-.5.67-.66,1.51-.5a7.54,7.54,0,0,0,.51-1.63,1.36,1.36,0,0,1,1.51-1.13,4.32,4.32,0,0,1,3.52-2,3.49,3.49,0,0,1,1.76-.75,9,9,0,0,0,2.26-.76,2.28,2.28,0,0,1,2-1.26,4.41,4.41,0,0,1,1.64-.88,19.83,19.83,0,0,1,2.39-.62c.66-.34,1.21-.63,1.63-.89a2.7,2.7,0,0,1,1.89-.12c0-.67.25-1,.75-1a1.82,1.82,0,0,1,.76.13,1,1,0,0,0,.5.13c.33-1,1.3-1.55,2.89-1.64a6.28,6.28,0,0,0,3.65-1.13h3.52v-.76h5.53l1.76,1.26v2.27a.69.69,0,0,1,.25.5v4c-.33,0-.46.25-.37.76a1.4,1.4,0,0,1-.38,1.26h-.5a2.87,2.87,0,0,1-.25,1.25v3.52c-.85.34-1.22.76-1.14,1.26a.83.83,0,0,1-.63,1,4.89,4.89,0,0,0,.13,1.25.61.61,0,0,1-.38.76v3.77h-.75v4.28h-.51v3.77h-.75v2.77h-.5v4.27l-.25.51v2.51c0,.17,0,.21.12.13s.13,0,.13.12V205a2.4,2.4,0,0,1,.63,1.38,9.63,9.63,0,0,0,.62,2.14h.51V210a21.14,21.14,0,0,1,2,4.15,3.91,3.91,0,0,0,3,2.64c0,.5.08.79.25.88a2,2,0,0,1,.5.38c.33.33.63.41.88.25s.55-.09.88.25a2.35,2.35,0,0,0,1,.25,1.43,1.43,0,0,1,1,.5h6a.22.22,0,0,0,.25.25H493a.22.22,0,0,0,.25-.25c0,.17.16.25.5.25h.5a2.75,2.75,0,0,0,1.26-.25H498a.44.44,0,0,1,.5-.5h.25a.67.67,0,0,1,.76.76h1.25c-.34-.34-.25-.68.25-1a2.44,2.44,0,0,1,1.26-.5,1.71,1.71,0,0,0,.76-1.14c.16-.58.58-.71,1.26-.37v-.76a1.9,1.9,0,0,1,1.88-1c.92,0,1.22-.51.88-1.51.34.33.5.59.5.75h2.27a2.79,2.79,0,0,1,2.13-2.14,13.79,13.79,0,0,0,3.15-1.13,10.76,10.76,0,0,1,2.77-3.14,8,8,0,0,0,2.51-3.15l4-3.27h.25a.73.73,0,0,0,.5-.25,19.77,19.77,0,0,0,3.77-3.77,11.77,11.77,0,0,1,4.53-3.52,2,2,0,0,0,.75-1.26c.67,0,1.09-.12,1.26-.38a.85.85,0,0,1,.76-.37q.75-3.27,3.27-4a2.17,2.17,0,0,0,.88-1.25,1.25,1.25,0,0,1,1.63-.76,5.56,5.56,0,0,0,1.76-2.26,3,3,0,0,1,1.76-1.76c.34-.84.63-1.6.88-2.27a1.56,1.56,0,0,1,1.64-1h.5l.25,1.25c-.67.34-1,.55-.88.63s0,.3-.38.63v2c-.34.68-.67,1.35-1,2a6,6,0,0,1-1,1.51v3.26a.45.45,0,0,1,.5.51h-1.26a3.39,3.39,0,0,1-.37,1.51,15.89,15.89,0,0,1-.88,1.51.73.73,0,0,1-.25-.51c0-.16-.17-.25-.51-.25v3.52a8.5,8.5,0,0,0-.88,1.76,18.72,18.72,0,0,1-.88,2c.34,0,.5,0,.5.12s.09.13.26.13H542a.45.45,0,0,1-.51.5.44.44,0,0,0-.5.5l.5.25.51.51-1.26,2H540c.16.84,0,1.38-.38,1.63s-.63.47-.63.63a6.22,6.22,0,0,1-.13,1.14,1.18,1.18,0,0,1-.63.88.77.77,0,0,0,.51.25H539v.25h-.25v2.77c-.68.33-1,.58-.88.75s-.05.42-.38.75v.51c.33.33.5.42.5.25v2.51h-1c0-.17-.12-.34-.37-.5a.85.85,0,0,1-.38-.75H536a.81.81,0,0,1-.5.75c-.34.17-.51.33-.51.5.67,0,.92.21.76.63a1,1,0,0,0,.25,1.13.23.23,0,0,1,.25.26c-.84.33-1.26.83-1.26,1.51s.17,1,.51,1.13a.59.59,0,0,1,.5.63,3.18,3.18,0,0,1-.63,1.13,3.7,3.7,0,0,1-1.13,1.13v2a1.14,1.14,0,0,1-.76.63.59.59,0,0,0-.5.63c0,.33.17.46.5.38s.51.2.51.88a1.57,1.57,0,0,0-1,.75,1,1,0,0,1-1,.51,1,1,0,0,1-.26.75,1,1,0,0,0-.25.75h1.26c0,.34-.25.59-.76.76v2.51c.34,0,.51,0,.51.13s.08.12.25.12c0,.34-.05.42-.13.26s-.29-.09-.63.25a3,3,0,0,1-.37,1.26,2.82,2.82,0,0,0-.38,1,2.88,2.88,0,0,0,.12.88,2.59,2.59,0,0,1,.13.88,2.91,2.91,0,0,1-.25,1.26v3.52h-.5v8.8c.33.17.41.51.25,1a1.13,1.13,0,0,0,.25,1.26c.16,0,.25.16.25.5v.25l-.25.5v2.52c-.34.16-.5.58-.5,1.26v.5a.44.44,0,0,0,.5.5v4h-.5v3.27c.33.16.41.54.25,1.13s0,1,.5,1.13v4.28h1.51v2.76h1.26l-.25.25v1.26h.75q-1-2.52,1.51-1.51v-1.26c-.34.34-.47.3-.38-.12a5.44,5.44,0,0,0,.13-1.13H534.7a.71.71,0,0,1,.88-.38,1.19,1.19,0,0,0,1.13-.38l1.26,1.26v3c.5,0,.67.21.5.63a1,1,0,0,0,.25,1.13h.76a.23.23,0,0,1-.25.25c-.17,0-.25.17-.25.5a1.91,1.91,0,0,0,.25.76c.16.33.67.5,1.51.5l.5.5a.73.73,0,0,1,.25.51.83.83,0,0,0,.51-.76c.16.51.41.76.75.76l.5-.51c.51-.5.76-.67.76-.5q0-.26-.51-.75l-.25-.26a.77.77,0,0,1,.51-.25c.16,0,.25-.17.25-.5,0-.17-.13-.34-.38-.5a.86.86,0,0,1-.38-.76,1.6,1.6,0,0,1,1-1.5v-2.27a3.36,3.36,0,0,1-.76-1.13c-.16-.42-.42-1-.75-1.89.33-.17.5-.33.5-.5a.73.73,0,0,1,.25-.5h2v-1.76h.75v.5h1.26a1.76,1.76,0,0,1-.25-1.51,3.66,3.66,0,0,1,.75-1c.51.34.67.59.51.76s-.09.5.25,1c.5,0,.75.09.75.25-.84.51-1.25.93-1.25,1.26,0,.67.12,1,.37.88s.38,0,.38.38l-.25.25v1.76H549v-1.76h1.26v-1l-.76-.51q0-.75,1.26-2v-2a1.91,1.91,0,0,0,.25-.76,1.06,1.06,0,0,0-.12-.63c-.09-.08-.13-.29-.13-.62l.76-.76a6.61,6.61,0,0,0,.75-1.26,2.37,2.37,0,0,1,.5,1.14v.88a.77.77,0,0,0,.51.25h.25v.25c0,.5-.17.75-.5.75h-.26a4.11,4.11,0,0,1-.5,2.27h1.51v-.76l-.25-.25.5-1a2.22,2.22,0,0,0,.26-1,1.52,1.52,0,0,0-.26-.88,1.25,1.25,0,0,1-.25-.63v-.25c0-.17.16-.42.51-.76v-1h-.76a1,1,0,0,1-.5,1h-.25v-2.26a3.59,3.59,0,0,1-1.51-.25,2.23,2.23,0,0,0-1-.26c.33-.33.5-.46.5-.37s.09.12.26.12c0-.67.16-1.09.5-1.26h.75l-.25-.5h-.25v-2.26c.5-.5.67-.8.5-.88s0-.21.51-.38v-2.77h.75v3a2.09,2.09,0,0,1,.76.25,1.89,1.89,0,0,0,.75.26c.84,0,1.09-.38.76-1.14s0-1.3,1-1.63a5.22,5.22,0,0,0,.25-2h.5v-1.76h-1.25a.45.45,0,0,1-.51.5v-2h-.75c0-.17.08-.26.25-.26s.25-.16.25-.5c0-.5-.42-1-1.25-1.51l.75-.5V241.7a.44.44,0,0,1,.5-.5v-2.26c.34,0,.46-.26.38-.76a7.12,7.12,0,0,1-.12-1.26c.5-.33.7-.54.62-.62s0-.3.38-.63c.84.33,1.22.08,1.14-.76s.29-1.26,1.12-1.26v.51a1.18,1.18,0,0,1-.12.5,1,1,0,0,0-.12.5,2.6,2.6,0,0,0,.12.88,3,3,0,0,1,.12.88v.26h-.75a.85.85,0,0,0-.13,1.13c.26.41,0,.63-.62.63v2.76h-.5a.78.78,0,0,0,0,.88c.16.25.08.46-.26.63-.33.34-.46.63-.38.88s-.12.55-.62.88v.76c.33,0,.5-.09.5-.25s.16-.26.5-.26h1.51l1.26-3a2.16,2.16,0,0,0,.25-.88,1.37,1.37,0,0,1,.5-.88v-3.52a1.7,1.7,0,0,0,.5-1.26,1.07,1.07,0,0,0-.24-.76,1,1,0,0,1-.26-.75A1.7,1.7,0,0,1,561,233c.42-.42.71-.63.88-.63v-3h-1v-1c0-.16.26-.25.76-.25-.34-.34-.38-.63-.12-.88l.88-.88a.23.23,0,0,1-.26-.25c0-.34.09-.5.26-.5h1.5a5.78,5.78,0,0,0,.88-1.14,3.05,3.05,0,0,0,.38-1.63h.25v-.76c-.34-.33-.46-.5-.37-.5s.12-.08.12-.25a1.2,1.2,0,0,1,.38-.88l.88-.88-1-.25a.44.44,0,0,1,.51-.5h.75a.73.73,0,0,1-.25-.51v-2.26l2-1.51V212a.22.22,0,0,1,.25-.25v-2.52a5.83,5.83,0,0,0,2.77-4.78c.33,0,.5-.12.5-.38s.17-.37.51-.37V200a1.07,1.07,0,0,0,.5-.13,1.13,1.13,0,0,1,.5-.13v-1.25h-1a.81.81,0,0,1,.76-.51l1.51-4.27a.45.45,0,0,0-.51.5l-.25.25c-.34-.16-.5-.58-.5-1.25a.73.73,0,0,1,.25-.51l.5-.5c0-.33-.12-.5-.37-.5s-.38-.17-.38-.51a2.8,2.8,0,0,0,1.26-.25v-1.26h1.51v-1.25c-.51,0-.76-.17-.76-.51a2.34,2.34,0,0,0-.25-1c.34,0,.46-.21.38-.63a.71.71,0,0,1,.38-.88,1,1,0,0,0,.75.25.43.43,0,0,0-.25-.38c-.17-.08-.25-.37-.25-.88h1.26V182.1H580v.25h1.51v-.75a2.93,2.93,0,0,1-.76-.51,6.76,6.76,0,0,0-1.25-.75l.75-1v-1h1a4.64,4.64,0,0,1,.25-1.51,2.24,2.24,0,0,1,1.26-1.26,1.22,1.22,0,0,1,.25-.63,1.59,1.59,0,0,0,.25-.88,1.52,1.52,0,0,1-1-.88,8,8,0,0,0-.75-1.38,15.23,15.23,0,0,1,1.88-1.64c.59-.41.88-1.29.88-2.64H586v-1h.26a6.1,6.1,0,0,0,1.25-2.77,4,4,0,0,1,1.51-2.52,4.88,4.88,0,0,1,.63-2.39,2.49,2.49,0,0,1,2.39-1.13,2.08,2.08,0,0,1,.5-1.51,1.91,1.91,0,0,0,.26-1.76.66.66,0,0,0,.75-.75.23.23,0,0,0,.25-.25v-.51h.5v-1.25a2.33,2.33,0,0,0,1.26-1.26c.17-.51.42-1.17.76-2,.33.33.54.25.62-.26a2.3,2.3,0,0,1,.63-1.25h.76c.33-.84.67-1.64,1-2.39a11.27,11.27,0,0,1,1.51-2.39,2.53,2.53,0,0,1,.51-1.64c.33-.41.75-1,1.25-1.63a1.71,1.71,0,0,0,.51-1.26c.33,0,.5-.13.5-.38s.08-.37.25-.37v-1.26h-.75v-.76c.33,0,.41-.21.25-.63s-.09-.71.25-.88c.33.17.46.38.38.63a2.63,2.63,0,0,0-.13.88h1.26v-1.25h1.26a1.22,1.22,0,0,1-.13-1.39,2.25,2.25,0,0,1,.88-.88l1.26-1.51a7.62,7.62,0,0,0-.88.51,1.54,1.54,0,0,1-.88.25h-.25a6.41,6.41,0,0,1,.5-.88,1.52,1.52,0,0,0,.25-.88c-.34,0-.5-.08-.5-.25l-.5.25h-.51a2.8,2.8,0,0,1-1.26-.25,9.23,9.23,0,0,1,2.14-.76,3.63,3.63,0,0,0,1.89-1h2.26a3.1,3.1,0,0,0,.88-.62,1.18,1.18,0,0,1,.88-.38c.17,0,.34.12.51.38a.82.82,0,0,0,.75.37c.33-.83.67-1.25,1-1.25s.5.08.5.25.16.25.5.25c.51,0,.76-.17.76-.5h2c0,1.68.33,2.51,1,2.51a1.88,1.88,0,0,0,1.63-1,1.88,1.88,0,0,1,1.64-1c.66,0,1,0,1,.13a3.71,3.71,0,0,0,.51.88h2.51l1.26,1.76h3.52a.89.89,0,0,1,1-1,1.17,1.17,0,0,0,1.26-.75h4.53c0,.67.42,1,1.26,1v-.5h3.27v-.5h.25c.33.33.58.5.75.5a12.69,12.69,0,0,1,1.76-1.51,4.2,4.2,0,0,1,2.27-.5l.88-.88c.25-.26.54-.55.88-.88.33-1,.67-1.51,1-1.51v-2.27c1.85.34,2.77-.12,2.77-1.38a4.81,4.81,0,0,1,1-3.14h.75v-7.55a3.27,3.27,0,0,0-1.25-.75,1.16,1.16,0,0,1-.76-1.26c-.67,0-1.18-.42-1.51-1.26a1.78,1.78,0,0,0-1.76-1.26c-.17,0-.29.13-.38.38s-.37.38-.88.38l-1-1.51.25-.25c-.17,0-.38-.17-.63-.5a1.09,1.09,0,0,0-.88-.51v1.26c-.67-.33-1-.67-1.13-1s-.21-.75-.38-1.25a1.31,1.31,0,0,1-1.26-.13,1.55,1.55,0,0,0-.75-.38.53.53,0,0,0-.38.13.48.48,0,0,1-.37.13l-.26.25c-.17-.34-.33-.51-.5-.51a.22.22,0,0,1-.25-.25,20.31,20.31,0,0,0-2.77-1c-.34,0-.5.33-.5,1h-2.27a2.52,2.52,0,0,0-1.63-1,1.36,1.36,0,0,1-1.13-1.51q0-1.26,2-2l2-2a2.87,2.87,0,0,1,.25-1.25h.76a2.12,2.12,0,0,1,.12-1.64,18.28,18.28,0,0,0,.88-1.63h.76v-1a.64.64,0,0,0,.88-.25,6.47,6.47,0,0,0,.63-1c.16,0,.25,0,.25.13s.08.12.25.12c0,.17.08.26.25.26l4-4.53h-1q.5-.51.75-.51h.76c-.34-.83-.25-1.29.25-1.38a8.21,8.21,0,0,1,1.26-.12c0-.84.2-1.34.63-1.51a2.59,2.59,0,0,0,1.13-1v-1a1.5,1.5,0,0,1,.88-1c.42-.16.63-.42.63-.75a8.68,8.68,0,0,0-1.26-1h.75l-1-1.76a1.07,1.07,0,0,0,.5-.13,1.18,1.18,0,0,1,.5-.12V69.93h3.78a2.66,2.66,0,0,1,1.25-1v-.5l1-1.26-.25-.25.75-.5v1.25l-.5,1.26,1-.5.25-.5.5-.76v.76l.76-.76V64.9l.5-.51Z"/><path class="cls-2" d="M697.18,184.87,691.9,215.3H589.78q1.76-13.08,2.64-26.54t1.39-27.54a1,1,0,0,0,.5-.12,1.77,1.77,0,0,1,.75-.13,3.42,3.42,0,0,1,.26-1.5c.16-.34.08-.42-.26-.26.34-.33.72-.75,1.14-1.25a3.12,3.12,0,0,0,.62-2,2.14,2.14,0,0,0,.76-1.5,4.74,4.74,0,0,0,2.26-3.27l1.26-.76a11.06,11.06,0,0,1,1.64-4.15c.75-1.09,1.46-2,2.14-2.89a2.38,2.38,0,0,1,.75-1.76,5.2,5.2,0,0,0,1.51-3.27l3.52-3.52-.5-.76h-.26l1.26-1.51-1.76-1.76h3l.25-.25a.63.63,0,0,0,1,0,4.08,4.08,0,0,1,1-.75h1a4.32,4.32,0,0,0,3.77,1.76,11.41,11.41,0,0,0,1.76-.25,4.46,4.46,0,0,0,2.27-1.26c.33,0,.54.08.62.25s.29.25.63.25l1.51,1.51,4.28.25q-.25,8.05-.25,16.35v39.74h14.83q13.59,0,26.42-.76T697.18,184.87ZM594.81,85.52a12.23,12.23,0,0,1-.88,2.14c-.25.42-.46.8-.63,1.13q-.75-23.9-3-48.79h44l-.51,8.55q-3.76,3.78-4.9,4.65a4.54,4.54,0,0,1-2.89.88l-.75,2.77-1,1.26-.25-.5a1.07,1.07,0,0,0,.38-1,5.94,5.94,0,0,0-.38-1l-4.53,2.52c0-.17-.13-.13-.38.12a6.79,6.79,0,0,1-.88.76,2,2,0,0,1-1.25.38c-.51,0-1.1-.42-1.76-1.26a1.7,1.7,0,0,1-.38,1c-.25.33-.38,1.42-.38,3.27l-3,.25a8.74,8.74,0,0,1-.12,1.76,3.87,3.87,0,0,0-.13,1v.5h-.5a9.82,9.82,0,0,1-2.27,3.78l-.75,1.25c0,.17.08.26.25.26l-3.52.75v1.51a5.61,5.61,0,0,1-.5,2.51,2.44,2.44,0,0,1-.76.88c-.33.26-.5.47-.5.63l-.25.51h-.51l-2.26,3.27a8.15,8.15,0,0,1-1.26,1A3.72,3.72,0,0,0,597.08,84l-1.51,1.51Zm150.91-.75q14.58.75,25.15.75,7.29,0,22.38-.75,7.8,29.17,19.37,61.49t27.41,69H799.29a287.73,287.73,0,0,0-8-31.94H744.46q-2.52,7.29-4.4,15.21t-3.65,16.73H699.69q18.36-43.52,30-75.58T745.72,84.77Zm23.14,21.63q-5.55,13.83-10.06,26.91t-8.3,25.9h34.71q-2.78-9.3-6.54-22.38T768.86,106.4Zm123-21.13q13.83,0,24.9.63a49.75,49.75,0,0,1,19.61,4.9,33.88,33.88,0,0,1,13,10.44A24,24,0,0,1,954,115.7q0,20.88-29.68,29.68,17.36,1.76,26.53,9.56T960,175.56a32.27,32.27,0,0,1-5.28,18.11q-5.28,8.06-15.59,13.08a56.08,56.08,0,0,1-13,5,97.91,97.91,0,0,1-15,2.51q-8.06.77-17.1.88t-19.37.13H848.59q2.5-18.87,3.14-35.09t.63-30.55q0-15.34-.88-31.44t-2.39-32.95Zm.5,52.82q29.43,0,29.43-16.6,0-7.29-6.17-10.57t-18.48-3.27h-5.66c-1.76,0-3.65.09-5.66.26,0,2.85-.09,6.75-.25,11.69s-.25,11.11-.25,18.49Zm1.51,53.57q16.35,0,24.65-4t8.3-13.58q0-10.8-9.18-13.83t-26.29-3h-6v34.46Z"/></g></g></svg>