<svg xmlns="http://www.w3.org/2000/svg" viewBox="0 0 920 197.04"><defs><style>.cls-1{fill:#f5fff5;}</style></defs><title>fontspring</title><g id="Layer_2" data-name="Layer 2"><g id="Layer_1-2" data-name="Layer 1"><path class="cls-1" d="M657.59,55.79c-5.36,0-11.5-5.46-11.5-11.2,0-4.61,3.37-10.74,12.55-10.74,16.39,0,29.61,35.26,29.61,35.26C679.07,59.25,670.15,55.79,657.59,55.79ZM722,46.59c5.37,0,11.5-5.48,11.5-11.22,0-4.61-3.33-10.74-12.54-10.74-16.38,0-29.61,35.26-29.61,35.26C700.54,50,709.44,46.59,722,46.59ZM688,50s14.66-34.68,2.79-46c-6.69-6.33-13.34-4.19-16.49-.85-4,4.17-3.26,12.37.62,16.05C684,27.9,688.1,36.55,688,50ZM0,195.29H15V145.14H58.48v-13.4H15V94.12H66.35V80.72H0ZM174.87,138c0,39.72-16.05,59-49.07,59s-49.08-19.32-49.08-59,16-59,49.08-59S174.87,98.28,174.87,138Zm-15.15,0c0-31.56-10.46-45.63-33.92-45.63S91.87,106.44,91.87,138s10.46,45.64,33.93,45.64S159.72,169.56,159.72,138Zm110.85,39.37L218,81.25l-.29-.53H196.3V195.29h14.8V98.64l52.6,96.12.29.53h21.37V80.72H270.57v96.65Zm32.14-83.25H337V195.29h15V94.12h34.25V80.72H302.71v13.4Zm138.81,36.66-4.16-1.3c-13.87-4.29-24.84-7.68-24.84-20.48,0-11,8.24-16.63,24.49-16.63,8.58,0,19.84,1.68,26.89,3.12l1,.22,2.28-12.83-.95-.21A138,138,0,0,0,436.84,79c-25,0-39.29,11.39-39.29,31.25,0,18.49,11.86,25.7,32.36,31.91,18.75,5.59,27,8.61,27,21.73,0,13.31-8.87,19.78-27.11,19.78a172.81,172.81,0,0,1-29-3.13l-1-.21-2.07,12.84.95.2c5.24,1.12,18.81,3.7,31.49,3.7,26.91,0,41.73-11.91,41.73-33.52C471.93,140.51,455.77,135.34,441.52,130.78Zm126.21-16.89c0,25.26-14.51,38.06-43.13,38.06-6.5,0-13.23-.53-19.6-1.12v44.46H490V81.71l.89-.11a294.84,294.84,0,0,1,34.21-2.46C545,79.14,567.73,83.09,567.73,113.89Zm-62.73,24c7.15.56,13.35.63,15.76.63,19.1,0,31.83-4.11,31.83-24.15,0-16.15-7.51-21.87-28.69-21.87-5.7,0-13,.37-18.9.95Zm158.23,55.78,1,1.58h-18l-.29-.5c-10.58-17.83-18.85-32.86-26-47.21-5.53,0-14.05,0-19.84-.29v48h-15V81.71l.89-.11a307.58,307.58,0,0,1,34.38-2.46c19,0,40.86,3.73,40.86,32.83,0,18.43-8.65,29.47-26.42,33.73C642.28,159.9,651.32,175.2,663.23,193.71ZM621,92.54c-4.36,0-13.77.31-20.83,1v40.93c4.17.28,8.19.28,12.09.28,25,0,33.92-5.81,33.92-22.22C646.15,97.76,639.56,92.54,621,92.54ZM682.3,195.29h15V80.72h-15Zm115.88-17.92-52.6-96.12-.29-.53H723.92V195.29h14.79V98.64l52.61,96.12.29.53H813V80.72h-14.8v96.65ZM882,136.28v13.4H905.2v29.41a60.42,60.42,0,0,1-22.57,4.55c-10.77,0-18.91-3.51-24.17-10.44-5.74-7.47-8.53-19-8.53-35.37,0-15.23,2.51-26.18,7.68-33.49,7.43-10.61,19.23-12,28.69-12a140.31,140.31,0,0,1,27.56,3.12l1.06.24L917,82.86l-.94-.2A148.24,148.24,0,0,0,885.25,79c-18.31,0-30.78,5.24-39.25,16.48-7.55,10-11.22,23.92-11.22,42.55,0,20.35,4.32,35.62,12.83,45.4,7.73,9,19,13.64,33.62,13.64a77.05,77.05,0,0,0,38.27-10.28l.5-.3V136.28Z"/></g></g></svg>