<svg xmlns="http://www.w3.org/2000/svg" viewBox="0 0 602.36 604.02"><defs><style>.cls-1{fill:#f5fff5;}.cls-2{fill:none;stroke:#f5fff5;stroke-miterlimit:10;stroke-width:1.38px;}</style></defs><title>glyphs</title><g id="Layer_2" data-name="Layer 2"><g id="Layer_1-2" data-name="Layer 1"><path id="G" class="cls-1" d="M15.09,309.29A9.65,9.65,0,0,0,10.34,293V272.5c4.34-91.69,29.4-154.24,77.93-195.42S211,14.3,319.43,10.34h29a9.66,9.66,0,0,0,16.25,4.75h0a9.58,9.58,0,0,0,2.6-4.75h37q14.55.42,29.17,1.1a6.72,6.72,0,0,0,6.09,3.72A6.84,6.84,0,0,0,445.35,12C468,13.23,490.6,14.91,513,17a6.87,6.87,0,0,0,11.32,2.49h0a6.75,6.75,0,0,0,1-1.28q9.21.93,18.37,2l37.14,5.3v7.68h6.32l-20.1,203.48H559v5.82l-50.05-4.16a6.73,6.73,0,0,0-1.84-3.36,6.88,6.88,0,0,0-9.74,0,6.73,6.73,0,0,0-1.79,3.21c-14.28-1-28.25-1.92-41.87-2.62A6.86,6.86,0,0,0,442,230.4a6.8,6.8,0,0,0-1.67,2.8h-34a9.64,9.64,0,0,0-18.84,0H309.92a7,7,0,1,0,0,4.14h25.73c-13.77,2.14-23.91,5.34-31.71,9.79-9.68,5.51-15.91,13.1-19.38,24.14V255.43a6.86,6.86,0,0,0,2.8-11.41,6.85,6.85,0,0,0-4.87-2h0a6.89,6.89,0,0,0-4.87,11.76,6.76,6.76,0,0,0,2.8,1.67v34a9.64,9.64,0,0,0,0,18.84v29.44a6.76,6.76,0,0,0-2.8,1.67,6.89,6.89,0,1,0,9.74,9.74h0a6.84,6.84,0,0,0-2.8-11.41V329.9c4.33,16.19,12.87,26.43,26.06,31.33h-6.16a6.78,6.78,0,0,0-1.66-2.8,6.89,6.89,0,1,0,0,9.74h0a6.8,6.8,0,0,0,1.67-2.8H323a9.64,9.64,0,0,0,18.83,0h6.46V412.8h-7.23V430H358.3V412.91l42.51-52.8H414.6V342.88H397.37v8.89l-14.68,4.13a6.83,6.83,0,0,0-.9-1.11,6.9,6.9,0,0,0-9.74,0,6.82,6.82,0,0,0-1.93,3.94q-2.78.5-5.53.91a6.85,6.85,0,0,0-10.7-1.21,6.77,6.77,0,0,0-1.63,2.67l-1.2.11V293.82h7.24v-7.23H579.87v7.23h7.24v269.6l-9.75,9.68-31.16,6q-21.21,3.42-42.14,6a6.81,6.81,0,0,0-10.23,1.24c-21.29,2.48-42.51,4.37-63.87,5.68a6.84,6.84,0,0,0-12,.66q-10.95.57-22,.93H363.63a9.49,9.49,0,0,0-2.58-4.75,9.64,9.64,0,0,0-16.24,4.75H315.4C207.82,589.79,134.82,569,87.47,529.09,39.46,488.62,14.65,425.86,10.34,333v-21.1A9.53,9.53,0,0,0,15.09,309.29Zm348.55,58.88a6.85,6.85,0,0,1-11.42-2.8h-1.16V412.8h3.79L397.37,360v-3.92l-13.58,3.81a6.77,6.77,0,0,1-2,4.66,6.88,6.88,0,0,1-9.74,0,6.75,6.75,0,0,1-1.74-3c-1.59.28-3.18.54-4.76.78a6.86,6.86,0,0,1-1.91,5.89Z"/><path id="handles" class="cls-2" d="M367.5,8.27h65.18m-323.09,0H348.2m91.75,227h-33.4M363.87,595.75h53.38m89-6.76,68.45-13.27M282.49,289.18v-33.4M351.88,363.3h-9.81m-59.58-54.82v28.86m22.32,26h18M108,595.75H344.58M8.27,292.81v-195m500.79,142.6L559,244.54M8.27,312.11V511.68m518-496.08,54.57,7.8M310.27,235.27h77m194.69,43.39H595v13.1h-13.1Zm-238.8,13.1h13.09v-13.1H343.14Zm0,136.2h13.09V414.87H343.14Zm56.29-69.91h13.1V345h-13.1Zm-19.1,5a4.82,4.82,0,1,0-6.82,0,4.81,4.81,0,0,0,6.82,0m-18.15,3.63a4.83,4.83,0,1,0-6.83,0,4.83,4.83,0,0,0,6.83,0m-24.39,2a7.58,7.58,0,1,0-10.72,0,7.58,7.58,0,0,0,10.72,0m-36.45-2a4.83,4.83,0,1,0-6.83,0,4.83,4.83,0,0,0,6.83,0M285.9,347.64a4.82,4.82,0,1,0-6.82,0,4.81,4.81,0,0,0,6.82,0m2-43.45a7.58,7.58,0,1,0-10.72,0,7.58,7.58,0,0,0,10.72,0m-2-51.89a4.82,4.82,0,1,0-6.82,0,4.81,4.81,0,0,0,6.82,0m20.88-13.62a4.82,4.82,0,1,0-6.82,0,4.81,4.81,0,0,0,6.82,0m95.48,1.95a7.58,7.58,0,1,0-10.72,0,7.58,7.58,0,0,0,10.72,0m48-1.95a4.82,4.82,0,1,0-6.82,0,4.83,4.83,0,0,0,6.82,0m55.39,4.54a4.82,4.82,0,1,0-6.82,0,4.83,4.83,0,0,0,6.82,0m55.42,8.59h13.09v-13.1H561.06ZM582.92,31.09h13V18.14h-13Zm-60-13a4.82,4.82,0,1,0-6.82,0,4.81,4.81,0,0,0,6.82,0M443,11.68a4.83,4.83,0,1,0-6.83,0,4.83,4.83,0,0,0,6.83,0m-79.78,2a7.58,7.58,0,1,0-10.72,0,7.56,7.56,0,0,0,10.72,0m-257.1-2a4.82,4.82,0,1,0-6.82,0,4.81,4.81,0,0,0,6.82,0M11.68,94.3a4.82,4.82,0,1,0-6.82,0,4.81,4.81,0,0,0,6.82,0m2,213.52a7.58,7.58,0,1,0-10.72,0,7.58,7.58,0,0,0,10.72,0M11.68,522a4.82,4.82,0,1,0-6.82,0,4.81,4.81,0,0,0,6.82,0m93,76.7a4.14,4.14,0,1,0-5.85,0,4.15,4.15,0,0,0,5.85,0m254.86,2.43a7.58,7.58,0,1,0-10.72,0,7.58,7.58,0,0,0,10.72,0m68-2a4.82,4.82,0,1,0-6.82,0,4.81,4.81,0,0,0,6.82,0m75.36-5.44a4.82,4.82,0,1,0-6.81,0,4.82,4.82,0,0,0,6.81,0m97.78-16.64L588.49,565l-12.2,12.12Z"/></g></g></svg>