<svg xmlns="http://www.w3.org/2000/svg" viewBox="0 0 829.9 270.6"><defs><style>.cls-1{fill:#f5fff5;}</style></defs><title>google-fonts</title><g id="Layer_2" data-name="Layer 2"><g id="Layer_1-2" data-name="Layer 1"><path class="cls-1" d="M106.9,124.6V95.9h96a92.66,92.66,0,0,1,1.6,17.6c0,21.5-5.9,48.1-24.8,67.1-18.4,19.2-42,29.4-73.2,29.4C48.6,210,0,162.9,0,105S48.6,0,106.5,0c32,0,54.8,12.5,71.9,28.9L158.2,49.1c-12.3-11.5-28.9-20.5-51.7-20.5-42.2,0-75.3,34-75.3,76.3s33,76.3,75.3,76.3c27.4,0,43-11,53-21,8.1-8.1,13.5-19.8,15.6-35.8Z"/><path class="cls-1" d="M350.7,142.4c0,38.9-30.5,67.6-67.8,67.6s-67.8-28.7-67.8-67.6c0-39.2,30.5-67.6,67.8-67.6S350.7,103.3,350.7,142.4Zm-29.7,0c0-24.3-17.7-41-38.1-41s-38.1,16.6-38.1,41c0,24.1,17.7,41,38.1,41S321,166.5,321,142.4Z"/><path class="cls-1" d="M498.7,142.4c0,38.9-30.5,67.6-67.8,67.6s-67.8-28.7-67.8-67.6c0-39.2,30.5-67.6,67.8-67.6S498.7,103.3,498.7,142.4Zm-29.7,0c0-24.3-17.7-41-38.1-41s-38.1,16.6-38.1,41c0,24.1,17.7,41,38.1,41S469,166.5,469,142.4Z"/><path class="cls-1" d="M640.6,78.9V200.2c0,49.9-29.4,70.4-64.3,70.4-32.8,0-52.5-22-59.9-39.9l25.9-10.8c4.6,11,15.9,24.1,34,24.1,22.3,0,36.1-13.8,36.1-39.7v-9.7h-1c-6.7,8.2-19.5,15.4-35.6,15.4C542,210,511,180.6,511,142.7c0-38.1,31-67.8,64.8-67.8,16.1,0,28.9,7.2,35.6,15.1h1V79l28.2-.1Zm-26.1,63.8c0-23.8-15.9-41.2-36.1-41.2-20.5,0-37.6,17.4-37.6,41.2,0,23.6,17.2,40.7,37.6,40.7C598.6,183.4,614.5,166.3,614.5,142.7Z"/><path class="cls-1" d="M690.9,7.9v198H661.2V7.9Z"/><path class="cls-1" d="M805.6,164.7l23,15.4c-7.4,11-25.3,30-56.3,30-38.4,0-67.1-29.7-67.1-67.6,0-40.2,28.9-67.6,63.7-67.6,35.1,0,52.2,27.9,57.9,43l3.1,7.7L739.5,163c6.9,13.6,17.7,20.5,32.8,20.5S797.9,176,805.6,164.7Zm-70.9-24.3,60.4-25.1c-3.3-8.4-13.3-14.3-25.1-14.3C754.9,101,733.9,114.3,734.7,140.4Z"/></g></g></svg>