<svg xmlns="http://www.w3.org/2000/svg" viewBox="0 0 920 372.7"><defs><style>.cls-1{fill:#f5fff5;}</style></defs><title>HMCT</title><g id="Layer_2" data-name="Layer 2"><g id="Layer_1-2" data-name="Layer 1"><path class="cls-1" d="M452.6,92.8v-19H438.4v19h-8V49h8V66.2h14.2V49h8V92.8Zm31.8-3.7c-4.8-4.8-5.6-11.2-5.6-18.2s.8-13.3,5.6-18.2a17.18,17.18,0,0,1,23.4,0c4.8,4.8,5.6,11.2,5.6,18.2s-.8,13.3-5.6,18.2a15.9,15.9,0,0,1-11.7,4.6A16.22,16.22,0,0,1,484.4,89.1Zm17.9-5c3-3,3-9.5,3-13.2s0-10.1-3-13.2a9.21,9.21,0,0,0-12.4,0c-3,3-3,9.5-3,13.2s0,10.1,3,13.2a9.21,9.21,0,0,0,12.4,0Zm39.2-27.9V67.9h19v7.2h-19V92.7h-8V48.9h30v7.2h-22Zm50.7,0V67.9h19v7.2h-19V92.7h-8V48.9h30v7.2h-22Zm64.4,36.6V59.1l-5.2,22.5h-6.7l-5.2-22.5V92.8H632V49h11.2l4.9,21.4L653.6,49h10.6V92.8Zm28.7,0V86.2h9.3V55.6h-9.3V49h26.8v6.6h-9.4V86.2h9.4v6.6Zm68-36.4V92.8h-7.9V56.4H731.7V49H767v7.4Zm31.2,36.4V85L807,56.3H784.8V49.1h31.1v7.8L793.5,85.6h22.7v7.2ZM454,166.9V133.2l-5.2,22.5h-6.7l-5.2-22.5v33.7h-7.6V123.1h11.2l4.9,21.4,5.5-21.4h10.6v43.8Zm28.7,0v-6.6H492V129.7h-9.3v-6.6h26.8v6.6h-9.4v30.6h9.4v6.6Zm51.5,0V123.1h8v36.3h21.3v7.5Zm56.4-24.3,15.6-19.5h10.1L601,141.5,616.4,167h-9.5l-11.2-19.1-5.1,6.1v13h-8V123.2h8Zm44.2,24.3V123.1H664v7.2H642.7v10.3h16.9v7.2H642.7v11.9H664v7.2Zm70.3,0-13.9-31.8v31.8h-7.8V123.1h10.4L706.3,152V123.1h7.8v43.8ZM454.8,226.2h8c-.6,7.7-5.1,15.8-16.7,15.8a16.2,16.2,0,0,1-11.8-4.5c-4.8-4.8-5.7-11.2-5.7-18.2s.9-13.4,5.7-18.2a16.2,16.2,0,0,1,11.8-4.5c11.3,0,16.2,7.8,16.7,15.4h-8c-.1-4.1-2.4-8.2-8.6-8.3a9,9,0,0,0-6.4,2.6c-3,3-3.1,9.3-3.1,13s.2,10.1,3.1,13.1a8.45,8.45,0,0,0,6.2,2.5C452.3,234.7,454.7,230.3,454.8,226.2Zm28,14.9V197.3H512v7.2H490.7v10.3h16.9V222H490.7v11.9H512v7.2Zm70.3,0-13.9-31.8v31.8h-7.8V197.3h10.4l12.5,28.9V197.3h7.8v43.8Zm48.3-36.4v36.4h-7.9V204.7H579.8v-7.4H615v7.4Zm33.4,36.4V197.3H664v7.2H642.7v10.3h16.9V222H642.7v11.9H664v7.2Zm71.7,0-7.1-16.6h-6.7v16.6h-8V197.3h15.8c10.4,0,15.1,6.5,15.1,13.6,0,5.9-3.5,10.5-8.3,12l8.1,18.2Zm-6.2-36.9h-7.8v13.1h7.8c4.5,0,7.1-2.5,7.1-6.6C707.4,207.2,704.8,204.2,700.3,204.2Zm94.5.3v11.7h19v7.2h-19V241h-8V197.2h30v7.2h-22ZM839,237.3c-4.8-4.8-5.6-11.2-5.6-18.2s.8-13.3,5.6-18.2a17.18,17.18,0,0,1,23.4,0c4.8,4.8,5.6,11.2,5.6,18.2s-.8,13.3-5.6,18.2a15.9,15.9,0,0,1-11.7,4.6A15.52,15.52,0,0,1,839,237.3Zm17.9-5c3-3,3-9.5,3-13.2s0-10.1-3-13.2a9.21,9.21,0,0,0-12.4,0c-3,3-3,9.5-3,13.2s0,10.1,3,13.2a8.36,8.36,0,0,0,6.2,2.4A8,8,0,0,0,856.9,232.3Zm52.2,8.8L902,224.5h-6.7v16.6h-8V197.3h15.8c10.4,0,15.1,6.5,15.1,13.6,0,5.9-3.5,10.5-8.3,12l8.1,18.2Zm-6.2-36.9h-7.8v13.1h7.8c4.5,0,7.1-2.5,7.1-6.6C910.1,207.2,907.5,204.2,902.9,204.2ZM449.4,278.8v36.4h-7.9V278.8H427.8v-7.4H463v7.4Zm50.7,17.7v18.7h-8V296.5l-14.6-25.1h8.8l10.1,17.9,10-17.9h8.4Zm48.5,1.8h-8.2v16.9h-7.9V271.4h16.1c10.1,0,15.3,5.6,15.3,13.4S558.6,298.3,548.6,298.3Zm-.5-19.9h-7.7v12.9h7.7c5.3,0,7.7-2.4,7.7-6.4S553.4,278.4,548.1,278.4Zm37.6,33.1c-4.8-4.8-5.6-11.2-5.6-18.2s.8-13.3,5.6-18.2a17.18,17.18,0,0,1,23.4,0c4.8,4.8,5.6,11.2,5.6,18.2s-.8,13.3-5.6,18.2a15.9,15.9,0,0,1-11.7,4.6A16.64,16.64,0,0,1,585.7,311.5Zm17.9-5c3-3,3-9.5,3-13.2s0-10.1-3-13.2a9.21,9.21,0,0,0-12.4,0c-3,3-3,9.5-3,13.2s0,10.1,3,13.2a8.36,8.36,0,0,0,6.2,2.4A8.77,8.77,0,0,0,603.6,306.5Zm33.2,5.3c-4.9-4.8-5.5-11.6-5.5-18.5s.9-13.4,5.7-18.2c3.2-3.2,7.5-4.5,12-4.5,11.1,0,15.9,7.3,15.9,14.7h-8c-.1-3.6-2-7.5-7.9-7.5-8.8,0-9.6,9.5-9.6,15.6s.7,15.8,9.1,15.8c5.6,0,8.8-3.8,8.8-9.9H647v-6.6h17.9v22.6h-5.2l-1.2-5c-1,2.4-4.4,5.9-10.6,5.9C643.8,316,639.9,314.9,636.8,311.8Zm69.7,3.4-7.1-16.6h-6.7v16.6h-8V271.4h15.8c10.4,0,15.1,6.5,15.1,13.6,0,5.9-3.5,10.5-8.3,12l8.1,18.2Zm-6.2-36.8h-7.8v13.1h7.8c4.5,0,7.1-2.5,7.1-6.6C707.4,281.3,704.8,278.4,700.3,278.4ZM757,304.3H741.8l-3.2,10.9h-8.3l14-43.8h10.4l13.8,43.8h-8.3Zm-13.1-7.1h11l-5.5-18.6Zm57.9,1.1h-8.2v16.9h-7.9V271.4h16.1c10.1,0,15.3,5.6,15.3,13.4S811.9,298.3,801.8,298.3Zm-.4-19.9h-7.7v12.9h7.7c5.3,0,7.7-2.4,7.7-6.4S806.7,278.4,801.4,278.4Zm56.4,36.8v-19H843.6v19h-8V271.4h8v17.2h14.2V271.4h8v43.8Zm47.6-18.7v18.7h-8V296.5l-14.7-25.1h8.8l10.1,17.9,10-17.9H920ZM0,0V372.7H372.7V0ZM197.4,49.3h25.7l11.3,48.9L247,49.3h24.1V149.4H253.7V72.3l-11.9,51.5H226.6L214.7,72.4v77H197.3V49.3Zm-172.7,0H42.9V88.7H75.4V49.3H93.6V149.4H75.4V106.1H42.9v43.3H24.7Zm21.5,233c4,4,8.6,5.6,14.3,5.6,14.4-.1,19.8-10.2,20.1-19.6H98.8c-1.3,17.5-11.7,36-38.3,36-10.2,0-19.6-3-27-10.3-11-11-13-25.7-13-41.7s2-30.6,13-41.7c7.3-7.3,16.8-10.3,27-10.3,25.8,0,37,17.8,38.3,35.3H80.4c-.3-9.5-5.5-18.8-19.6-18.9a20,20,0,0,0-14.5,5.9c-6.8,6.9-7.2,21.3-7.2,29.7S39.4,275.4,46.2,282.3Zm135.5,32.5h-70V302.4h70Zm0-153h-70V149.4h70Zm92.8,57.4H243.3v83.2H225.2V219.2H194V202.3h80.5Zm82.3,95.6h-70V302.4h70Zm0-153h-70V149.4h70Z"/></g></g></svg>