<svg xmlns="http://www.w3.org/2000/svg" viewBox="0 0 960 240.1"><defs><style>.cls-1{fill:#f5fff5;}</style></defs><title>hoeffler-co-2</title><g id="Layer_2" data-name="Layer 2"><g id="Layer_1-2" data-name="Layer 1"><g id="Layer_1-2-2" data-name="Layer 1-2"><path class="cls-1" d="M459.1,41.8c0-8.3,6.7-15.4,17.3-15.4,6.2,0,10.4,2.3,13.3,5.9l1.9-5.7h7.9V42.9h-8.4c-3.7-5.7-7.9-9.7-13-9.7-4,0-6,1.8-6,4.6,0,3.5,2.8,4.8,11.8,7.1,10.4,2.7,17.8,6.1,17.8,15.6,0,8.2-6.4,15.7-18,15.7-7.4,0-11.5-3-14.6-6.5l-1.9,5.5h-7.8V58.6h8.4c4.1,6.4,8.7,10.7,14.5,10.7,4.3,0,6.2-1.8,6.2-4.8,0-3.7-2.6-5.1-12.1-7.5C465.1,54,459.1,50.4,459.1,41.8ZM281,66.3H269.9V46.6h4.3c5.6,0,6.6,1.3,7.6,9.8h7.9V28.9h-7.9c-1.2,8.2-1.9,9.4-7.6,9.4h-4.3V16.9h13.8c8.5,0,10.8,1.9,13.9,15.7h8.9V8.3H243.6v8.9h9.7V66.4h-9.7v8.8H281Zm22.7-14.7c0-14.8,11.1-25.1,25.8-25.1,15.1,0,25.6,10,25.6,24.6s-11,25.1-25.7,25.1c-15.1,0-25.7-9.9-25.7-24.6Zm16.2-.2c0,12.9,3.3,17.9,9.8,17.9s9.2-5.2,9.2-18-3.2-17.9-9.8-17.9c-6.4,0-9.1,5.2-9.2,18Zm65.7,15.2h-5.3V48.1c0-6.8,4.4-11.6,9.2-11.6a6.73,6.73,0,0,1,4.7,1.6c1.5,1.5,2.1,4,2.1,7.2V66.6h-5.4v8.5H418V66.6h-6.8V43.3c0-9.9-4.3-16.8-14.5-16.8-8.8,0-13.9,5.5-17.3,13.4V27.5h-21V36h7V66.6h-7v8.5h27.2V66.6Zm39.2-6.7c0,10.9,5.1,16.3,15.5,16.3,9.6,0,14.5-5,16.3-16.1l-6.1-1.7c-1.3,6-2.8,8.5-5.9,8.5-3.5,0-5-2.4-5-6.8V36h15.9V27.5H439.7V15.2l-14.5,1.7V27.5h-8.8V36h8.4V59.9Zm94.6-46.3h-6.9V4.9h21.9v32c3-6.2,7.9-10.5,15.2-10.5a15.92,15.92,0,0,1,12.1,4.9c4.4,4.4,6.5,11.4,6.5,19.9s-2.5,15.6-6.8,19.8a17.43,17.43,0,0,1-12.7,5.1c-8.4,0-13.5-4-16.7-10.1l-4.7,9.8h-7.8C519.4,75.9,519.4,13.6,519.4,13.6Zm14,38.6c0,9.4,3.8,15.7,10.2,15.7,5.9,0,8.6-5.6,8.6-16.4,0-10.2-2.7-15.6-8.6-15.6-6.5,0-10.1,7.1-10.2,16.3ZM593.9,76c-2.9,7.1-5.5,9.1-9.7,9.6a8.49,8.49,0,0,0,.9-3.8c0-4-2.6-8-7.7-8-4.7,0-7.8,3.8-7.8,8.6,0,6.1,4.5,10.6,13.1,10.6,11.1,0,16.5-7.5,21.3-19l16.3-38h5.8V27.5H605.3V36h6.1l-9.7,24.9L591,36h7.2V27.5H568.4V36h6.3C574.8,36,588.3,64.3,593.9,76ZM224.5,88c0,17-12.3,29.9-27.7,29.9A27.2,27.2,0,0,1,173,104c-8.6,4.8-17.1,12.1-25.7,23.1,14.1,16.3,23.6,22.9,34.3,22.9,11.7,0,18.5-6.5,24-16.3l3.6,1.1c-.7,32.2-20.3,52.4-44.2,52.4-16.5,0-28.7-6-46.7-25.1-15.6,17.1-34.6,25.1-57.5,25.1C27.4,187.2,0,165,0,135.8c0-23.3,16-40.7,45.3-50.7-11.4-12.3-17-22.1-17-38.2C28.3,23,51.8,0,88.8,0c34,0,52.4,21.5,52.4,41a33.5,33.5,0,0,1-5.1,18.8c15.2-.8,26.3,5.7,27.2,20.2,9.2-13.3,19.7-20.8,33.5-20.8C212.1,59.2,224.5,71,224.5,88ZM101.6,145.4A555.65,555.65,0,0,0,60.3,99.9a33,33,0,0,0-8.8,22.5c0,17,12.2,30,29.1,30C88.9,152.4,95.3,150.3,101.6,145.4Zm2-103.7c0-12.7-6.6-21.4-16-21.4-8.7,0-15,7.1-15,16.4,0,12.5,8.5,20.5,21.1,32.6,6.2-9.4,9.9-18.7,9.9-27.6Zm28.2,23.7C126.7,71,119.2,77,108.5,84c8.7,9,15.8,17.1,22.6,25.4,10.9-18.2,13.5-31.1.7-44Zm125,143.5h-4.5v5.4h-2.5v3.9h2.5v10.4c0,4.3,2.4,5.8,5.7,5.8a8.57,8.57,0,0,0,4.1-1v-3.7a6.81,6.81,0,0,1-2.8.7,2.08,2.08,0,0,1-2.4-1.8V218.3h5.3v-3.9h-5.3v-5.5ZM277,229l-5.5-14.7h-4.9l8.2,19.8c-.8,1.7-1.5,2.2-2.8,2.2a5.3,5.3,0,0,1-2.7-.8l-1.5,3.3a8.47,8.47,0,0,0,4.7,1.2c3.2,0,4.9-1.5,6.5-5.6l7.9-20.3h-4.7Zm35.8-4.8h0c0,6.6-4.5,10.3-9.2,10.3a8.07,8.07,0,0,1-6.7-3.5v9.1h-4.6V214.3h4.6v3.3a8,8,0,0,1,6.7-3.7c4.7,0,9.2,3.7,9.2,10.3Zm-4.6,0c0-3.8-2.6-6.3-5.6-6.3a6.06,6.06,0,0,0-5.8,6.3v.1c0,3.8,2.7,6.3,5.8,6.3s5.6-2.5,5.6-6.4Zm31,0h0a10.39,10.39,0,0,1-10.4,10.4h-.2a10.31,10.31,0,0,1-10.5-9.9v-.4a10.59,10.59,0,0,1,21.1-.1Zm-4.5.1a6,6,0,0,0-5.8-6.3h-.2a6,6,0,0,0-6,6.3v.1a6,6,0,0,0,5.8,6.3h.2a5.91,5.91,0,0,0,6-5.8v-.6Zm25.8-10H365V230c0,3.3-.9,5.8-2.5,7.4-1.8,1.8-4.6,2.6-8.1,2.6a16.87,16.87,0,0,1-8.8-2.4l1.7-3.4a13.34,13.34,0,0,0,7,2.1c4,0,6.3-2.1,6.3-6v-1.5a8.45,8.45,0,0,1-7,3.6,8.84,8.84,0,0,1-9-8.7v-.6a8.93,8.93,0,0,1,8.5-9.3h.5a8.48,8.48,0,0,1,6.9,3.4Zm.1,8.9c0-3.2-2.6-5.4-5.8-5.4a5.34,5.34,0,0,0-5.6,5v.5a5.36,5.36,0,0,0,5.3,5.4h.3a5.55,5.55,0,0,0,5.8-5.2v-.3Zm16.4-4.4v-4.4h-4.6v19.8H377v-7.5c0-5.2,2.8-7.8,6.7-7.8h.3V214c-3.4-.2-5.7,1.8-7,4.8Zm26.2-2.5a8.17,8.17,0,0,1,2.1,6.1v11.7H401v-2.5a8.05,8.05,0,0,1-6.4,2.9c-3.7,0-7-2.1-7-6.1v-.1c0-4.3,3.4-6.4,8.2-6.4a18.9,18.9,0,0,1,5.3.8v-.5c0-2.8-1.7-4.3-4.9-4.3a13.42,13.42,0,0,0-5.6,1.2l-1.2-3.6a17.43,17.43,0,0,1,7.5-1.6c2.8.2,5,.9,6.3,2.4Zm-2.2,9.3a13.75,13.75,0,0,0-4.5-.8c-2.9,0-4.6,1.2-4.6,3.3v.1c0,1.9,1.7,3,3.9,3,3,0,5.3-1.7,5.3-4.2v-1.4Zm32-1.4h0c0,6.6-4.5,10.3-9.2,10.3a8.07,8.07,0,0,1-6.7-3.5v9.1h-4.6V214.3h4.6v3.3a7.89,7.89,0,0,1,6.7-3.7c4.7,0,9.3,3.7,9.2,10.3Zm-4.6,0c0-3.8-2.6-6.3-5.6-6.3a6.06,6.06,0,0,0-5.8,6.3v.1c0,3.8,2.7,6.3,5.8,6.3s5.6-2.5,5.6-6.4Zm21.8-10.3a7.35,7.35,0,0,0-6.2,3.4V206.7h-4.6V234H444V222.9c0-3.1,1.8-4.9,4.5-4.9s4.2,1.8,4.2,4.8V234h4.5V221.4c.1-4.5-2.5-7.5-7-7.5ZM472.5,229,467,214.3h-4.9l8.2,19.8c-.8,1.7-1.5,2.2-2.8,2.2a5.3,5.3,0,0,1-2.7-.8l-1.5,3.3A8.47,8.47,0,0,0,468,240c3.2,0,4.9-1.5,6.5-5.6l7.9-20.3h-4.7Zm13.8,5.1h5v-5.2h-5Zm22.1-3.5c-3.5,0-5.9-2.8-5.9-6.3v-.1c0-3.4,2.4-6.3,5.7-6.3a6.49,6.49,0,0,1,5.1,2.5l2.8-3a10,10,0,0,0-7.9-3.4,10.24,10.24,0,0,0-10.3,10.1v.3a10.37,10.37,0,0,0,10.5,10.2,10.22,10.22,0,0,0,7.8-3.7l-2.7-2.7a7.24,7.24,0,0,1-5.1,2.4Zm33.5-6.4h0a10.39,10.39,0,0,1-10.4,10.4h-.2a10.31,10.31,0,0,1-10.5-9.9v-.4a10.65,10.65,0,0,1,10.5-10.6,10.52,10.52,0,0,1,10.6,10.5Zm-4.5.1a6,6,0,0,0-5.8-6.3h-.2a6,6,0,0,0-6,6.3v.1a6,6,0,0,0,5.8,6.3h.2a5.91,5.91,0,0,0,6-5.8v-.6Zm33.3-10.4a8.07,8.07,0,0,0-6.7,3.5,6.33,6.33,0,0,0-5.9-3.5,7,7,0,0,0-6,3.4v-3h-4.6v19.8h4.6V222.9c0-3,1.7-4.9,4.2-4.9s4,1.7,4,4.8v11.3h4.5V223c0-3.2,1.8-4.9,4.2-4.9s4,1.7,4,4.8v11.2h4.5V221.5c.1-4.9-2.5-7.6-6.8-7.6ZM298.6,104.2h11.8v24.6H276.7V104.2h11.6V92.8H243.5v11.4h11.8v63.4H243.5V179h44.8V167.6H276.7V139.8h33.7v27.8H298.6V179h44.9V167.6H331.7V104.2h11.8V92.8H298.6v11.4Zm112,43.7c0,19-14.1,32.4-33.1,32.4-19.5,0-33.1-12.7-33.1-31.7s14.3-32.3,33.3-32.3c19.4-.1,32.9,12.8,32.9,31.6Zm-21,.3c0-16.5-4-23-12.6-23-8.3,0-11.8,6.7-11.8,23.2s4.2,23,12.6,23S389.6,164.7,389.6,148.2Zm87.4,2.6H435.2c.8,14.3,6.5,19,16.4,19,7.2,0,11.9-3,14.7-10.7h10.1c-2.4,12.8-11,21.2-28.2,21.2-20.4,0-32.9-12.6-32.9-31.4,0-18.6,13.7-32.6,32.2-32.6C468.2,116.2,477.9,130.9,477,150.8Zm-18.7-8.2c-.6-12.4-4-17.4-11.1-17.4-6.8,0-11,4.3-11.8,17.4ZM621,150.8H579.2c.8,14.3,6.5,19,16.4,19,7.2,0,11.9-3,14.7-10.7h10.1c-2.4,12.8-11,21.2-28.2,21.2-20.4,0-32.9-12.6-32.9-31.4,0-18.6,13.8-32.6,32.2-32.6C612.2,116.2,621.9,130.9,621,150.8Zm-18.7-8.2c-.7-12.4-4.1-17.4-11.1-17.4-6.8,0-11,4.3-11.8,17.4Zm67.8-26.2c-8.4,0-15.5,5.6-19.1,17V117.6H624v11h9V168h-9v11h39.5V168H652.1V141.1c2.2-7.6,6.7-11.5,10.1-11.8,0,.4-.1.8-.1,1.1,0,6,4.5,9.3,10.2,9.3s10.2-4.7,10.2-11.3-4.8-12-12.4-12Zm97.4,43.2,7.2,2.2c-2.5,10.7-8,19.3-19.5,19.3-7.9,0-12.3-2.6-18.7-10.6-6.9,7.1-14.9,10.6-24.6,10.6-17.3,0-27.4-10-27.4-22.8,0-12.6,8.9-19.1,20.2-23.4-6-6.1-9-10.9-9-18.1,0-11.4,10.3-21.2,25.9-21.2,14.9,0,22.7,9.2,22.7,17.9,0,10-7.5,14.7-17,18.9a137.78,137.78,0,0,1,18.1,20.8,74.89,74.89,0,0,0,9.5-14.2h-9V128.1H774v11h-8.1A100.22,100.22,0,0,1,750.8,160c4.5,6.2,6.4,7.6,9.6,7.6s5.1-1.9,7.1-8Zm-54.9-47.4c0,4.8,2.9,8.9,9.2,15.2,5.1-3.7,7.6-8,7.6-13.5s-2.6-9.8-8.7-9.8a7.75,7.75,0,0,0-8.1,7.5v.6Zm18.5,52.1a166.47,166.47,0,0,0-21-24.2c-4.3,3.4-6.7,8-6.7,14.5,0,8.6,5.5,14.4,14.5,14.4,4.4,0,8.7-1.4,13.2-4.7Zm97.6,4.4c-14.8,0-23.8-10.1-23.8-33.6,0-24.6,8.6-33.6,20.9-33.6,10.9,0,18.2,8,23.5,23.8h13V91H850.5l-2.8,10c-5.2-6.4-13.5-10.2-24.5-10.2-22.5,0-41.6,18.9-41.6,45.7,0,26.6,17.3,44.7,44.1,44.7,23.3,0,36.1-14.3,38.4-36.5H851.4c-2.3,14.2-9.8,24-22.7,24Zm106.2-20.8c0,19-14.1,32.4-33.1,32.4-19.5,0-33.1-12.7-33.1-31.7S883,116.3,902,116.3c19.4-.1,32.9,12.8,32.9,31.6Zm-21,.3c0-16.5-4-23-12.6-23-8.2,0-11.8,6.7-11.8,23.2s4.2,23,12.6,23,11.8-6.7,11.8-23.2Zm34.4,9.8A11.6,11.6,0,1,0,960,169.5v-.1A11.39,11.39,0,0,0,948.6,158Zm-418,10V128.5H508V168h7.8v11H480.3V168h8.9V128.5H478.1v-11h11.1V117c0-20.2,14.2-29.3,30.3-29.3a31.75,31.75,0,0,1,13.2,2.6L549,87.4V168h9.9v11H522.4V168Zm0-50.4v-7.5c-5.5-.1-9.2-3.2-9.2-8.9a9.59,9.59,0,0,1,1.7-5.4,9.84,9.84,0,0,0-4.2-.8c-6.5,0-11.1,3.3-11.1,18.2v4.3Z"/></g></g></g></svg>