<svg xmlns="http://www.w3.org/2000/svg" viewBox="0 0 660 561.62"><defs><style>.cls-1{fill:#f5fff5;}</style></defs><title>ina-saltz</title><g id="Layer_2" data-name="Layer 2"><g id="Layer_1-2" data-name="Layer 1"><path class="cls-1" d="M94.47,411.13H157V360.38c-24.37-16.84-50.24-22.61-79.39-22.61-20.1,0-40.95,2.51-55.27,13.31C4.77,364.4,1,376,0,399.07v4.77c0,46.48,22.86,56.28,63.56,66.33C82.16,474.69,96,476.45,96,498.56c0,7.79-4,16.58-13.06,16.58a13.73,13.73,0,0,1-12.06-7c-2.26-4.53-2-14.07-2-26.89H3.27V539C25.12,556.34,54,561.62,81.4,561.62c64.07,0,82.41-30.65,82.41-72.11v-1a84.51,84.51,0,0,0-5-29.65c-3-9-8.79-15.32-16.58-20.6-13.56-9-35.17-14.82-51.25-19.09-5.53-1.51-15.07-4.52-18.84-8.54-3.52-3.52-4-7.79-4-12.06,0-8,4.52-14.33,13.06-14.33,13.06,0,13.32,13.32,13.32,22.87v4ZM261.54,511.88c-5.53,4-11.06,5.77-16.08,5.77-5.28,1-8.54-4.77-8.54-9.79,0-11.06,14.06-13.57,24.62-17.84v21.86Zm2.26,45.47h64.31V521.92c-8-5.77-7.28-13.06-7.28-21.35V456.35c.25-18.34,0-34.92-16.58-48-13.32-10.05-33.67-12.56-49.5-12.56-24.62,0-50.24,5-70.6,19.6v38.94h55.53v-6.53c0-7.79,2-15.58,11.56-15.58,8.29,0,10.3,7.79,10.3,15.58v5.53l-38.19,12.31c-26.63,8.79-45.73,18.09-45.73,49.74,0,27.89,17.34,45.23,45,45.23,16.33,0,28.64-4.78,41.21-15.33v12.06ZM405.5,342H338.92v35.42c8,4.77,7.28,12.81,7.28,20.85V502.08c0,8,.51,15.07-7.28,19.84v35.43h73.86V521.92c-8-4.27-7.28-13.06-7.28-20.85V342Zm83.41,9.29-59.29,16.83v30.91h-7.29v36.18h7.29v73.86c0,13.82-.76,28.64,10.05,39.45,10.05,9.79,26.12,12.06,39.19,11.05l29.64-2.26V521.42c-19.84-2.26-19.59-8.54-19.59-25.62V435.25H508.5V399.07H488.91V351.33Zm29.89,206H660V495.79H616.54v4.78c0,4.27-.25,11.3-2.52,15.07-2.76,5-11.55,4.27-16.58,4.27h-6l67.08-85.17V399.07H519.81v58.79H561v-3.77c0-3.27.25-10.8,2-14.57,2.51-5.28,11.31-4.27,16.08-4.27h5.78L518.8,519.91v37.44Z"/><path class="cls-1" d="M17.47,241.12c0,12.43,1.17,24.85-11.26,32.62v59H132.4v-59C120,266,121.14,253.55,121.14,241.12V91.63c0-12.42-1.16-24.85,11.26-32.61V0H6.21V59c12.43,7.77,11.26,20.19,11.26,32.62V241.12Zm240.73-153h-99v54.75c11.65,8.54,11.26,17.08,11.26,30.28v74.17c0,12.42.78,23.68-11.26,30.67v54.75H273.34V278c-12.42-6.6-11.26-20.19-11.26-32.23V154.15c15.15-7,25.24,0,31.46,9.32,3.88,8.93,2.71,20.19,2.71,21.74v71.45c0,25.23-.38,51.25,5.05,76.1h97.46V278c-12-6.6-10.87-20.19-10.87-32.23V154.15c0-21-1.94-38.83-18.64-54.75-9.32-9.32-26-15.53-45-16.31-19.41-.77-41.16,3.5-66,20.2V88.14ZM548.64,262.48c-8.55,6.21-17.09,8.93-24.85,8.93-8.16,1.55-13.2-7.38-13.2-15.15,0-17.08,21.74-21,38.05-27.56v33.78Zm3.49,70.28h99.4V278c-12.42-8.93-11.26-20.19-11.26-33V176.67c.39-28.35,0-54-25.63-74.16-20.57-15.54-52-19.42-76.49-19.42-38,0-77.65,7.77-109.1,30.29v60.18h85.81v-10.1c0-12,3.1-24.07,17.86-24.07,12.81,0,15.92,12,15.92,24.07V172l-59,19C448.46,204.62,419,219,419,267.91c0,43.1,26.79,69.89,69.5,69.89,25.24,0,44.27-7.38,63.68-23.68v18.64Z"/></g></g></svg>