<svg xmlns="http://www.w3.org/2000/svg" viewBox="0 0 730 581.45"><defs><style>.cls-1{fill:#f5fff5;}</style></defs><title>john-downer</title><g id="Layer_2" data-name="Layer 2"><g id="Layer_1-2" data-name="Layer 1"><path class="cls-1" d="M638.62,367.7s-11-19.49-15.6-29.23c-5.84-9.75-10.39-21.44-13-26.64a11.3,11.3,0,0,0-2.59-1.95l-1.31,1.3,1.31,14.94v8.45l.64,9.09.65,26v10.4l-.65,7.14a8.5,8.5,0,0,1-3.9,5.2L599,395.64c-3.9,1.3-8.43,4-14.3,5.2-9.73,2-16.24,3.24-24,3.24a12.84,12.84,0,0,1-3.9-.65c-2-.49-2-1.3-3.25-2.59-1.3-1.95-1.3-5.2-1.3-7.15,0-5.2,1.95-16.24,1.95-26l.65-11,.65-42.23-.65-68.21-.65-15.59-.65-7.8c0-3.89,1.3-9.74,3.9-11.69,1.3-.65,3.9-2.6,5.85-2.6,3.89-1.95,14.27-5.3,21.43-6.49,8.43-1.41,23.39-3.25,33.14-3.25,2.6,0,4.55,1.3,6.49,1.95,1.95,0,4.55,4.54,4.55,4.54l5.2,12.35,1.3,4.54,1.3,2.61,4.55,11s6.49,16.24,11,26c5.2,10.39,10.4,22.73,13,27.93a9.51,9.51,0,0,1,2,3.25l.64-1.95c-.64-12.34-2-48.07-3.24-63l-1.3-9.74V215s-.11-3.3.65-4.55a9,9,0,0,1,5.84-3.9c3.9-2.6,11-4,16.9-5.19,9.73-2,14.94-2.6,22.73-2.6a12.84,12.84,0,0,1,3.9.65c2,.49,2.6,1.29,3.9,2.59a11,11,0,0,1,1.95,6.5c0,7.15-1.95,26.64-1.95,26.64l-.65,12.34L715.93,293v61.71l.65,15.59.65,12.35c0,3.9-.65,4.55-2.6,7.14-1.3.65-4.55,3.9-6.49,3.9-4.55,1.95-12.39,5.73-19.49,7.8-8.49,2.47-13,3.9-19.5,3.9l-3.89.65h-2.6c-1.3-1.3-3.25-2-3.25-3.9l-3.9-4.55-6.5-11L646.42,382l-1.3-2.6ZM516.48,200.1a22.71,22.71,0,0,1-3.9-1.3,146.33,146.33,0,0,0-24,2.6c-3.88.73-11.69,2.59-14.94,2.59l-13,3.9c-2.6,1.3-6.5,3.25-7.8,5.85a13,13,0,0,0-1.3,5.85,48.08,48.08,0,0,0,1.3,7.79v4.55l.65,7.14.65,29.89a2.37,2.37,0,0,1-3.25,1.3H440.47c-2.6,0-13,.65-16.24,1.95-2-.65-2-1.3-2-2.6V257.92l-.65-6.5.65-3.9c.65-9.74-.65-29.88.65-36.38V206.6a8.58,8.58,0,0,0-5.84-7.8c-9.75-.65-26.66,2.48-36.39,4.55-11.72,2.48-22.84,5.72-27.93,10.39-2.71,2.48-1.95,6.5-1.95,13l1.3,3.9-.65,3.9,1.3,15.59,2.6,42.88.65,25.33,1.3,40.28-.65,39,1.3,3.25a9.68,9.68,0,0,0,5.84,2.6h9.75a136.66,136.66,0,0,0,19.49-1.95l9.09-1.95c4.62-1,11.05-2.6,13.65-4.55,1.3-.65,3.89-2.6,4.55-4.55.64-1.3,1.29-3.24,1.29-9.74l.66-6.5-.66-10.39.66-13.65.64-18.19c4.55-4.54,17.55-6.49,32.49-6.49l1.3,37V380.7l.65,11.69v4.55c0,3.25,5.19,5.85,8.44,5.85a106,106,0,0,0,28.59-3.9c7.11-2.07,13.64-3.25,16.24-5.85,2,0,3.9-1.3,5.2-2,1.95-2.6,3.89-5.19,3.89-9.09l.65-14.29V287.15l.65-39.63-.65-9.09.65-3.9V209.19c0-1.95,0-4.55-1.3-6.49C518.43,201.4,518.47,200.59,516.48,200.1ZM729.57,572.35l-3.9,1.95-7.79,2c-3.9,2-6.5,2.6-9.75,2.6-2,.64-4.54-.65-7.14-2-5.2-3.9-9.75-9.75-13.65-16.89L673.7,537.27l-9.75,2c-.65,8.44,1.95,23.38,1.95,28.58-1.3,2.6-3.89,5.2-5.84,5.2-2.6,2.6-9.75,3.25-13.65,3.9l-7.14.65c-3.25-.65-6.5-2.6-6.5-7.15,0,0,.65-3.9,0-5.2,1.3-1.3,0-13.64,0-13.64l-.65-10.39-1.3-27.29-.65-20.14-1.3-16.89-.65-14.94c0-3.25.65-7.15,2.6-9.1l4.55-1.95,9.74-1.3L659.4,447s11.7-1.3,17.55-1.3a58.78,58.78,0,0,1,18.19,3.25,40.46,40.46,0,0,1,11,6.5c10.4,10.39,13,19.49,13,32.48s-4.54,27.94-13,34.44l-1.3,1.3v1.29l9.75,20.14,13,22.09C728.92,568.45,730.87,569.1,729.57,572.35Zm-42.88-81.21c0-12.34-8.44-17.54-13.64-17.54,0,0-5.85,0-7.8,1.3-1.3,5.84-1.3,22.09-.65,34.43l1.3,1.3a61.56,61.56,0,0,0,14.3-1.3C684.09,505.43,686.69,501.54,686.69,491.14Zm-74.06,55.22h-3.25l-6.49.65s-19.49,1.3-26,1.3c-1.3,0-1.95-1.95-1.95-1.95v-6.49c0-5.2-.65-12.35-.65-12.35l1.3-1.3,18.19-1.3,3.25-.64,5.84-.65c2-.65,4.55-2.6,4.55-4.55,2-2.6,2-5.85,2.6-8.45l.65-6.49s.65-5.2-.65-6.5-3.25-.65-6.5-.65c0,0-13,1.3-20.14,1.3h-5.85L575,497l.65-19.49,1.3-.65h3.25l9.74-1.3,6.5-.65h5.84l4.55-1.3,2-2.6c1.95-1.95,3.9-5.84,3.9-7.79l1.3-5.85v-6.5c0-1.3-.65-3.25-4.55-3.25h-39a114,114,0,0,0-19.49,1.95s-5.19,0-8.44,1.3c-3.25,1.95-5.2,6.5-5.2,14.3l1.3,12.34.65,16.24v7.15l1.3,33.78v17.54l.65,13v5.19c.65,3.9,3.24,7.15,5.84,7.8l11.7.65,16.24-1.3,16.24-1.95,9.75-1.3,6.5-1.95c1.94-.65,3.89-1.3,5.19-3.25a42.82,42.82,0,0,0,3.9-17.54,12.82,12.82,0,0,0-1.3-4.55ZM326.78,247.52c6.38,15,7.79,37.68,7.79,52,0,40.93-13,74.71-45.47,94.2-16.24,9.75-42.23,13-68.22,13-16.24,0-32.48-6.49-45.47-19.48-19.49-19.5-27.29-52-27.29-81.21,0-32.48,5.2-58.47,29.24-82.51,20.79-20.79,53.92-27.93,79.25-27.93,11.7,0,26,2.52,35.74,8.44C306,212.36,318.22,227.42,326.78,247.52Zm-60.42,52c0-42.22-9.75-48.72-22.74-48.72-9.09,0-18.19,3.25-21.44,6.5-2.59,6.49-4.54,19.49-4.54,39,0,39,3.24,53.26,26,53.26,9.75,0,14.94-3.24,19.49-7.79C265.06,332,266.36,319,266.36,299.49ZM516.48,448.91a9.11,9.11,0,0,0-5.2-1.3c-4.55,0-19.48,3.25-26,5.85-1.3,1.3-1.95,3.9-1.3,5.2,1.94,6.5,2.33,13,2.6,19.49l1.3,32.48-3.9-6.49c-3.15-5.26-16.12-29.29-18.19-33.79L458,453.46c-.65-1.3-1.3-6.49-3.25-7.79-3.9-.65-13.64,1.3-13.64,1.3l-6.5,1.94a61.32,61.32,0,0,0-11,3.25,8,8,0,0,0-5.85,5.2c0,3.9,1.3,13,1.3,13l1.3,29.89.65,37.68v34.43c0,1.95.65,3.9,2.6,4.55h3.25c6.49,0,19.49-2.6,24.69-7.8,1.29-1.29,1.29-5.19,1.29-5.19,0-5.2-1.29-18.84-1.29-18.84l-1.95-33.14,3.24,5.85c11.05,20.14,29.89,52.62,35.73,58.47a9.43,9.43,0,0,0,4.55,1.3c2,0,8.45-1.95,13-3.9,2-.65,7.79-3.25,9.09-5.2,1.3-1.3,2-3.9,1.3-6.49v-2.6l-.65-9.75V517.13l.65-33.78,1.95-24v-1.95s.65-3.25,0-4.55C518.43,451.51,518.49,450.12,516.48,448.91Zm-116.29-1.3-8.45,1.3c-2.59,0-8.44,1.3-10.39,3.25a8.43,8.43,0,0,0-2.6,5.2c-2.05,12.33-8.45,42.23-11.69,56.52l-5.2-27.94s-6.5-33.78-7.8-35.08c0-1.95-1.3-2.6-3.24-3.9-7.8,0-24,5.2-27.29,7.15-3.25,3.25-3.15,6.54-5.2,17.54l-8.44,45.48L304,484.64s-5.2-33.13-6.5-35.08c0-2.6-2-3.9-5.19-3.9-6.5,0-30.54,6.5-30.54,9.75,0,4.55,10.4,43.52,14.29,58.47.65,5.19,6.5,29.23,6.5,29.23,2.6,9.1,5.2,29.89,6.5,31.19s3.9,3.25,7.14,2.59c7.15,0,15.6-2.59,15.6-2.59l4.54-1.95,1.95-2c1.95-1.95,2.56-2,3.25-4.55l5.2-19.49,7.79-29.23v-1.3l1.3-3.9c1.95,1.95,13.65,59.77,15.59,61.72,1.3,2.59,2.6,3.24,5.85,3.24A76.57,76.57,0,0,0,379.4,573c1.93-.71,2.6-2.6,3.25-3.9l3.25-13,2.59-13,3.25-11.05s13-53.27,14.29-59.11c2-7.8,3.26-12.35,3.26-16.25l.64-1.3c1.3-4.54,0-6.49-1.94-8.44A54.39,54.39,0,0,0,400.19,447.61Zm-280-79.91c7.15-16.23,9.74-45.47,9.74-77.95s0-78-6.5-90.95c-1.94-4.55-3.24-6.5-9.74-6.5-16.24,0-52,9.74-58.47,16.24-1.95,2-3.25,3.25-3.25,6.5s3.25,9.74,3.25,16.24C55.22,241,65,337.82,63,341.72c-2.6,5.19-7.8,9.74-17.54,9.74A24.78,24.78,0,0,1,29.24,345c-5.2-3.24-5.2-9.74-9.75-6.49-3.25,0-4.55,3.25-6.5,6.49C9.74,348.21,0,366.4,0,380.7c0,19.49,19.49,29.23,45.48,29.23C84.46,409.93,110.45,389.8,120.19,367.7Zm139,139.68c.39,12.36-.65,24-2.6,32.49-2.59,9.09-8.44,18.19-13,22.73l-3.25,2.6c-2,1.95-9.07,6.55-13.64,8.45-3.23,1.35-9.09,3.9-13.64,3.9a119.47,119.47,0,0,1-15,1.3h-7.79c-9.1-1.3-15.63-3.18-21.44-6.5-3.29-1.88-7.79-6.5-10.39-10.4-4.55-7.14-8.32-18.85-10.4-34.43-.52-3.92-.65-17.54-.65-23.38l1.3-5.85v-4.55c2.6-14.94,3.25-18.19,11-30.53,2.6-4.55,12.41-12.2,15.59-13.65,4-1.8,11-3.89,13.64-3.89l10.4-1.95s7.14-.65,13.64-.65c13.64,1.3,13.64,2.6,18.84,5.19l4.55,1.95c8.44,5.85,15.05,15.57,18.84,29.89A135.93,135.93,0,0,1,259.21,507.38Zm-36.38,6.5c0-28.59-8.44-40.93-21.44-40.93-4.54,0-10.39,2.6-12.34,3.9-2,3.25-4.55,14.29-4.55,31.83,0,29.24,9.1,39.63,18.84,39.63a19.65,19.65,0,0,0,14.3-5.84C220.23,536.62,222.83,526.87,222.83,513.88ZM125.38,460c11,14.32,15,31.18,14.29,50.67l-1.29,14.29v2c-2.6,15-7.15,23.39-11.7,29.24s-16.24,14.29-19.49,16.24a65.5,65.5,0,0,1-9.74,4.55c-3.25,1.3-13,2.6-13,2.6l-11,1.3s-13,.65-18.19.65a44.12,44.12,0,0,1-11-1.3c-2.6-.65-5.2-5.2-5.85-9.1v-5.2L37,553.51v-7.8L32.48,495v-1.3l-1.95-13-2.6-19.49c-1.3-3.25.65-5.85,2.6-7.8l4.55-2.6A140.54,140.54,0,0,1,65,443.72c6.49-.72,21.44-1.28,28.59-.65a43.77,43.77,0,0,1,20.14,6.49A62.62,62.62,0,0,1,125.38,460Zm-21.44,52c0-11.69-3.24-26-6.49-30.53-2-4.55-9.75-9.75-16.24-8.45-3.25-.65-9.1.65-11.7,1.95-1.3,2,0,9.75,0,13v16.25c0,22.73,1.3,40.28,1.95,42.22,1.3,1.3,7.8,1.95,11.05,1.95l5.19-.65c3-1.27,5.2-1.3,7.8-4.54C100.7,537.92,103.94,526.87,103.94,511.93ZM42.23,98.1c0,40.93-1.95,55.22-1.95,58.47s1.95,3.25,5.19,3.25,8.42-2,13-5.2c1.92-1.35,3.25-4.55,3.25-7.8,0-16.24-.27-29.72,0-48.72.35-25.35-1.3-61.72,2-65,1.29-1.3,14.74,41,20.78,61.72,3,10.45,11.76,37.66,17.54,58.47.72,2.58,3.25,2.6,5.85,2.6,3.25,0,14.86-3.27,15.59-5.85,11.62-40.95,35.74-120.19,39-120.19s3.25,97.45,4.55,123.44c-1.3,3.25,0,5.2,1.95,5.2,0,0,3.25-.65,3.25-2,7.14,0,13.05-4.52,14.29-6.5,2-3.21,0-35.73,0-61.72V55.87c1.3-1.3-1.3-3.25-1.3-3.25,1.3-.65,1.3-1.95,1.3-3.25v-39c0-6.49-1.3-9.74-7.8-9.74h-3.24c-16.24,2-29.24,6.49-30.54,8.44-1.94,2.6-5.23,20.79-11.69,43.53C123.41,87,115,113,113.69,114.34c-1.3,0-13-42.88-16.24-55.22s-6.51-26-11-45.48c-2-8.44-5.19-11-8.44-11-16.24,0-32.48,6.49-37,11-2,1.95-1.94,3.25,0,19.49C42.24,44.18,42.23,78,42.23,98.1Zm192.3-58.47,1.3,33.78s0,33.13,1.3,34.43c-1.3,6.5-1.3,45.48-3.25,45.48,0,3.25,2,3.9,3.9,3.9.64,1.3,12.34-2.6,14.94-5.2,1.95,0,3.9-2,3.9-5.2v-78s0-42.23,3.25-61.71c1.94-3.25,0-7.15-4.55-7.15-8.45,0-18.19,3.9-21.44,7.15-1.95,3.24-1.3,9.74,0,13C233.88,26,234.53,39.63,234.53,39.63Zm59.11,110.44c5.85,5.85,18.2,13,34.44,13s32.48-6.5,39-16.24c11-9.75,19.49-26,16.24-42.23,0-9.75-6.39-17.69-13-22.74-4.43-3.4-13-7.73-26-13-7.83-3.18-16.89-8.44-20.79-13-1.95-1.3-3.9-6.5-3.9-11.69,0-7.8,1.95-11,5.2-15.6,6.49-5.19,13-6.49,22.74-6.49s13,2.6,18.84,2.6h1.3l2.59-1.3c1.3-1.3,1.3-1.3,3.25-6.5,1.3-1.3,3.25-6.5,1.95-7.79,0-5.2-8.45-8.45-14.94-8.45-9.75,0-17.54,0-26,3.25-3.25,0-9.09,2.6-13,5.2-8.45,2.59-16.24,11-19.49,17.54-3.25,4.54-5.2,13-5.2,22.73,0,6.5,3.9,16.25,10.4,22.74s17.54,13,40.27,22.74c9.75,5.2,13,13,13,19.49s0,9.75-3.25,13c-3.25,9.75-9.74,16.25-22.74,16.25-3.25,0-10.39-.65-13-2a42.64,42.64,0,0,1-13-9.1c-1.94-3.24-4.54-4.54-6.49-3.24-1.95,0-3.25,1.3-6.5,5.19-3.25,3.25-4.55,6.5-4.55,9.1C291.05,145.52,291.7,148.77,293.64,150.07ZM388.5,28.58c6.45,1.49,13-1.95,32.48-1.95h3.25c1.94,1.95,1.3,9.75,1.3,16.25,0,13,1.3,26,1.3,42.23s.65,42.22,1.95,52c-1.3,3.25,0,9.74,0,13s0,6.5,1.3,7.8c1.95,1.95.65,1.95,3.9,1.95s9.09-3.25,12.34-6.5c3.24-1.95,3.9-3.24,3.9-6.49v-9.75c0-9.75-2-35.73-2-55.22,0-16.24,2-52,5.19-55.22,6.5-1.95,19.49.65,26-1.95,3.25-1.3,5.2-2.6,6.5-4.55s2.59-2.6,3.24-4.55c1.3-3.9,1.95-8.44,0-10.39-1.29-1.3-6.49.65-13,.65S456.71,5.2,447,5.2H421c-9.1,0-16.24.65-22.74.65-3.25,0-6.49,3.25-9.74,7.79s-5.05,8.35-3.25,11.05C386.05,25.9,386.49,28.12,388.5,28.58Zm194.24,126,2-2.6c1.95,0,1.95,0,1.95-2,2.6-3.25,4.55-6.5,4.55-11,0-1.95-.65-4.55-2-5.2-1.3,1.3-2.6,1.3-5.2,1.95-5.84,0-15.59,1.3-22.09,1.3s-13,1.3-19.48,0c0,0-7.15-.65-9.75-2-2-1.3-3.25-4.55-3.25-7.8,0-13-.65-27.93,0-33.78,3.9-2,17.54-2,26-2,3.25,0,16.24-.65,19.49-1.95s6.49-4.55,6.49-6.5c1.3-1.3,3.25-6.49,3.25-9.09,0-5.85-2-5.2-2-5.2-2,2-4.55,1.3-7.79,1.3H554.81s-17.54,0-23.39-1.3c-1.3,0-1.95-3.25-1.95-6.49,0-13,1.3-29.24,3.25-32.49A3.18,3.18,0,0,1,536,26.63l26-1.3c13-.65,18.2-.65,20.79-3.25,2-1.94,5.2-4.54,6.5-10.39,0-3.25,2-5.85,0-7.8-2.6-1.3-14.29,0-20.14,0-2.6.65-23.39-.65-31.83,0-14.29,0-17.55.65-23.39,1.95-1.95,0-3.9,1.3-5.2,2-1.3,1.3-1.3,2-1.95,5.2V49.37c0,19.49,1.95,65,1.95,84.46L508,150.07c0,8.45,3.25,7.79,5.2,9.74,3.9,1.3,4.59,1.59,9.75,1.3l22.73-1.3C571.59,158.33,578.2,156.57,582.74,154.62ZM620.43,16.89c-1.31-3.9-.65-6.5,1.3-7.8,1.95-1.95,24.68-6.49,40.92-6.49,13,0,21.45,2.57,26,4.54,10.41,4.53,17.57,13,19.49,17.55a54.72,54.72,0,0,1,4.55,21.43,66.93,66.93,0,0,1-7.8,32.49,40.43,40.43,0,0,1-13,14.29v1.95c0,1.3,4.57,8.43,6.5,13,3.27,7.79,13,26,22.73,39,2,2.6,4.55,4.55,6.5,7.8v1.95c-1.3,2-1.3,1.3-3.25,2-1.3,1.3-9.74,2.6-13,2.6s-4.55-1.3-7.8-2.6c-2.59-2-3.25-3.25-5.19-6.5-3.9-4.55-6.5-11.69-16.25-27.93-6.49-9.75-9.74-17.54-13-22.74-5.85,1.3-26,3.25-26,3.25,0,9.74-1.3,42.23-1.3,42.23,1.3,3.24-.65,6.49-1.94,7.79-3.25,3.9-14.95,7.15-16.25,5.85-2.6,0-3.24-3.25-3.24-5.85,2-5.85,0-81.86,0-113.69Zm22.74,66.26c3.24,1.3,9.74,2,16.24,2,9.74,0,16.24-2,19.49-4.55,6.5-8.45,9.74-18.19,9.74-31.19,0-16.24-9.74-26-28.58-26a56.21,56.21,0,0,0-12.35,1.3,8.09,8.09,0,0,0-1.3,1.94C643.17,36.38,643.17,62.37,643.17,83.15Z"/></g></g></svg>