<svg xmlns="http://www.w3.org/2000/svg" viewBox="0 0 940 543.74"><defs><style>.cls-1{fill:#f5fff5;}</style></defs><title>mark-simonson</title><g id="Layer_2" data-name="Layer 2"><g id="Layer_1-2" data-name="Layer 1"><path class="cls-1" d="M778.81,199.39c-8.47,3.76-22.57,8.46-35.74,8.46-10.64,0-20.67-2.46-29.09-9.36,18.21,1.82,33.79-10.13,33.79-27.32,0-16-13.16-24.45-25.39-24.45-22.61,0-40.72,15.68-51.73,43.67V169.81c36.9-62.82,50.79-99.46,50.79-126.55,0-16-7.53-43.26-25.39-43.26s-50.79,25.39-50.79,106.28v81.61c-8.74,11.05-16.2,17.14-22.57,17.14-7.53,0-12.23-6.58-12.23-16.93s3.76-21.63,6.58-28.21,0-12.23-7.52-7.53c-4.7,2.82-9.41,6.58-16.93,6.58-2.82,0-11.29,0-16-3.76.94-13.16-3.76-20.69-12.22-20.69-7.53,0-15,7.53-15,17.87a22.27,22.27,0,0,0,11.17,19.85c-4.1,17.86-18.89,30.94-27.16,30.94-6.58,0-9.41-4.7-9.41-16v-32c0-6-10.23-3.21-17.7,2.49a39.36,39.36,0,0,0-23.68-8.13c-21.63,0-49.84,17.87-49.84,47,0,19.75,13.16,31,31,31,14.5,0,28.18-10.48,36.89-23.7,2.29,15.77,14.28,20.88,25.19,20.88,19.69,0,41.52-24.33,46.77-48a55.44,55.44,0,0,0,10.6,1A39.69,39.69,0,0,0,596,175.52c-5.67,7.55-10,18.14-10,25.75,0,14.11,10.34,23.51,26.33,23.51,12.23,0,22.81-6.61,32.92-17.8v10.28c0,4.7,1.88,6.58,6.58,6.58h15c4.7,0,5.64-3.76,6.59-6.58,10.34-36.68,23.51-54.55,36.68-54.55,7.52,0,12.22,7.52,12.22,15,0,3.76-1.88,9.4-6.58,9.4s-6.58-3.76-9.41-5.64c-4.7-3.76-15,9.4-15,20.69,0,10.34,15,24.45,39.5,24.45,28.21,0,44.2-10.34,50.78-18.81C786.33,202.21,784.45,196.57,778.81,199.39Zm-304.72,2.82c-11.29,0-16.93-8.47-16.93-19.75,0-10.35,8.46-18.81,19.75-18.81,8.34,0,14.85,3.12,21.49,9.72C497,193.12,485.55,202.21,474.09,202.21ZM686.64,15.05c12.23,0,16,21.63,16,38.56,0,25.57-14.47,63.42-32,95.19V93.11C670.65,58.31,674.41,15.05,686.64,15.05ZM193.75,283.1a19.75,19.75,0,1,1,19.75,19.75A19.28,19.28,0,0,1,193.75,283.1ZM458.1,255.82c-6.59,14.11-19.75,21.63-32.92,21.63-26.33,0-39.5-23.51-39.5-62.07,0-27.28,4.7-64.9,4.7-92.17,0-16.93-3.76-26.34-14.11-26.34-15,0-29.15,17.87-29.15,63v57.37c0,4.7-1.88,6.58-6.59,6.58h-14.1c-4.71,0-6.59-1.88-6.59-6.58V113.8c0-16.93,0-36.68-14.1-36.68-10.35,0-27.28,14.11-27.28,47v93.11c0,4.7-1.88,6.58-6.58,6.58H257.77c-4.7,0-6.59-1.88-6.59-6.58V103.46c0-43.27-18.8-62.08-48-62.08s-61.13,20.69-61.13,61.14c0,28.21,19.75,45.14,43.26,45.14,16,0,29.16-9.41,39.5-23.51,5.64-7.53,9.41-1.89,5.64,5.64-9.4,18.81-30.09,36.68-57.37,36.68-29.15,0-50.78-24.45-50.78-53.61,0-48.91,45.14-88.41,89.34-88.41,30.52,0,58.85,15.92,65.37,64.22,8.45-18.69,22.17-29.42,39-29.42,20.69,0,31,16.93,31,38.56v11.88c8.6-20,23.23-28.81,36.68-28.81,16,0,32,12.23,32,39.5,0,24.46-3.76,58.32-3.76,86.53,0,33.86,5.64,52.67,21.63,52.67,9.41,0,14.11-3.76,18.81-9.41C456.22,245.47,460.92,250.18,458.1,255.82ZM933.92,368.68c-4.7,3.76-9.4,5.65-15,5.65-4.71,0-9.41-1.89-14.11-14.11l-6.59-17.87c-4.7-12.23-8.46-20.69-19.75-20.69-10.54,0-20,8.4-25.63,19.06-1.22-9.66-7.44-17.18-16.69-17.18h-2.82c-3.76,0-5.64,1.88-5.64,6.58V333c-2.89,7.31-12.09,12.16-28.22,12.16,0-7.52-3.76-18.81-17.87-18.81a13.75,13.75,0,0,0-7.37,2.44c-3-3.88-8.24-6.2-14.26-6.2-15.16,0-33.65,16.25-38.93,34.37a57.69,57.69,0,0,1-21.41,16.77c-2.21-35.82-31.83-33-31.83-50.2,0-2.82-1.88-5.65-4.7-5.65-7.52,0-16.93,13.17-16.93,21.64a19,19,0,0,0,3.78,11.4c-5.38,12.33-15,23.4-21.65,23.4-4.7,0-9.41-1.89-14.11-14.11l-6.58-17.87c-4.7-12.23-8.47-20.69-19.75-20.69-10.55,0-20,8.4-25.63,19.06-1.22-9.66-7.45-17.18-16.7-17.18h-2.82c-3.76,0-5.64,1.88-5.64,6.58V333c-2.89,7.31-12.09,12.16-28.22,12.16,0-7.52-3.76-18.81-17.87-18.81a13.75,13.75,0,0,0-7.37,2.44c-3-3.88-8.23-6.2-14.25-6.2-14.67,0-32.47,15.2-38.4,32.6a1.38,1.38,0,0,0-.17.32c-3.76,11.28-10.34,18.81-16.93,18.81-4.7,0-9.4-1.89-14.1-14.11l-6.59-17.87c-4.7-12.23-8.46-20.69-19.75-20.69-10.67,0-20.2,8.59-25.81,19.42-1.39-13.48-6.6-19.42-18.39-19.42-9.28,0-24.12,7-32.1,20-.91-10.13-7.25-18.16-16.81-18.16h-2.82c-3.76,0-5.64,1.88-5.64,6.58v4.7c0,16-18.81,38.56-35.74,38.56-5.64,0-9.4-5.64-9.4-15V330.12c0-4.7-1.89-6.58-6.59-6.58H207.86c-4.71,0-6.59,1.88-6.59,6.58v6.58c0,24.46-18.81,44.21-37.62,55.5-7.52,4.7-4.7,10.34,2.83,7.52,13.35-5.34,28.09-15,35.54-27.16,2,15.89,8.47,24.34,22.77,24.34,13.43,0,36.43-13.29,47-31.48v23.95c0,4.71,1.88,6.59,6.58,6.59h12.23c4.7,0,6.58-1.88,6.58-6.59V370.56c0-16,11.29-25.39,18.81-25.39,3.77,0,6.59,1.88,6.59,9.4v34.8c0,4.71,1.88,6.59,6.58,6.59h12.23c4.7,0,6.58-1.88,6.58-6.59V370.56c0-16,10.35-25.39,16-25.39s6.58,8.46,7.52,12.23l4.71,19.75c2.82,14.1,10.34,20.69,23.51,20.69,13.54,0,24.62-8.31,31.18-19.27,4.72,13.25,17.63,23,37.47,23,24.21,0,38.05-22.24,40.14-40.44h1.25c9.7,0,20.42-4.1,27.27-11.15v39.36c0,4.71,1.88,6.59,6.59,6.59h12.22c4.71,0,6.59-1.88,6.59-6.59V370.56c0-16,10.34-25.39,16-25.39s6.58,8.46,7.52,12.23l4.7,19.75c2.82,14.1,10.35,20.69,23.51,20.69,19.8,0,35.63-18.91,42.5-40.14C666.59,365.5,680,370.5,680,380c-7.53,0-12.23-2.82-16-2.82-5.64,0-11.29,9.4-11.29,14.1s9.41,6.59,15,6.59c18,0,38.41-9.65,52.5-23.7C723.48,389.59,737,401.6,759,401.6c24.21,0,38-22.24,40.13-40.44h1.26c9.7,0,20.42-4.1,27.27-11.15v39.36c0,4.7,1.88,6.58,6.58,6.58h12.23c4.7,0,6.58-1.88,6.58-6.58V366.8c0-16,10.35-21.63,16-21.63s6.58,8.46,7.52,12.23l4.71,19.75c2.82,14.1,10.34,20.69,23.51,20.69,12.23,0,31-13.17,34.8-23.51C941.45,369.62,936.74,366.8,933.92,368.68Zm-460.84,8.47c-11.29,0-23.52-10.35-23.52-23.52,0-9.4,6.59-16,15.05-16A18.62,18.62,0,0,1,476.94,342c.51,6.12,3.27,13.25,14,18.21C491,369.62,485.3,377.15,473.08,377.15Zm290.62,0c-11.29,0-23.52-10.35-23.52-23.52,0-9.4,6.59-16,15.05-16A18.6,18.6,0,0,1,767.55,342c.52,6.12,3.27,13.25,14,18.21C781.56,369.62,775.92,377.15,763.7,377.15ZM91.23,279.34c-3.76,7.53-7.52,12.23-7.52,22.58,0,16.93,14.1,30.09,32.91,30.09,29.16,0,43.27-20.69,43.27-43.26,0-35.74-34.8-64-74.3-64s-65.84,25.4-65.84,58.32c0,76.18,118.51,71.48,118.51,154.24,0,36.68-26.34,60.19-54.55,60.19-27.28,0-41.39-16.93-41.39-36.68,0-23.51,23.52-41.38,41.39-41.38,7.52,0,7.52,7.52,1.88,7.52-11.29.94-23.51,8.47-23.51,26.34,0,13.16,11.28,26.33,30.09,26.33s31-12.23,31-32C123.21,380.92,0,387.5,0,294.39c0-51.73,51.73-92.17,95.93-92.17,42.33,0,77.12,26.34,77.12,75.24,0,41.39-28.21,72.42-59.25,72.42-27.27,0-46.08-19.75-46.08-42.32,0-16,10.34-28.22,19.75-32C90.29,274.64,92.17,276.52,91.23,279.34Zm200.45,264.4A16.35,16.35,0,0,1,277,534.86l8.67-5.43a6.1,6.1,0,0,0,6,4.25c3.38,0,6.1-2.42,6.1-5.35,0-3.6-3.6-5.8-7.64-8.22-5.36-3.31-11.52-7-11.52-15,0-7.56,6.53-13.72,14.53-13.72a14.74,14.74,0,0,1,13.44,8.51l-9,4.62a4.45,4.45,0,0,0-4.41-3.08c-2.42,0-4.47,1.69-4.47,3.67,0,2.64,3.08,4.48,6.82,6.68,5.51,3.3,12.41,7.56,12.41,16.52C307.91,536.84,300.64,543.74,291.68,543.74Zm65.84-41.32v40.29h-10V502.42h-8.37v-10H366v10ZM417,543.74A15.76,15.76,0,0,1,401.19,528V492.43h10V528a5.83,5.83,0,0,0,5.8,5.87,5.89,5.89,0,0,0,5.87-5.87V492.43h9.91V528A15.76,15.76,0,0,1,417,543.74Zm68.12-1h-12.7V492.43h12.7a25.14,25.14,0,1,1,0,50.28Zm0-40.29h-2.72v30.31h2.72a15.16,15.16,0,1,0,0-30.31Zm61.5,40.29V492.43h10v50.28Zm72.52,1a26.17,26.17,0,1,1,26.13-26.13A26.16,26.16,0,0,1,619.11,543.74Zm0-10.06A16.08,16.08,0,1,0,603,517.61,16.06,16.06,0,0,0,619.11,533.68Z"/></g></g></svg>