<svg xmlns="http://www.w3.org/2000/svg" viewBox="0 0 640 640"><defs><style>.cls-1{fill:#f5fff5;}</style></defs><title>morisawa</title><g id="Layer_2" data-name="Layer 2"><g id="Calque_1" data-name="Calque 1"><polygon class="cls-1" points="421.3 351.2 409.5 386.6 433 386.6 421.3 351.2"/><polygon class="cls-1" points="458.3 492.3 481.8 492.3 470.1 456.9 458.3 492.3"/><rect class="cls-1" x="186.8" y="324.1" width="29.5" height="17.2"/><path class="cls-1" d="M474,136.9c-15.6,0-27.5,12.7-27.5,29.6,0,16.1,12.1,28.9,27.5,28.9s27.4-12.7,27.4-29.2S489.3,136.9,474,136.9Z"/><path class="cls-1" d="M341.9,244.2h-7.1V264h7.1c9.8,0,14-3,14-10S351.9,244.2,341.9,244.2Z"/><path class="cls-1" d="M0,0V640H640V0ZM574.6,577.7H62.6V65.7h512Z"/><path class="cls-1" d="M557.7,82.5H79.4V560.9H557.8l-.1-478.4ZM327,121.4h22l19.8,63.3,19.8-63.3h22.1l11.8,89.4H403.4L396.6,151l-18.4,59.8H359.3L341.2,151l-6.7,59.8H315.4ZM337.1,280h-2.3v36.4H316.3V226.9h26.8c8.7,0,13.2.8,17.8,3.1,8.7,4.4,13.8,13.2,13.8,23.8,0,12.4-6.9,21.7-18.5,24.7l25.7,37.9H359.7Zm72.4,52.4H433l32.4,89.4H444.7l-6.5-19.5h-34l-6.6,19.5H376.9Zm-19.5-16V226.9h19v89.5ZM338.4,384c-17.2-6-23.4-12.8-23.4-25.7,0-16,12.5-27.6,30.1-27.6,7.5,0,14.8,2.1,22.2,6.3L363,353.9c-6.2-4-12.3-6-17.6-6-7,0-11.8,3.9-11.8,9.4a8.06,8.06,0,0,0,3.4,6.6c1.7,1.2,3.6,1.9,8,3.5,12.1,4.3,16.3,6.2,20.4,10.7a24.44,24.44,0,0,1,6.3,17c0,16.8-13.4,28.6-32.6,28.6a51,51,0,0,1-27.9-8.3l5.4-16.9c7.5,5.2,14.8,7.9,22,7.9,8.4,0,14.3-4.1,14.3-10C353.2,390.8,349.8,387.9,338.4,384ZM142.9,155.8H175V143.2H142.9V120.3h118v22.9H205.8v12.6H261v22.9H205.9v8.4c0,3.7,1.7,5.2,5.6,5.2H261v25H204.2c-17.4,0-29.2-15.5-29.2-30.1v-8.4H142.9v-23Zm40.3,68.9V285H152.3V224.7Zm73.9,272.2c0,17-13.8,31-27,31H186v-25h33.2c3.9,0,7-2.6,7-6.6V455h-50v33.6H147.5V430.9H257l.1,66Zm8.4-131.5H247.2v29.9c0,17-13.8,31-27,31H186.8v-25h22.5c3.9,0,7-2.6,7-6.6V365.5H186.8v19.8H158V365.5H139.7V341.3H158V324.1h24.7V298h31.7c3.4,0,5.3-2.6,5.3-6.3V224.9h30.9v66.8c0,18-12.8,32.4-29.8,32.4h26.1v17.2h18.3l.3,24.1ZM387.9,527.6,372,460.7l-15.8,66.9H333.8l-25.7-89.4H328l16.9,65.9,16-65.9h22.4l15.9,65.9,16.9-65.9H436l-25.7,89.4Zm105.7,0-6.5-19.5h-34l-6.6,19.5H425.8l32.4-89.4h23.6l32.4,89.4ZM473.9,212.7c-26.7,0-46.1-19.8-46.1-46.9,0-26.2,19.9-46,46.1-46,26.6,0,46.3,19.8,46.3,46.5S500.4,212.7,473.9,212.7Z"/></g></g></svg>