<svg xmlns="http://www.w3.org/2000/svg" viewBox="0 0 588.93 700"><defs><style>.cls-1{fill:#f5fff5;}</style></defs><title>moshik</title><g id="Layer_2" data-name="Layer 2"><g id="Layer_1-2" data-name="Layer 1"><path class="cls-1" d="M406.93,589.87l77,95.66H499.8l-49.47-62.06c-17.26-21.94-21.93-42.94-21.93-62.54,0-20.06,4.67-37.8,5.6-53.2l1.4-20.53v-7.47a193.26,193.26,0,0,0-3.73-39.66L551.6,330.4c4.67-4.67,7.47-6.07,15.87-6.07H585.2l3.27-2.33.46-11.2H438.67L106.87,615.07a181,181,0,0,1-24.74-25.2L385.93,310.8H295.4v10.73l3.27,2.8h11.2c9.8,0,17.73,4.2,17.73,12.14,0,5.13-3.27,11.66-12.13,19.6L73.73,578.67c-8.4-12.14-14.46-25.2-19.6-39.2-.93-4.2-1.86-7.94-1.86-11.67,0-13.53,11.2-25.2,50.4-62.07l242.66-226.8c25.67-25.2,37.34-56.46,37.34-87.26,0-24.74-7.47-49.94-21.47-71.87a26.35,26.35,0,0,1,.93,7.47c0,6.53-1.86,14.93-10.26,22.86L93.8,345.8c-37.33,33.6-60.2,82.13-60.2,136.27A183.82,183.82,0,0,0,217.93,666.4c99.87,0,184.8-83.53,184.8-182.93,0-5.14-.46-10.27-.93-15.87l19.13-17.73a187.18,187.18,0,0,1,2.8,32.2c0,105-89.6,205.33-205.8,205.33-113.4,0-205.33-91.93-205.33-205.33A203.89,203.89,0,0,1,78.4,331.33L321.07,106.4c12.6-11.67,17.26-23.33,17.26-33.6,0-20.07-16.8-36.87-30.8-46.2C281.4,9.8,251.53,0,219.33,0,129.27,0,56,73.27,56,163.33a161.55,161.55,0,0,0,54.13,121.34L70,322A217.28,217.28,0,0,0,0,482.07C0,602.47,97.53,700,217.93,700c61.14,0,115.74-25.67,154.94-65.8C387.33,618.8,398.53,604.33,406.93,589.87ZM120.87,275.33c-31.74-29.4-50.4-69.06-50.4-112,0-82.13,66.73-148.86,148.86-148.86,30.34,0,55.07,7.46,73.27,20.53,19.13,13.53,28.47,26.6,28.47,39.67,0,10.26-5.6,20.53-16.8,31.73Zm271.6,200.2a76.75,76.75,0,0,1,.46,10.27c0,86.8-78.86,170.33-174.06,170.33a150.83,150.83,0,0,1-20.54-1.4Z"/></g></g></svg>