<svg xmlns="http://www.w3.org/2000/svg" viewBox="0 0 960 475.6"><defs><style>.cls-1{fill:#f5fff5;}</style></defs><title>myfonts</title><g id="Layer_2" data-name="Layer 2"><g id="Layer_1-2" data-name="Layer 1"><path class="cls-1" d="M367.7,105.9c3.3,0,4.9,2.3,4.9,7,0,4.1-1.1,9.3-3.3,15.7a133.37,133.37,0,0,1-7.8,18.1L316.6,237c-3.3,6.3-6.3,10.9-9.1,13.8a12.74,12.74,0,0,1-9.5,4.3c-5.8,0-10.7-3.8-14.8-11.5s-6.2-16.8-6.2-27.2c0-1.9.1-4.2.2-6.8s.4-6.2.8-10.9,1-10.6,1.9-17.7,1.9-16.2,3.3-27.2c1.4-12.4,2.7-23.5,3.9-33.4A213.66,213.66,0,0,0,289,96.1c0-4.7-.4-8.1-1.2-10.3L244.5,218.1c-3.9,11-7.2,18.8-9.9,23.5a13.49,13.49,0,0,1-12.4,7,20,20,0,0,1-11.7-3.9A33.1,33.1,0,0,1,201,234a68.41,68.41,0,0,1-6.4-16.1,75.06,75.06,0,0,1-2.5-20c0-15.7.5-31,1.4-46s1.4-28.6,1.4-41c0-11.8-.8-18.8-2.5-21-1.4,3.9-2.8,8.5-4.3,13.8s-3.2,11.6-4.9,18.8-3.8,15.5-6,24.9-4.7,20.4-7.4,32.8L157,242.9a162.13,162.13,0,0,1-7.6,23.9,76.72,76.72,0,0,1-12.2,20.4,54.78,54.78,0,0,1-18.5,14.2c-7.4,3.6-16.4,5.4-26.8,5.4a134.2,134.2,0,0,1-35.2-4.5,104.13,104.13,0,0,1-29.3-12.6,68.84,68.84,0,0,1-20-19A42.3,42.3,0,0,1,0,246.6c0-9.6,3.7-17.8,11.1-24.5S29.2,212,43.3,212a80.25,80.25,0,0,1,24.1,3.3,66.1,66.1,0,0,1,17.7,8.2A40.7,40.7,0,0,1,96,234c2.5,3.7,3.7,7.1,3.7,10.1,0,4.9-2.6,7.4-7.8,7.4a129.51,129.51,0,0,1-15.5-1.4,141.56,141.56,0,0,0-20.8-1.4c-9.1,0-17,1.2-23.9,3.7a49.07,49.07,0,0,0,10.7,10.7,83.36,83.36,0,0,0,16.1,9.5,124.16,124.16,0,0,0,19.2,6.8,75.77,75.77,0,0,0,19.6,2.7q11.1,0,17.7-5.4c4.4-3.6,8.2-9.5,11.3-17.7s6.1-19.2,8.9-33,6.2-30.8,10.3-51.1q8.7-42,15.7-67.4t13.2-38.7q6.15-13.35,12-17.7a19.42,19.42,0,0,1,12-4.3,25.14,25.14,0,0,1,13.2,4.1,41.7,41.7,0,0,1,11.7,11.3,59,59,0,0,1,8.2,17.3,66.4,66.4,0,0,1,2.7,21.6L230.5,186,265.9,74.7c2.7-8.2,5.2-14.9,7.2-20s4.1-8.9,6.2-11.5a18.73,18.73,0,0,1,6.2-5.4,17.5,17.5,0,0,1,7.6-1.4c3.6,0,7.4,1.2,11.5,3.5a43.08,43.08,0,0,1,11.5,9.7,49,49,0,0,1,8.7,14.8,53,53,0,0,1,3.3,19c0,4.1-.2,8.7-.6,13.6s-1.1,11.3-2.1,19-2.2,17.2-3.7,28.4-3.2,25.3-5.2,42l25.6-51.1c3.3-6.6,6.1-11.9,8.5-15.9a46.92,46.92,0,0,1,6.4-8.9,13.74,13.74,0,0,1,5.4-3.7A15.12,15.12,0,0,1,367.7,105.9Z"/><path class="cls-1" d="M361.5,146.7c-.3-4.1-.6-8.2-1-12.4s-.6-8.1-.6-12a38.4,38.4,0,0,1,1.6-11.7c1.1-3.2,3.2-4.7,6.2-4.7a23.3,23.3,0,0,1,11.7,3.1,34.46,34.46,0,0,1,9.7,8.2,47.15,47.15,0,0,1,6.6,11.3,33.88,33.88,0,0,1,2.5,12.4c0,5.8-1,14.4-3.1,25.8s-5.4,28.6-10.1,51.7l19-38.3c4.4-8.5,7.8-14.4,10.3-17.7s6-4.9,10.7-4.9a17.07,17.07,0,0,1,12.2,4.9,34.69,34.69,0,0,1,8.2,13.4,85.77,85.77,0,0,1,4.5,19.6,176.74,176.74,0,0,1,1.4,23.5,397.42,397.42,0,0,1-4.5,58.9A363.08,363.08,0,0,1,433,336.5a290.72,290.72,0,0,1-23.7,54,193.09,193.09,0,0,1-34,44.1,155.65,155.65,0,0,1-44.7,29.9c-16.8,7.4-35.4,11.1-56.1,11.1-17.3,0-31.5-2.8-42.5-8.4s-16.5-13.4-16.5-23.3c0-3.9,1.1-6.1,3.3-6.8a9.62,9.62,0,0,1,7,.6c5.2,2.2,10,4.1,14.4,5.6a102.83,102.83,0,0,0,12.4,3.5,93.73,93.73,0,0,0,11.3,1.7c3.7.3,7.8.4,12.2.4,16.8,0,31.9-3.7,45.6-11.1a124.26,124.26,0,0,0,36.1-30.1,194.49,194.49,0,0,0,27-44.3,360.9,360.9,0,0,0,19-53.6,456,456,0,0,0,11.7-58.1c2.7-19.9,4.5-39.4,5.4-58.3L393.3,249c-4.7,9.1-8.4,15.8-11.3,20.2s-6.3,6.6-10.1,6.6a16.41,16.41,0,0,1-7.4-2.1,22.51,22.51,0,0,1-7.4-6.2,34.54,34.54,0,0,1-5.6-10.5,43.86,43.86,0,0,1-2.3-14.6,183.29,183.29,0,0,1,2.1-26c1.4-9.6,2.8-19.1,4.3-28.4s2.9-17.7,4.1-25.1A116.88,116.88,0,0,0,361.5,146.7Z"/><path class="cls-1" d="M602.2,133.5c1.6,0,2.3,1.4,2.1,4.1s-1.7,5.8-4.1,9.3a36.82,36.82,0,0,1-11.1,9.5c-4.9,2.9-11.3,4.3-19,4.3-6,.3-12.4.6-19,.8s-13.3.7-20.2,1.2l-9.5,63.5a243.12,243.12,0,0,1-6.8,33.6,117.61,117.61,0,0,1-8.2,21.4c-2.9,5.4-6,9.1-9.3,11.3a18.23,18.23,0,0,1-10.3,3.3c-3.9,0-6.5-1-8-3.1s-2.3-5.2-2.3-9.3c0-1.9.3-6,1-12.2s1.6-14.5,2.7-24.9l9.9-81.6q-6.6.45-11.7.6c-3.4.1-6,.2-7.6.2-3.6,0-6-.7-7.4-2.1a7.31,7.31,0,0,1-2.1-5.4c0-5.5,2.7-10.3,8.2-14.4s13.5-6.5,23.9-7L500,83H454.2a35,35,0,0,1-15-2.1,31.4,31.4,0,0,1-10.5-6.2,29.12,29.12,0,0,1-6.2-7.8,16,16,0,0,1-2.1-7c0-4.7,1.7-7.6,5.2-8.7a50.58,50.58,0,0,1,12.2-2.1L504.6,47c1.1-9.3,2.2-17.1,3.3-23.3a73.5,73.5,0,0,1,3.7-14.4q2.1-5.1,4.5-7.2A8.17,8.17,0,0,1,521.5,0c7.1,0,12.6,4.3,16.5,13s6,19.6,6.6,32.8l165.3-4.5a20.4,20.4,0,0,1,9.1,1q3.3,1.5,3.3,7.2a26.3,26.3,0,0,1-2.5,10.7,35.39,35.39,0,0,1-7.2,10.7,36.74,36.74,0,0,1-11.3,8A33,33,0,0,1,686.9,82H671.4c-9.2,0-20.8.1-34.8.2s-29.4.3-46.2.4-33.1.2-49,.2l-7,52.8c7.4-.3,15-.5,22.9-.8s15-.5,21.4-.8,11.9-.5,16.3-.6C599.2,133.6,601.7,133.5,602.2,133.5Z"/><path class="cls-1" d="M617.1,148.3a35,35,0,0,1,8.5-6.2,20.6,20.6,0,0,1,9.3-2.5,9.55,9.55,0,0,1,6.6,2.5c1.9,1.6,3.2,4.4,3.7,8.2a139.31,139.31,0,0,1,1.4,14.4c.4,6.3.6,11.7.6,16.1a153.83,153.83,0,0,1-3.5,33,93.26,93.26,0,0,1-10.5,27.6,57.87,57.87,0,0,1-17.3,19,41.25,41.25,0,0,1-23.9,7c-11.3,0-20.3-3.8-27.2-11.3s-10.3-18.8-10.3-33.6a120.93,120.93,0,0,1,4.7-31.5,200,200,0,0,1,10.9-30.3,57.75,57.75,0,0,1,14.6-19.4c6.2-5.2,12-7.8,17.5-7.8s9.3,1.7,11.3,5.2A22.85,22.85,0,0,1,617.1,148.3Zm-24.8,75.9c0,5.5.7,9.8,2.1,13s3.4,4.7,6.2,4.7c3.3,0,6.1-2.9,8.4-8.9s3.5-15.6,3.5-29.1c0-7.1-.2-14.2-.6-21.2s-.6-12.2-.6-15.5c-3.9,8-8,16.8-12.4,26.6A74,74,0,0,0,592.3,224.2Z"/><path class="cls-1" d="M808.7,153.7c2.2-3.8,3.8-5.2,4.9-4.1s1.6,3.9,1.6,8.2c0,4.9-.9,11.4-2.7,19.4a109,109,0,0,1-9.3,25.1c-3,6.3-6.3,12.7-9.7,19.2s-6.7,12.4-9.7,17.9-5.8,10.4-8.5,14.8a103.38,103.38,0,0,1-6.4,9.9c-4.1,5.5-7.4,9.5-9.7,12.2a11.38,11.38,0,0,1-8.9,3.9,22.09,22.09,0,0,1-8.7-1.9,27.17,27.17,0,0,1-8.2-5.2,29.65,29.65,0,0,1-6.2-7.8,21.79,21.79,0,0,1-2.5-10.3,140.46,140.46,0,0,1,1.2-14.2c.8-6.7,1.8-13.9,2.9-21.6s2.1-15.2,2.9-22.5a167.3,167.3,0,0,0,1.2-17.1c-9.3,19-16.8,34.1-22.5,45.6s-10.2,20.1-13.8,26-6.3,9.8-8.2,11.5a8.61,8.61,0,0,1-5.8,2.7q-7.05,0-12.6-6.6a24.27,24.27,0,0,1-5.6-16.1c0-5.2.5-13.1,1.4-23.5s2-21.2,3.1-32.4,2.2-21.6,3.3-31.3a210.22,210.22,0,0,0,1.6-21.2c-1.6.6-3.9,1.5-6.8,2.9s-5.8,2.8-8.7,4.3a84.51,84.51,0,0,0-8,4.7c-2.5,1.6-4.4,3-5.8,4.1a27.22,27.22,0,0,1-9.9,5.2,41.79,41.79,0,0,1-11.5,1.9c-3.6,0-6.3-.7-8-2.1s-1.3-3.7,1.4-7A169.81,169.81,0,0,1,635,130.6a138.88,138.88,0,0,1,19.4-13.2,100.4,100.4,0,0,1,18.8-8.2,54.42,54.42,0,0,1,16.1-2.9c6.3,0,11.5,3.4,15.7,10.1s6.2,14.9,6.2,24.5c0,2.5-.1,5.6-.4,9.5s-.7,7.9-1.2,12.2-1.2,8.7-1.9,13.2-1.3,8.7-1.8,12.6c6.9-13.7,12.4-24.7,16.7-33s7.7-14.6,10.3-19.2,4.9-7.6,6.8-9.1a10.39,10.39,0,0,1,6.6-2.3,20.59,20.59,0,0,1,8.2,1.9,29,29,0,0,1,8.5,5.4,27.32,27.32,0,0,1,6.4,8.7,26.37,26.37,0,0,1,2.5,11.3c0,3.6-.3,8.3-.8,14.2s-1.2,12.4-2.1,19.6-1.7,14.7-2.7,22.7-2,15.7-3.1,23.1c3.6-5.5,7.6-12,12.2-19.4s9-14.8,13.4-22.3,8.4-14.4,12-20.8C804.1,162.7,806.8,157.6,808.7,153.7Z"/><path class="cls-1" d="M907.2,136q5.7-9.9,9.9-9.9c2.5,0,3.7,3.2,3.7,9.5,0,4.9-1,11.1-2.9,18.6a86,86,0,0,1-8.7,21.4c-15.1,26.9-29.2,47.5-42.3,61.6s-24.3,21.2-33.6,21.2a25,25,0,0,1-12-3.1,32.31,32.31,0,0,1-9.9-8,41.3,41.3,0,0,1-6.6-11.1,33.88,33.88,0,0,1-2.5-12.4c0-3,.1-6.5.2-10.5s.3-7.6.6-10.9c.6-8.2,1.2-16.4,2.1-24.5s1.9-16.1,3.3-24.1l4.9-33.8-24.3-2.1c-7.4-.5-13.3-1.1-17.5-1.6a82.33,82.33,0,0,1-9.5-1.6q-3.15-.75-3.9-2.1a5.47,5.47,0,0,1-.8-2.9c0-3.3,2.6-7.1,7.8-11.3S778.9,92,790.8,92l27.2-.4,1.6-9.5a121.58,121.58,0,0,1,5.2-19.6c2.3-6.7,4.8-12.9,7.4-18.6a59.4,59.4,0,0,1,8.5-13.8q4.5-5.4,8.7-5.4c4.4,0,7.1,1.9,8,5.6a25.32,25.32,0,0,1,.6,10.9l-5.4,49.9,37.9-.8c3,0,5.1.8,6.2,2.3a9.92,9.92,0,0,1,1.6,6,21.11,21.11,0,0,1-2.1,9.3,30.21,30.21,0,0,1-5.4,7.8,29.18,29.18,0,0,1-7.2,5.6,16.78,16.78,0,0,1-8,2.1c-3.8,0-7.8-.1-11.7-.2s-8.7-.5-14.2-1c-1.4,12.6-2.6,24.7-3.7,36.3s-2.1,22-2.9,31.3-1.4,17.4-1.9,24.1-.6,11.5-.6,14.2q4.95-4,12.6-13.8c5.1-6.5,10.6-13.9,16.7-22.5s12.3-17.7,18.8-27.4C895.4,154.5,901.5,145.1,907.2,136Z"/><path class="cls-1" d="M909.3,175.6c-1.4-3.8-2.5-7.7-3.5-11.5a49.08,49.08,0,0,1-1.4-12.4,48.53,48.53,0,0,1,2.9-15.7c4.7-15.7,10.7-27.5,18.1-35.4s14.3-12,20.6-12c4.7,0,8.2,1.2,10.5,3.7a14.07,14.07,0,0,1,3.5,9.9,20,20,0,0,1-.8,5.2,50.89,50.89,0,0,1-3.1,7,102.79,102.79,0,0,1-6.4,10.5c-2.8,4.1-6.3,9.1-10.7,14.8,4.7,15.7,8.8,31.1,12.4,46.2a189.86,189.86,0,0,1,5.4,44.1c0,14.8-3.4,27-10.1,36.5s-15.6,14.2-26.6,14.2a38.16,38.16,0,0,1-22.5-7.2c-6.7-4.8-10.1-10.6-10.1-17.5a13.4,13.4,0,0,1,1.9-7,31,31,0,0,1,5.8-7c2.6-2.5,5.9-5.3,9.9-8.5s8.9-6.9,14.6-11.3c-1.4-7.4-2.9-15.3-4.5-23.5C913.4,190.4,911.5,182.7,909.3,175.6Z"/></g></g></svg>