<svg xmlns="http://www.w3.org/2000/svg" viewBox="0 0 920 443.56"><defs><style>.cls-1{fill:#f5fff5;}</style></defs><title>oh-no-type-co</title><g id="Layer_2" data-name="Layer 2"><g id="Layer_1-2" data-name="Layer 1"><path class="cls-1" d="M617.27,442.86c5.77-133.78,4-226,7.5-319.46-43.83,133.78-77.27,306.19-88.23,314.27s-23.06,2.88-54.78,0c1.73-45,1.73-96.3,1.73-147-22.49-.57-45-.57-66.31-.57.57,60.54.57,141.27-6.92,147-9.23,6.92-47.29.58-57.09,1.15,4.62-69.19,5.19-106.68,5.19-147.62-20.18.58-39.21.58-57.09,1.16-.57,60,2.89,131.47.58,136.66-5.19,11.53-12.68,13.84-56.51,15-1.73-67.47,0-110.14,1.15-149.92-20.18.57-36.32,1.15-46.13,1.73-20.75,35.17-60.54,105.52-75,142.42-20.18-4.61-46.13,1.73-46.13,1.73a120.74,120.74,0,0,0-11.53-35.17c-9.23-17.88-64-98-66.89-110.14-2.31-10.38,0-25.37,8.07-40.36-6.34-10.38-5.19-28.26,1.73-51.32,9.23-30,49-113,81.88-190.87,16.72,0,28.26-1.15,49.59-6.92C165.19,63.43,186.52,148.19,205,237c8.64.57,23.64,1.15,42.67,1.73v-8.65c0-65.16-4.62-196.06,4.61-210.47,4-6.35,13.84-10.38,51.32-11C299,98.6,304.73,178.76,303,239.3c17.88.58,36.33.58,55.36.58V237c0-200.67-6.92-210.47,4.61-219.7,8.08-6.34,36.33-3.46,49.6-4-1.74,97.45,1.15,170.11,2.88,226,25.37-.57,48.44-1.15,68-2.3-.58-113-1.73-212.78,4.61-221.43,10.38-13.84,39.79-9.23,56.51-8.07-6.34,46.71-6.34,188-5.76,247.37,39.79-132,75-238.15,87.07-244.49,12.69-6.92,54.78-1.15,54.78-1.15-6.92,134.35,4,409.41-2.88,423.82S617.27,442.86,617.27,442.86ZM149,253.14c-1.15-11.53-24.21-110.71-34-151.08C85.61,167.8,50.44,245.65,50.44,257.18c-.58,13.26,31.71,58.24,53.05,106.68C124.82,307.92,150.2,267.56,149,253.14ZM841.58,0C872.14,98,889.44,152.23,920,266.4c-45.55,119.37-72.65,171.84-85.92,174.72S796,435.36,780.46,429c-1.73-35.76-43.25-92.85-59.4-119.37s-3.46-32.29,1.73-40.36c4.62-8.08.58-16.73-10.38-19.61,0,0,65.16-160.3,87.65-245.64C813.32,9.8,831.78,11,841.58,0ZM765.47,269.29c1.15,18.45,40.94,72.08,51.89,98.6,23.07-53.05,41.52-103.79,41.52-103.79-13.26-76.7-29.41-123.4-35.75-156.27C800.64,173.57,764.31,250.84,765.47,269.29Z"/></g></g></svg>