<svg xmlns="http://www.w3.org/2000/svg" viewBox="0 0 460 607.2"><defs><style>.cls-1{fill:#f5fff5;}</style></defs><title>production-type</title><g id="Layer_2" data-name="Layer 2"><g id="Calque_1" data-name="Calque 1"><path class="cls-1" d="M0,607V0H253C368.9,0,460,81,460,213.4c0,131.5-91.1,212.5-207,212.5H201.5c-27.6,0-41.4-5.5-58.9-23l-20.3,20.3c15.7,15.6,23,26.6,23,49.7V607.2H0ZM145.3,262.1c0,18.4-6.5,26.6-21.1,42.3l17.5,18.4c16.6-16.6,29.4-21.1,52.4-21.1h31.3c50.6,0,89.2-35.9,89.2-88.3,0-53.4-38.6-89.2-89.2-89.2H185c-19.3,0-28.5-5.5-43.2-20.3l-17.5,16.6c14.7,14.7,21.1,23.9,21.1,42.3C145.3,162.7,145.3,262.1,145.3,262.1Z"/></g></g></svg>