<svg xmlns="http://www.w3.org/2000/svg" viewBox="0 0 720.14 664.8"><defs><style>.cls-1{fill:#f5fff5;}</style></defs><title>robofont</title><g id="Layer_2" data-name="Layer 2"><g id="Layer_1-2" data-name="Layer 1"><path class="cls-1" d="M275.32,348.4c19.7,5.6,50,16.9,68.7,36.4L411,364c4.4-26.6,23-53.1,36.1-68.9L312,163.1ZM324,275.9c1.1-10.2,7-17.7,16.2-20.6s18.2-.1,25,7.6c4.5,5,8.1,12.2,11.1,21.9s4,17.6,3.2,24.3c-1.3,10.2-7.2,17.6-16.3,20.4s-18.3,0-25-7.8c-4.3-5-7.8-12.1-10.8-21.8S323.32,282.4,324,275.9Z"/><path class="cls-1" d="M702.52,209.8c-22.6-63.2-65.4-116.4-123.6-153.9C522.12,19.3,454.62,0,383.52,0a397.9,397.9,0,0,0-134.1,23.5C158.12,56.2,83.62,119,39.82,200.4-4.08,282-12,372.4,17.62,455c22.7,63.2,65.5,116.4,123.7,153.9,56.8,36.6,124.3,55.9,195.4,55.9a397.9,397.9,0,0,0,134.1-23.5c91.3-32.7,165.8-95.5,209.6-176.9C724.22,382.8,732.12,292.4,702.52,209.8Zm-235.9,420a385.69,385.69,0,0,1-130,22.8c-142.9,0-263.6-79.2-307.4-201.7-58.7-164,42-350.5,224.4-415.9a385.69,385.69,0,0,1,130-22.8c142.9,0,263.6,79.2,307.4,201.7C749.72,377.9,649.12,564.4,466.62,629.8Z"/><path class="cls-1" d="M266.82,68.1C104,126.4,14.62,292.4,67.12,439S294,657.1,456.82,598.8s252.1-224.4,199.6-370.9S429.52,9.9,266.82,68.1Zm217.1,234.4c-13.2,13.2-48.8,56.4-40.1,80.6l34.9,97a12,12,0,0,1-.5,9.3,11.47,11.47,0,0,1-7.1,6l-101.6,31.5a11.4,11.4,0,0,1-9.2-1,11.91,11.91,0,0,1-5.7-7.3l-26.1-99.7c-6.6-24.9-60.4-40.3-78.7-43.7a12,12,0,0,1-7.7-5.1,11.52,11.52,0,0,1-1.7-9l50-233.2a11.85,11.85,0,0,1,8.1-8.8l.4-.1a11.76,11.76,0,0,1,11.6,2.7l173.2,163.9a11.67,11.67,0,0,1,3.7,8.4A12.48,12.48,0,0,1,483.92,302.5Z"/></g></g></svg>