<svg xmlns="http://www.w3.org/2000/svg" viewBox="0 0 960 201.96"><defs><style>.cls-1{fill:#f5fff5;}</style></defs><title>rosetta</title><g id="Layer_2" data-name="Layer 2"><g id="Layer_1-2" data-name="Layer 1"><path class="cls-1" d="M110.05,202l36.89-22.44-42.11-56.26c19.06-10.75,32.27-29.2,32.27-56.86C137.1,26.43,111,4,59.33,4,37.51,4,13.84,7.07,0,10.46V198H39v-62.4h12.3a141.73,141.73,0,0,0,16.29-.92ZM39,101.13V47A218,218,0,0,1,62.41,45.5c21.2,0,36.88,7.68,36.88,26.13,0,21.82-22.43,29.51-50.1,29.51H39ZM232.7,42.42c-47,0-71.62,32-71.62,79.92s24.59,79.31,71.32,79.31,71.31-31.05,71.31-79.92c0-48.26-24.58-79.31-71-79.31m0,43.34c20.29,0,35.66,10.76,35.66,36.28,0,24.59-13.83,37.5-36.27,37.5-21.51,0-35.66-12-35.66-36.28,0-24,13.84-37.5,36.27-37.5M322.16,191.2c13.21,6.15,29.51,9.84,46.72,9.84,40,0,65.17-19.37,65.17-50.72,0-27.06-18.75-34.12-47.95-42.11C371,104.21,360,100.83,360,93.14c0-6.45,8-10.45,22.13-10.45,8.3,0,22.44,1.23,37.2,4l8.29-34.43C416.53,47,400.23,43,384.25,43c-36.89,0-62.09,22.13-62.09,50.71,0,26.45,21.82,34.13,42.12,39.66,16.59,4.31,31.35,8.61,31.35,17.21,0,7.08-8,11.07-24,11.07-11.06,0-29.2-1.53-40.88-4Zm208.72-28.59c-27.36,0-40.27-7.68-44-26.74h92.52a143.76,143.76,0,0,0,3.39-30.43c0-42.11-23.36-63-60.25-63-45.5,0-71.62,30.43-71.62,82.38,0,45.49,24.28,76.24,71.62,76.24,19.36,0,40-3.38,58.41-11.07l-8-32a202.52,202.52,0,0,1-42.12,4.61M519.51,80.85c16.59,0,26.43,7.68,26.43,22.43a53.43,53.43,0,0,1-.3,6.77H486.92c3.69-20.9,15.67-29.2,32.59-29.2M805.08,157.7A186.25,186.25,0,0,1,782,159.54c-14.14,0-19.36-6.46-19.36-21.82V85.15h45.8v-39h-45.8V0h-31l-8.92,46.11H658.14V0h-31l-8.3,44.88-20.9,3.38V85.15h23.67L621.25,146c-.31,38.73,11.38,55,44.27,55,15.06,0,31.35-3.69,42.11-9.23l-7.07-34.11a181.93,181.93,0,0,1-23,1.84c-14.14,0-19.37-6.46-19.37-21.82V85.15h67.63V146c-.31,38.73,11.37,55,44,55,15.37,0,31.66-3.69,42.11-9.23ZM960,191.2c-4-12.91-6.76-27.66-6.76-40.88V95.91c0-34.43-24-53.49-63-53.49-18.74,0-38.42,4.92-55.63,13.52l8.6,32c13.53-4,26.75-6.15,38.74-6.15,22.43,0,34.42,7.69,35,28.9a166.77,166.77,0,0,0-28.28-2.45c-36.89,0-64.25,16-64.25,49.18,0,25.82,15.68,44.26,43.66,44.26,22.43,0,39.34-7.38,51.63-19.06a150.54,150.54,0,0,0,8.3,19.06Zm-97.14-40.27c0-10.15,8-17.21,27.36-17.21A167.15,167.15,0,0,1,917,135.87v22.75c-10.14,5.83-25.51,8.92-36,8.92-11.06,0-18.14-5.54-18.14-16.61"/></g></g></svg>