<svg xmlns="http://www.w3.org/2000/svg" viewBox="0 0 990 200.41"><defs><style>.cls-1{fill:#f5fff5;}</style></defs><title>Asset 1</title><g id="Layer_2" data-name="Layer 2"><g id="Calque_1" data-name="Calque 1"><path class="cls-1" d="M607.77,181.89c-.88,1.17-1.61,2.49-2.78,2.49-1.91,0-5.71-5-7.76-7.61-2.2-2.49-4.84-6.45-5.57-6.45-.44,0-.44.59-.44,1,0,.29-.15,6.59-.15,7,0,1,.44,2.93,1.17,3.51s1.18.73,1.18,1.17-1,.44-2.2.59c-.73,0-1.9.15-2.49.15s-.59-.15-.59-.59c0-2.2,1-7.32,1-10.55,0-3.95-.44-4.54-1.17-4.54-.44,0-1.17.15-1.17-.44,0-.87,1.75-1.17,3.07-1.61s2.2-1.31,3.37-1.31c.59,0,1,1.75,2.49,3.51,3.52,4.54,9.38,12.3,11.43,12.3.58,0,1.17-1.46,1.75-1.46S608.65,180.87,607.77,181.89Zm1.91-16.84c-.59,0-2.64,1-4.1,1.46a2.5,2.5,0,0,1-.74.3c-.44.14-.58.43-.58.58s.14.44.58.44.74-.15,1,0c.58.15,1.32,3.22,1.32,5a36,36,0,0,1-.44,6c0,.44,0,.73.29.73,1,0,3.37-9.52,3.37-13.48C610.41,165.49,610.41,165.05,609.68,165.05Zm66.4,15.08c-.3,0-.44.3-.88.3-1.32,0-2.93-5.42-4-9.08l-.88-3.52c-.14-1.17,0-2.78-.44-2.78s-.88.58-1.61.88c-.58.44-2,1.17-2,1.46a4.6,4.6,0,0,0-.15,1.61c0,.73-2.92,7.47-5.41,10,0-2.63-2.35-14.21-3.81-14.21-.59,0-1.32.59-2.79,1.32s-3.22.44-3.22,1c0,.29.15.58.44.58s1-.29,1.61-.29c1.47,0,3.22,7.76,4.25,12.89.44,2.2.29,4.39.88,4.25s1-1.47,1.76-1.91c3.22-2.78,6.88-9.52,7.32-10.4h.15c.58,2.2,3.36,12,5.12,12,.88,0,1.47-.87,2.05-1.46a22.73,22.73,0,0,0,1.76-2.05C676.52,180.57,676.52,180.13,676.08,180.13Zm5.42-14.35a11.32,11.32,0,0,0-2.06.59c-1.31.58-2.63,1-2.63,1.46s.88.44,1.32.44a.68.68,0,0,1,.73.73,10.52,10.52,0,0,1-.29,2.79c-.74,4.1-2.93,7-2.93,7.61a.53.53,0,0,0,.44.3c.58,0,2.34-1.91,3.8-4.55s2.79-6.88,2.79-8.05A1.17,1.17,0,0,0,681.5,165.78Zm-39.93,13.77c-.59,0-1.76,1.76-6.59,1.76a40.4,40.4,0,0,1-6.3-.3c.08-.46.48-3.09.85-5.86h5.59a14.64,14.64,0,0,0,3.67-1.46c.29,0,.29-.44-.3-.59-.48,0-6.58-.2-8.67-.27.19-1.64.32-3.12.32-4V167h2.93c3.22,0,4.25.73,4.25,1.61,0,1.17,0,2.35.44,2.35.59,0,.73-.74.88-1.32l.29-2.2a7.92,7.92,0,0,0,.59-1.76,1,1,0,0,0-1-.87c-1,0-4,.43-5.86.43h-4.24a15.34,15.34,0,0,0-4.4,1.47c-.14.15-.14.15-.14.44s.14.29.73.29c1,0,1.76,1.61,1.76,5a78.32,78.32,0,0,1-1,9.52,4,4,0,0,0-.15,1.32c0,.73,4.11,1,8.65,1,3.8,0,7.76-3.81,8.05-4.11S641.86,179.55,641.57,179.55Zm93.64-14.8a15.53,15.53,0,0,0-3.51.44c-1.61.44-6.74,7-8.21,9.38h-.29s.15-1.32.15-2c0-2.05-3.37-6.89-6.89-6.89a13.77,13.77,0,0,0-3.22,1c-1.17.73-2.63.73-2.63,1.46,0,.15.14.3.43.3.88,0,.59-.74,2.35-.74S721,173,721,176.18c0,3.37-.44,5.86-.44,6.88,0,.3.14.44.29.44a17.48,17.48,0,0,0,2.78-.29c.73,0,3.23.29,3.23-.15s-.44-.44-1.32-1.46c-.59-.59-1-1.47-1-3.81,0-4.69,7.33-9.82,10.26-11.57.73-.59,3.07-.3,3.07-1S736.09,164.61,735.21,164.75Zm97.33,17.73c-3.37-1.17-6.15-7-8.34-8.35a8.53,8.53,0,0,0-3.23-.29v-.15c4-2.2,8.65-7.32,9.52-7.62.44-.14,1.62-.29,1.62-.88,0-.44-.44-.44-1-.44s-4.1.15-4.39.44c-4.46,5.95-7.49,8.15-8.61,8.82a78,78,0,0,0,.7-8.23c0-.44-.15-1-.88-1-.44,0-1.61.44-3.08.74l-3.37.44c-.29,0-.29.14-.29.29,0,.44.58.44,1.46.44,1.47,0,1.91,2.34,1.91,7.61a58.78,58.78,0,0,1-1,8.79c0,.73.44.73.88.73s.73-.14,1.9-.14c2.49,0,3.67.29,3.67-.3,0-.29-.44-.44-.88-1a4.83,4.83,0,0,1-1-3.37c0-.55-.13-2.15,0-4.17a2.16,2.16,0,0,1,1.05-.22c.73,0,1.76,1.46,3.37,3.22,1.9,2.34,4.1,5.27,6,5.56,1,.15,4,.3,5.42.3.73,0,.88-.3.88-.59C834.74,182.48,833.42,182.77,832.54,182.48ZM796.75,181c-1.61-1.75-4.25-5.12-6.15-5.86a5.93,5.93,0,0,0-1.32-.14.3.3,0,0,1,.29-.29c2.2-1.18,5.86-2.35,5.86-5.57,0-2.93-3.37-4.25-5.86-4.25a13.82,13.82,0,0,0-5.3,1.61c-.11-.54-.5-1.17-1-1.17s-4.39,1-4.83,1-.44.29-.44.58.73.29,1.17.59c.44.14,1.32.88,1.32,3.22s-1,11.57-1,12c0,.59.15.88.44.88s1.47-.15,2.2-.15h3.22c.44,0,.44,0,.44-.14,0-.3-.29-.44-.58-.74a4.79,4.79,0,0,1-1.17-3.37c0-.58.29-5.27.44-8.78,0-1.26-.07-2.39-.11-3.05a5.48,5.48,0,0,1,2.45-.62,3.91,3.91,0,0,1,4.25,3.81c0,2-1.76,3.37-3.23,4.1-1.17.59-1.9.59-1.9,1,0,.73.88.29,2.78,2.64s5.42,5.71,6.45,5.71a33.94,33.94,0,0,0,3.51-.3c.44,0,1.76.15,1.76-.14C800.41,183.21,798.51,182.92,796.75,181Zm-31.23-8.35c0,7.62-7.76,11.28-12.45,11.28-2.2,0-8.06-1.17-8.06-8.49,0-6.74,8.94-10.4,12.6-10.4C759.22,165.05,765.52,165.93,765.52,172.66Zm-3.81,1.91a7.17,7.17,0,0,0-6.88-7.33c-2.2,0-6,1.91-6,7.47,0,3.52,2,7,6.89,7C758.05,181.75,761.71,179.4,761.71,174.57Zm120.55,4.69c-.44,0-1.9,2.34-6.59,2.34-2.93,0-8.79-2.78-8.79-7,0-2.93,1.91-7.62,6.45-7.62,2.64,0,5.57.73,6.44,2.2a2.35,2.35,0,0,1,.15,1.46c0,.88-.29,1.76.73,1.76s.74-.88.74-1.76c0-2.34.73-3.66.73-4.83,0-.88-2.2-1.32-3.08-1.32-4.25,0-15.67,2.2-15.67,11.28,0,4.54,5.27,8.49,9.52,8.49s9.52-3.07,9.52-4.54C882.41,179.4,882.41,179.26,882.26,179.26Zm19.66,2.05c-.44-.59-.73-1.91-.73-4.25s1.17-11.28,1.17-11.87-.29-.73-.73-.73a19,19,0,0,0-2.34.73c-1.61.59-2.93.44-2.93,1.18,0,.43.29.43.73.43.73,0,.73,1,.73,2.2,0,3.08-.73,11.57-.73,11.87s-.14,2.34.88,2.19a22,22,0,0,0,2.2-.29c1.32-.15,2.63,0,2.63-.44S902.36,181.89,901.92,181.31Zm28.71-16.56c-2,.15-10.4-.14-10.4-.14-1,0-4.39,2.93-4.69,3.37s-.14.58.3.58,1.61-.44,3.22-.73a23,23,0,0,1,4.25-.15h.14a4.76,4.76,0,0,1,.59,2.64c0,1.17-.88,10.84-.88,11.57s.15,1.47.88,1.47,2.05-.3,2.78-.3,3.23.3,3.23-.29-2.64-.58-2.64-3.81c0-1.9.44-8.93.44-9.66a3.78,3.78,0,0,1,.33-1.62c.93,0,2.21-.05,2.75-.14l3.22-1.91c1.32-.58,2.49-.73,2.49-1.31S934.29,164.46,930.63,164.75Zm40.51-.87a9,9,0,0,0-3.95.58c-1.32.44-7,7.76-7,7.76H960c-.3-.14-.15-.73-.73-2.05-.88-2.19-3.52-5.71-5.57-5.71-1.46,0-5.13,2.49-5.13,2.93s0,.59.44.59c.73,0,.59-.59,1.61-.59,1.91,0,6.59,5.13,6.59,6.88,0,.88-.29,6.3-.29,7.18,0,1.32.44,2.2,1.32,2.05,1.76-.29,4.39.15,4.39-.44,0-.44-.58-.58-.88-.88s-.73-.87-.73-4.39a26.49,26.49,0,0,1,.59-4.54c.58-1.9,8.49-8.2,9.23-8.35,1.17-.29,2.34.15,2.34-.59C973.19,163.88,972.17,163.73,971.14,163.88Z"/><path class="cls-1" d="M35.5,142C18.66,142,0,135.5,0,131.44c0-1.62,3.45-5.07,5.27-13.38,2.64-11.77,4.47-23.74,7.31-23.74a1.66,1.66,0,0,1,1.62,1.83c0,2-3.45,5.68-3.45,12.37,0,8.93,13.19,16,42.6,16,20.2,0,31-11.08,31-28.4,0-12-17.24-13.79-34.68-15.42C27.05,79,13.59,75.85,13.59,61.06c0-1.6,2-16.05,3.45-20.29C18.46,36.72,39.76,16.23,46.25,12S68.08,5.48,77.08,5.48c3.85,0,22.92.81,22.31,7.5-.2,2.24-4.46,2.84-6.69,8.12-2.64,6.29-3.25,16.83-6.09,19.67-1,1-2.43.21-2.43-1.21s2.64-4.46,2.64-8.72a5.45,5.45,0,0,0-3.25-5.28c-2.43-1.22-10.95-3.85-20.28-4.06-11.56-.2-18.66,1-27.59,5.08-4.46,2-6.69,7.91-6.49,13,1,17.44,6.69,21.09,35.9,22.51S99.19,76.68,99.19,87c0,11.57-14,26-21.3,33.88-7.91,8.52-11.36,13.39-16.23,17C57.4,141.18,45.23,142,35.5,142Zm88,.81c-3.65,0-15.62-6.89-15.62-31.44,0-9.94,2-22.51,3-30,1-7.71,2.23-15.82.81-23.33,18.66-7.7,30.83-21.9,40.16-21.9,13.39,0,14.81,18.66,14.81,25.35s-3.05,37.33-6.49,43.62c.2,0-8.12,14-17.85,20.89C132.26,133.27,125.36,142.8,123.53,142.8Zm15-16c5.28,0,10.55-22.52,10.55-50.1,0-26-10.34-28.2-16-28.2-3.65,0-2.44,5.48-4.06,17.24-1.22,8.73-2.64,20.29-4.06,37.53C124.14,113.59,133.27,126.78,138.54,126.78Zm193.11,70.39c-24.65,0-40.9-22.2-41.18-32,0,0,0-1,.61-1,.81,0,.82.61,1,1.22,3.53,10.9,18.16,29.21,38.94,29.21,31.74,0,56.6-39.67,62.61-79.59-6.66,10.15-17.77,25.84-22.85,25.84-5.88,0-7.5-9.94-7.5-17.45,0-2.06.11-5.43.28-9.42-1.69,2.06-23.72,28.69-31.52,28.69-6.9,0-10.35-23.33-8.93-38.74.41-4.48.92-8.62,1.48-12.51-10.44,18.42-32.13,50-46.1,50-11.26,0-14.08-15.4-13.84-29.94-8.36,12.19-23,31.36-26.94,31.36-4.66,0-10.14-9.54-10.14-17.45,0-5.59,1.42-16.76,2.61-24.84a122.94,122.94,0,0,1-26.54,33c-5.89,5.28-8.32,10.75-10.75,10.75-2.84,0-16.84-10.54-16.84-29.61,0-18.87,7.1-36.51,4.87-58.22a60.85,60.85,0,0,0,16.63-8.11c9.74-6.9,17-12,21.3-12,5.27,0,9.74,3.25,11.16,6.09,1.21,2.43-2.84,2.23-5.28,9.12A36.57,36.57,0,0,0,222.62,62v.31C230.93,53.05,247.72,41,249.9,41c2.84,0,3.65,12.78,3.65,16.63.21,8.93-8.51,45.44-7.91,56s4.26,10.75,5.07,10.75c1.48,0,9.94-9.69,14.12-17.19.15-2.78.4-5.46.71-7.93a7.67,7.67,0,0,1-4.8-5.39c-.61-2-.49-5.19.52-5.19.81,0,.81,2.43,1.42,4.26s1.54,3.5,3.22,3.63c1.07-7.09,4.29-25.56,4.29-32a45.78,45.78,0,0,0-.61-7.1c5.68-3.65,14.2-8.32,25.35-14.81,6.7-3.86,12.18-7.3,13.19-7.3,1.28,0,3.63,3.37,5.54,8.36,3.38,0,10.13-.23,14.54-2.28,4.68-2.17,6-6.8,6.38-10.59.12-1.28.13-2.47.13-3.44a7.11,7.11,0,0,0-.83-2.8l19.47-11.16c.4.83,1.22,6.69-.4,16.63-1.09,6.64-1.69,10.2-2.11,12.61,5.62.47,12.86.78,12.86.78,28.4,0,28.84-8,29-9a4.73,4.73,0,0,0-.64-2.87s0-.07,0-.08a3.21,3.21,0,0,1,3.24,3.45c.2,4.92-8,7.9-13.59,9.13-7,1.53-24.09,3.56-32,4.46-1.83,8.33-7,31.79-7.92,44.22-1,14.61-1.42,33.47,5.07,33.47,3.33,0,11.37-8.66,16.86-15.57.49-10.62,1.2-23.95,1.2-29.46,0-8.32-2.44-20.89-6.09-20.89-1.42,0-2,1.82-3.85,1.82-1.49,0-1.83-.46-1.83-.72a.13.13,0,0,1,.05-.12s11.51-8.49,15.37-10.92a40.13,40.13,0,0,1,8.31-3.86c.61,0,5.68,2.84,5.68,23.53,0,20.9-6.89,52.13.41,52.13,3.45,0,10.64-11,14-19.29,2.81-13.88,10.82-50.7,18-57.58,8.92-8.73,28.4-16.64,28.4-16.64.78-.34,1.42-.2,1.62.41.2.41,0,.85-.61,1.22-.4.4-3.45,1.21-5.48,3.85-12.57,15-20.48,45.44-27,71.6C404.88,134.08,382,197.17,331.65,197.17ZM231.42,92.86l0-.16c1-5.88,6.28-36.51,1.82-36.51-2,0-6.29,4.46-10.34,9.13-4.87,5.47-4.87,9.33-6.09,9.33s-1.26-.83-.2-3.25c.32-.64.76-1.48,1.2-2.28a1.41,1.41,0,0,1,0-.2c.2-4.82-2-11.83-5.27-14.56-3.85-3.24-10.34-5.27-12-4.46-1.21,19.27-6.08,36.71-6.89,55.17-.61,12,10.14,22.32,12.17,21.91C208.82,126.35,224.16,109.77,231.42,92.86Zm54.19-17.4c-1.7,9.14-2.73,15.42-3.24,21.06a15.31,15.31,0,0,0,2-.57c5.07-1.83,14.4-11.36,13.59-27.59-.81-16.84-5.68-20.89-7.91-20.28C287.63,48.68,288.85,57.2,285.61,75.46Zm40,9.31C328,71,330.85,60.39,332.33,48.68l-17.44-1.32a43.32,43.32,0,0,1,1.75,12.48c-.2,14-10.55,18-16.23,25.56-4,5.26-10.68,13-18.27,14.07-.13,2.06-.19,4.1-.19,6.21,0,15,5.68,19.68,9.33,19.68C301,125.36,318,100,325.64,84.77ZM240,28.39c5.57-.11,6.32-1.43,11.4-2.18a34.41,34.41,0,0,0,11-3.66c-6.93-1.34-13.87-3.77-18.42-6.5-6.71,1.54-13.22,2.9-18.93,4.17C226.77,23.09,234.78,28.49,240,28.39Zm242.6,172c-16,0-31.85-11.76-36.92-20.08a4,4,0,0,1-.66-1.68.72.72,0,0,1,.54-.77c.43,0,1.19,1.29,1.94,2C453,187,469,197.57,481.76,197.57c35.9,0,44-47.26,46.45-61.87,1.11-6.68,2.6-28.43,4.61-48.12l-1-.15c-6.34-1-12.12-1.58-17.28-2-1.14,7.85-2.67,15.22-4.63,19.21A42.85,42.85,0,0,1,501,117.85c-6.08,5.88-10.95,7.71-21.09,16.64-4.87,4.26-6.7,7.5-8.52,7.5-5.07,0-14.61-9.53-14.61-25.76,0-20.69,5.68-42.6,5.68-53.55a56.61,56.61,0,0,0-.4-5.68s9.94-5.27,19.27-10.35C489.87,42,497,36.11,502.65,36.11c8.31,0,14.6,8.11,14.6,19.87,0,2.61-.54,12-1.7,22.06,2.24-.46,4.2-.93,5.65-1.38A46.76,46.76,0,0,0,534.89,70c.33-2.33.67-4.52,1-6.51,3.45-20.69,11.36-37.73,22.72-45.84,5.48-4.06,25.56-16.23,34.49-17.24A46.4,46.4,0,0,1,597.78,0a25.11,25.11,0,0,1,5.28.61c.86.2.61,2,.4,2.64-.61,1.62-7.3,6.28-9.73,7.5-2.84,1.42-16.23-.81-24.35,4.67-10.13,7.08-15,37.62-18,66.73,6.45-.26,15.06-.75,19.19-1.42s11-1.42,16.84-3.65A23.35,23.35,0,0,0,596,71.81c1.21-1.42,1.21.61.61,1.62-2.24,3-18.67,15.62-27.79,15.62-4.57,0-11.27,0-18-.19-1,11-1.78,21.57-2.47,30.21C546.06,146.86,523.34,200.41,482.57,200.41ZM498.13,84.66c-3.83-.12-6.81-.21-8.87-.48l.2-2s3.91-.49,9.08-1.24c2.42-24.1-4.48-29-7.86-31.21A12.67,12.67,0,0,0,485,48.07a5.37,5.37,0,0,0-3.24.82c-1.63,1.42-.81,7.5-2.44,16s-5.27,33.47-5.27,42c0,10.55,8.32,19.07,12.78,19.07C491.94,126,495.34,109,498.13,84.66Zm35.23-2.19c.29-2.58.58-5.1.88-7.52a96.79,96.79,0,0,1-19.08,6.29c-.06.48-.12,1-.19,1.43C520.42,82.63,527.52,82.54,533.36,82.47Zm255-52.57c4.06,0,8.11-1,10.75-1a96,96,0,0,0,13.12-.68c.41-.21.81-.81.41-1A27.35,27.35,0,0,1,801,19.07c-5.27,0-16.63,3-22.31,2.84C781.36,25.76,785.07,29.9,788.32,29.9Zm49.22,115.54c-2.23.81-6.49.2-9.12-1.42-3.23-2-5.35-6-5.79-9.86l-4.76,4a79.33,79.33,0,0,1-1.22-13.79,105.62,105.62,0,0,1,1-13.55,179.15,179.15,0,0,1-18,23.08c-2.23,2.43-7.7,8.72-10.14,8.72-4.06,0-5.88-10.55-6.29-21.09-.4-12.58,2.23-40.57,6.9-55.79l18.66-14.2h.2c-7.7,26.37-8.51,38.95-9.73,50.31-1,11.56.4,22.72,2.84,22.72,2.59,0,11.46-10,16.22-19v-.07c.2-2.43.2-6.29.4-7.3.61-8.11,10.14-43.81,10.14-75.66a22.34,22.34,0,0,0-2-8.93c9.33-2.43,16.22-7.5,18.25-12.17l.41-.2c2.63,3.25,0,28.8-.41,33.06-.76,8.19-4.56,30.87-9.73,55.27l.81-2.53c5.27-14.2,13.38-26,19.47-32.45,6.69-7.3,15-12.38,17-12.38,3.24,0,6.69,12,6.69,20.49,0,8.12-2.84,35.7-12.37,55-4.06,8.52-11.16,13.39-16.84,17.85C845.25,139.56,841,144,837.54,145.44ZM826,131.37c2.24,2,6.2,4.94,11.17,4.94,6.49,0,12-3.24,14-7.7,4.05-8.32,4.86-15.83,6.08-23.74,2.44-18.25,4.06-47.46-.61-47.46-.4,0-.81.2-1.62,1.21-4.81,6.06-15.89,23.71-21.4,44.56A92,92,0,0,0,832.47,115c0,7.71.21,10.76.21,10.76Zm131.25,8.19c-2.84,1.82-11.36,3.45-15.62,3.45s-18.66-2.44-18.66-4.26,3.25-10.55,4.06-13a32.28,32.28,0,0,0,1.81-8.13c-3,4.43-8.74,10.06-14.59,15.44-7.91,7.1-12.78,12.17-14.4,12.17-2.64,0-12.17-10.75-12.17-27.79s8.11-40.57,5.68-56a32,32,0,0,0,9.53-4.86c11.16-7.51,28.6-18.26,30-18.26,3,0,6.9,5.07,6.9,16.23,0,17.85-7.71,19.06-14.4,27-2.73,3.31-13.16,16.57-19.73,17.58-.35,3.51-.56,6.49-.56,8.58,0,13,5.68,20.29,7.91,20.29,3.65,0,7.91-2.64,12.58-8.93a18.85,18.85,0,0,0,4.46-8.92,3,3,0,0,1,.59-1.36c.07-.5.15-1,.22-1.48.21-1.42.81-5.89,1.22-6.49a3.06,3.06,0,0,1,2.84-1.42c1.22,0,1.22.4,1.22,1s-4.06,10.14-4.06,16.23c0,8.31,13.79,12.78,22.31,12.78,12.78,0,16.23-12.58,16.23-15.62,0-10.35-5.88-12.38-12-13.8C949.72,97.77,940,99.4,940,86.62c0-7.51,2.64-13,3.25-21.51,0,0,8.72-6.08,14.4-11.15s8.32-8.12,9.94-9.74c0,0,8.72-3.85,16.23-3.85,6.08,0,5.88,1,6.08,1.42.61,2-1.22,4.46-3.45,9.53-2.43,5.68-.61,17.45-3.85,17.85-.61,0-1-.61-1-2.23,0-2,.81-4.46.4-7.1-.4-3.25-4.46-5.48-11-5.48-5.07,0-9.13.61-12,3.45-3.45,3.45-4.66,11-4.66,17s3.85,9.33,9.53,10.35c5.48.81,9.13,1.42,11.56,2.43,6.29,2.64,8.32,8.11,8.32,15,0,9.33-4.26,9.74-13.59,20.89C962.29,133.07,959.46,137.94,957.22,139.56Zm-43.4-87c-2,4.94-6,27.77-7.82,43.39,4.83-.36,15.73-9.32,15.73-28.79,0-8.92-3.86-15.82-5.68-16A2.48,2.48,0,0,0,913.82,52.54ZM648.9,139c3.85-2.23,17-16.84,21.7-22.11S687,101,687,90.06c0-14.6-8.92-24.13-45.84-26.57-16-1-20.28-10.14-20.28-17.24,0-4.06.61-12,5.07-15,5.07-3.65,14-5.07,25.56-5.07s23.41,4.38,24.74,5.48a4.61,4.61,0,0,1,1.42,4.66c-.29,1.8-3,6.5-3.24,7.51a1.86,1.86,0,0,0,2,2.15c2.11,0,2.44-3.77,3.71-8.46,1.24-4.54,2.45-9.44,4.67-12.44,2.69-3.63,6-3.31,6.22-6.2.24-3.44-9.33-7.92-22.31-7.92s-27.59,3.45-30.63,5.28C634.9,18.05,612.38,37.12,608.94,43c-.82,1.22-3.86,17.45-3.86,22.11,0,12.58,13.39,15.42,28.4,17.25,13.59,1.82,38.74,2.43,38.74,16.43,0,9.73-4.87,27.18-30.42,27.18-10.55,0-42-3.45-42-16.84,0-7.5,4.05-10.14,4.05-12.58A2,2,0,0,0,602,94.32c-1.46,0-2.41,2.13-3.54,5.13-2.31,6.11-4.23,15.82-4.78,18.4-.81,3.65-5.48,11.16-5.48,13.39,0,2.84,20.09,11,36.52,11C638.15,142.2,645.05,141.18,648.9,139ZM744,140.37a9.12,9.12,0,0,1-2-5.27,76.24,76.24,0,0,1-.21-12.38,72.5,72.5,0,0,1,1.87-15.41,105.84,105.84,0,0,1-12.82,16.63c-2.84,3-5.27,4.87-7.91,7.3-5,5-10.5,10.87-13.13,12.85a1.47,1.47,0,0,1-.8.38,1.08,1.08,0,0,1-.67-.29c-5.85-4.67-13.8-17.11-13.8-23.49a387.07,387.07,0,0,1,4.09-46.06c.42-3.42.74-6.64.91-9.54,0-3.3,0-6-.21-8.45a7.71,7.71,0,0,0,3.71-1l.4-.21c3-1.62,7.43-3.55,14.22-7.73s12.17-8.93,17.85-8.93c8.12,0,10.55,3,10.55,3s-7.5,12.17-6.9,17.64c8.32-7.3,23.94-18,26.58-18,1.21,0,4.87,7.3,4.87,16.43h.2c3.85-3.25,15.62-16.43,21.5-17.24.61,0,1,.2,1,.61,0,1-1.21.81-1.21,1.62,0,.61,2.63,2.23,6.08,3.85,4.87,2.44,7.1,1.63,7.1,2.44s-12.78,9.33-21.3,9.33c-3,0-5.07-1-7.3-1-2.43,0-16,30-16,58.21,0,9.17,1.47,12.73,2.57,14.3.69,1,1.21.82,1.21,1.8a1,1,0,0,1-.54.94,49.48,49.48,0,0,0-9.33,2.84C750.54,137.39,744,140.37,744,140.37Zm1.75-42c3.25-14.54,5.15-28.63,5.15-35.26,0-7.71-2.64-8.73-2.64-8.73a61.73,61.73,0,0,0-10.14,10.55,17.8,17.8,0,0,0-1,3c-.67,1.79-1.7,3.74-2.62,3.54-1.25-.27,1.62-4.87.81-8.72-1.82-7.91-8.11-11.16-16.23-11.16-5.27,8.52-7.91,48.48-7.91,56.6,0,7.91,7.51,17,11.36,17C726.19,125.16,737.25,114.79,745.78,98.35Z"/></g></g></svg>