<svg xmlns="http://www.w3.org/2000/svg" viewBox="0 0 860 498.12"><defs><style>.cls-1{fill:#f5fff5;}</style></defs><title>sticker-mule</title><g id="Layer_2" data-name="Layer 2"><g id="Layer_1-2" data-name="Layer 1"><path class="cls-1" d="M39.2,498.12c-14.6,0-27.5-1.7-39.2-13.2l15.1-15.1c7.6,7.6,17.5,8.8,24.6,8.8,8,0,16.3-2.7,16.3-9.5,0-4.6-2.4-7.8-9.7-8.5l-14.6-1.5c-16.6-1.7-26.8-8.8-26.8-25.8,0-19,16.8-29.5,35.6-29.5,14.4,0,26.3,2.4,35.3,10.7l-14.1,14.4c-5.4-4.9-13.4-6.1-21.4-6.1-9.3,0-13.2,4.1-13.2,8.8,0,3.4,1.5,7.3,9.5,8l14.6,1.5c18.3,1.7,27.5,11.5,27.5,27.1C78.2,488.32,60.9,498.12,39.2,498.12Zm79.2-1c-18.8,0-26.8-13.2-26.8-26.3v-45.6H81.9v-17.8h9.7v-27.3h22.9v27.3h16.3V425H114.5v44.4c0,5.4,2.4,8.3,8,8.3h8.3v19.5l-12.4-.1Zm22.7-108v-18.8h23.6v18.8Zm.5,108V405h22.9v92.1Zm75,1c-18.5,0-41.2-10-41.2-47.3s22.9-47,41.2-47c12.7,0,22.4,3.9,30.5,12.4l-15.6,15.6c-4.9-5.1-8.8-7.3-14.9-7.3a15.9,15.9,0,0,0-13.2,6.1c-3.7,4.4-5.1,10.7-5.1,20.5s1.7,16.1,5.1,20.5a16,16,0,0,0,13.2,6.1c6.1,0,10-2.2,14.9-7.3l15.6,15.4C238.8,494.22,229.3,498.12,216.6,498.12Zm93.9-1-22.7-38.5-9.7,11v27.5H255.2v-126h22.9v71.4l30.7-37.8h27.8l-33,37.3,35.3,55.1Zm47.7-39c0,11.9,7.3,20.5,20.2,20.5,10,0,15.1-2.9,21-8.8l13.9,13.6c-9.3,9.3-18.5,14.6-35.1,14.6-21.7,0-42.6-10-42.6-47.3,0-30,16.3-47,40.2-47,25.6,0,40.2,18.8,40.2,44.1V458l-57.8.1Zm32.9-25.6c-2.4-5.6-7.6-9.5-15.4-9.5s-12.9,4.1-15.4,9.5a26.22,26.22,0,0,0-2.2,10h35.1A23.25,23.25,0,0,0,391.1,432.52Zm85.8-2.4c-3.7-3.7-6.6-5.6-12.2-5.6-7.1,0-14.9,5.4-14.9,17.1v55.6H427V405h22.4v8.8c4.4-5.4,13.4-10,23.2-10,9,0,15.4,2.2,21.7,8.8Zm120.9-26.3c-11.5,0-19.7,3.7-27.5,11.7-5.8-8-14.1-11.7-24.4-11.7a32,32,0,0,0-22.9,9.5V405H500.6v92.1h22.9v-55.8c0-12.7,8-16.8,15.4-16.8s15.1,4.1,15.1,16.8v55.8h22.9v-56.3c0-11.9,8.3-16.3,15.4-16.3,7.3,0,15.1,4.1,15.1,16.8v55.8h22.9v-59c0-10-2.7-18.8-10-26.3C615.3,406.92,607,403.82,597.8,403.82Zm99.9,56.7c0,12.7-8,16.8-15.4,16.8s-15.1-4.1-15.1-16.8V405H644.3v59c0,10,1.9,18.8,9.3,26.1,5.1,5.1,12.7,8,21.7,8,8.5,0,17.1-3.2,22.9-9.5v8.5h22.4V405H697.7Zm60.7,8.8v-98.2H735.5v99.7c0,13.2,8,26.3,26.8,26.3h13.2v-19.5h-8.8C760.8,477.62,758.4,474.92,758.4,469.32ZM860,447.92c0-25.3-14.6-44.1-40.2-44.1-23.9,0-40.2,17.1-40.2,47,0,37.3,21,47.3,42.6,47.3,16.6,0,25.6-5.1,35.1-14.6l-13.9-13.6c-5.8,5.8-10.7,8.8-21,8.8-12.9,0-20.2-8.8-20.2-20.5H860Zm-57.8-5.4a24.85,24.85,0,0,1,2.2-10c2.4-5.6,7.6-9.5,15.4-9.5s12.9,4.1,15.4,9.5a26.22,26.22,0,0,1,2.2,10ZM472.5,344c-3.2,1.5-7.6,1.2-12.2,1.5-3.9,0-9.5.2-11.7-1.9a7.51,7.51,0,0,1-1.7-4.9,22.59,22.59,0,0,1,.7-5.6c.5-2.2,1-5.1,0-6.1-1-1.5-4.6-.7-6.3-1.9-1.9-1.2-2.4-3.7-3.2-6.8a10.84,10.84,0,0,0-1-2.4c-.5-4.6,1-10.7,1.9-15.4,1.2-4.9,2.4-9.5,3.4-14.1a93.27,93.27,0,0,0,1.2-21.9c-.2-3.7-.7-6.6-.2-9.7.5-2.9,1.7-5.4,2.4-8.3.2-1,0-1.9.2-2.9,0-1,.7-1.7.7-2.4,0-1.9-.5-4.4-.7-6.8a146.5,146.5,0,0,1,.5-21.2c.2-1.9,1-4.1-.2-5.1-6.8,0-12.9,1.2-19.3,1.9-16.8,2.2-38,2.4-54.3-.7a23.21,23.21,0,0,1-4.6-.7c-11.5-2.7-22.2-7.6-30.5-14.1-1.2-1-2.7-2.2-4.1-3.2s-2.9-2.7-4.1-3.2c-6.6-3.2-15.4.5-18,4.6-1,1.7-1.9,3.9-2.9,5.8s-1.9,3.9-2.7,5.8c-4.4,10-9.3,19.5-13.6,29.5-2.4,5.8-5.4,12.2-7.3,18.5-3.9,13.6-.2,32.2,2.9,45.1a22.11,22.11,0,0,0,1.5,3.7,24,24,0,0,0,5.6,9.5c1.2,1.2,3.4,1.7,4.9,2.9,1.7,1.5,3.2,4.6,4.6,7.3.5,1,1.5,2.4,2.2,3.7,1.7,2.9,2.2,5.6-1,7.3-2.4,1.2-6.1,1.7-9.5,1.9-1.5.5-1,2.4-1.9,3.4a17.58,17.58,0,0,1-4.1,1.9c-4.4,1.2-12.2,1.2-15.6,0-1.7-.7-3.7-1.9-4.1-3.4-1-2.7,1.2-6.3-.7-8.3-1-1-2.7-.7-4.4-1.5a10.29,10.29,0,0,1-5.6-6.1c-2.7-6.8-1-17.3-1.2-25.6,0-2.4-.5-5.1-.5-7.8-.2-4.9-1.2-9.7-1.9-14.6a45.38,45.38,0,0,0-1.5-6.6c-.7-3.4-1.5-7.3-2.4-10.7a15.94,15.94,0,0,1,.2-11c.2-1,1.2-1.7,1.9-2.9a17.7,17.7,0,0,0,1-5.8c-.5-1-2.9-.2-3.4-1.2-1.5-10.7-2.9-21.2-3.9-32.4-.2-3.7-.2-7.6-.7-11.5-.7-7.6,0-15.4-.7-22.7-.2-3.7-1.2-7.1-1.7-10.5-1.2-9.7-3.9-22.2-1.9-32.4a38.56,38.56,0,0,1,7.3-16.6,85.89,85.89,0,0,1,8.5-9.5,84.74,84.74,0,0,1,10-8.3c2.2-1.7,4.6-3.7,7.3-4.6a51.7,51.7,0,0,1,20.7-5.1c7.8-.2,16.6-.5,24.1,1,7.3,1.2,14.6,2.7,21.9,4.1,7.1,1.5,13.9,3.4,20.7,5.1a10.84,10.84,0,0,1,2.4,1,55.23,55.23,0,0,1,6.8,1.5c6.3,1.7,14.4,2.4,21.9,2.4,8.3,0,15.6-.2,22.4-1.9a16.31,16.31,0,0,0,2.9-1.2c1-.5,2.4-.2,3.4-.7.7-.2,1.5-1,2.2-1.2a74.26,74.26,0,0,0,10.7-6.1,37,37,0,0,1,8.8-5.1,33,33,0,0,1,4.9-1.9c3.4-1.2,7.3-2.2,10-3.9,4.1-2.7,7.3-6.6,10.7-9.5,3.7-3.2,7.3-6.1,11.2-9.3,7.8-6.1,15.6-11.7,22.9-17.5a100.28,100.28,0,0,1,12.2-8.3c8.5-4.9,17.1-10.5,29.2-11.5,4.9-.2,9.7-.5,14.6.2,1.2.2,3.2,1,4.4.7s2.2-2.2,3.2-3.9c1.7-3.2,3.2-5.4,4.6-9.3,1-2.4.5-4.9,2.9-4.6,2.4,0,2.2,6.6,2.2,9,.2,2.9-.2,6.8.2,8.8a4.63,4.63,0,0,0,4.1,3.4c1.5,0,2.2-1,3.4-1.9,1.2-.7,2.4-1.2,3.4-1.9a51,51,0,0,0,6.3-6.1c1.7-1.7,4.4-5.6,7.1-5.4,4.9.5,0,7.6-1,10-2.4,5.6-4.9,9.5-7.8,14.9-1.2,2.2-3.9,5.1-3.9,7.3,0,1.5,1.2,2.7,1.9,4.1.2.7.5,1.7.7,2.4,1.7,3.9,2.9,9.3,4.1,13.6,1.2,3.7,1.9,7.8,3.4,11.5,1.2,3.7,3.2,7.1,4.6,10.5a13.34,13.34,0,0,1,.7,2.9c3.2,7.8,6.1,16.8,9.7,24.4,1.5,3.2,3.7,6.8,3.7,11.5,0,4.9-2.7,7.3-4.9,11-1.2,1.9-2.9,4.9-4.6,5.6-1.2.5-2.9,0-4.1.2-1.9.2-3.2,1.5-4.9,1.7a10,10,0,0,1-10-6.3c-.5-1.2-.2-2.7-.5-4.1-1-5.4-3.7-8-7.6-11.7a40.38,40.38,0,0,0-7.3-5.6c-4.4-2.2-9-3.7-13.6-6.1a9,9,0,0,0-5.1-1.5c-2.4.5-4.9,4.4-6.8,6.8-11.9,15.6-22.4,31.7-33.9,47-7.6,10.2-15.8,20.5-21.9,32.2-1.5,2.9-2.4,6.3-3.7,9.7s-1.7,7.1-2.9,10.5c-4.4,12.7-5.8,28.3-10,41.7-.5,1.5-.5,2.9-1,4.6-1.9,6.8-3.7,14.6-5.8,21.9-1.7,5.4-2.2,12.7-2.4,19.7-.2,6.6-.5,16.1,1.9,20.2,1.2,2.2,5.8,3.2,7.6,5.4,1.2,1.7,1.9,4.9,3.2,6.8.7,1.5,3.2,4.6,2.9,6.8a4.6,4.6,0,0,1-2.9,3.4c-1.5.7-3.4.2-4.9,1C473.5,341.12,474.2,343.12,472.5,344Z"/></g></g></svg>