<svg xmlns="http://www.w3.org/2000/svg" viewBox="0 0 866.8 372.4"><defs><style>.cls-1{fill:#f5fff5;}</style></defs><title>tdc</title><g id="Layer_2" data-name="Layer 2"><g id="Layer_1-2" data-name="Layer 1"><path class="cls-1" d="M866.8,317.5c0,15.2-5.4,28.4-16.3,38.9-10.8,10.8-23.7,16-38.9,16s-28.4-5.4-38.9-16c-10.8-10.8-16.3-23.7-16.3-38.9s5.4-28.4,16.3-38.9c10.8-10.8,23.7-16.3,38.9-16.3s28.4,5.4,38.9,16.3C861.4,289.4,866.8,302.3,866.8,317.5Z"/><path class="cls-1" d="M43.5,283.5V151.8H0V94H44.1l5.4-83.5h77V94h56.1v57.8H126.5V270c0,21.5,8.8,33.5,29.2,36.4a145.26,145.26,0,0,0,32.3,0v61a418.55,418.55,0,0,1-49.5,3.2c-62.1-.2-95-29.4-95-87.1"/><path class="cls-1" d="M376.3,282V172.1c-9.5-13.7-22-28.6-46.1-28.6-30.6,0-45,22-45,86.1,0,65.8,16.9,85,44.3,85,24.2.3,37.9-15.2,46.8-32.6M196.5,229c0-86.7,43.5-140,108.2-140,32.3,0,55.5,14.3,71.2,32.9V0h84.7V366.3H379.4V327.4c-22,29.2-45,44.1-85.6,44.1-58.6-.2-97.3-46.3-97.3-142.5"/><path class="cls-1" d="M491.6,229.6c0-77.6,52.1-140.5,134.5-140.5,65.8,0,109.9,35.2,120.7,102.1l-75.9,7.1c-3.7-31.2-15.4-52.6-42.4-52.6-30.6,0-46.7,29.2-46.7,84.7,0,60.4,18.1,86.7,47.8,86.7,26.9,0,38.9-18.1,44.1-48.9l73.6,6.6c-8.3,62.1-51.5,96.7-122.4,96.7-78.4-.2-133.3-52.3-133.3-141.9"/></g></g></svg>