<svg xmlns="http://www.w3.org/2000/svg" viewBox="0 0 643.9 958.7"><defs><style>.cls-1{fill:none;stroke:#f5fff5;stroke-linejoin:round;stroke-width:17.4px;}.cls-2,.cls-3,.cls-4{fill:#f5fff5;}.cls-2{opacity:0.25;}.cls-2,.cls-4{isolation:isolate;}.cls-4{opacity:0.5;}</style></defs><title>the-cooper-union-logo-2</title><g id="Layer_2" data-name="Layer 2"><g id="Layer_1-2" data-name="Layer 1"><line class="cls-1" x1="217.5" y1="217.6" x2="217.5" y2="8.7"/><path class="cls-2" d="M46.3,900.2V910H33.4v47.9h-11V910H9.5v-9.8Zm10.4,57.7V900.2h11v23H83.3v-23h11v57.7h-11V933H67.7v24.9Zm51.4,0V900.2h30.2V910H119.1v13.3h14.6V933H119.1v15.2h20V958Z"/><path class="cls-3" d="M161.3,940.8c0,6.4,2.8,8.2,7.2,8.2s7.2-1.8,7.2-8.2V937h11v2.4c0,14.2-7.5,19.3-18.2,19.3s-18.2-5.1-18.2-19.3V918.8c0-14.2,7.5-19.3,18.2-19.3s18.2,5.1,18.2,19.3v.2h-11v-1.6c0-6.4-2.8-8.2-7.2-8.2s-7.2,1.8-7.2,8.2Zm36.6-22c0-14.2,7.5-19.3,18.2-19.3s18.2,5.1,18.2,19.3v20.6c0,14.2-7.5,19.3-18.2,19.3s-18.2-5.1-18.2-19.3Zm11,22c0,6.4,2.8,8.2,7.2,8.2s7.2-1.8,7.2-8.2V917.3c0-6.4-2.8-8.2-7.2-8.2s-7.2,1.8-7.2,8.2Zm36.6-22c0-14.2,7.5-19.3,18.2-19.3s18.2,5.1,18.2,19.3v20.6c0,14.2-7.5,19.3-18.2,19.3s-18.2-5.1-18.2-19.3Zm11.1,22c0,6.4,2.8,8.2,7.2,8.2s7.2-1.8,7.2-8.2V917.3c0-6.4-2.8-8.2-7.2-8.2s-7.2,1.8-7.2,8.2Zm38.1,17.1V900.2h15.9c13.6,0,20.2,6.4,20.2,17.3s-6.6,17.3-20.2,17.3h-4.9V958l-11-.1Zm11.1-32.2h5.9c5.4,0,8.2-2.7,8.2-8.2s-2.7-8.1-8.2-8.1h-5.9Zm35.9,32.2V900.2h30.2V910H352.7v13.3h14.7V933H352.8v15.2h20V958l-31.1-.1Zm69.1,0-9.6-23.5h-5.3v23.5h-11V900.2h16c13.3,0,19.6,6.4,19.6,17.3,0,7.2-2.5,12.4-8.7,14.7l10.9,25.7Zm-14.9-32.6h5.7c4.9,0,7.8-2.4,7.8-8s-3-8-7.8-8h-5.7Z"/><path class="cls-4" d="M442.7,902.8v38.5c0,5.3,2.3,8,7.4,8s7.5-2.8,7.5-8V902.8h10.5v38.6c0,12.1-7.2,17.2-18,17.2s-17.9-5.1-17.9-17.2V902.8Zm39.9,55.1V902.8h11.5l14.6,32.7h.2V902.8h9.6v55.1H508.4l-16.1-35.6h-.1v35.6Zm51.1,0V902.8h10.5v55.1Zm23.6-37.4c0-13.6,7.2-18.5,17.4-18.5s17.4,4.9,17.4,18.5v19.7c0,13.6-7.2,18.5-17.4,18.5s-17.4-4.9-17.4-18.5Zm10.5,21c0,6.1,2.7,7.8,6.9,7.8s6.9-1.7,6.9-7.8V919.1c0-6.1-2.7-7.8-6.9-7.8s-6.9,1.7-6.9,7.8ZM605,957.9V902.8h11.5l14.7,32.7h.1V902.8h9.6v55.1H630.8l-16.1-35.6h-.1v35.6Z"/><polygon class="cls-1" points="217.5 8.7 635.2 426.4 635.2 635.2 426.3 844 8.7 426.4 8.7 217.6 217.5 8.7"/><polygon class="cls-1" points="426.3 217.5 217.5 426.4 217.5 635.2 426.4 426.3 426.3 217.5"/><polyline class="cls-1" points="635.2 426.4 426.3 635.2 8.7 217.6"/><polyline class="cls-1" points="8.7 426.4 217.5 217.6 635.2 635.2"/><line class="cls-1" x1="426.3" y1="635.2" x2="426.3" y2="844"/></g></g></svg>