<svg xmlns="http://www.w3.org/2000/svg" viewBox="0 0 940 369.42"><defs><style>.cls-1,.cls-2,.cls-3,.cls-4,.cls-5{fill:#f5fff5;}.cls-2{opacity:0.35;}.cls-2,.cls-3,.cls-4,.cls-5{isolation:isolate;}.cls-3{opacity:0.55;}.cls-4{opacity:0.65;}.cls-5{opacity:0.8;}</style></defs><title>trilon</title><g id="Layer_2" data-name="Layer 2"><g id="Layer_1-2" data-name="Layer 1"><path class="cls-1" d="M81.37,97.87h56v37.48h-56v63.52c0,35.69,29.62,37.48,58.17,27.13l4.64,37.83c-59.24,16.41-111.7,6.78-111.7-63.89V135.35L0,132.13V97.87H36.05L41.4,44.34h40ZM281.22,94C294.42,93.59,308,97.52,318,105l-11.06,41.76a54.1,54.1,0,0,0-32.12-9.28c-21.78,0-40.33,14.27-40.33,40.68v91.37h-48.9V150c0-14.28-1.43-23.55-17.13-21.06V98.23c25-5.71,60-5.71,62.81,25C238.39,103.58,260.16,94,281.22,94ZM489.63,8.29V202.44c0,26.41,10.35,33.19,34.26,29.27l1.78,36c-53.17,9.64-85.29-3.57-85.29-65.31V8.29ZM627.74,273.11c-45.69,0-91-30-91-90.3,0-59.95,45.32-88.86,91-88.86s91.36,28.9,91.36,88.86C719.1,243.13,673.42,273.11,627.74,273.11Zm.35-43.9c21.06,0,41.4-15.35,41.4-46.4,0-30.69-20.7-45-41.4-45-21.05,0-41.75,13.91-41.75,45C586.34,214.22,607,229.21,628.09,229.21Zm106-132c25.34-4.64,65.67-7.14,65.67,26.05C810.81,102.87,831.15,94,854,94c48.54,0,68.88,33.19,67.81,76v45c0,16.06.71,23.91,18.2,22.84V267c-33.9,8.56-67.81,4.28-67.81-38.55V170c.36-23.91-15-36.4-33.19-36.4-18.56-1.07-36,13.56-36,37.48v98.5H753V151.05c0-18.91.36-25.69-18.92-24.62V97.16Z"/><path class="cls-1" d="M377.38,0a32,32,0,1,0,32,32,32,32,0,0,0-32-32"/><path class="cls-2" d="M377.38,76.33a32,32,0,1,0,32,32.05,32,32,0,0,0-32-32"/><path class="cls-3" d="M377.38,152.67a32,32,0,1,0,32,32,32,32,0,0,0-32-32"/><path class="cls-4" d="M377.38,229a32,32,0,1,0,32,32,32,32,0,0,0-32-32"/><path class="cls-5" d="M377.38,305.34a32,32,0,1,0,32,32,32,32,0,0,0-32-32"/></g></g></svg>