<svg xmlns="http://www.w3.org/2000/svg" viewBox="0 0 720 427.86"><defs><style>.cls-1{fill:#f5fff5;}</style></defs><title>Asset 1</title><g id="Layer_2" data-name="Layer 2"><g id="Layer_1-2" data-name="Layer 1"><path class="cls-1" d="M362.69,0h32.36L536.46,166.93V0h51.11V257.51H553.5L413.26,92.67V257.51H362.69V0Zm-27,0H91.75V46.21h96.52v211.3h50.88V46.21h96.52V0ZM64.6,324V313H0v11H25.82v79.19H38.17V324Zm55,18.91h-12l-20,43.85L67.93,342.88H55.45l26.06,55.83-4.69,9.39c-3.46,6.8-6.67,9-10.62,9a11.53,11.53,0,0,1-5.07-1.23l-3.34,10.38a21.54,21.54,0,0,0,7.91,1.6c6.67,0,14.57-2.71,20.26-14.45Zm3.56,84.74h11.48V390.93c2.47,7.16,10.75,13.21,22,13.21,14.45,0,27.31-12.1,27.31-32,0-18.41-10.88-30.52-27.31-30.52-12.1,0-20.38,6.8-22.72,14.95V343H123.13v84.63Zm30.76-33c-10.75,0-19.64-6.67-19.64-21.37,0-14.95,8.27-22.48,19.14-22.48,12.11,0,18.66,9.51,18.66,22,0,13.22-7.79,22-18.16,22v-.12Zm69.52,9.89c14.08,0,20.88-4.82,26.56-10.75l-7.16-7.41c-3.59,4.19-9,8.27-19.4,8.27-13,0-20.38-7.66-21-17.91h50.78c0-22.48-12.24-35.33-30.4-35.33s-31.5,14.33-31.5,32c0,19.63,13.72,31.25,32.37,31.25ZM202.66,368c.86-8.89,8.52-16.8,19.77-16.8s18.9,7.41,19.27,16.8Zm134.63,35.21V313H325.8v67.69L273.18,313h-9.39v90.18h11.73V335l53.12,68.19Zm43.21,1.36c14.09,0,20.88-4.82,26.56-10.75l-7.17-7.41c-3.58,4.19-9,8.27-19.39,8.27-13,0-20.39-7.66-21-17.91h50.77c0-22.48-12.23-35.33-30.39-35.33s-31.5,14.33-31.5,32c0,19.63,13.71,31.25,32.37,31.25ZM359.75,368c.86-8.89,8.52-16.8,19.76-16.8s18.9,7.41,19.27,16.8Zm87.56,24.46A17.11,17.11,0,0,1,440.4,394c-5.2,0-8.16-2.6-8.16-8.53V352.75h14.45v-9.88H432.24V322.73l-11.49,1.48v18.66h-8.89v9.88h8.89v34.1c0,12.6,8.52,17,17.67,17,4.2,0,8.27-.87,9.88-2Zm61.51,11.11h6.67L537,342.87H526l-14.2,43L497.45,349h-6.79l-15.2,37.07-14.2-43.24H449.15l21.5,60.65h6.67l16.3-38.29Zm60.38,1c17.91,0,32.49-13.84,32.49-33q0-13.53-9.64-21.86a33.89,33.89,0,0,0-22.85-8.4,30.32,30.32,0,0,0-22.11,9.38,30.87,30.87,0,0,0-9.51,22.61q0,14.64,9.63,23a32.51,32.51,0,0,0,21.74,8.4Zm.25-10c-11.25,0-20.14-7.78-20.14-21.25,0-12.72,8.16-21.74,19.27-21.74,13,0,21,9.14,21,20.88C589.58,385.37,581.31,394.51,569.45,394.51Zm85.46-49.42c-2.59-2.09-6.92-3.7-12.35-3.7-11.12,0-19,7.41-20.63,14.08V342.88H611.18v60.28h11.49V368.08c0-9.89,8-16.68,15.94-16.68a17.15,17.15,0,0,1,11.24,3.7ZM720,403l-28.29-35.46,22.85-24.7h-13l-29.28,32.48v-71H661.07v98.83h11.49V387.71l11.61-12.23,22.36,27.68Z"/></g></g></svg>