<svg xmlns="http://www.w3.org/2000/svg" viewBox="0 0 959.9 493.6"><defs><style>.cls-1{fill:#f5fff5;}</style></defs><title>Asset 1</title><g id="Layer_2" data-name="Layer 2"><g id="Layer_1-2" data-name="Layer 1"><g id="Layer_1-2-2" data-name="Layer 1-2"><path class="cls-1" d="M45.8,194.7l29.4-9L112,13.2l-24.3,6L36.8,88.7l-9.6-3L49.4,0H240.2l-8.1,86.3-9.3,2.1L197.6,19.2l-21-6L139.8,185.7l25.8,9-2.4,11.4H43.4Zm153.4,35.6c0-14.4,11.1-22.5,22.8-22.5,11.4,0,20.4,7.8,20.4,18.6,0,10.2-4.5,16.5-14.1,19.2v.6a30.19,30.19,0,0,0,6,.3c6.3,0,12.6-1.8,19.8-4.5,3-13.2,6.3-37.7,6.3-69.5,0-46.1-3.3-70.7-6-81.5l-29.7,28.8-7.2-6.6c35.9-50,48.8-59.6,65.6-59.6s28.5,12.3,28.5,62.3c0,32.6-2.4,60.2-7.2,86.6C329.8,171.3,349,128.8,349,93.1l-.6-.3c-14.1,3.3-23.1-8.1-23.1-19.5,0-11.1,9-19.8,22.5-19.8,12.9,0,27.3,9.6,27.3,35,0,55.4-56,146.5-113.5,169.2-8.7,3.3-18.9,5.7-27.9,5.7-15.3.2-34.5-8.8-34.5-33.1Zm153.7,10.2h21.9L412.5,99.4q-13,9.6-25.2,20.4l-7.2-6.6c14.1-17.7,25.8-32.1,39.8-41.9l12-44.6h48.8L473.2,54a63.26,63.26,0,0,1,8.7-.3c38.9,0,62,23.4,62,55.1,0,54.8-47.6,99.7-111.7,98.2l-9,33.5h26.1L445.1,260H348.6ZM488.5,100.3c0-17.4-7.5-23.7-21.3-24.6L437,189c22.8-3.6,35-14.1,46.1-55.7C486.7,119.2,488.5,108.7,488.5,100.3Zm60.2,61.4c0-52.7,39.5-108.1,93.8-108.1,30.9,0,46.7,12.6,46.7,29.7,0,23.7-24.3,39.2-79.4,52.4-3.3,14.1-4.8,24.3-4.8,31.2,0,11.7,4.2,14.7,11.7,14.7,10.5,0,22.8-9.9,41.9-31.5l8.7,5.4c-18.3,34.1-42.5,53-73.4,53-26.9,0-45.2-18.6-45.2-46.8Zm64.4-38.3C637.4,112,646,101.2,646,78.2c0-3.9-1.8-6.9-5.7-6.9-7.8,0-16.2,9-27,50.6a3.89,3.89,0,0,0-.2,1.5Zm76.1,37.1c0-73.1,67.4-153.4,162-153.4,63.2,0,108.7,37.1,108.7,93.8,0,69.5-46.4,110.2-93.5,110.2-27.3,0-36.2-9.3-39.8-27.6l-.3-1.5,20.1-34.1-.6-.6c-21.6,31.5-46.7,61.1-68.9,61.1-14.4,0-27.3-12-27.3-32.6,0-53,38.6-113.2,78.5-113.2,14.1,0,22.2,5.4,26.7,10.8l2.4-9h47.9L871,171.3a35.27,35.27,0,0,0-1.8,10.2c0,6.3,2.7,10.5,9.9,10.5,27.9,0,46.7-37.7,46.7-90.5,0-54.8-27.3-77-75.5-77-72.8,0-122.8,60.2-122.8,131.5,0,63.8,28.2,86,82.7,86,27.3,0,55.4-6,75.8-12.3l4.8,10.8c-22.8,12.3-51.5,20.7-87.5,20.7C730.9,261.2,689.2,217.1,689.2,160.5Zm145.3-11.6L851.6,86c-3-1.8-6.6-3.3-9.9-3.3-12.6,0-25.5,14.4-36.5,69.2a64.16,64.16,0,0,0-.9,8.7c0,6.9,2.4,9.3,6.3,9.3C817.4,169.8,825.8,161.4,834.5,148.9ZM0,346.8c0-69.5,54.2-115.6,113.2-115.6,21.3,0,34.7,5.7,45.5,15.9l10.2-13.5h11.4l3.3,81.5-9.9,2.1c-29.4-56-37.7-65-52.1-65-22.5,0-36.2,18.3-48.8,77.6-4.5,21.3-6.6,37.7-6.6,50.6,0,32,13.2,41,34.4,41,23.7,0,44.3-11.7,62.9-33.8l12.6,8.7c-21.3,31.8-47.6,45.8-83,45.8C31.5,442.1,0,398.7,0,346.8Zm185.4,36.6c0-54.8,46.1-96.1,92-96.1,35,0,59,27.6,59,57.5,0,54.8-46.4,97.3-92.3,97.3C209.1,442.1,185.4,413.3,185.4,383.4Zm90.8-21c6.6-23.7,9.6-37.7,9.6-46.1s-3-10.5-9.3-10.5c-12.6,0-16.8,8.4-30.9,61.1-6.3,24.3-9.6,38.6-9.6,46.7,0,7.8,3,9.9,9,9.9C257.6,423.5,261.8,415.7,276.2,362.4Zm65.3,21c0-54.8,46.1-96.1,92-96.1,35,0,59,27.6,59,57.5,0,54.8-46.4,97.3-92.3,97.3C365.1,442.1,341.5,413.3,341.5,383.4Zm90.7-21c6.6-23.7,9.6-37.7,9.6-46.1s-3-10.5-9.3-10.5c-12.6,0-16.8,8.4-30.9,61.1-6.3,24.3-9.6,38.6-9.6,46.7,0,7.8,3,9.9,9,9.9C413.7,423.5,417.8,415.7,432.2,362.4Zm36.6,111.7h21.9L528.4,333q-13,9.6-25.2,20.4l-7.2-6.6c14.1-17.7,25.8-32.1,39.8-41.9l12-44.6h48.8l-7.5,27.3a63.26,63.26,0,0,1,8.7-.3c38.9,0,62,23.4,62,55.1,0,54.8-47.6,99.7-111.7,98.2l-9,33.5h26.1L561,493.6H464.6ZM604.5,334c0-17.4-7.5-23.7-21.3-24.6L552.9,422.6c22.8-3.6,35-14.1,46.1-55.7C602.7,352.8,604.5,342.4,604.5,334Zm60.2,61.4c0-52.7,39.5-108.1,93.8-108.1,30.9,0,46.7,12.6,46.7,29.7,0,23.7-24.3,39.2-79.4,52.4-3.3,14.1-4.8,24.3-4.8,31.2,0,11.7,4.2,14.7,11.7,14.7,10.5,0,22.8-9.9,41.9-31.5l8.7,5.4c-18.3,34.1-42.5,53-73.4,53C682.9,442.1,664.7,423.5,664.7,395.4ZM729.1,357c24.3-11.4,32.9-22.2,32.9-45.2,0-3.9-1.8-6.9-5.7-6.9-7.8,0-16.2,9-27,50.6A3.89,3.89,0,0,0,729.1,357Zm103.3-28.7-24.9,25.2-7.2-6.6c38.6-51.2,50.9-59.6,63.5-59.6,10.5,0,17.4,4.5,16.2,22.2l-.6,8.1-23.7,64.1,1.2.6c27-59.3,42.5-95,71-95,16.5,0,26.4,11.7,26.4,26.7,0,15.3-11.7,27-24,27-16.2,0-20.1-10.2-20.7-17.1H909c-11.4,7.2-26.4,28.2-37.7,49.4l-18,66.5H802.1Z"/></g></g></g></svg>