<svg xmlns="http://www.w3.org/2000/svg" viewBox="0 0 920 565.52"><defs><style>.cls-1{fill:#f5fff5;}</style></defs><title>type-today</title><g id="Layer_2" data-name="Layer 2"><g id="Layer_1-2" data-name="Layer 1"><path class="cls-1" d="M827.7,118.34H576.42C574.2,52.61,523,0,460,0S345.8,52.61,343.59,118.34H92.3c-51,0-92.3,43.16-92.3,96.42s41.32,96.43,92.3,96.43H827.7c51,0,92.3-43.18,92.3-96.43S878.68,118.34,827.7,118.34Z"/><path class="cls-1" d="M70.67,507.12V472.06H87.38V452.28H70.67V434.6h-29v17.68H31.41v19.78H41.63v37.82c0,19.94,10.7,29.2,29.85,29.2a60.56,60.56,0,0,0,16.06-2.45v-22A22.17,22.17,0,0,1,79.27,516C73.75,516,70.67,513.28,70.67,507.12Z"/><polygon class="cls-1" points="142.53 497.55 125.01 452.27 93.54 452.27 127.45 528.53 113.33 565.52 141.08 565.52 186.51 452.27 158.76 452.27 142.53 497.55"/><path class="cls-1" d="M251.89,450a29.94,29.94,0,0,0-26.46,14.94V452.27h-29V565.52h29V524.63c4.22,8.44,13.47,14.45,26.29,14.45,20,0,36-14.6,36-43.81V494C287.73,464.94,271.67,450,251.89,450Zm6.32,45.27c0,14-5.84,21.57-16.72,21.57-10.54,0-16.87-7.3-16.87-21.74v-1.29c0-14.27,6.33-21.9,16.87-21.9,10.23,0,16.72,7.14,16.72,22.06Z"/><path class="cls-1" d="M342.08,450c-25.64,0-45.92,17.21-45.92,44.45v1.31c0,27.74,19.47,43.32,46.08,43.32,25.63,0,40.39-10.88,43-30H358c-1.13,5.68-5.19,10.06-14.76,10.06-10.38,0-16.87-6.47-17.68-17.67h59.7v-7.63C385.23,463.31,365.27,450,342.08,450Zm-16.23,35c1.47-10.22,7.47-15.89,16.23-15.89,9.41,0,14.44,5.67,14.92,15.89Z"/><path class="cls-1" d="M413.13,506.14a16.38,16.38,0,1,0,0,32.76c9.74,0,17-7.3,17-16.38S422.87,506.14,413.13,506.14Z"/><path class="cls-1" d="M478,507.12V472.06h16.72V452.28H478V434.6H449v17.68H438.77v19.78H449v37.82c0,19.94,10.7,29.2,29.84,29.2a60.58,60.58,0,0,0,16.07-2.45v-22a22.22,22.22,0,0,1-8.28,1.46C481.1,516,478,513.28,478,507.12Z"/><path class="cls-1" d="M550.22,450c-26.28,0-46.57,17.21-46.57,44.45v1.31c0,27.41,20.29,43.32,46.41,43.32s46.4-16.56,46.4-44.14v-1.29C596.46,466.72,576.34,450,550.22,450Zm16.71,45.27c0,14.12-5.84,22.22-16.71,22.22-11.2,0-16.87-7.95-16.87-22.55v-1.29c0-14.29,6-21.9,16.87-21.9,11,0,16.71,7.95,16.71,22.22Z"/><path class="cls-1" d="M667,464.27c-4.87-8.59-12.82-14.26-26.12-14.26-20.12,0-36,15.4-36,44.29v1.29c0,29.38,16.06,43.49,35.69,43.49,12.82,0,22.23-7,26.45-15.74v13.78h29V415H667v49.3Zm.81,30.83c0,14.44-6.49,21.74-17,21.74-10.06,0-16.38-7.3-16.38-21.57V494c0-14.75,5.84-22,16.7-22s16.72,7.63,16.72,21.9v1.29Z"/><path class="cls-1" d="M752.19,450c-23.19,0-39.26,10.06-40.56,30.5h27.26c.65-5.35,3.57-10.06,11.52-10.06,9.25,0,11.19,5.36,11.19,13.46v2h-8.11c-28.23,0-45.1,7.79-45.1,27.74,0,18,13.46,25.48,28.72,25.48,13.62,0,21.09-5.68,25.14-11.84v9.88h28.23v-55C790.48,459.58,775.56,450,752.19,450Zm9.41,57.43c0,7.3-6.16,12-14.44,12-6.81,0-10-3.09-10-8,0-7,5.19-9.26,16.87-9.26h7.62Z"/><polygon class="cls-1" points="845.47 497.55 827.96 452.27 796.48 452.27 830.38 528.53 816.27 565.52 844.02 565.52 889.44 452.27 861.7 452.27 845.47 497.55"/></g></g></svg>