<svg xmlns="http://www.w3.org/2000/svg" viewBox="0 0 850 569.28"><defs><style>.cls-1{fill:#f5fff5;}</style></defs><title>type-supply</title><g id="Layer_2" data-name="Layer 2"><g id="Layer_1-2" data-name="Layer 1"><path class="cls-1" d="M427.42,357.93c0,19.27-7.42,28.29-19.42,28.29a28.16,28.16,0,0,1-17.47-6.53V338c6-5.94,11.94-8.48,18.24-8.48C421,329.48,427.42,340.4,427.42,357.93Zm69.92-158.22c0-17.53-6.39-28.46-18.66-28.46-6.3,0-12.25,2.55-18.23,8.49v41.73A28.16,28.16,0,0,0,477.91,228C489.92,228,497.34,219,497.34,199.71Zm16.41,129.77c-6.3,0-12.25,2.54-18.23,8.48v41.73A28.16,28.16,0,0,0,513,386.22c12,0,19.43-9,19.43-28.29C532.41,340.4,526,329.48,513.75,329.48ZM850,284.64c0,165.13-126.48,284.64-425.32,284.64S0,449.77,0,284.64,125.86,0,424.68,0,850,119.52,850,284.64ZM535.42,199.85c0,29.78,19.5,48.36,51.39,48.36,11.33,0,26.68-3.85,37.06-9.52l-5-20.73c-13,7-21.71,9.42-30.65,9.42-13.82,0-22.77-6.48-25-20.25H626v-7.28c0-28.11-16.66-48.36-44.53-48.36C555.19,151.49,535.42,171.88,535.42,199.85ZM242.67,141.59h35.91V246.4h29.35V141.59h35.92V117H242.67Zm7.16,224.47c0-19.83-7.52-30.69-35.47-38.2l-12.92-3.46c-9.19-2.69-13-7.06-13-14,0-7.27,6.2-12.71,16.93-12.71,9.73,0,20,2.78,34.95,10.22l6.74-24.83c-14.19-6.59-29.62-9.63-40.72-9.63-27.09,0-45.28,16.29-45.28,39.08,0,17.91,8.89,29.84,31.52,36.52l14.83,4.28c10.53,3.09,13.81,7.8,13.81,14.15,0,8.63-6.52,13.9-19.13,13.9-9.43,0-22.79-3.6-38.38-11.9l-6.66,25.2a108.25,108.25,0,0,0,48,11.78C232.93,406.44,249.83,388.57,249.83,366.06Zm96.49-54.54H318.85v63.22c-5.17,5.93-12.6,10.55-18.55,10.55-7.67,0-11.55-4.33-11.55-14.76v-59H261.28V370c0,23.85,9.65,36.47,29.26,36.47,11.9,0,22.8-6.61,30.12-16.43v14.6h25.66v-93.1ZM351,282.87c19.92,0,29.51-5.46,35.89-25.05l36-104.52H396.33l-18.79,62.88L358.79,153.3H329.51L363,249.93l-1.43,4.15c-2.32,5.89-4.94,7.48-11.8,7.48H339.46v21.31Zm104.71,75.2c0-29.77-17.28-48.36-38.46-48.36-11.73,0-21.65,4.61-29.4,14V311.52H363.06V440.9h27.47V396.77a36.77,36.77,0,0,0,24.15,9.67C438.06,406.44,455.67,388.44,455.67,358.07Zm4.78-119.52a36.74,36.74,0,0,0,24.15,9.66c23.38,0,41-18,41-48.36,0-29.77-17.28-48.37-38.46-48.37-11.73,0-21.64,4.61-29.4,14V153.3H433V282.68h27.47V238.55Zm100.2,119.52c0-29.77-17.27-48.36-38.45-48.36-11.73,0-21.65,4.61-29.4,14V311.52H468.05V440.9h27.47V396.77a36.75,36.75,0,0,0,24.15,9.67C543.05,406.44,560.65,388.44,560.65,358.07Zm39.22-82.83H572.34V404.62h27.53Zm103.18,36.28H676.49L657.7,374.4,639,311.52H609.67l33.46,96.63-1.43,4.15c-2.32,5.89-4.94,7.48-11.8,7.48H619.63v21.31h11.49c19.92,0,29.51-5.46,35.89-25ZM581.76,171.17c-8.67,0-15.65,6.47-18.14,18.45H599C598.35,177.57,591.85,171.17,581.76,171.17Z"/></g></g></svg>