<svg xmlns="http://www.w3.org/2000/svg" viewBox="0 0 960 408.77"><defs><style>.cls-1,.cls-2{fill:none;stroke:#f5fff5;stroke-miterlimit:10;}.cls-1{stroke-width:18.72px;}.cls-2{stroke-width:4.68px;}.cls-3{fill:#f5fff5;}</style></defs><title>typetogether</title><g id="Layer_2" data-name="Layer 2"><g id="Layer_1-2" data-name="Layer 1"><line class="cls-1" y1="9.36" x2="960" y2="9.36"/><line class="cls-2" y1="279.67" x2="960" y2="279.67"/><line class="cls-2" y1="406.43" x2="960" y2="406.43"/><path class="cls-3" d="M744.8,185.48H710.7V68.15h34.1V102.6c3.54-3.38,9.45-7.1,19.42-7.1,14.85,0,24.64,10,24.64,30.89v59.1h-34.1V128.93c0-4.73-1-7.43-4.73-7.43-3.54,0-5.23,2.37-5.23,6.42v57.56ZM468,139.9c0,31.23-19.41,48.29-43.55,48.29-25,0-40.68-14.52-40.68-45.25,0-35.62,24-47.44,43-47.44C440.77,95.5,468,99.72,468,139.9Zm-35.11,2.36c0-16-1.69-22.61-7.26-22.61-4.9,0-6.93,7.25-6.93,19.58,0,13.67.69,24.47,7.1,24.47C431,163.7,432.84,158.14,432.84,142.26Zm-195.65-.84c0,30.39-15,46.77-39.17,46.77a50.85,50.85,0,0,1-9.12-1v33.76H154.8V102.43c14.52-5.24,31.57-6.93,40.35-6.93C222.5,95.5,237.19,111,237.19,141.42Zm-34.44,1.18c0-14-.68-22.45-8.45-22.45a16.33,16.33,0,0,0-5.4.84v42.89a14.26,14.26,0,0,0,4.73,1C202.58,164.89,202.75,154.25,202.75,142.6ZM101.29,230.39c-20.09,0-30.72-9.29-30.72-24.14,0-10.64,4.39-19.76,15.87-28.53-14.69-3.21-20.09-12.16-20.09-26.67V98.21h34.1v52.16c0,5.74.51,8.78,4.73,8.78,3.71,0,5.4-2.87,5.4-8.28V98.21h34.27v62.28c0,3.55,0,18.91-.17,23.64C143.32,214,129,230.39,101.29,230.39Zm10.13-51.49C107,182.28,99.77,190,99.77,199.67c0,4.72,2,6.58,5.57,6.58,4.56,0,6.08-3.05,6.08-10.46Zm763-.33c.34-.17-13.51,9.62-34.44,9.62-30.89,0-42.87-17.91-42.87-43.56,0-24.48,14.85-49.13,45.07-49.13,18.4,0,31.39,8.78,31.39,28.54,0,23.12-24.3,29.2-41.69,30.89,1.35,5.06,6.08,8.28,13.34,8.28,6.92,0,14.35-2.88,20.59-6.93Zm-44.23-43.73c9.12-.85,14.35-6.25,14.35-11.14a4.21,4.21,0,0,0-4.39-4.56C835.46,119.14,830.73,123.7,830.22,134.84ZM377.81,160.33l7.08,21.61c-5.4,3.37-15.53,6.25-26,6.25-16.72,0-25.83-5.24-30.39-16.89-8.94,9.79-22.28,16.89-40.18,16.89-32.24,0-44.56-18.24-44.56-43.56,0-24.48,14.85-49.13,45.07-49.13,18.4,0,31.4,8.78,31.4,28.54,0,23.12-24.31,29.2-41.7,30.89,1.52,4.72,6.25,8.44,16,8.44,12.66,0,31.91-7.59,31.91-37.81V68.16h34.26V98.21h20.1v26.34h-20.1v27c0,8.43,4.39,11.14,9.29,11.14A16.53,16.53,0,0,0,377.81,160.33ZM276.86,134.84c9.11-.85,14.35-6.25,14.35-11.14a4.21,4.21,0,0,0-4.39-4.56C282.09,119.14,277.36,123.7,276.86,134.84ZM928.47,95.5c-5.91,0-14.35,2.87-19.24,14.36l-2.71-11.65H879.35l2.53,18.23v69H916V133.15c0-6.59,3.37-9,9.95-9a30.1,30.1,0,0,1,12.33,3l4.22-28.53C938.43,96.35,932.86,95.5,928.47,95.5ZM64.83,181.77l-6.92-21.44a24.8,24.8,0,0,1-10,2.36c-6.76,0-8.61-2.7-8.61-11.13v-27H58.75V98.21H39.34V68.15H5.07v85.09c0,16.71,1.86,34.94,32.41,34.94A61,61,0,0,0,64.83,181.77Zm567.88-25.49,8.61,22.29c.33-.17-13.5,9.62-34.44,9.62C576,188.19,564,170.28,564,144.63c0-24.48,14.86-49.13,45.07-49.13,18.41,0,31.41,8.78,31.41,28.54,0,23.12-24.32,29.2-41.7,30.89,1.35,5.06,6.07,8.28,13.34,8.28C619,163.21,626.46,160.33,632.71,156.28Zm-35.62-21.44c9.12-.85,14.36-6.25,14.36-11.14a4.21,4.21,0,0,0-4.4-4.56C602.32,119.14,597.59,123.7,597.09,134.84ZM691,162.69c-4.89,0-9.28-2.7-9.28-11.13v-27h20.09V98.21H681.67V68.15H647.39v85.09c0,16.71,1.87,34.94,32.42,34.94,10.47,0,20.6-2.87,26-6.24l-7.09-21.61A16.36,16.36,0,0,1,691,162.69ZM514.21,230.21c-21.28,0-31.91-9.61-31.91-24.13,0-11.48,5.4-21.44,16.71-30.23-13.33-2.35-24.81-15.36-24.81-35.44,0-29.21,19.08-44.91,46.25-44.91,10.63,0,26,2.2,36,6.42v67.35c0,3.21-.17,14.7-.51,18.23C554,214.18,540.71,230.21,514.21,230.21Zm-5.91-89.8c0,9.79.84,19.24,7.93,19.24,3.21,0,6.25-2.36,6.25-8.26V119.48C510.82,117.79,508.3,129.77,508.3,140.41Zm8.77,65.84c4.73,0,6.08-3.05,6.08-11.82V178.9c-4.39,3.38-11.64,11.14-11.64,20.77C511.51,204.39,513.53,206.25,517.07,206.25ZM60.14,339H32.85V315.82H25.77v53.91h7.08V345.25H60.14v24.48h7.08V315.82H60.14V339Zm30.1,30.77h7.08V315.82H90.24Zm64-6.06a49.42,49.42,0,0,1-9.32,1.12c-15.95,0-20.67-11-20.67-22.8,0-14.49,8-21.23,19.32-21.23A25.13,25.13,0,0,1,158,325.14l3.26-5.61c-3.26-2.7-10.45-5.17-17-5.17-17.86,0-27.63,11.9-27.63,28.3,0,15.73,8,28.42,27.63,28.42,6.3,0,13.26-1.57,17.19-3.82V344.57h-7.19v19.1ZM215.81,339H188.52V315.82h-7.08v53.91h7.08V345.25h27.29v24.48h7.08V315.82h-7.08Zm96.48,27.63a30.67,30.67,0,0,0,10,6.51l-2.81,4.72a36.51,36.51,0,0,1-12.81-8.31,32.93,32.93,0,0,1-10.44,1.57c-17.75,0-25.5-12.47-25.5-29s9.32-27.74,26.28-27.74c15.28,0,25.16,10.78,25.16,27.29C322.17,353.34,318.92,361.76,312.29,366.59Zm-4.72-5.06c4.83-3.7,7.19-10.22,7.19-18.3,0-13.71-5.5-22.47-18.31-22.47-11.9,0-18.42,8.2-18.42,20.78,0,9.55,2.92,23.36,18.65,23.36a24.87,24.87,0,0,0,5.16-.56,50.63,50.63,0,0,1-6.4-9.88l5.73-2.92A48.13,48.13,0,0,0,307.57,361.53ZM376,347c0,9.33-1.57,17.41-13.93,17.41-13.14,0-14.15-8.42-14.15-19.65v-29h-7v32.57c0,13.59,3.7,22.69,20.44,22.69,18.76,0,21.45-12,21.45-23.58V315.82H376V347Zm47.4-31.22,19.77,53.91H435.5l-5.73-16.06H409.22l-5.84,16.06h-7l19.66-53.91Zm4.38,32-7.86-24h-.34l-8.43,24Zm37.85-32h-7.08v53.91H490.2v-6H465.6Zm41.56,53.91h7.07V315.82h-7.07ZM530.41,322h18.08v47.74h7.19V322H574v-6.17H530.41Zm73,20.45h-.34L589.7,315.82h-7.63l17.52,33.7v20.21h6.85V349.29l18.31-33.47h-7.08Zm65.14,27.29h7.07V345.81h19.66v-6.29H675.62V322h23.93v-6.17h-31Zm93.79-28.08c0,18.76-8.65,29.43-26,29.43-17.74,0-25.49-12.46-25.49-29s9.32-27.74,26.28-27.74C752.46,314.36,762.34,325.14,762.34,341.65Zm-7.42,1.58c0-13.71-5.5-22.47-18.3-22.47-11.91,0-18.42,8.2-18.42,20.78,0,9.55,2.91,23.36,18.64,23.36C749,364.9,754.92,356,754.92,343.23Zm63.58,15.95h-.57l-25.49-43.36H781.32v53.91h6.62v-47.4h.57l28.41,47.4H825V315.82H818.5v43.36ZM840.84,322h18.09v47.74h7.19V322h18.3v-6.17H840.84Zm74.69,16.52c-7.52-2.92-11.45-4.94-11.45-10.22,0-4.16,3.37-7.75,10.11-7.75a22.69,22.69,0,0,1,12,3.36l2.92-5.16c-3.82-2.81-9.44-4.38-14.94-4.38-9.1,0-17.41,4.6-17.41,14.94,0,9.43,6.73,12.58,14.49,15.27,7.07,2.47,11.9,4,11.9,10.67,0,6.07-4.26,9.66-11.79,9.66a27.59,27.59,0,0,1-14.6-4.71l-2.92,5.61c3.14,2.36,10.33,5.28,18,5.28,11.12,0,18.64-5.95,18.64-17C930.47,344,921.94,341,915.53,338.51Z"/></g></g></svg>