<svg xmlns="http://www.w3.org/2000/svg" viewBox="0 0 960 269.15"><defs><style>.cls-1{fill:#f5fff5;}</style></defs><title>typejockeys</title><g id="Layer_2" data-name="Layer 2"><g id="Layer_1-2" data-name="Layer 1"><path class="cls-1" d="M765.61,94.85c2.65,0,5,1.8,5,8.29-.05,10.33-14.05,35.92-25,35.86a7.2,7.2,0,0,1-5.89-3c8.69-25,23.23-41.18,25.89-41.17M387.05,93.16c2.95,0,3.82,3.27,3.8,7.4-.07,13-15.83,37.09-25.28,37-3.24,0-6.18-2.39-6.76-4.46,9.56-21.78,23.52-40,28.24-40M501.71,115.6c-4.11-2.09-10.9-2.12-18.29-.39v-1.77c.05-9.15,4.23-18.28,11-18.24,7.37,0,11.77,5.67,11.68,21.9,0,7.67-1.56,15.92-3.67,24.17-8.85-.34-15-5.68-17.62-15.14a45.67,45.67,0,0,1,16.27-7.29Zm-60.9-89.72c-.67,16.52-6.38,36-6.38,36l6.76,5c8.87-4.08,27.83-17.56,27.87-26.11.06-10.92-15-14.84-28.25-14.9m59.25,123.64c-6.3,19.15-16.71,35.62-25.85,35.57-7.38,0-10.59-6.25-10.55-15.4.06-10.33,3.37-23.59,11.4-34.17,5.85,8,15,13.65,25,14M690.82,8.6c5.31,0,9.41,5.06,9.37,14.21-.09,16.23-12.6,39.47-39.76,41.1C672.14,26.5,682.85,8.55,690.82,8.6M136,249.71c-5.9,0-14.45-1.26-14.41-9.52.06-11.51,27.29-26.12,55-30.4-12,29.15-23.81,40-40.63,39.92m665.63,5.84c-8.56,0-12.37-5.37-12.32-13.34.06-11.51,15.77-25.88,48-45.78-12.32,43.9-21.25,59.2-35.71,59.12m-533.94-80.1c-4.13,0-5.29-2.68-5.59-3.27l-1.77.28c-.89,1.18-1.79,3.53-1.81,7.07,0,6.79,4.95,13.31,14.39,13.35,31,.17,52.26-62,52.37-83.22.05-9.74-2.22-26.86-19.33-26.95-9.45,0-21,8.44-48.73,65l-2.66-.61c3.61-12.66,9-28.57,13.51-43.59,5.41-18.56-3.71-23.33-17-23.4C234.53,144.3,219.81,195.56,209.19,251l24.42,13.71c2.77-22.41,6.13-44.23,11-67.22,34.62-74.17,49.5-98,55.4-98,1.18,0,1.47.9,1.46,2.67-.1,18.58-20.15,73.36-33.73,73.29M52.15,39.48c-23.61-.12-34.9,14.86-35,31.09C17,94.47,30.82,112,51.42,120.62c7.11-3.51,17.15-6.11,24.82-6.07a18.08,18.08,0,0,1,3.19,10c0,8-5.37,11.77-13.63,11.73a68.68,68.68,0,0,1-16.22-2.44,35.72,35.72,0,0,0-13.72,28.54c-.09,17.41,9.92,22.48,18.47,22.52,29.8.16,45.09-45.79,59.73-136-23.87-5.14-46-9.39-61.91-9.47M158.74,80.17c-6.63,28.29-24.25,66.85-24.38,92.52-.07,13.27,5.19,22.45,14.34,22.5,15.05.07,24.31-21.42,48.43-64.37l2.36,1.2c-6.94,28.87-13.26,51.26-19.24,68.35-42.81,3.32-72.41,22.63-72.5,39.15-.09,16.82,16.39,25.17,34.09,25.26,48.39.26,57.83-55.16,88.82-168.6,3.3-12.37-7.6-14.79-16.45-14.84l-54.78,93.84-2.06-.9c12.31-41.54,21.92-73.06,22-81.91,0-9.44-9.67-11.85-20.59-12.2M384.29,169a159.27,159.27,0,0,0-19,18.49,17.32,17.32,0,0,1-4.14.57c-8,0-12.07-4.49-12-16.29.05-10.33,2.77-21.53,7-32.43,2.61,7.4,9.08,12.45,18.52,12.5,15.93.08,32.27-20.49,32.39-43.21.07-14.16-7.54-25.41-29.38-25.53-28-.14-54.25,49.29-54.43,83.22-.11,21.83,13.72,29.58,33.48,29.68.59,0,1.48-.29,2.07-.28-8.32,12.05-14.29,25.59-14.37,39.75-.11,20.66,14.61,26.64,24.94,26.69,18.59.1,46.09-11.56,70.57-122.67l7.86-35.07c3.63-16.8-5.2-20.39-20-20.47l-11.47,48.93c-22,94-38.68,117.82-50.48,117.76-3.54,0-6.47-3-6.42-13,.07-13.28,6.07-32.72,16.76-45.06,10.93-3.19,21-9,21-15.82,0-6.2-7.63-7.71-12.95-7.74M209.58,63.32c-21.54-.11-46.89-4.38-71.65-9.52C120.49,172,94.7,195.49,56.64,195.29c-21-.1-37.41-12-37.3-32.35.09-17.12,9-27.1,17.88-33.84v-.59C22.49,124-.15,109.43,0,80.22.14,53.08,20.94,26,66.08,26.28c34.52.18,83.16,10.46,119.74,10.65,31.28.17,58.47-9.13,71-28.54,1.17,1.19,6.16,6.82,6.1,17.14-.12,23.91-23.8,37.94-53.31,37.79m324.07,94.93c-.14,26.85,16.33,37.27,32,37.35,20.06.1,38.77-22.52,52.49-50.48l1.47.6c-2.42,12.68-5.15,26.23-7.59,41l20.89,10.74C643.16,150.57,669.7,97.89,682.09,98c2.06,0,3.83,1.2,3.8,6.81-.06,11.51-13.15,30.62-25.85,33.8C659,177.5,662.7,194.93,678,195c9.44.05,19.83-11.7,29.35-27.29.78,20.36,15.19,29.88,29.94,30,16.23.08,34-11.63,50.62-30.72a35.2,35.2,0,0,0-.32,5.61c-.08,13.27,5.19,22.45,14.34,22.5,15,.08,25.78-22,49.91-64.95l2.35,1.19c-5.13,21.22-9.35,38.9-13.56,53.93-54.45,29.81-67.78,40.95-67.87,57.47-.1,18.59,19.63,26.37,34.09,26.44,29.21.15,40-29,54.43-82.63L880,175.41c2.57,16,15.81,22.51,29.09,22.58,23,.12,39.92-16.61,40-38.74.13-23.9-29.05-30-28.94-51.49.06-10.92,8-14.42,13.06-14.39,5.31,0,7.36,2.69,7.35,5.64,0,3.84-2.7,6.48-2.72,12.08-.05,9.45,6.71,13.91,14.66,16.9,2.4-7.36,7.45-14.42,7.5-22.68,0-10.92-9-20.11-27.63-20.21-17.12-.09-33.7,10.74-33.8,30.8-.13,24.2,26.7,28.47,26.58,51.78-.07,12.69-8.07,20.32-16,20.28-8.26-.05-13.25-5.38-13.21-13.35a12.94,12.94,0,0,1,1.81-7.07c6.8-3.21,9.48-7.33,9.51-12.94a16.24,16.24,0,0,0-3.79-9.75c-12.68-.07-22.77,9.91-24,22l-15.09,7.89c5.71-20.92,11.74-45.38,19.85-73.07,3.61-12.38-7.59-14.8-16.44-14.84l-54.76,90-2.06-.9C823.23,134.69,834,106.71,834,97.86c.05-9.44-9.67-11.85-20.59-12.2-4.82,20-15.56,41.82-21.56,62.14-19,25.87-38.56,37.28-50.06,37.22-5.31,0-8.24-5.07-8.19-13.62a104.86,104.86,0,0,1,4.28-29.49c2.33,5.62,7.91,10.08,16.17,10.12,15.64.08,32.56-18.71,32.68-42.32.07-13.27-7.83-24.53-29.67-24.64-21-.11-40.29,31.65-47.23,60.53-8.94,16.48-17.27,28.83-21.39,28.81-6.2,0-7.56-22.76-8.06-39.29,7.1-2.91,28.11-14.6,28.2-32.9C708.69,89,699,83.88,690.13,83.83c-19.18-.1-34,23.43-44.82,51.11l-2.07-.31c4.85-23.87,9.68-44.5,14.49-61.3C696.68,71.47,716,48,716.08,29.38,716.19,9,700.89.09,684.07,0c-15.34-.08-29.58,14-44.58,62.62-37.15-6.1-68.89-29.87-80-57.66-8,2-13.91,9.07-14,18.81-.17,32.45,47.85,46.28,90.91,49.16-1.8,5.89-3.6,12.37-5.11,19.44C611,151.28,582.21,183,569.81,182.93c-10.32-.05-11.46-9.21-11.41-18.06.17-31.86,20.13-68.64,37.24-68.55a2,2,0,0,1,2.06,2.08c0,5-16.33,19.38-19.94,32.35-2.71,9.43,3.17,15.06,13.47,18.95,12.23-23.54,20.57-40.31,20.61-47.69s-9-19.82-25-19.9c-8.26,0-28.1,13.13-41.2,34.6-6.53,7.05-12.16,12.92-17.79,16.73a102.13,102.13,0,0,0,1-13.28c.12-23.3-13.09-37.54-31.38-37.63S469.05,98,469,116.31a28.18,28.18,0,0,0,.27,5c-13.32,7.9-25.2,22.58-25.32,45.3-.13,25.08,18.43,31.08,33.48,31.16,26.25.14,42.62-25.74,48.66-53.44A43.17,43.17,0,0,0,536.72,137a82,82,0,0,0-3.07,21.23"/></g></g></svg>