<svg xmlns="http://www.w3.org/2000/svg" viewBox="0 0 636.8 663.2"><defs><style>.cls-1{fill:#f5fff5;}</style></defs><title>village</title><g id="Layer_2" data-name="Layer 2"><g id="Calque_1" data-name="Calque 1"><path class="cls-1" d="M285,482.6,129.1,87.9C108,34.8,86.2,17.1,61,7.6V.1H319.6V7.6c-44.8,10.8-57,25.1-19.6,123.1l77.6,202.1,64.7-164.7c38.1-96.6,13.6-149-47.6-160.6V0h181V7.5c-46.3,10.9-70.8,52.4-106.2,142.2L338.8,482.6ZM0,537.9H30.7l24.6,77.3,23.9-77.3h30.3l-39,123.7H40Zm148.1,0V661.6H118.3V537.9Zm12.2,0H190v95.4h40.3v28.3h-70Zm81.3,0h29.7v95.4h40.3v28.3h-70Zm120,0h28.5l42.4,123.7h-30l-5.9-18.1H355l-5.9,18.1H319.3Zm2.4,78.7h23.7l-11.9-36.1Zm64.2-16.8c0-35.9,26.4-63.6,63.7-63.6,25.9,0,45.6,12.9,56.3,30.8l-26.1,14.4c-5.8-11-16.3-17.3-30-17.3-19.2,0-34.4,15.2-34.4,35.6,0,21,14.4,35.4,34.9,35.4,14.2,0,24.2-7.1,28.5-19.3H486.7V588.3h66.4v14.1c0,32.7-24.2,60.8-60,60.8C452.8,663.3,428.2,634,428.2,599.8Zm135.2-61.9h73.4v27.5H592.9v20.3h43.9v27.5H592.9v21h43.9v27.5H563.4Z"/></g></g></svg>