<svg xmlns="http://www.w3.org/2000/svg" viewBox="0 0 960 918.7"><defs><style>.cls-1{fill:#f5fff5;}</style></defs><title>works-that-work</title><g id="Layer_2" data-name="Layer 2"><g id="Layer_1-2" data-name="Layer 1"><path class="cls-1" d="M554.5,405h0c-4.4,0-8.5-2.6-9.8-6.4l-74-153.7c-2.6-5.4-.5-12.4,5.4-14.7,5.4-2.6,12.4-.5,14.7,5.4L555,368.9l82.5-160.4a11.29,11.29,0,0,1,20.1,10.3L564.3,398.5A10.75,10.75,0,0,1,554.5,405Z"/><path class="cls-1" d="M400.8,405h0c-4.4,0-8.5-2.6-9.8-6.4L303.6,218.4c-2.6-5.4-.5-12.4,5.4-14.7,5.4-2.6,12.4-.5,14.7,5.4l77.6,160.4,37.1-71.7a11.29,11.29,0,0,1,20.1,10.3l-46.9,91.5C408.8,402.7,404.9,405,400.8,405Z"/><path class="cls-1" d="M564.3,194.6H395.9a11.3,11.3,0,1,1,0-22.6H564.3a11.3,11.3,0,1,1,0,22.6Z"/><path class="cls-1" d="M715.9,421a10.75,10.75,0,0,1-5.4-1.5,11.06,11.06,0,0,1-4.4-15.2c42-76.6,42-171.5,0-247.8-2.8-5.4-1-12.4,4.4-15.2s12.4-1,15.2,4.4c45.9,83,45.9,186.2,0,269.7C723.4,418.4,719.8,421,715.9,421Z"/><path class="cls-1" d="M350.5,55.9a10.87,10.87,0,0,1-9.8-5.9c-2.8-5.4-1-12.4,4.4-15.2a278.94,278.94,0,0,1,267.1-1.5,11.19,11.19,0,0,1-10.8,19.6,254.92,254.92,0,0,0-245.5,1.5A9.51,9.51,0,0,1,350.5,55.9Z"/><path class="cls-1" d="M244.3,421a10.87,10.87,0,0,1-9.8-5.9c-45.9-83-45.9-186.7,0-269.7a11.19,11.19,0,0,1,19.6,10.8c-42,76.6-42,171.5,0,247.8,2.8,5.4,1,12.4-4.4,15.2A7.85,7.85,0,0,1,244.3,421Z"/><path class="cls-1" d="M480,560.2c-46.4,0-93.3-11.3-134.8-34A11.19,11.19,0,1,1,356,506.6a259.31,259.31,0,0,0,249.8-1c5.4-2.8,12.4-1,15.2,4.4s1,12.4-4.4,15.2A282.79,282.79,0,0,1,480,560.2Z"/><path class="cls-1" d="M72.9,665.6l3,67.8,29.5-52a12.43,12.43,0,0,0,2.1-6.1c0-3-3-4.3-9.5-4.7l1.3-5.3h29.8l-1.3,4.7c-5.7.7-10.3,3.8-13.7,9.6L70.5,755.5H66.2l-5-72.2-43,72.2H13.9L9.2,677.7c-.3-3.4-1.6-5-3.7-5.8A25.58,25.58,0,0,0,0,670.3L1.3,665H35.8l-1.3,5.3c-10.4.6-12.7,1.6-12.7,7.7v2.1l1.6,52.8,39.9-67.8h9.5v.5Z"/><path class="cls-1" d="M132.2,755.9c-13.2,0-19.4-9-19.4-22.1,0-20.2,14.4-42.7,35.9-42.7,12.7,0,19.9,8.3,19.9,21.8C168.5,731.5,153.7,755.9,132.2,755.9Zm23.9-44.6c0-7.7-2.1-14.1-9.8-14.1-13.8,0-21.2,20.5-21.2,36.9,0,8.3,1.8,15.4,9.1,15.4C147.2,749.5,156.1,727.4,156.1,711.3Z"/><path class="cls-1" d="M190,698.8c-2.1,0-5.8,1.6-9.1,3.7v-4.7c8-5.3,13.5-7.1,17.2-7.1s5.3,2.1,5.3,5a24.54,24.54,0,0,1-.6,4.3l-4,14.4h.3c12.3-19.7,17.2-23.6,23.9-23.6,3.7,0,6.1,1.3,6.1,5.3,0,3.4-2.1,6.7-7.4,6.7-10.4.6-14.1,5.3-25.2,22.5l-7.4,28.5H178.6l12.7-51C192.1,699.9,191.4,698.8,190,698.8Z"/><path class="cls-1" d="M226.5,753.7l21.2-84.5c.6-3,0-4.3-1.8-4.3-2.1,0-5.8,1.8-9,3.7v-4.7c6.7-5,12.7-7.1,16.8-7.1,5.3,0,6.4,3.4,5.3,8.3l-12.8,51.6h.3c11.1-19.1,19.1-26.1,27.1-26.1,5.5,0,10.4,2.7,10.4,10.4,0,8.3-5.8,15.4-18.8,24.5l15.1,25.8L279,755h-9l-14.8-26.6v-1.3C266.9,717.3,272,709,272,704c0-2.4-1.3-3.7-3.7-3.7-5,0-14.1,10.4-25.2,29.8L237,753.2H226.3v.5Z"/><path class="cls-1" d="M288,747.9a5.1,5.1,0,0,1,5.5-5.5c5,0,7.4,5.8,15.7,5.8,3,0,6.1-1.3,6.1-5.8,0-4-2.1-7.1-4.3-10.1l-9-12.7a19.45,19.45,0,0,1-3.4-10.1c0-9.1,11.1-18.8,23.6-18.8,7.7,0,13.5,3,13.5,8,0,3-2.1,5.3-5.8,5.3-4.7,0-7.7-5.8-15.1-5.8-5,0-7.1,3-7.1,7.1a11,11,0,0,0,2.4,6.7l9.1,12.8c1.3,1.8,5.5,6.7,5.5,12.3,0,7.4-8,18.1-23.1,18.1C294.4,755.3,288,753.2,288,747.9Z"/><path class="cls-1" d="M425.3,672l-17.2,69.5c-1,3.7-.6,5.8,1.8,6.4,1.6.6,3.7.3,7.4.6l-1.6,5.3H381.9l1.6-5.3a58.78,58.78,0,0,0,7.7-.6c2.4-.6,4.3-2.7,5.3-6.4l17.2-69.4h-7.1c-11.1,0-16.4,2.7-22.5,15.1h-4.7l5.3-21.2h72.5l-5.3,21.2h-4.7c-.3-12.3-3.7-15.1-15.1-15.1h-6.8V672Z"/><path class="cls-1" d="M498.1,739.9c-.6,3.4-1,5.3.6,5.3s4.3-1.8,9.5-6.4l1.6,4c-8.3,9.8-14.8,13.5-18.4,13.2-3.4,0-5.3-2.7-5.3-6.4a24.54,24.54,0,0,1,.6-4.3l7.7-30.5a37.76,37.76,0,0,0,1.6-8.7c0-2.4-1.3-3.7-3.7-3.7-5,0-14.4,9.8-25.5,29.2L461,754.1H450.6l20.8-84.5c.6-3,.3-4.3-1.6-4.3-2.1,0-5.8,1.6-9.1,3.7v-4.5c8-5.3,13.5-7.1,17.2-7.1s5.3,2.1,5.3,5a24.54,24.54,0,0,1-.6,4.3l-12.8,51.6h.3c11.4-19.9,19.7-27.3,27.6-27.3,5.5,0,9.1,3,9.1,10.7a30.43,30.43,0,0,1-1.6,9.8Z"/><path class="cls-1" d="M567.2,744.8c1.8,0,6.1-3.4,9.8-6.4l2.1,3.7c-8.3,9.8-15.7,13.5-19.4,13.5-3.4,0-5.3-2.7-5.3-6.4a11.42,11.42,0,0,1,.6-4.3l5-15.7h-.2c-9.1,15.1-18.8,26.1-27.9,26.1-6.7,0-12.7-5.3-12.7-17.2,0-20.2,16.8-47.3,40.9-47.3a25.06,25.06,0,0,1,9.5,2.1l8-2.1h1.8l-12.7,50.7C565.9,743.9,566.2,744.8,567.2,744.8Zm-5.3-27.7,3.7-15.7c-3-2.1-6.7-4-10.4-4-16.8,0-23.9,25.8-23.9,38.7,0,6.1,1.6,9.1,4.7,9.1C542.5,745.8,553.6,730.4,561.9,717.1Z"/><path class="cls-1" d="M594.4,692.6h12.3l3-12.3,10.1-6.7h1.8l-4.7,18.8h17.5l-1.6,6.4H615.3l-8.7,34.5a49.19,49.19,0,0,0-1.3,7.7c0,3.4,1.3,5,4,5,3,0,7.4-1.8,14.1-5.3l2.1,3.7c-7.7,6.7-14.8,10.7-21.5,10.7s-10.4-3.4-10.4-10.1a23.68,23.68,0,0,1,1-6.7l9.8-39.3H592.1Z"/><path class="cls-1" d="M748.9,665.6l3,67.8,29.5-52a12.43,12.43,0,0,0,2.1-6.1c0-3-3-4.3-9.5-4.7l1.3-5.3h29.8l-1.3,4.7c-5.8.6-10.4,3.7-13.8,9.5l-43.9,75.9h-4.3l-5-72.2-42.7,72.2h-4.3l-4.7-77.8c-.3-3.4-1.6-5-3.7-5.8a25.58,25.58,0,0,0-5.5-1.6l1.3-5.3h34.5l-1.3,5.3c-10.4.6-12.7,1.6-12.7,7.7V680l1.6,52.8L739.2,665h9.5v.6Z"/><path class="cls-1" d="M808.2,755.9c-13.2,0-19.4-9-19.4-22.1,0-20.2,14.4-42.7,35.9-42.7,12.7,0,19.9,8.3,19.9,21.8C844.5,731.5,829.7,755.9,808.2,755.9Zm23.9-44.6c0-7.7-2.1-14.1-9.8-14.1-13.8,0-21.2,20.5-21.2,36.9,0,8.3,1.8,15.4,9.1,15.4C823.3,749.5,832.1,727.4,832.1,711.3Z"/><path class="cls-1" d="M866,698.8c-2.1,0-5.8,1.6-9.1,3.7v-4.7c8-5.3,13.5-7.1,17.2-7.1s5.3,2.1,5.3,5a24.54,24.54,0,0,1-.6,4.3l-4,14.4h.3c12.3-19.7,17.2-23.6,23.9-23.6,3.7,0,6.1,1.3,6.1,5.3,0,3.4-2.1,6.7-7.4,6.7-10.4.6-14.1,5.3-25.2,22.5l-7.4,28.5H854.7l12.7-51C868,699.9,867.6,698.8,866,698.8Z"/><path class="cls-1" d="M902.5,753.7l21.2-84.5c.6-3,0-4.3-1.8-4.3-2.1,0-5.8,1.8-9,3.7v-4.7c6.7-5,12.7-7.1,16.8-7.1,5.3,0,6.4,3.4,5.3,8.3l-12.8,51.6h.3c11.1-19.1,19.1-26.1,27.1-26.1,5.5,0,10.4,2.7,10.4,10.4,0,8.3-5.8,15.4-18.8,24.5l15.1,25.8L955,755h-9.1l-14.8-26.8v-1.3c11.7-9.8,16.8-18.1,16.8-23.1,0-2.4-1.3-3.7-3.7-3.7-5,0-14.1,10.4-25.2,29.8L912.9,753H902.5v.5h0Z"/><path class="cls-1" d="M237.5,884.3a21.37,21.37,0,0,0,5.5.6v4.7H213.2v-4.7a28,28,0,0,0,5.5-.6c2.4-.6,3.4-2.7,3.4-6.4v-39c0-4-.6-5.3-4.7-5.3-1.6,0-4.7.3-5.5.3v-4.7c3.7-1.3,11.1-3,15.4-3,5,0,6.4,2.4,6.4,7.7v1.6c6.1-5.5,13.2-9.1,21.5-9.1,7.1,0,12.3,2.7,15.1,9.5,6.4-5.8,13.5-9.5,21.8-9.5,10.4,0,16.5,5.5,16.5,20.8v30.5c0,3.7,1,5.5,3.4,6.4a21.37,21.37,0,0,0,5.5.6v4.7H287.7v-4.7a28,28,0,0,0,5.5-.6c2.4-.6,3.4-2.7,3.4-6.4V850.6c0-9.5-2.4-14.1-12.7-14.1-4.7,0-8.3,1-13.2,2.4a36,36,0,0,1,.6,8.3v30.5c0,3.7,1,5.5,3.4,6.4a21.37,21.37,0,0,0,5.5.6v4.7H250.4v-4.7a28,28,0,0,0,5.5-.6c2.4-.6,3.4-2.7,3.4-6.4V850.6c0-9.5-2.4-14.1-12.7-14.1-5,0-8.3,1-13.8,2.7v38.7C233.9,881.5,235.1,883.3,237.5,884.3Z"/><path class="cls-1" d="M381.1,885.4h2.1v3.7a21.86,21.86,0,0,1-9.8,2.1c-9.5,0-12.7-4-12.7-9.8a23.41,23.41,0,0,1-18.4,9.8c-8.7,0-15.7-5.5-15.7-15.1,0-8.7,5.5-14.4,18.4-17.8l15.7-3.7v-3c0-11.1-3-14.8-13.2-14.8-5.5,0-13.5,1.3-19.4,2.4v-5.8a62,62,0,0,1,25.5-6.1c11.4,0,18.4,5.5,18.4,20.8v29.8C372.4,884,375.5,885.4,381.1,885.4Zm-20.4-7.1V859.9L352,862c-9.5,2.4-13.8,4.7-13.8,10.1s3,9.1,10.4,9.1A20.57,20.57,0,0,0,360.7,878.3Z"/><path class="cls-1" d="M407.1,864.9a9.78,9.78,0,0,0-2.4,5.8c0,2.7,2.1,5,7.1,5h9.8c15.7,0,26.1,4.7,26.1,15.7,0,12.7-13.5,27.3-35.3,27.3-16.4,0-24.5-8.7-24.5-17.8,0-8,6.1-12.3,13.8-15.7-5.3-2.1-6.7-5.8-6.7-9.1,0-4.7,4-8.7,8.3-11.7-7.1-2.7-11.7-8.3-11.7-16.4,0-12,10.4-20.8,24.5-20.8,7.1,0,14.1,2.4,18.8,6.7,5.8-2.7,5.8-9.8,11.4-9.8,3,0,5.5,1.8,5.5,5,0,5.5-9,7.4-14.4,7.7a17,17,0,0,1,3,9.8c0,12.7-12,19.9-23.9,19.9A42.79,42.79,0,0,1,407.1,864.9Zm-1.5,20.8c-5,3.7-6.4,8-6.4,12.3,0,8,5.5,13.5,17.2,13.5,11.1,0,19.9-5.3,19.9-14.8,0-6.4-4-10.4-15.4-10.4H410.8A48.76,48.76,0,0,0,405.6,885.7Zm9.5-53.1c-6.7,0-11.4,5.5-11.4,13.5,0,8.3,5.3,13.5,12.7,13.5,7.1,0,11.4-5,11.4-12.8C427.4,837.6,421.2,832.6,415.1,832.6Z"/><path class="cls-1" d="M512.7,885.4h2.1v3.7a21.86,21.86,0,0,1-9.8,2.1c-9.5,0-12.7-4-12.7-9.8a23.41,23.41,0,0,1-18.4,9.8c-8.7,0-15.7-5.5-15.7-15.1,0-8.7,5.5-14.4,18.4-17.8l15.7-3.7v-3c0-11.1-3-14.8-13.2-14.8-5.5,0-13.5,1.3-19.4,2.4v-5.8a62,62,0,0,1,25.5-6.1c11.4,0,18.4,5.5,18.4,20.8v29.8C503.9,884,507.3,885.4,512.7,885.4Zm-20.5-7.1V859.9l-8.7,2.1c-9.5,2.4-13.8,4.7-13.8,10.1s3,9.1,10.4,9.1A20.57,20.57,0,0,0,492.2,878.3Z"/><path class="cls-1" d="M524.1,828.3h44.3l2.1,3.7L537,883.3h15.7c7.1,0,14.1-5.8,15.7-14.1l3.7.6-2.7,19.9h-46l-1.8-3.4,33.5-51.6H539.7c-9,0-11.1,5.5-13.8,12.7l-4.3-.6Z"/><path class="cls-1" d="M602.4,877.9c0,3.7,1,5.5,3.4,6.4a21.37,21.37,0,0,0,5.5.6v4.7H581.5v-4.7a28,28,0,0,0,5.5-.6c2.4-.6,3.4-2.7,3.4-6.4v-39c0-4-.6-5.3-4.7-5.3-1.6,0-4.7.3-5.5.3v-4.7c3.7-1.3,11.1-3,15.4-3,5,0,6.4,2.4,6.4,7.7v43.9l.4.1Zm-6.1-85.2c4.3,0,8.3,2.7,8.3,8.3s-4,8.3-8.3,8.3-8.3-2.7-8.3-8.3S592,792.7,596.3,792.7Z"/><path class="cls-1" d="M643.9,884.3a21.37,21.37,0,0,0,5.5.6v4.7H619.6v-4.7a28,28,0,0,0,5.5-.6c2.4-.6,3.4-2.7,3.4-6.4v-39c0-4-.6-5.3-4.7-5.3-1.6,0-4.7.3-5.5.3v-4.7c3.7-1.3,11.1-3,15.4-3,5,0,6.4,2.4,6.4,7.7v1.6c6.1-5.5,13.2-9.1,21.5-9.1,10.4,0,16.5,5.5,16.5,20.8v30.5c0,3.7,1,5.5,3.4,6.4a21.37,21.37,0,0,0,5.5.6v4.7H657.1v-4.7a28,28,0,0,0,5.5-.6c2.4-.6,3.4-2.7,3.4-6.4V850.6c0-9.5-2.4-14.1-12.7-14.1-5,0-8.3,1-13.8,2.7v38.7C640.6,881.5,641.5,883.3,643.9,884.3Z"/><path class="cls-1" d="M723.5,891.6c-17.8,0-27.1-12-27.1-29.8,0-21.5,12.8-35,31-35,11.7,0,19.7,7.4,20.8,20.2a41.34,41.34,0,0,1,0,6.1l-2.7,5.5H707.1c.3,14.8,6.7,23.1,20.8,23.1a64.65,64.65,0,0,0,17.5-3l.3,6.1C739.2,889.7,729.9,891.6,723.5,891.6Zm-16.1-39.9h29.2v-2.4c0-9.1-4.7-15.4-13.5-15.4C713.7,833.9,708.7,841,707.4,851.7Z"/></g></g></svg>