<svg xmlns="http://www.w3.org/2000/svg" viewBox="0 0 960 294.24"><defs><style>.cls-1{fill:#f5fff5;}</style></defs><title>xyz-type</title><g id="Layer_2" data-name="Layer 2"><g id="Layer_1-2" data-name="Layer 1"><path class="cls-1" d="M105.93,294.24h-95C4.62,294.24,0,289.62,0,283.73V248c0-5.46,4.62-10.08,10.93-10.08h8.83L90.37,148.8,20.18,56.32H12.61C6.3,56.32,1.68,51.7,1.68,46.24V10.51C1.68,4.62,6.3,0,12.61,0h126.1a10.15,10.15,0,0,1,10.51,10.51V43.72a10.15,10.15,0,0,1-10.51,10.5h-13l34.89,51.29,34.89-51.29H183.27a10.4,10.4,0,0,1-10.51-10.5V10.51A10.4,10.4,0,0,1,183.27,0h94.57c6.31,0,10.93,4.62,10.93,10.51V46.24c0,5.46-4.62,10.09-10.93,10.09H268.6l-68.52,87.43,71.46,94.16h8c6.3,0,10.92,4.62,10.92,10.08v35.73c0,5.89-4.62,10.51-10.92,10.51H153a10.16,10.16,0,0,1-10.51-10.51v-33.2A10.16,10.16,0,0,1,153,240h13l-36.15-53.8L92.47,240h13.46a10.4,10.4,0,0,1,10.5,10.51v33.2A10.4,10.4,0,0,1,105.93,294.24Zm401.4,0H387.11c-6.3,0-10.93-4.2-10.93-10.51V248c0-5.88,4.63-10.08,10.93-10.08h15.13V182L326.16,56.32h-8.4c-6.31,0-10.93-4.62-10.93-10.08V10.51C306.83,4.62,311.45,0,317.76,0H440.49A10.16,10.16,0,0,1,451,10.51V43.72a10.16,10.16,0,0,1-10.52,10.5h-13l36.15,66.84,36.16-66.84H486.31a10.41,10.41,0,0,1-10.51-10.5V10.51A10.41,10.41,0,0,1,486.31,0h89.11c6.31,0,10.93,4.62,10.93,10.51V46.24c0,5.46-4.62,10.09-10.93,10.09h-8L492.2,179.49v58.43h15.13c6.3,0,10.93,4.2,10.93,10.08v35.73C518.26,290,513.63,294.24,507.33,294.24Zm314.4,0H630.9c-18.5,0-28.17-8.41-28.17-28.16V240.85c0-14.71,2.52-22.27,11.77-32.78L747.75,52.54H668.3V87c0,12.19-7.14,19.34-18.49,19.34H623.33c-11.35,0-18.49-7.15-18.49-19.34V21c0-14.72,7.14-21,20.59-21H813.32c18.5,0,28.16,8.41,28.16,28.16V53.38c0,14.72-2.52,22.28-11.76,32.79L696.47,241.7h82.38V204.29c0-12.19,7.57-19.76,18.5-19.76h26.48c11.35,0,18.49,7.57,18.49,19.76v68.93C842.33,287.93,835.18,294.24,821.73,294.24Zm53.36-57.59c0-18.07,8-27.32,29.43-27.32h26.06c21.44,0,29.42,9.25,29.42,27.32v30.27c0,18.07-8,27.32-29.42,27.32H904.52c-21.44,0-29.43-9.25-29.43-27.32Z"/></g></g></svg>