<?xml version="1.0" encoding="utf-8"?>
<!-- Generator: Adobe Illustrator 23.0.3, SVG Export Plug-In . SVG Version: 6.00 Build 0)  -->
<svg version="1.1" id="Layer_1" xmlns="http://www.w3.org/2000/svg" xmlns:xlink="http://www.w3.org/1999/xlink" x="0px" y="0px"
	 viewBox="0 0 50 50" style="enable-background:new 0 0 50 50;" xml:space="preserve">
<style type="text/css">
	.st0{fill:#CC9933;}
</style>
<path class="st0" d="M25,6.3C14.7,6.3,6.3,14.7,6.3,25S14.7,43.8,25,43.8S43.8,35.3,43.8,25S35.3,6.3,25,6.3z M25,9.4
	c8.6,0,15.6,7,15.6,15.6c0,7.9-5.8,14.3-13.3,15.4V29.6h4.4l0.7-4.5h-5.1v-2.5c0-1.9,0.6-3.5,2.4-3.5h2.8v-3.9
	C32,15,31,14.9,29,14.9c-4.1,0-6.6,2.2-6.6,7.2v3h-4.3v4.5h4.3v10.8C15,39.2,9.4,32.8,9.4,25C9.4,16.4,16.4,9.4,25,9.4z"/>
</svg>
