<?xml version="1.0" encoding="utf-8"?>
<!-- Generator: Adobe Illustrator 23.0.3, SVG Export Plug-In . SVG Version: 6.00 Build 0)  -->
<svg version="1.1" id="Layer_1" xmlns="http://www.w3.org/2000/svg" xmlns:xlink="http://www.w3.org/1999/xlink" x="0px" y="0px"
	 viewBox="0 0 50 50" style="enable-background:new 0 0 50 50;" xml:space="preserve">
<style type="text/css">
	.st0{fill:#CC9933;}
</style>
<path class="st0" d="M17.9,7.8c-5.5,0-10.1,4.6-10.1,10.1v14.2c0,5.5,4.6,10.1,10.1,10.1h14.2c5.5,0,10.1-4.6,10.1-10.1V17.9
	c0-5.5-4.6-10.1-10.1-10.1H17.9z M17.9,10.9h14.2c3.9,0,7,3.1,7,7v14.2c0,3.9-3.1,7-7,7H17.9c-3.9,0-7-3.1-7-7V17.9
	C10.9,14.1,14.1,10.9,17.9,10.9z M34.2,14.4c-0.8,0-1.4,0.6-1.4,1.4s0.6,1.4,1.4,1.4s1.4-0.6,1.4-1.4S35,14.4,34.2,14.4z M25,15.6
	c-5.2,0-9.4,4.2-9.4,9.4s4.2,9.4,9.4,9.4s9.4-4.2,9.4-9.4S30.2,15.6,25,15.6z M25,18.8c3.5,0,6.3,2.8,6.3,6.3s-2.8,6.3-6.3,6.3
	s-6.3-2.8-6.3-6.3S21.5,18.8,25,18.8z"/>
</svg>
