<?xml version="1.0" encoding="utf-8"?>
<!-- Generator: Adobe Illustrator 23.0.3, SVG Export Plug-In . SVG Version: 6.00 Build 0)  -->
<svg version="1.1" id="Layer_1" xmlns="http://www.w3.org/2000/svg" xmlns:xlink="http://www.w3.org/1999/xlink" x="0px" y="0px"
	 viewBox="0 0 50 50" style="enable-background:new 0 0 50 50;" xml:space="preserve">
<style type="text/css">
	.st0{fill:#CC9933;}
</style>
<path class="st0" d="M25,9.4c-5.9,0-11.1,0.6-14.3,1.1c-2.6,0.4-4.7,2.4-5.2,5c-0.4,2.2-0.8,5.5-0.8,9.6s0.4,7.3,0.8,9.6
	c0.5,2.6,2.6,4.6,5.2,5c3.2,0.5,8.4,1.1,14.3,1.1s11.1-0.6,14.3-1.1c2.6-0.4,4.7-2.4,5.2-5c0.4-2.2,0.8-5.5,0.8-9.6
	s-0.4-7.3-0.8-9.6c-0.5-2.6-2.6-4.6-5.2-5C36.1,10,30.9,9.4,25,9.4z M25,12.5c5.7,0,10.7,0.6,13.8,1c1.3,0.2,2.3,1.2,2.6,2.5
	c0.4,2.1,0.8,5.1,0.8,9c0,3.9-0.4,6.9-0.8,9c-0.2,1.3-1.3,2.3-2.6,2.5c-3.1,0.4-8.2,1-13.8,1s-10.7-0.6-13.8-1
	c-1.3-0.2-2.3-1.2-2.6-2.5c-0.4-2.1-0.8-5.1-0.8-9c0-3.9,0.4-6.9,0.8-9c0.2-1.3,1.3-2.3,2.6-2.5C14.2,13.1,19.3,12.5,25,12.5z
	 M20.3,16.1v17.9l2.3-1.3l10.9-6.3l2.3-1.4l-2.3-1.4l-10.9-6.3L20.3,16.1z M23.4,21.4l6.2,3.6l-6.2,3.6V21.4z"/>
</svg>
