<svg xmlns="http://www.w3.org/2000/svg" viewBox="0 0 42 42"><defs><style>.cls-1{fill:#cc444b;}</style></defs><title>Asset 1</title><g id="Layer_2" data-name="Layer 2"><g id="Layer_1-2" data-name="Layer 1"><path class="cls-1" d="M37,0H5A5,5,0,0,0,0,5V37a5,5,0,0,0,5,5H37a5,5,0,0,0,5-5V5A5,5,0,0,0,37,0ZM13,16V35H7V16ZM7,10.47C7,9.07,8.2,8,10,8a2.71,2.71,0,0,1,3,2.47c0,1.4-1.12,2.53-3,2.53A2.71,2.71,0,0,1,7,10.47ZM35,35H29V25c0-2-1-4-3.5-4h-.08C23,21,22,23,22,25V35H16V16h6v2.56A7.49,7.49,0,0,1,27.81,16c4,0,7.19,2.73,7.19,8.26Z"/></g></g></svg>