<?xml version="1.0" encoding="utf-8"?>
<!-- Generator: Adobe Illustrator 23.0.6, SVG Export Plug-In . SVG Version: 6.00 Build 0)  -->
<svg version="1.1" id="Layer_1" xmlns="http://www.w3.org/2000/svg" xmlns:xlink="http://www.w3.org/1999/xlink" x="0px" y="0px"
	 viewBox="0 0 800.1 482" style="enable-background:new 0 0 800.1 482;" xml:space="preserve">
<style type="text/css">
	.st0{fill:#595959;}
</style>
<title>Asset 1</title>
<g>
	<g id="Layer_1-2">
		<path class="st0" d="M19.9,412.1L7.2,446.9c0,0.7-0.3,0.7-1,0.7H0.7c-0.7,0-0.7-0.3-0.7-1l33.5-91.7c0.5-1.3,0.7-2.8,0.6-4.2
			c0-0.4,0.3-0.7,0.7-0.7h8.5c0.6,0,0.6,0,1,0.7l35.1,95.9c0,0.7,0,1-0.7,1h-5.9c-0.3,0-0.6,0-1-0.7l-12.7-34.8H19.9z M57.3,405.6
			c-3.3-9.4-14.6-40.3-17.6-49.8c-2.6,9.1-10.7,30.9-17.6,49.8H57.3z M86.3,413c0-21.8,16.3-36.7,38.4-36.7c5.9,0,8.8,0.3,12,1.3
			v-34.8c0-0.7,0-0.7,0.6-0.7h5.5c0.6,0,0.6,0,0.6,0.7v100.5c0,0.4-0.2,0.8-0.6,1c-6.7,3.4-14.2,5.2-21.8,5.2
			C101.9,448.8,86.3,436.8,86.3,413z M136.7,384.4c-2.9-1.3-7.2-2-12.4-2c-20.2,0-30.9,14-30.9,30.2c0,22.1,14.3,29.9,28.3,29.9
			c4.6,0,10.7-0.7,14.6-2.6v-55.6h0.4V384.4z M222.9,412.4c0,21.8-13,36.4-31.5,36.4c-22.4,0-32.2-19.2-32.2-36.4
			c0-20.8,13-36.4,32.2-36.4C209.9,376,222.9,390.6,222.9,412.4L222.9,412.4z M166,412.1c0,16.3,9.1,30.2,25.7,30.2
			c11.4,0,24.1-8.8,24.1-29.9c0-15-7.2-30.2-25-30.2C176,382.5,166,394.5,166,412.1z M244.3,341.8c0.3,0,0.6,0,0.6,0.7v37.4
			c5.6-2.4,11.7-3.7,17.9-3.6c19.5,0,32.2,14,32.2,33.8c0,25.7-18.9,39-38.4,39c-6.2,0.1-12.3-0.9-18.2-2.9c-0.3,0-0.6-0.7-0.6-1.3
			V342.5c0-0.3,0.3-0.7,1-0.7H244.3z M262.5,382.5c-7.5,0-12.7,1.3-17.2,3.6v55.3c4,1.1,8.2,1.7,12.4,1.6
			c16.3,0,30.9-11.1,30.9-32.2C288.6,394.2,278.8,382.5,262.5,382.5z M313.6,411.4c-0.6,17.6,8.8,30.9,26.7,30.9
			c6.2,0,12.7-1,18.2-4.2c0.3-0.3,0.6,0,0.6,0.3v4.9c0,0.7,0,1-0.6,1c-4.6,2.6-10.7,4.6-19.5,4.6c-23.7,0-32.8-18.2-32.8-36.1
			c0-20.5,11.7-36.7,30.6-36.7c20.2,0,27,16.6,27,27.6c0.1,2.1,0,4.1-0.3,6.2c0,0.5-0.5,1-1,1c-2.3,0.3-9.4,0.3-15,0.3h-33.8v0.2
			L313.6,411.4z M346.1,405.6c8.8,0,10.4,0,10.7-0.3v-2c0-6.5-3.9-21.1-20.5-21.1c-14,0-21.5,11.4-23.1,23.4H346.1z M432.9,356.8
			h-33.2c-0.3,0-0.6,0-0.6-1l1.3-4.9c0-0.3,0.3-0.7,1-0.7H472c0.7,0,0.7,0,1,0.7l0.7,4.9c0,0.7,0,1-0.7,1h-32.9v89.8
			c0,0.7-0.3,1-1,1h-5.2c-0.7,0-1,0-1-1L432.9,356.8L432.9,356.8z M472.6,377.3c0.3,0,0.3,0,0.7,0.7c14.6,36.7,21.5,54.3,23.4,60.2
			c4.6-12,11.7-30.6,23.1-60.2c0-0.3,0.3-0.7,1-0.7h5.5c0.7,0,0.7,0.3,0.7,1c-11.1,31.2-25.4,66.7-41.3,102.1c0,0.3-0.7,0.7-1.3,0.7
			l-5.9,0.7c-0.7,0-0.7-0.3-0.3-1c4.6-9.1,10.4-22.4,15.3-34.1v-1.6c-3.3-7.8-18.2-44.2-27.3-67c0-0.3,0-0.7,0.3-0.7L472.6,377.3
			L472.6,377.3z M596.2,409.8c0,26.3-20.5,39.3-40.3,39.3c-3.4,0.1-6.8-0.2-10.1-1v32.2c0,0.5-0.2,0.9-0.7,1c-1.3,0-5.5,0.7-5.9,0.7
			s-0.7,0-0.7-0.7v-94.6c0-1.4-0.1-2.8-0.3-4.2c0-0.3,0.1-0.5,0.3-0.7c7.7-3.6,16.2-5.5,24.7-5.5C582.9,376,596.2,389.3,596.2,409.8
			L596.2,409.8z M545.8,385.4v55.9c3.3,1,6.8,1,10.7,1c16.6,0,32.5-10.7,32.5-32.2c0-16.6-9.8-28-26.7-28
			C556.2,382.5,550.3,383.4,545.8,385.4L545.8,385.4z M614.1,411.4c-0.7,17.6,8.8,30.9,26.7,30.9c6.2,0,12.7-1,18.2-4.2
			c0.2-0.2,0.4-0.2,0.6,0c0.1,0.1,0.1,0.2,0.1,0.3v4.9c0,0.7,0,1-0.7,1c-4.6,2.6-10.7,4.6-19.5,4.6c-23.7,0-32.8-18.2-32.8-36.1
			c0-20.5,11.7-36.7,30.6-36.7c20.2,0,27,16.6,27,27.6c0.1,2.1,0,4.1-0.3,6.2c0,0.5-0.5,1-1,1c-2.3,0.3-9.4,0.3-15,0.3h-33.9V411.4z
			 M646.6,405.6c8.8,0,10.4,0,10.7-0.3v-2c0-6.5-3.9-21.1-20.5-21.1c-14,0-21.5,11.4-23.1,23.4H646.6z M686,446.9
			c0,0.7,0,0.7-0.7,0.7h-5.9c-0.3,0-0.7,0-0.7-0.7V342.5c0-0.4,0.3-0.7,0.7-0.7h5.9c0.3,0,0.7,0,0.7,0.7V446.9z M687.3,410.1
			c6.2-5.9,29.6-28,33.8-32.2c0.3-0.4,0.8-0.7,1.3-0.7h6.8c0.7,0,0.7,0.7,0.3,1c-3.9,4.2-28.9,26.7-34.1,31.5v0.3
			c10.1,9.8,27.3,25.7,39,36.4c0.3,0.3,0,1-0.3,1h-7.8c-0.7,0-1,0-1.3-0.7c-9.4-8.8-29.9-27.6-37.7-35.1
			C686.6,411.1,686.6,410.8,687.3,410.1L687.3,410.1z M741.9,354.5c0-2.9,2-5.2,4.6-5.2c2.7,0,4.9,2.2,4.9,4.9c0,0.1,0,0.2,0,0.3
			c0,2.7-2.1,4.9-4.8,4.9c0,0-0.1,0-0.1,0C743.5,359,741.9,357.1,741.9,354.5L741.9,354.5z M743.2,378.2c0-0.7,0.3-1,0.7-1h5.5
			c0.3,0,0.7,0,0.7,0.7v68.6c0,0.7,0,0.7-0.7,0.7h-5.2c-0.7,0-1,0-1-1V378.2L743.2,378.2z M799.4,445.6c0,0.5-0.2,0.9-0.7,1
			c-3,1.5-6.4,2.3-9.8,2.3c-9.4,0-15-4.6-15-17.9v-47.2h-10.7c-0.7,0-1-0.3-1-1v-4.6c0-0.7,0-1,1-1h10.9c0-5.9,0.7-16.6,1.3-19.5
			c0.1-0.4,0.3-0.8,0.7-1l5.5-1c0.3,0,1,0,1,0.3c-0.7,7-1.1,14.1-1,21.1h16.5c0.7,0,1,0.3,1,1v4.6c0,0.7-0.3,0.7-1,1h-16.6v47.5
			c0,6.8,2.9,11.4,9.8,11.4c2.8,0,5.5-0.5,8.1-1.6c0.3,0,0.7,0,0.7,0.3v4.2L799.4,445.6z"/>
		<path class="st0" d="M267.1,0v259.2h265.7V0H267.1z M278.1,11.1h243.3v237.1H278.1V11.1z"/>
		<path class="st0" d="M347.1,86.5h-30.6c-1,0-1.3-0.3-1-1.3l2.3-15.3c0.3-1,0.6-1.3,1.3-1.3h76.4c1,0,1.3,0.3,1.6,1.3l1.3,15.3
			c0.3,1-0.3,1.3-1.3,1.3h-30.6v102.1c0,1-0.3,1.3-1.3,1.3h-16.9c-1,0-1.3-0.3-1.3-1.3C347.1,188.6,347.1,86.5,347.1,86.5z
			 M430.3,139.2l28-37.7c0.7-1,1-1.3,2-1.3h18.5c1,0,1.3,0.7,0.7,1.6c-4.2,5.5-24.4,30.6-30.9,38.4c-0.3,0.3-0.3,0.6,0,1l35.4,47.2
			c0.3,0.6,0.3,1.3-1,1.3h-21.5c-0.8,0-1.5-0.3-2-1c-5.9-8.1-21.5-29.6-29.3-40.6v40.3c0,1-0.3,1.3-1.3,1.3h-17.2
			c-1.3,0-1.3-0.3-1.3-1.3V69.6c0-0.6,0.3-1,1.3-1h17.2c0.6-0.1,1.2,0.4,1.3,1c0,0.1,0,0.2,0,0.3L430.3,139.2L430.3,139.2z"/>
	</g>
</g>
</svg>
