<?xml version="1.0" encoding="utf-8"?>
<!-- Generator: Adobe Illustrator 23.0.6, SVG Export Plug-In . SVG Version: 6.00 Build 0)  -->
<svg version="1.1" id="Layer_1" xmlns="http://www.w3.org/2000/svg" xmlns:xlink="http://www.w3.org/1999/xlink" x="0px" y="0px"
	 viewBox="0 0 747.9 900.1" style="enable-background:new 0 0 747.9 900.1;" xml:space="preserve">
<style type="text/css">
	.st0{fill:#595959;}
</style>
<title>Asset 1</title>
<g>
	<g id="Layer_1-2">
		<path class="st0" d="M231.5,170.3c3.7,0,10.9-1,18.9-1c9.4,0,15.6,1,20.5,1c3.3,0,5.1-0.7,5.1-3.3c0-1.5-1-2.1-5.3-2.8
			c-5.1-1-7.9-2.5-7.9-6.1c0-2.5,0.4-4.9,1.2-7.3l40.6-134.3h9.1c17.2,0,18.9,2.2,18.9,11.3c0,6.8-3.3,19.8-3.3,23.1
			c0,1.8,0.5,2.5,2.2,2.5c2.5,0,3.6-1,5.5-7.9c1.9-6,5.6-19.3,8.3-29.4c0.6,0,2.2,0.1,3,0.1c6.4,0,7.5,1.7,7.5,5.7
			c0,1-0.7,4.3-2.8,11.2l-33.2,119.4c-1.3,5.1-2.5,8.1-4.6,9.7c-1.8,1.8-4.6,2.1-9.4,2.1c-3.6,0-5.1,1-5.1,3c0,2.2,0.7,3,3.3,3
			c7.6,0,15.5-1,23.1-1c9.4,0,17,1,20.7,1c3,0,5.1-0.7,5.1-2.8c0-3.6-4.3-3.6-8.6-3.7c-4.3-0.3-8.6-1.2-8.6-6.6c0-1.2,0.3-4,3-14.4
			l14.9-53.4h60.2l-14.1,53.4c-2.8,9.8-4,14.4-5.5,17.2c-2.1,3.6-7.6,3.6-11.2,4c-4,0.5-6.6,1-6.6,3.6c-0.2,1.4,0.8,2.6,2.2,2.8
			c0.2,0,0.4,0,0.6,0c6.1,0,14.1-1,22.3-1s15.5,1,22.3,1h7.3c11.2,0,25.6-1,44.8-1c17.7,0,35.1,1,48.8,1c3.3,0,3.3-0.3,4.6-5.3
			c2.5-9.8,5.1-20,7.3-29.9c0.5-2.2,0.9-4.5,1.2-6.8c0-2.1-0.5-3.3-2.8-3.3c-2.8,0-4,2.5-5.8,6.6c-3.6,8.3-6.8,17.4-13.7,23.5
			c-6.1,5.3-16.7,8.1-30.8,8.1c-19.8,0-21.3-3.3-21.3-9.1c0-2.1,0.5-5.5,3-15.6l13.9-49.1h14.4c18.2,0,20.2,5.1,20.2,10.4
			c0,3.3-1,7.6-1,11.3c0,4.3,0.5,5.8,3.3,5.8s3.8-1,4.6-4.3c3-13.7,6.3-27.4,10.6-40.8c1.8-5.5,3-8.6,3-9.4c0-1.5-0.5-3-2.8-3
			c-3.6,0-4.6,5.1-7.9,10.9c-4,7.3-5.1,11.9-29.3,11.9h-12.9l14.9-52.4c2.1-7.3,3.3-11.6,4.3-12.2s4.6-0.7,14.9-0.7
			c21.5,0,25.6,2.2,25.6,12.4c0,8.8-0.3,13.9-0.3,18.5c0,4,0.5,5.1,2.8,5.1c3,0,4-0.7,8.3-18.9c2.8-11.9,5.3-21,5.3-22
			c0-2.1-0.5-2.1-6.6-2.1c-13.4,0-38.7,1-52.6,1c-14.1,0-21.7-1-28.1-1c-2.5,0-3.6,1-3.6,3c0,2.8,3.3,2.8,7.1,3
			c4.6,0.3,6.6,3,6.6,7.3c0,1.8-0.5,4.6-2.8,13.1c-3.8,14.1-12.4,44.5-31.9,113.6c-3.3,12.2-4,13.1-16.4,14.1
			c-2.7,0.3-5.5,0.3-8.2,0c-6.6-1.3-9.7-3-9.7-7.3c0-2.5,1-7.3,2.5-12.6l31.6-116.4c2.2-8.3,3.8-10.4,11.2-11.9c4.8-1,7.1-1,7.1-3.3
			c0.2-1.4-0.8-2.6-2.2-2.8c-0.2,0-0.4,0-0.6,0c-4.8,0-11.6,1-20.2,1c-6.8,0-13.4-1-19.8-1c-2.1,0-2.5,1-2.5,3c0,2.5,2.1,3,5.5,3
			c5.3,0,6.4,2.1,6.4,4c-0.2,4.2-0.9,8.4-2.1,12.4l-13.4,49.5h-60.2l14.7-53.4c2.5-9.7,5.8-12.4,13.9-12.9c5.1-0.3,6.1-0.7,6.1-3.3
			c0-1.5-0.7-2.8-2.5-2.8c-5.8,0-12.9,1-20.5,1c-7,0-13.8-0.9-20.1-0.9c0.6-2.1,1.1-4.2,1.5-6.4c0-1.8-0.7-3-2.2-3
			c-2.2,0-3.3,3-4.8,5.5c-1.5,2.8-3.3,4.8-8.6,4.8h-71.6c-4,0-4.8-2.8-5.1-5.5S255.9,0,252.9,0s-3.7,3-5.1,6.8
			c-1.8,5.3-13.1,38.4-13.1,42.7c0,2.2,0.5,3.3,2.5,3.3c2.2,0,3.6-3,5.3-7.1c2.5-5.5,5.1-13.4,9.7-19.8c4.3-5.8,9.8-10.1,18.2-10.1
			h17.7l-40,131.6c-4,13.4-4.3,13.7-16.4,16.2c-2.5,0.5-4,1.5-4,3.7C228,169.8,229.3,170.3,231.5,170.3z M132,349.5
			c7.6,0,15.5-1,23.1-1c9.4,0,17,1,20.7,1c3,0,5.1-0.7,5.1-2.8c0-3.6-4.3-3.6-8.6-3.7c-4.3-0.3-8.6-1.2-8.6-6.6c0-1.2,0.3-4,3-14.4
			l14.9-53.4h60.2L227.7,322c-2.8,9.8-4,14.4-5.5,17.2c-2.1,3.6-7.6,3.6-11.2,4c-4,0.5-6.6,1-6.6,3.6c-0.2,1.4,0.8,2.6,2.2,2.8
			c0.2,0,0.4,0,0.6,0c6.1,0,14.1-1,22.3-1s15.5,1,22.3,1c2.5,0,3.3-1,3.3-2.8c0-2.5-2.2-2.8-5.1-3.3c-6.6-1.2-9.7-3-9.7-7.3
			c0-2.5,1-7.3,2.5-12.6l31.6-116.4c2.2-8.3,3.7-10.4,11.2-11.9c4.8-1,7.1-1,7.1-3.3c0.2-1.4-0.8-2.6-2.2-2.8c-0.2,0-0.4,0-0.6,0
			c-4.8,0-11.6,1-20.2,1c-6.8,0-13.4-1-19.8-1c-2.1,0-2.5,1-2.5,3c0,2.5,2.1,3,5.5,3c5.3,0,6.3,2.1,6.3,4c-0.2,4.2-0.9,8.4-2.1,12.4
			l-13.4,49.8h-60.2l14.7-53.4c2.5-9.7,5.8-12.4,13.9-12.9c5.1-0.3,6.1-0.7,6.1-3.3c0-1.5-0.7-2.8-2.5-2.8c-5.8,0-12.9,1-20.5,1
			c-7.3,0-14.4-1-21-1c-3,0-4.3,1.8-4.3,3.3c0,2.5,1.2,2.8,5.5,2.8c6.3,0,8.3,2.1,8.3,6.1c0,1-0.7,4.3-2.8,11.2l-33.4,119.4
			c-1.2,5.1-2.5,8.1-4.6,9.7c-1.8,1.8-4.6,2.1-9.4,2.1c-3.6,0-5.1,1-5.1,3C128.7,348.8,129.5,349.5,132,349.5z M281.5,329.3
			c-3.3,12.2-4,13.1-16.4,14.1c-3,0.3-3.7,1-3.7,3c0,2.5,0.7,3,4.6,3c11.2,0,25.6-1,44.8-1c17.7,0,35.1,1,48.8,1
			c3.3,0,3.3-0.3,4.6-5.3c2.5-9.8,5.1-20,7.3-29.9c0.5-2.2,0.9-4.5,1.2-6.8c0-2.1-0.5-3.3-2.8-3.3c-2.8,0-4,2.5-5.8,6.6
			c-3.6,8.3-6.8,17.4-13.7,23.5c-6.1,5.3-16.7,8.1-30.8,8.1c-19.8,0-21.3-3.3-21.3-9.1c0-2.1,0.5-5.5,3-15.6l13.9-49.1h14.4
			c18.2,0,20.2,5.1,20.2,10.4c0,3.3-1,7.6-1,11.3c0,4.3,0.5,5.8,3.3,5.8s3.8-1,4.6-4.3c3-13.7,6.3-27.4,10.6-40.8
			c1.8-5.5,3-8.6,3-9.4c0-1.5-0.5-3-2.8-3c-3.6,0-4.6,5.1-7.9,10.9c-4,7.3-5.1,11.9-29.3,11.9h-12.9l14.9-52.4
			c2.1-7.3,3.3-11.6,4.3-12.2s4.6-0.7,14.9-0.7c21.5,0,25.6,2.2,25.6,12.4c0,8.8-0.3,13.9-0.3,18.5c0,4,0.5,5.1,2.8,5.1
			c3,0,4-0.7,8.3-18.9c2.8-11.9,5.3-21,5.3-22c0-2.1-0.5-2.1-6.6-2.1c-13.4,0-38.7,1-52.6,1c-14.1,0-21.7-1-28.1-1
			c-2.5,0-3.6,1-3.6,3c0,2.8,3.3,2.8,7.1,3c4.6,0.3,6.6,3,6.6,7.3c0,1.8-0.5,4.6-2.8,13.1C309.6,229.9,301,260.3,281.5,329.3z
			 M523.3,189.2c-2.2,0-3.3,1.2-3.3,3c0,2.1,2.1,2.2,7.9,3c3.3,0.5,6.4,2.1,6.4,6.3c0,1-1.5,6.6-3.8,14.9
			c-10.1,37.5-21.3,74.9-30.4,112.3c-2.5,10.4-6.8,13.9-13.7,14.7c-1.5,0.1-2.9,0.3-4.3,0.7c-0.9-0.2-2.1-0.4-3.2-0.7
			c-3.3-0.7-4.6-3-7.3-13.7c-2.2-8.6-5.5-23.5-11.6-48.8c-1.2-4.8-2.5-7.1-4.6-7.9v-0.5c5.7-1.7,11.3-4.2,16.4-7.3
			c19.5-11.6,29.9-28.3,29.9-47.6v-0.3c0-19.5-14.7-28.3-32.6-28.3c-10.9,0-23.2,1-34.7,1c-7.3,0-14.4-1-21.7-1
			c-1.9-0.2-3.6,1.1-3.8,3c0,0.2,0,0.4,0,0.7c0,2,3.3,2.2,6.8,2.8c3.3,0.5,6.6,1.8,6.6,6.8c0,1.8-0.5,4.6-2.5,12.6
			c-3.6,14.1-11.9,44.8-31.4,115.6c-2.8,10.6-4.8,12.2-8.8,12.6c-4.8,0.7-10.4,0.7-10.4,3.6c0,1.8,0.3,2.5,2.5,2.5
			c6.4,0,12.9-1,19.2-1c8.3,0,14.9,1,21.7,1c3,0,3.7-0.7,3.7-2.2c0-2.2-3.7-2.8-8.8-3.7c-2.3-0.3-4-2.3-3.8-4.6
			c0-2.1,0.5-5.8,2.2-12.6l10.4-41.2c0.5-2.1,1.1-4.2,1.8-6.3c4.8,0,18-1.5,21.3-1.5c2.2,0,3.8,0.7,6.1,8.6
			c5.3,18.2,8.9,36.6,12.6,55.1c1.3,6.3,1.5,7.9,4.3,7.9c3.8,0,7.1-0.3,10.1-0.3c2.1,0.1,4.2,0.2,6.3,0.5c1.6,0.2,3.1,0.4,4.5,0.5
			h2.1c2.2,0,15.2-1,22.3-1c13.1,0,26.3,1,38.7,1c15.2,0,31.9-4.3,42.3-14.7c10.1-10.1,14.4-23.5,14.4-37.7
			c0-24.5-19.8-34.7-42.5-34.7v-0.5c33.2-2.8,52.6-18.5,52.6-43c0-19.8-10.9-29.9-35.9-29.9c-15.5,0-23.2,1-33.6,1
			C537.7,190.2,530.3,189.2,523.3,189.2z M429,272.4c-3.3,0.3-6.4,0.3-9.7,0.3c1.2-5.3,2.8-10.4,4.3-15.6l14.9-52.4
			c2.2-8.3,2.8-9.4,21.3-9.4c16.2,0,25.6,3.6,25.6,21v0.3c0,18.5-11.6,37.9-24.8,47C452.5,269.1,441.1,271.6,429,272.4z
			 M584.8,293.1c0,13.9-3.6,28.6-13.4,39c-10.4,10.9-26.5,11.3-40.5,11.3c-11.2,0-14.7-3-14.7-8.1c0-4.8,1.5-11.6,4.6-23.1l9.4-35.1
			c1.8-6.8,2.5-10.1,3.3-10.9s2.2-0.7,8.6-0.7C572.1,265.8,584.8,269.4,584.8,293.1z M552.4,197.1c1.3-1.2,13.4-1.8,20.2-1.8h0.3
			c17.2,0,24,7.9,24,20.7c0,13.1-4.8,24-13.9,31.6c-8.8,7.6-22.3,11.9-39.4,11.9c-2.8,0-5.5-0.1-8.3-0.3c1.5-5.8,3-11.3,4.6-17.2
			l9.1-34.7C549.8,203.6,551.3,198,552.4,197.1L552.4,197.1z M97.7,519.7c7.3-24.5,8.3-27.8,8.3-30.8c0-1.2-0.7-1.8-2.5-1.8
			c-2.5,0-1.8,0.5-9.4,15.9c-9.7,19.5-19.8,23.1-43.5,23.1H36.5c-2.1,0-2.2-0.7-1.5-3c2.1-6.6,4-13.1,5.8-19.8
			c11.2-37.7,22-75.3,32.9-112.8c2.5-8.3,4-10.1,14.1-11.6c6.6-1,9.1-1,9.1-4c0-1.8-0.7-2.1-3.3-2.1c-5.8,0-13.4,1-23.1,1
			c-13.1,0-20.5-1-25.6-1c-1.5,0-2.2,1.2-2.2,2.8c0,3,2.8,2.1,8.8,3.3c4.3,1,6.8,2.2,6.8,6.6v0.3c0,1.8-0.5,4.3-4.6,17.7
			c-4.6,16.1-14.5,47.7-33.8,112.2c-2.2,7.6-5.3,10.9-11.6,11.3C1,527.5,0,528.5,0,530.3c0,2.2,0.7,2.8,2.8,2.8c3,0,11.2-1,31.9-1
			c43,0,52.4,1,57.4,1C93.7,533.1,94,532.5,97.7,519.7z M152,536.1c16.4,0,30.6-4.3,41.5-16.4c6.8-7.6,12.2-18.2,15.9-32.9
			c7.9-30.1,15.6-60.2,23.5-90.3c3-11.6,3.8-15.9,12.9-17.7c2.5-0.2,5.1-0.2,7.6,0c3.3,0.5,6.4,2.1,6.4,6.3c0,1-1.5,6.6-3.8,14.9
			c-10.1,37.5-21.3,74.9-30.4,112.3c-2.5,10.4-6.8,13.9-13.7,14.7c-4.8,0.5-6.8,0.7-6.8,3.6c0,2.1,1.5,2.5,5.8,2.5
			c2.2,0,15.2-1,22.3-1c13.1,0,26.3,1,38.7,1c15.2,0,31.9-4.3,42.3-14.7c10.1-10.1,14.4-23.5,14.4-37.7c0-24.5-19.8-34.7-42.5-34.7
			v-0.5c33.2-2.8,52.6-18.5,52.6-43c0-19.8-10.9-29.9-35.9-29.9c-15.5,0-23.2,1-33.6,1h-36.7c-8.3,0-14.4-1-18.9-1
			c-3,0-3.8,1.5-3.8,3c0,2.8,1,2.8,6.4,2.8c9.7,0,11.9,2.2,11.9,8.3c0,1.5-1.3,7.1-3.3,15.5c-4.6,18-13.1,49.1-21,79.6
			c-7.6,29.3-19.8,48.1-49.1,48.1c-14.9,0-28.3-9.1-28.3-24.8c0-5.1,0.5-8.8,3-18.9c3.3-13.1,9.8-36.9,24-87.2
			c4.8-17.2,8.8-19.5,14.1-20.2c5.8-0.7,11.9-0.7,11.9-3.6c0-1.5-0.3-2.5-4-2.5c-7.3,0-14.9,1-24,1s-18-1-22-1c-1.8,0-3.3,1-3.3,2.8
			c0,2.5,2.5,2.2,7.1,3.3c5.1,1,6.3,2.8,6.3,7.9c0,1.5-1,6.1-2.5,12.2c-4.3,16.2-12.9,44.8-19.2,68.3c-4.3,16.4-7.6,30.6-7.6,36.4
			v0.3C110,526.4,127.7,536.1,152,536.1z M310.3,476.7c0,13.9-3.6,28.6-13.4,39c-10.4,10.9-26.5,11.3-40.5,11.3
			c-11.2,0-14.7-3-14.7-8.1c0-4.8,1.5-11.6,4.6-23.1l9.4-35.1c1.8-6.8,2.5-10.1,3.3-10.9s2.2-0.7,8.6-0.7
			C297.7,449.3,310.3,452.9,310.3,476.7L310.3,476.7z M265.3,425.5l9.1-34.7c1-3.7,2.5-9.4,3.6-10.4c1.3-1.2,13.4-1.8,20.2-1.8h0.3
			c17.2,0,24,7.9,24,20.7c0,13.1-4.8,24-13.9,31.6c-8.8,7.6-22.3,11.9-39.4,11.9c-2.8,0-5.5-0.1-8.3-0.3
			C262.3,436.9,263.8,431.3,265.3,425.5L265.3,425.5z M318.9,527c-4.6,1-6.4,1.8-6.4,4c0,1.2,0.5,2.1,3,2.1c5.3,0,11.2-1,16.7-1
			c6.8,0,14.7,1,20.5,1c2.5,0,5.1-0.7,5.1-2.8s-2.2-2.2-6.6-3.3c-6.8-1.5-9.4-2.5-9.4-7.1c0-2.1,3.3-8.8,7.1-16.4
			c6.3-12.2,14.1-26,15.2-27.8s1.5-1.8,3.6-1.8h33.9c0,15.2-0.5,32.4-0.5,44.8c0,5.8-4.6,7.1-8.8,7.9c-4.6,0.7-9.1,1-9.1,4
			c0,2.5,1.5,2.5,4,2.5c3.7,0,11.2-1,19.5-1c4.9,0,7.2,0.2,11,0.5c3.3,0.4,6.5,0.5,9.8,0.3c5-0.3,12.9-0.7,25.8-0.7
			c43,0,52.4,1,57.4,1c1.5,0,1.8-0.5,5.5-13.4c7.3-24.5,8.3-27.8,8.3-30.8c0-1.2-0.7-1.8-2.5-1.8c-2.5,0-1.8,0.5-9.4,15.9
			c-9.7,19.5-19.8,23.1-43.5,23.1H455c-2.1,0-2.2-0.7-1.5-3c2.1-6.6,4-13.1,5.8-19.8c11.2-37.7,22-75.3,32.9-112.8
			c2.5-8.3,4-10.1,14.1-11.6c6.6-1,9.1-1,9.1-4c0-1.8-0.7-2.1-3.3-2.1c-5.8,0-13.4,1-23.1,1c-13.1,0-20.5-1-25.6-1
			c-1.5,0-2.2,1.2-2.2,2.8c0,3,2.8,2.1,8.9,3.3c4.3,1,6.8,2.2,6.8,6.6v0.3c0,1.8-0.5,4.3-4.6,17.7c-4.8,16.2-14.7,47.8-33.9,112.3
			c-2.2,7.6-4.4,10.3-10.8,10.8c-1.7,0.1-3.3,0.2-5,0.1c-3-0.5-5.8-1.8-5.8-8.1c0-13.7,1.8-132,1.8-142.6c0-3-0.5-3.6-2.1-3.6
			c-1.2,0-3.6,3.7-6.1,8.1c-26,44-48.3,85.3-71.9,125C328.2,523.1,325.2,525.7,318.9,527z M402.9,405.3l0.5,0.3l-1.5,61.2h-32.6
			C380.1,445.7,391.5,425.5,402.9,405.3z M583.4,373.7c-11.9,0-15.5-1-18.9-1c-2.5,0-3.3,1.2-3.3,2.8c0,2.2,1.5,2.2,5.5,3.3
			c5.1,1.2,6.1,2.8,6.1,6.1c0,1.5-0.3,3-2.8,12.2l-33.2,120.7c-2.2,8.3-4.6,8.6-14.1,9.4c-2.8,0.3-4.3,1.5-4.3,3.6
			c0,1.5,1,2.5,3.3,2.5c3,0,4.8-1,20.7-1c14.1,0,16.4,1,19.8,1c2.8,0,3.7-1,3.7-2.5c0-2.2-0.7-3-7.6-3.6c-4-0.3-5.8-2.5-5.8-4.6
			v-0.3c0-3.7,1-8.3,5.1-22.8l30.6-110.8c1.5-5.5,4.8-7.9,12.9-9.8c3.8-1,4.3-1.8,4.3-3.6c0-1.5-0.7-2.5-3.6-2.5
			C599.3,372.6,595,373.7,583.4,373.7L583.4,373.7z M745.4,372.6c-4.6,0-8.9,1-15.5,1s-13.7-1-19.8-1c-2.8,0-3.8,1.2-3.8,2.8
			c0,2.2,1.8,2.8,6.1,3.3c7.6,1,9.1,3.3,9.1,8.3c0,1.2-1.3,6.1-3.6,14.1c-4.8,17.7-14.7,50.9-28.9,97.2h-0.5
			c-10.9-38.2-22.5-76.4-31.4-115.1c-2.1-8.8-2.5-10.6-4.8-10.6c-2.8,0-7.6,0.5-12.2,0.5c-5.1,0-9.8-0.5-14.1-0.5c-2.2,0-3,1-3,3
			c0,1.8,1.5,2.5,4.3,3c7.3,1.2,8.1,2.2,8.1,6.1c0,1.8-1,5.5-2.8,11.6c-5.1,17.2-17.4,52.6-35.4,108c-3,9.4-4.8,14.7-7.6,17.7
			s-6.8,4-14.7,4.8c-2.1,0.3-3.3,1.2-3.3,3c-0.2,1.5,0.9,2.8,2.4,3c0.2,0,0.4,0,0.6,0c5.8,0,10.6-1,20-1c10.1,0,16.2,1,21.5,1
			c2.5,0,3.6-0.7,3.6-2.8c0-2.8-4.3-3.3-8.6-4s-8.6-2.1-8.6-8.1c0-2.5,1.3-8.1,7.3-27.8c5.5-18.2,15.2-48.1,31.6-97.9h0.5l35.4,129
			c1.8,6.6,3.3,12.6,5.5,12.6s3-2.8,7.3-17.7c5.3-18,15.5-53.1,37.7-121.6c3.7-11.6,7.6-14.1,13.7-15.9c3.3-1,6.3-0.7,6.3-3.3
			C748.2,373.7,747.4,372.6,745.4,372.6L745.4,372.6z M105.7,710c5.8,4.3,15.6,7.6,25,7.6c25.8,0,50.9-23.8,50.9-53.1
			c0-18-9.8-30.8-19.5-43c-8.6-11.2-17-21.5-17-34.4c0-16.4,11.2-31.4,29-31.4c17,0,17,16.2,17,21c0,5.5-2.1,12.6-2.1,18.6
			c0,2.1,0.8,3.6,2.3,3.7c2.7,0.3,3.5-3.3,7.3-18.2c1-4,2.1-8.1,2.8-11.3c1-4.8,1.8-8.3,1.8-9.4s-1.8-2.2-5.1-3.7
			c-6.9-3.2-14.4-5-22-5.1c-23.1,0-47.3,19.2-47.3,46.8v0.3c0,13.9,10.6,26.5,20.5,39.4c8.3,10.6,15.9,21.5,15.9,33.4
			c0,22.8-13.1,40.5-33.4,40.5c-9.1,0-16.7-5.5-18.2-13.4s-1.5-17.4-1.5-25c0-5.5,0-8.1-2.5-8.1c-2.8,0-3.6,1-4.6,8.8
			c-2.8,22-3.7,26.5-3.7,30.4C101.4,706.2,102.9,708.2,105.7,710z M401.3,696.6c-3.3,11.2-6.1,12.6-16.7,13.9
			c-1.8,0.3-3.6,1.8-3.6,3.3c0,2.8,2.5,2.8,3.7,2.8c3.3,0,10.9-1,22-1c9.7,0,24.3,1,36.2,1c25.8,0,48.8-12.2,63-34.1
			c14.7-23.3,22.6-50.3,22.8-77.9c0-12.6-2.2-25.3-10.4-34.4c-8.3-9.4-19.2-13.9-31.9-13.9c-12.9,0-25.8,1-38.7,1H411
			c-8.3,0-14.4-1-18.9-1c-3,0-3.8,1.5-3.8,3c0,2.8,1,2.8,6.4,2.8c9.7,0,11.9,2.2,11.9,8.3c0,1.5-1.3,7.1-3.3,15.5
			c-4.6,18-13.1,49.1-21,79.6c-7.6,29.3-19.8,48.1-49.1,48.1c-14.9,0-28.3-9.1-28.3-24.8c0-5.1,0.5-8.9,3-18.9
			c3.3-13.1,9.8-36.9,24-87.2c4.8-17.2,8.8-19.5,14.1-20.2c5.8-0.7,11.9-0.7,11.9-3.6c0-1.5-0.3-2.5-4-2.5c-7.3,0-14.9,1-24,1
			c-6.3,0-12.4-0.5-17-0.7c0.9-3.6,1.6-6.1,1.6-6.6c0-1.8-0.7-3-2.2-3c-2.2,0-3.3,3-4.8,5.5c-1.5,2.8-3.3,4.8-8.6,4.8h-71.6
			c-4,0-4.8-2.8-5.1-5.5s-0.3-4.8-3.3-4.8s-3.8,3-5.1,6.8c-1.8,5.3-13.1,38.4-13.1,42.7c0,2.2,0.7,3.2,2.5,3.3
			c2.2,0.1,3.6-3,5.3-7.1c2.5-5.5,5.1-13.4,9.7-19.8c4.3-5.8,9.8-10.1,18.2-10.1h17.7l-40,131.6c-4,13.4-4.3,13.7-16.4,16.2
			c-2.5,0.5-4,1.5-4,3.8c0,1.8,1.2,2.2,3.6,2.2c3.8,0,10.9-1,18.9-1c9.4,0,15.6,1,20.5,1c3.3,0,5.1-0.7,5.1-3.3c0-1.5-1-2.1-5.3-2.8
			c-5.1-1-7.9-2.5-7.9-6.1c0-2.5,0.5-5,1.3-7.3l40.5-134.3h9.1c17.2,0,18.9,2.2,18.9,11.3c0,6.8-3.3,19.8-3.3,23.1
			c0,1.8,0.5,2.5,2.2,2.5c2.5,0,3.6-1,5.5-7.9c1.9-6,5.7-19.6,8.5-29.6c0.1,0,0.2,0,0.3,0.1c5.1,1,6.4,2.8,6.4,7.9
			c0,1.5-1,6.1-2.5,12.2c-4.3,16.2-12.9,44.8-19.2,68.3c-4.3,16.4-7.6,30.6-7.6,36.4v0.3c0,22.8,17.7,32.4,42,32.4
			c16.4,0,30.6-4.3,41.5-16.4c6.8-7.6,12.2-18.2,15.9-32.9c7.9-30.1,15.6-60.2,23.5-90.3c3-11.6,2.4-16.7,11.2-17.1
			c2.3-0.1,4.4,0,5.8,0c4.1-0.1,8.1,1.5,7.2,7.6c-1,7.1-2.5,14.1-4.6,21L401.3,696.6z M450.6,579.6c1.5-5.1,3.6-13.1,5.8-15.2
			c2.1-1.8,17.2-2.2,23.1-2.2c25.3,0,33.2,14.1,33.2,37.7c0,25-9.7,62.2-24,84.2s-31.1,26.3-55.7,26.3c-11.3,0-14.4-3-14.4-9.8
			c0-4.6,1.8-12.6,3.3-18L450.6,579.6z M565,562.2c6.3-1.3,9.8-1,9.8-3.6c0-1.8-1.2-2.5-2.8-2.5c-3.7,0-6.8,1-26.8,1
			c-14.7,0-15.9-1-18.9-1c-2.2,0-3,1-3,2.5c0,2.5,3,2.1,7.6,3.6c7.3,2.5,7.6,4.3,11.6,26.5c3.6,18.5,6.8,37.2,10.1,55.9
			c-5.1,17.2-10.1,34.4-15.5,51.6c-3.3,10.6-5.8,12.9-11.6,14.1s-11.3,0.5-11.3,3.8c0,1.8,1,2.2,3.3,2.2c3.6,0,13.7-1,24.3-1
			c8.9,0,18,1,22.3,1c4,0,4.6-1,4.6-2.8c0-2.5-3-2.2-8.3-3.3c-4.8-1-7.3-2.2-7.3-6.8c0-3,0.7-6.3,2.8-13.7
			c2.5-7.9,6.3-20.5,12.9-42.7c16.4-22.3,32.6-44.5,48.8-66.8c11.2-15.5,14.9-17,20.7-18.2c2.1-0.3,4.3-1.3,4.3-3.7
			c0-1.8-1.3-2.2-3.3-2.2c-2.8,0-7.1,1-13.9,1c-16.7,0-18.9-1-22.3-1c-1.8,0-2.5,1.2-2.5,2.8c0,2.1,1.5,2.1,8.3,3.3
			c4,0.7,6.8,3,6.8,6.1c0,2.2-4,8.8-9.7,17.4c-9.8,15.2-25.8,36.2-37.9,52.4c-4-22.3-7.9-40.5-9.7-52.4c-1.2-8.1-2.1-13.4-2.1-15.5
			v-0.1C556.4,565.5,557.9,563.7,565,562.2z M124.7,848c0-2.1-0.7-3-2.5-3c-3.3,0-3.3,2.2-12.4,23.2C103,883.9,90.9,894,76.9,894
			c-15.2,0-24-15.2-24-42.5c0-35.4,13.1-63,30.1-82c16.7-18.9,37.2-29.3,51.3-29.9c3.6,0,4.6,2.1,4.6,4.8c0,4.6-3.6,31.6-3.6,34.4
			c0,2.1,1.8,2.8,3.3,2.8c3.3,0,3.3-2.2,4.8-7.1c3.6-11.6,5.8-20.2,7.3-26.3c0.9-3.2,1.5-6.5,1.8-9.8c0-3-0.7-4.8-11.9-4.8
			c-23.1,0-49.6,11.4-70.3,31.4c-20.7,19.8-35.7,48.1-35.7,81.2v0.3c0,16.4,3.6,29.9,10.4,39.2c6.8,9.1,17,14.4,30.6,14.4
			s37.2-7.3,37.9-9.8c2.8-9.4,5.3-18.7,7.9-28.1C123.8,854.3,124.7,850.2,124.7,848z M619,737.9c-10.9,0-23.2,1-34.7,1
			c-7.3,0-14.4-1-21.7-1c-1.9-0.2-3.6,1.1-3.8,3c0,0.2,0,0.4,0,0.7c0,2.1,3.3,2.2,6.8,2.8c3.3,0.5,6.6,1.8,6.6,6.8
			c0,1.8-0.5,4.6-2.5,12.6c-3.6,14.1-11.9,44.8-31.4,115.6c-2.8,10.6-4.8,12.2-8.8,12.6c-1.5,0.3-3,0.4-4.5,0.6
			c0.1-0.2,0.1-0.5,0.2-0.7c2.5-9.8,5.1-20,7.3-29.9c0.5-2.2,0.9-4.5,1.2-6.8c0-2.1-0.5-3.3-2.8-3.3c-2.8,0-4,2.5-5.8,6.6
			c-3.6,8.3-6.8,17.4-13.7,23.5c-6.1,5.3-16.7,8.1-30.8,8.1c-19.8,0-21.3-3.3-21.3-9.1c0-2.1,0.5-5.5,3-15.6l13.9-49.1h14.4
			c18.2,0,20.2,5.1,20.2,10.4c0,3.3-1,7.6-1,11.4c0,4.3,0.5,5.8,3.3,5.8s3.8-1,4.6-4.3c3-13.7,6.3-27.4,10.6-40.8
			c1.8-5.5,3-8.6,3-9.4c0-1.5-0.5-3-2.8-3c-3.6,0-4.6,5.1-7.9,10.9c-4,7.3-5.1,11.9-29.3,11.9h-12.9l14.9-52.4
			c2.1-7.3,3.3-11.6,4.3-12.2s4.6-0.7,14.9-0.7c21.5,0,25.6,2.2,25.6,12.4c0,8.8-0.3,13.9-0.3,18.5c0,4,0.5,5.1,2.8,5.1
			c3,0,4-0.7,8.3-18.9c2.8-11.9,5.3-21,5.3-22c0-2.1-0.5-2.1-6.6-2.1c-13.4,0-38.7,1.1-52.6,1c-14.2-0.2-17.4-1-27-1
			c-0.7,0.1-1.5,0-2.2-0.3c0.6-2,1-4,1.4-6.1c0-1.8-0.7-3-2.2-3c-2.2,0-3.3,3-4.8,5.5c-1.5,2.8-3.3,4.8-8.6,4.8
			c0,0-57.6-0.7-64.7-0.9c-7.1-0.4-33.6-2.7-39.4-2.7c-2.8,0-3.8,1.2-3.8,2.8c0,2.2,1.8,2.8,6.1,3.3c7.6,1,9.1,3.3,9.1,8.3
			c0,1.2-1.3,6.1-3.6,14.1c-4.8,17.7-14.7,50.9-28.9,97.2h-0.5c-10.9-38.2-22.5-76.4-31.4-115.1c-2.1-8.8-2.5-10.6-4.8-10.6
			c-2.8,0-7.6,0.5-12.2,0.5c-5.1,0-9.8-0.5-14.1-0.5c-2.2,0-3,1-3,3c0,1.8,1.5,2.5,4.3,3c7.3,1.3,8.1,2.2,8.1,6.1
			c0,1.8-1,5.5-2.8,11.6c-5.1,17.2-17.4,52.6-35.4,108c-3,9.4-4.5,13.7-7.2,16.7c-1.4,1.6-3,2.2-5.4,3c2.2-8.8,3.8-16.5,5.9-25.3
			c0.5-2.2,0.9-4.5,1.2-6.8c0-2.1-0.5-3.3-2.8-3.3c-2.8,0-4,2.5-5.8,6.6c-3.6,8.3-6.8,17.4-13.7,23.5c-6.1,5.3-16.7,8.1-30.8,8.1
			c-19.8,0-21.3-3.3-21.3-9.1c0-2.1,0.5-5.5,3-15.6l13.9-49.1h14.3c18.2,0,20.2,5.1,20.2,10.4c0,3.3-1,7.6-1,11.4
			c0,4.3,0.5,5.8,3.3,5.8s3.8-1,4.6-4.3c3-13.7,6.3-27.4,10.6-40.8c1.8-5.5,3-8.6,3-9.4c0-1.5-0.5-3-2.8-3c-3.6,0-4.6,5.1-7.9,10.9
			c-4,7.3-5.1,11.9-29.3,11.9h-12.9l14.9-52.4c2.1-7.3,3.3-11.6,4.3-12.2s4.6-0.7,14.9-0.7c21.5,0,25.6,2.2,25.6,12.4
			c0,8.8-0.3,13.9-0.3,18.5c0,4,0.5,5.1,2.8,5.1c3,0,4-0.7,8.3-18.9c2.8-11.9,5.3-21,5.3-22c0-2.1-0.5-2.1-6.6-2.1
			c-13.4,0-38.7,1-52.6,1c-14.1,0-21.7-1-28.1-1c-2.5,0-3.6,1-3.6,3c0,2.8,3.3,2.8,7.1,3c4.6,0.3,6.6,3,6.6,7.3
			c0,1.8-0.5,4.6-2.8,13.1c-3.7,14.1-12.4,44.5-31.9,113.6c-3.3,12.2-4,13.1-16.4,14.1c-3,0.3-3.7,1-3.7,3c0,2.5,0.7,3,4.6,3
			c11.2,0,25.6-1,44.8-1c17.7,0,30.5,0.2,44.1,0.2c2.1,0,15.5-0.4,20.8-0.4c10.1,0,16.2,0.5,21.5,0.5c2.5,0,3.6-0.7,3.6-2.8
			c0-2.8-4.3-3.3-8.6-4s-8.6-2.2-8.6-8.3c0-2.5,1.3-8.1,7.3-27.8c5.5-18.2,15.2-48.1,31.6-97.9h0.5l35.4,129
			c1.8,6.6,3.3,12.6,5.5,12.6s3-2.8,7.3-17.7c4.7-15.8,12.9-43.7,30-97.1c1.1-3.1,3.3-8.5,3.8-9.9c4-9.7,4.8-11.1,9.4-17.3
			c4.3-5.8,9.8-10.1,18.2-10.1h17.7l-40,131.6c-4,13.4-4.3,13.7-16.4,16.2c-2.5,0.5-4,1.5-4,3.8c0,1.8,1.3,2.2,3.6,2.2
			c3.8,0,10.9-1,18.9-1c9.4,0,15.6,1,20.5,1c3.3,0,5.1-0.7,5.1-3.3c0-1.5-1-2.1-5.3-2.8c-5.1-1-7.9-2.5-7.9-6.1c0-2.5,0.5-5,1.3-7.3
			l40.4-134.5h9.1c17.2,0,18.9,2.2,18.9,11.3c0,6.8-3.3,19.8-3.3,23.1c0,1.8,0.5,2.5,2.2,2.5c2.5,0,3.6-1,5.5-7.9
			c1.9-6.2,6-18.8,8.8-29c1.5-0.7,4.3,0,6.8,0.1c4.6,0.3,5.8,2.3,5.8,6.7c0,1.8-0.5,4.6-2.8,13.1c-3.8,14.1-12.4,44.5-31.9,113.6
			c-3.3,12.2-4,13.1-16.4,14.1c-3,0.3-3.7,1-3.7,3c0,2.5,0.7,3,4.6,3c11.2,0,25.6-1,44.8-1c17.1,0,34.1,0.9,47.6,1
			c2.2-0.1,15.2-0.1,21.5-0.1c8.3,0,14.9,1,21.7,1c3,0,3.7-0.7,3.7-2.2c0-2.2-3.7-2.8-8.8-3.8c-2.3-0.3-4-2.3-3.8-4.6
			c0-2.1,0.5-5.8,2.2-12.6l10.4-41.2c0.5-2.1,1.1-4.2,1.8-6.3c4.8,0,18-1.5,21.3-1.5c2.2,0,3.8,0.7,6.1,8.6
			c5.3,18.2,8.9,36.6,12.6,55.1c1.3,6.4,1.5,7.9,4.3,7.9c3.8,0,7.1-0.3,10.1-0.3c2.1,0.1,4.2,0.2,6.3,0.5c1.8,0.3,3.7,0.5,5.5,0.5
			c2.2,0,3.7-0.7,3.7-2.1c0-2.8-3.6-2.8-9.4-4c-3.3-0.7-4.6-3-7.3-13.7c-2.2-8.6-5.5-23.5-11.6-48.8c-1.2-4.8-2.5-7.1-4.6-7.9v0.3
			c5.7-1.8,11.2-4.2,16.4-7.3c19.5-11.6,29.9-28.3,29.9-47.5v-0.3C651.6,746.8,636.9,737.9,619,737.9z M635.4,765.3
			c0,18.5-11.6,37.9-24.8,47c-8.1,5.5-19.5,8.1-31.6,8.9c-3.3,0.3-6.4,0.3-9.7,0.3c1.2-5.3,2.8-10.4,4.3-15.6l14.9-52.4
			c2.2-8.3,2.8-9.4,21.3-9.4c16.2,0,25.6,3.6,25.6,21V765.3z"/>
	</g>
</g>
</svg>
