<?xml version="1.0" encoding="utf-8"?>
<!-- Generator: Adobe Illustrator 23.0.6, SVG Export Plug-In . SVG Version: 6.00 Build 0)  -->
<svg version="1.1" id="Layer_1" xmlns="http://www.w3.org/2000/svg" xmlns:xlink="http://www.w3.org/1999/xlink" x="0px" y="0px"
	 viewBox="0 0 960 240.2" style="enable-background:new 0 0 960 240.2;" xml:space="preserve">
<style type="text/css">
	.st0{fill:#595959;}
</style>
<title>Asset 1</title>
<g>
	<g id="Layer_1-2">
		<path class="st0" d="M459.1,41.8c0-8.3,6.7-15.4,17.3-15.4c6.2,0,10.4,2.3,13.3,5.9l1.9-5.7h7.9v16.3h-8.4
			c-3.7-5.7-7.9-9.7-13-9.7c-4,0-6,1.8-6,4.6c0,3.5,2.8,4.8,11.8,7.1c10.4,2.7,17.8,6.1,17.8,15.6c0,8.2-6.4,15.7-18,15.7
			c-7.4,0-11.5-3-14.6-6.5l-1.9,5.5h-7.8V58.6h8.4c4.1,6.4,8.7,10.7,14.5,10.7c4.3,0,6.2-1.8,6.2-4.8c0-3.7-2.6-5.1-12.1-7.5
			C465.1,54,459.1,50.4,459.1,41.8z M281,66.3h-11.1V46.6h4.3c5.6,0,6.6,1.3,7.6,9.8h7.9V28.9h-7.9c-1.2,8.2-1.9,9.4-7.6,9.4h-4.3
			V16.9h13.8c8.5,0,10.8,1.9,13.9,15.7h8.9V8.3h-62.9v8.9h9.7v49.2h-9.7v8.8H281V66.3z M303.7,51.6c0-14.8,11.1-25.1,25.8-25.1
			c15.1,0,25.6,10,25.6,24.6s-11,25.1-25.7,25.1C314.3,76.2,303.7,66.3,303.7,51.6L303.7,51.6z M319.9,51.4
			c0,12.9,3.3,17.9,9.8,17.9s9.2-5.2,9.2-18s-3.2-17.9-9.8-17.9C322.7,33.4,320,38.6,319.9,51.4L319.9,51.4z M385.6,66.6h-5.3V48.1
			c0-6.8,4.4-11.6,9.2-11.6c1.7-0.1,3.4,0.5,4.7,1.6c1.5,1.5,2.1,4,2.1,7.2v21.3h-5.4v8.5H418v-8.5h-6.8V43.3
			c0-9.9-4.3-16.8-14.5-16.8c-8.8,0-13.9,5.5-17.3,13.4V27.5h-21V36h7v30.6h-7v8.5h27.2L385.6,66.6L385.6,66.6z M424.8,59.9
			c0,10.9,5.1,16.3,15.5,16.3c9.6,0,14.5-5,16.3-16.1l-6.1-1.7c-1.3,6-2.8,8.5-5.9,8.5c-3.5,0-5-2.4-5-6.8V36h15.9v-8.5h-15.8V15.2
			l-14.5,1.7v10.6h-8.8V36h8.4L424.8,59.9L424.8,59.9z M519.4,13.6h-6.9V4.9h21.9v32c3-6.2,7.9-10.5,15.2-10.5
			c4.5-0.2,8.9,1.6,12.1,4.9c4.4,4.4,6.5,11.4,6.5,19.9s-2.5,15.6-6.8,19.8c-3.4,3.4-8,5.2-12.7,5.1c-8.4,0-13.5-4-16.7-10.1
			l-4.7,9.8h-7.8C519.4,75.9,519.4,13.6,519.4,13.6z M533.4,52.2c0,9.4,3.8,15.7,10.2,15.7c5.9,0,8.6-5.6,8.6-16.4
			c0-10.2-2.7-15.6-8.6-15.6C537.1,35.9,533.5,43,533.4,52.2L533.4,52.2z M593.9,76c-2.9,7.1-5.5,9.1-9.7,9.6
			c0.6-1.2,0.9-2.5,0.9-3.8c0-4-2.6-8-7.7-8c-4.7,0-7.8,3.8-7.8,8.6c0,6.1,4.5,10.6,13.1,10.6c11.1,0,16.5-7.5,21.3-19L620.3,36h5.8
			v-8.5h-20.8V36h6.1l-9.7,24.9L591,36h7.2v-8.5h-29.8V36h6.3C574.8,36,588.3,64.3,593.9,76z M224.5,88c0,17-12.3,29.9-27.7,29.9
			c-9.9,0-19-5.3-23.8-13.9c-8.6,4.8-17.1,12.1-25.7,23.1c14.1,16.3,23.6,22.9,34.3,22.9c11.7,0,18.5-6.5,24-16.3l3.6,1.1
			c-0.7,32.2-20.3,52.4-44.2,52.4c-16.5,0-28.7-6-46.7-25.1c-15.6,17.1-34.6,25.1-57.5,25.1C27.4,187.2,0,165,0,135.8
			c0-23.3,16-40.7,45.3-50.7c-11.4-12.3-17-22.1-17-38.2C28.3,23,51.8,0,88.8,0c34,0,52.4,21.5,52.4,41c0,7-1.4,12.9-5.1,18.8
			c15.2-0.8,26.3,5.7,27.2,20.2c9.2-13.3,19.7-20.8,33.5-20.8C212.1,59.2,224.5,71,224.5,88z M101.6,145.4
			c-12.9-15.9-26.7-31.1-41.3-45.5c-5.7,6.1-8.8,14.2-8.8,22.5c0,17,12.2,30,29.1,30C88.9,152.4,95.3,150.3,101.6,145.4z
			 M103.6,41.7c0-12.7-6.6-21.4-16-21.4c-8.7,0-15,7.1-15,16.4c0,12.5,8.5,20.5,21.1,32.6C99.9,59.9,103.6,50.6,103.6,41.7
			L103.6,41.7z M131.8,65.4C126.7,71,119.2,77,108.5,84c8.7,9,15.8,17.1,22.6,25.4C142,91.2,144.6,78.3,131.8,65.4L131.8,65.4z
			 M256.8,208.9h-4.5v5.4h-2.5v3.9h2.5v10.4c0,4.3,2.4,5.8,5.7,5.8c1.4,0,2.8-0.3,4.1-1v-3.7c-0.9,0.4-1.8,0.7-2.8,0.7
			c-1.2,0.2-2.3-0.7-2.4-1.8c0-0.2,0-0.4,0-0.6v-9.7h5.3v-3.9h-5.3V208.9z M277,229l-5.5-14.7h-4.9l8.2,19.8
			c-0.8,1.7-1.5,2.2-2.8,2.2c-0.9,0-1.9-0.3-2.7-0.8l-1.5,3.3c1.4,0.8,3,1.3,4.7,1.2c3.2,0,4.9-1.5,6.5-5.6l7.9-20.3h-4.7L277,229z
			 M312.8,224.2L312.8,224.2c0,6.6-4.5,10.3-9.2,10.3c-2.7,0-5.2-1.3-6.7-3.5v9.1h-4.6v-25.8h4.6v3.3c1.5-2.3,4-3.7,6.7-3.7
			C308.3,213.9,312.8,217.6,312.8,224.2L312.8,224.2z M308.2,224.2c0-3.8-2.6-6.3-5.6-6.3s-5.8,2.6-5.8,6.3v0.1
			c0,3.8,2.7,6.3,5.8,6.3S308.2,228.1,308.2,224.2L308.2,224.2z M339.2,224.2L339.2,224.2c0,5.8-4.7,10.4-10.4,10.4
			c-0.1,0-0.1,0-0.2,0c-5.6,0.1-10.3-4.3-10.5-9.9c0-0.1,0-0.2,0-0.3v-0.1c0.4-5.8,5.5-10.2,11.3-9.7
			C334.6,214.9,338.7,219,339.2,224.2L339.2,224.2z M334.7,224.3c0.1-3.4-2.5-6.2-5.8-6.3c-0.1,0-0.1,0-0.2,0c-3.6,0-6,2.8-6,6.3
			v0.1c-0.1,3.4,2.5,6.2,5.8,6.3c0.1,0,0.1,0,0.2,0c3.3,0,6-2.6,6-5.8C334.7,224.6,334.7,224.5,334.7,224.3L334.7,224.3L334.7,224.3
			z M360.5,214.3h4.5V230c0,3.3-0.9,5.8-2.5,7.4c-1.8,1.8-4.6,2.6-8.1,2.6c-3.1,0-6.2-0.8-8.8-2.4l1.7-3.4c2.1,1.3,4.5,2.1,7,2.1
			c4,0,6.3-2.1,6.3-6v-1.5c-1.6,2.3-4.2,3.6-7,3.6c-4.9,0.1-8.9-3.8-9-8.7c0-0.2,0-0.3,0-0.5v-0.1c-0.2-4.9,3.6-9.1,8.5-9.3
			c0.2,0,0.3,0,0.5,0c2.7,0,5.3,1.2,6.9,3.4L360.5,214.3z M360.6,223.2c0-3.2-2.6-5.4-5.8-5.4c-2.9-0.2-5.4,2.1-5.6,5
			c0,0.1,0,0.3,0,0.4v0.1c0,3,2.4,5.4,5.3,5.4c0.1,0,0.2,0,0.3,0c3,0.2,5.6-2.2,5.8-5.2C360.6,223.4,360.6,223.3,360.6,223.2
			L360.6,223.2z M377,218.8v-4.4h-4.6v19.8h4.6v-7.5c0-5.2,2.8-7.8,6.7-7.8h0.3V214C380.6,213.8,378.3,215.8,377,218.8L377,218.8z
			 M403.2,216.3c1.5,1.7,2.3,3.9,2.1,6.1v11.7H401v-2.5c-1.6,1.9-4,3-6.4,2.9c-3.7,0-7-2.1-7-6.1v-0.1c0-4.3,3.4-6.4,8.2-6.4
			c1.8,0,3.6,0.3,5.3,0.8v-0.5c0-2.8-1.7-4.3-4.9-4.3c-1.9,0-3.9,0.4-5.6,1.2l-1.2-3.6c2.3-1.1,4.9-1.6,7.5-1.6
			C399.7,214.1,401.9,214.8,403.2,216.3L403.2,216.3z M401,225.6c-1.4-0.5-3-0.8-4.5-0.8c-2.9,0-4.6,1.2-4.6,3.3v0.1
			c0,1.9,1.7,3,3.9,3c3,0,5.3-1.7,5.3-4.2V225.6z M433,224.2L433,224.2c0,6.6-4.5,10.3-9.2,10.3c-2.7,0-5.2-1.3-6.7-3.5v9.1h-4.6
			v-25.8h4.6v3.3c1.4-2.3,4-3.7,6.7-3.7C428.5,213.9,433.1,217.6,433,224.2L433,224.2z M428.4,224.2c0-3.8-2.6-6.3-5.6-6.3
			s-5.8,2.6-5.8,6.3v0.1c0,3.8,2.7,6.3,5.8,6.3S428.4,228.1,428.4,224.2L428.4,224.2z M450.2,213.9c-2.5,0-4.9,1.3-6.2,3.4v-10.6
			h-4.6v27.3h4.6v-11.1c0-3.1,1.8-4.9,4.5-4.9s4.2,1.8,4.2,4.8v11.2h4.5v-12.6C457.3,216.9,454.7,213.9,450.2,213.9L450.2,213.9z
			 M472.5,229l-5.5-14.7h-4.9l8.2,19.8c-0.8,1.7-1.5,2.2-2.8,2.2c-0.9,0-1.9-0.3-2.7-0.8l-1.5,3.3c1.4,0.8,3,1.3,4.7,1.2
			c3.2,0,4.9-1.5,6.5-5.6l7.9-20.3h-4.7L472.5,229z M486.3,234.1h5v-5.2h-5V234.1z M508.4,230.6c-3.5,0-5.9-2.8-5.9-6.3v-0.1
			c0-3.4,2.4-6.3,5.7-6.3c2,0,3.8,0.9,5.1,2.5l2.8-3c-2-2.3-4.9-3.5-7.9-3.4c-5.6-0.1-10.2,4.5-10.3,10.1c0,0.1,0,0.2,0,0.2v0.1
			c0.1,5.7,4.8,10.3,10.5,10.2c3,0,5.9-1.4,7.8-3.7l-2.7-2.7C512.2,229.7,510.3,230.5,508.4,230.6L508.4,230.6z M541.9,224.2
			L541.9,224.2c0,5.8-4.7,10.4-10.4,10.4c-0.1,0-0.1,0-0.2,0c-5.6,0.1-10.3-4.3-10.5-9.9c0-0.1,0-0.2,0-0.3v-0.1
			c0-5.8,4.7-10.5,10.5-10.6C537.2,213.7,541.9,218.4,541.9,224.2L541.9,224.2z M537.4,224.3c0.1-3.4-2.5-6.2-5.8-6.3
			c-0.1,0-0.1,0-0.2,0c-3.6,0-6,2.8-6,6.3v0.1c-0.1,3.4,2.5,6.2,5.8,6.3c0.1,0,0.1,0,0.2,0c3.3,0,6-2.6,6-5.8
			C537.4,224.6,537.4,224.5,537.4,224.3L537.4,224.3z M570.7,213.9c-2.7,0-5.2,1.3-6.7,3.5c-1.1-2.2-3.4-3.6-5.9-3.5
			c-2.5,0-4.7,1.3-6,3.4v-3h-4.6v19.8h4.6v-11.2c0-3,1.7-4.9,4.2-4.9s4,1.7,4,4.8v11.3h4.5v-11.1c0-3.2,1.8-4.9,4.2-4.9s4,1.7,4,4.8
			v11.2h4.5v-12.6C577.6,216.6,575,213.9,570.7,213.9L570.7,213.9z M298.6,104.2h11.8v24.6h-33.7v-24.6h11.6V92.8h-44.8v11.4h11.8
			v63.4h-11.8V179h44.8v-11.4h-11.6v-27.8h33.7v27.8h-11.8V179h44.9v-11.4h-11.8v-63.4h11.8V92.8h-44.9L298.6,104.2L298.6,104.2z
			 M410.6,147.9c0,19-14.1,32.4-33.1,32.4c-19.5,0-33.1-12.7-33.1-31.7s14.3-32.3,33.3-32.3C397.1,116.2,410.6,129.1,410.6,147.9
			L410.6,147.9z M389.6,148.2c0-16.5-4-23-12.6-23c-8.3,0-11.8,6.7-11.8,23.2s4.2,23,12.6,23S389.6,164.7,389.6,148.2z M477,150.8
			h-41.8c0.8,14.3,6.5,19,16.4,19c7.2,0,11.9-3,14.7-10.7h10.1c-2.4,12.8-11,21.2-28.2,21.2c-20.4,0-32.9-12.6-32.9-31.4
			c0-18.6,13.7-32.6,32.2-32.6C468.2,116.2,477.9,130.9,477,150.8z M458.3,142.6c-0.6-12.4-4-17.4-11.1-17.4
			c-6.8,0-11,4.3-11.8,17.4H458.3z M621,150.8h-41.8c0.8,14.3,6.5,19,16.4,19c7.2,0,11.9-3,14.7-10.7h10.1
			c-2.4,12.8-11,21.2-28.2,21.2c-20.4,0-32.9-12.6-32.9-31.4c0-18.6,13.8-32.6,32.2-32.6C612.2,116.2,621.9,130.9,621,150.8z
			 M602.3,142.6c-0.7-12.4-4.1-17.4-11.1-17.4c-6.8,0-11,4.3-11.8,17.4H602.3z M670.1,116.4c-8.4,0-15.5,5.6-19.1,17v-15.8h-27v11h9
			V168h-9v11h39.5v-11h-11.4v-26.9c2.2-7.6,6.7-11.5,10.1-11.8c0,0.4-0.1,0.8-0.1,1.1c0,6,4.5,9.3,10.2,9.3s10.2-4.7,10.2-11.3
			S677.7,116.4,670.1,116.4L670.1,116.4z M767.5,159.6l7.2,2.2c-2.5,10.7-8,19.3-19.5,19.3c-7.9,0-12.3-2.6-18.7-10.6
			c-6.9,7.1-14.9,10.6-24.6,10.6c-17.3,0-27.4-10-27.4-22.8c0-12.6,8.9-19.1,20.2-23.4c-6-6.1-9-10.9-9-18.1
			c0-11.4,10.3-21.2,25.9-21.2c14.9,0,22.7,9.2,22.7,17.9c0,10-7.5,14.7-17,18.9c6.7,6.3,12.8,13.3,18.1,20.8
			c3.7-4.4,6.9-9.1,9.5-14.2h-9v-10.9H774v11h-8.1c-4.1,7.6-9.2,14.6-15.1,20.9c4.5,6.2,6.4,7.6,9.6,7.6S765.5,165.7,767.5,159.6
			L767.5,159.6z M712.6,112.2c0,4.8,2.9,8.9,9.2,15.2c5.1-3.7,7.6-8,7.6-13.5s-2.6-9.8-8.7-9.8c-4.3-0.2-8,3.2-8.1,7.5
			C712.6,111.8,712.6,112,712.6,112.2L712.6,112.2z M731.1,164.3c-6.2-8.7-13.2-16.8-21-24.2c-4.3,3.4-6.7,8-6.7,14.5
			c0,8.6,5.5,14.4,14.5,14.4C722.3,169,726.6,167.6,731.1,164.3L731.1,164.3z M828.7,168.7c-14.8,0-23.8-10.1-23.8-33.6
			c0-24.6,8.6-33.6,20.9-33.6c10.9,0,18.2,8,23.5,23.8h13V91h-11.8l-2.8,10c-5.2-6.4-13.5-10.2-24.5-10.2
			c-22.5,0-41.6,18.9-41.6,45.7c0,26.6,17.3,44.7,44.1,44.7c23.3,0,36.1-14.3,38.4-36.5h-12.7C849.1,158.9,841.6,168.7,828.7,168.7
			L828.7,168.7z M934.9,147.9c0,19-14.1,32.4-33.1,32.4c-19.5,0-33.1-12.7-33.1-31.7s14.3-32.3,33.3-32.3
			C921.4,116.2,934.9,129.1,934.9,147.9L934.9,147.9z M913.9,148.2c0-16.5-4-23-12.6-23c-8.2,0-11.8,6.7-11.8,23.2s4.2,23,12.6,23
			S913.9,164.7,913.9,148.2L913.9,148.2z M948.3,158c-6.4,0-11.6,5.3-11.5,11.7c0,6.4,5.3,11.6,11.7,11.5c6.4,0,11.6-5.3,11.5-11.7
			c0,0,0-0.1,0-0.1c0-6.3-5.1-11.4-11.4-11.4C948.5,158,948.4,158,948.3,158z M530.3,168v-39.5H508V168h7.8v11h-35.5v-11h8.9v-39.5
			h-11.1v-11h11.1V117c0-20.2,14.2-29.3,30.3-29.3c4.5-0.1,9,0.8,13.2,2.6l16.3-2.9V168h9.9v11h-36.5v-11H530.3z M530.3,117.6v-7.5
			c-5.5-0.1-9.2-3.2-9.2-8.9c0-1.9,0.6-3.8,1.7-5.4c-1.3-0.6-2.7-0.8-4.2-0.8c-6.5,0-11.1,3.3-11.1,18.2v4.3L530.3,117.6z"/>
	</g>
</g>
</svg>
