<svg xmlns="http://www.w3.org/2000/svg" viewBox="0 0 40 40"><defs><style>.cls-1{fill:#2e2f60;}</style></defs><title>Asset 1</title><g id="Layer_2" data-name="Layer 2"><g id="Layer_1-2" data-name="Layer 1"><path class="cls-1" d="M11.66,0A11.68,11.68,0,0,0,0,11.67V28.34A11.68,11.68,0,0,0,11.67,40H28.34A11.68,11.68,0,0,0,40,28.33V11.66A11.68,11.68,0,0,0,28.33,0Zm20,6.67a1.67,1.67,0,0,1,0,3.33,1.67,1.67,0,1,1,0-3.33ZM20,10A10,10,0,1,1,10,20,10,10,0,0,1,20,10Zm0,3.33A6.67,6.67,0,1,0,26.67,20,6.67,6.67,0,0,0,20,13.33Z"/></g></g></svg>