<?xml version="1.0" encoding="utf-8"?>
<!-- Generator: Adobe Illustrator 23.0.6, SVG Export Plug-In . SVG Version: 6.00 Build 0)  -->
<svg version="1.1" id="Layer_1" xmlns="http://www.w3.org/2000/svg" xmlns:xlink="http://www.w3.org/1999/xlink" x="0px" y="0px"
	 viewBox="0 0 800 177.4" style="enable-background:new 0 0 800 177.4;" xml:space="preserve">
<style type="text/css">
	.st0{fill:#595959;}
</style>
<title>Asset 1</title>
<g>
	<g id="Layer_1-2">
		<path class="st0" d="M125.9,135h16.6L134,0h-22.4L77.7,97c-2.7,7.9-4.6,14.1-6.7,21.6c-1.2-5.8-3.5-15-5.2-20.4L33,0H10L0,135h16
			l5.2-84.8c0.8-12.5,1.7-26,1.7-34.3c2.3,8.1,6.2,20,8.3,26.6L62.1,135h17.7l31.6-91.8c3.5-10,5.8-19.1,8.1-27.6
			c0,8.1,0.8,25.1,1.2,32.2L125.9,135z M231.3,85c0,22.4-8.7,38.9-28.9,38.9c-19.3,0-28.5-12.1-28.5-35.7c0-22.4,9.1-39.1,29.3-39.1
			C222.6,49.2,231.3,61.5,231.3,85 M247.8,85c0-30.1-13.3-48.6-42.4-48.6c-31.4,0-48.2,19.7-48.2,51.9c0,30.1,13.3,48.6,42.4,48.6
			C231.1,136.9,247.8,117.2,247.8,85 M327.2,135h16V66.2c0-20-12.5-29.9-29.5-29.9c-13.5,0-24.5,6-32.8,11l-2.5-9.1h-13.3V135h16
			V58.1c8.5-4.2,18.1-7.9,27.6-7.9c11.4,0,18.5,5.4,18.5,17.9L327.2,135L327.2,135z M434.4,85c0,22.4-8.7,38.9-28.9,38.9
			c-19.3,0-28.5-12.1-28.5-35.7c0-22.4,9.1-39.1,29.3-39.1C425.7,49.2,434.4,61.5,434.4,85 M450.9,85c0-30.1-13.3-48.6-42.4-48.6
			c-31.4,0-48.2,19.7-48.2,51.9c0,30.1,13.3,48.6,42.4,48.6C434.2,136.9,450.9,117.2,450.9,85 M494.7,136.7c8.3,0,16.5-1.7,24.2-4.8
			l-1.9-10.7c-4.8,1.2-9.6,1.8-14.5,2c-7.7,0-12.7-3.1-12.7-13.7V50.9h23.9l1.9-12.7h-26l-0.4-27.6l-11.8,2.9l-3.5,23.9l-16.2,4.2
			v8.9l16,0.2v63.8C473.7,130.2,482,136.7,494.7,136.7 M581.2,134.8l33.5-96.6h-17.2l-20,61.5c-1.9,5.6-5,15.8-6.6,21.2
			c-1.5-5.4-5-15.6-6.9-21l-22.9-61.7h-17.5L561,135h4.2c-9.1,20.4-16.6,29.1-32.6,29.1c-4.8-0.1-9.5-0.8-14.1-2.1l-2.7,12.1
			c6.1,2.1,12.6,3.2,19.1,3.3C563.6,177.4,572.3,159.8,581.2,134.8 M689.5,84.8c0,27-14.5,39.1-32.6,39.1
			c-5.9-0.1-11.7-1.1-17.3-2.9V54.7c7.1-2.7,15.4-4.6,22.4-4.6C678.9,50.1,689.5,57.9,689.5,84.8 M706.1,83.1
			c0-34.3-16.2-46.8-38.4-46.8c-9.9-0.1-19.7,2.6-28.1,7.9l-2.7-6h-13.3v139.2l16-3.9v-39.7c5.6,2,11.5,3.1,17.5,3.1
			C681.1,136.9,706.1,122.6,706.1,83.1 M783.4,76h-46.3c1.5-13.3,8.5-26.8,23.7-26.8C774.9,49.2,782.5,59.2,783.4,76 M800,82.1
			c0-27.8-12.3-45.7-37.4-45.7c-28.7,0-42.8,22-42.8,51.9c0,31.2,17.5,48.6,45.3,48.6c13.5,0,23.5-2.1,32-6l-2.5-11.6
			c-8.7,2.7-17.7,4-26.8,3.9c-18.9,0-31.4-13.3-31.4-33.9v-1.4H799L800,82.1z"/>
	</g>
</g>
</svg>
