<?xml version="1.0" encoding="utf-8"?>
<!-- Generator: Adobe Illustrator 23.0.6, SVG Export Plug-In . SVG Version: 6.00 Build 0)  -->
<svg version="1.1" id="Layer_1" xmlns="http://www.w3.org/2000/svg" xmlns:xlink="http://www.w3.org/1999/xlink" x="0px" y="0px"
	 viewBox="0 0 643.9 958.7" style="enable-background:new 0 0 643.9 958.7;" xml:space="preserve">
<style type="text/css">
	.st0{fill:none;stroke:#595959;stroke-width:17.4;stroke-linejoin:round;}
	.st1{opacity:0.25;fill:#030024;enable-background:new    ;}
	.st2{fill:#595959;}
	.st3{opacity:0.5;fill:#19173A;enable-background:new    ;}
</style>
<title>Asset 1</title>
<line class="st0" x1="217.5" y1="217.6" x2="217.5" y2="8.7"/>
<g>
	<path class="st1" d="M46.3,900.2v9.8H33.4v47.9h-11V910H9.5v-9.8H46.3z M56.7,957.9v-57.7h11v23h15.6v-23h11v57.7h-11V933H67.7
		v24.9H56.7z M108.1,957.9v-57.7h30.2v9.8h-19.2v13.3h14.6v9.7h-14.6v15.2h20v9.8C139.1,958,108.1,957.9,108.1,957.9z"/>
	<path class="st2" d="M161.3,940.8c0,6.4,2.8,8.2,7.2,8.2s7.2-1.8,7.2-8.2V937h11v2.4c0,14.2-7.5,19.3-18.2,19.3
		s-18.2-5.1-18.2-19.3v-20.6c0-14.2,7.5-19.3,18.2-19.3s18.2,5.1,18.2,19.3v0.2h-11v-1.6c0-6.4-2.8-8.2-7.2-8.2s-7.2,1.8-7.2,8.2
		V940.8z M197.9,918.8c0-14.2,7.5-19.3,18.2-19.3s18.2,5.1,18.2,19.3v20.6c0,14.2-7.5,19.3-18.2,19.3s-18.2-5.1-18.2-19.3V918.8z
		 M208.9,940.8c0,6.4,2.8,8.2,7.2,8.2s7.2-1.8,7.2-8.2v-23.5c0-6.4-2.8-8.2-7.2-8.2s-7.2,1.8-7.2,8.2V940.8z M245.5,918.8
		c0-14.2,7.5-19.3,18.2-19.3s18.2,5.1,18.2,19.3v20.6c0,14.2-7.5,19.3-18.2,19.3s-18.2-5.1-18.2-19.3L245.5,918.8z M256.6,940.8
		c0,6.4,2.8,8.2,7.2,8.2s7.2-1.8,7.2-8.2v-23.5c0-6.4-2.8-8.2-7.2-8.2s-7.2,1.8-7.2,8.2V940.8z M294.7,957.9v-57.7h15.9
		c13.6,0,20.2,6.4,20.2,17.3s-6.6,17.3-20.2,17.3h-4.9V958L294.7,957.9L294.7,957.9z M305.8,925.7h5.9c5.4,0,8.2-2.7,8.2-8.2
		s-2.7-8.1-8.2-8.1h-5.9V925.7z M341.7,957.9v-57.7h30.2v9.8h-19.2v13.3h14.7v9.7h-14.6v15.2h20v9.8L341.7,957.9L341.7,957.9z
		 M410.8,957.9l-9.6-23.5h-5.3v23.5h-11v-57.7h16c13.3,0,19.6,6.4,19.6,17.3c0,7.2-2.5,12.4-8.7,14.7l10.9,25.7L410.8,957.9z
		 M395.9,925.3h5.7c4.9,0,7.8-2.4,7.8-8s-3-8-7.8-8h-5.7V925.3z"/>
	<path class="st3" d="M442.7,902.8v38.5c0,5.3,2.3,8,7.4,8s7.5-2.8,7.5-8v-38.5h10.5v38.6c0,12.1-7.2,17.2-18,17.2
		s-17.9-5.1-17.9-17.2v-38.6H442.7z M482.6,957.9v-55.1h11.5l14.6,32.7h0.2v-32.7h9.6v55.1h-10.1l-16.1-35.6h-0.1v35.6H482.6z
		 M533.7,957.9v-55.1h10.5v55.1H533.7z M557.3,920.5c0-13.6,7.2-18.5,17.4-18.5s17.4,4.9,17.4,18.5v19.7c0,13.6-7.2,18.5-17.4,18.5
		s-17.4-4.9-17.4-18.5V920.5z M567.8,941.5c0,6.1,2.7,7.8,6.9,7.8s6.9-1.7,6.9-7.8v-22.4c0-6.1-2.7-7.8-6.9-7.8s-6.9,1.7-6.9,7.8
		V941.5z M605,957.9v-55.1h11.5l14.7,32.7h0.1v-32.7h9.6v55.1h-10.1l-16.1-35.6h-0.1v35.6L605,957.9z"/>
	<polygon class="st0" points="217.5,8.7 635.2,426.4 635.2,635.2 426.3,844 8.7,426.4 8.7,217.6 	"/>
	<polygon class="st0" points="426.3,217.5 217.5,426.4 217.5,635.2 426.4,426.3 	"/>
	<polyline class="st0" points="635.2,426.4 426.3,635.2 8.7,217.6 	"/>
	<polyline class="st0" points="8.7,426.4 217.5,217.6 635.2,635.2 	"/>
	<line class="st0" x1="426.3" y1="635.2" x2="426.3" y2="844"/>
</g>
</svg>
