<?xml version="1.0" encoding="utf-8"?>
<!-- Generator: Adobe Illustrator 23.0.6, SVG Export Plug-In . SVG Version: 6.00 Build 0)  -->
<svg version="1.1" id="Layer_1" xmlns="http://www.w3.org/2000/svg" xmlns:xlink="http://www.w3.org/1999/xlink" x="0px" y="0px"
	 viewBox="0 0 959.9 493.6" style="enable-background:new 0 0 959.9 493.6;" xml:space="preserve">
<style type="text/css">
	.st0{fill:#595959;}
</style>
<title>Asset 1</title>
<g>
	<g id="Layer_1-2">
		<path class="st0" d="M45.8,194.7l29.4-9L112,13.2l-24.3,6L36.8,88.7l-9.6-3L49.4,0h190.8l-8.1,86.3l-9.3,2.1l-25.2-69.2l-21-6
			l-36.8,172.5l25.8,9l-2.4,11.4H43.4L45.8,194.7z M199.2,230.3c0-14.4,11.1-22.5,22.8-22.5c11.4,0,20.4,7.8,20.4,18.6
			c0,10.2-4.5,16.5-14.1,19.2v0.6c2,0.3,4,0.4,6,0.3c6.3,0,12.6-1.8,19.8-4.5c3-13.2,6.3-37.7,6.3-69.5c0-46.1-3.3-70.7-6-81.5
			l-29.7,28.8l-7.2-6.6c35.9-50,48.8-59.6,65.6-59.6s28.5,12.3,28.5,62.3c0,32.6-2.4,60.2-7.2,86.6c25.4-31.2,44.6-73.7,44.6-109.4
			l-0.6-0.3c-14.1,3.3-23.1-8.1-23.1-19.5c0-11.1,9-19.8,22.5-19.8c12.9,0,27.3,9.6,27.3,35c0,55.4-56,146.5-113.5,169.2
			c-8.7,3.3-18.9,5.7-27.9,5.7C218.4,263.6,199.2,254.6,199.2,230.3L199.2,230.3z M352.9,240.5h21.9l37.7-141.1
			c-8.7,6.4-17.1,13.2-25.2,20.4l-7.2-6.6c14.1-17.7,25.8-32.1,39.8-41.9l12-44.6h48.8L473.2,54c2.9-0.3,5.8-0.4,8.7-0.3
			c38.9,0,62,23.4,62,55.1c0,54.8-47.6,99.7-111.7,98.2l-9,33.5h26.1l-4.2,19.5h-96.5L352.9,240.5z M488.5,100.3
			c0-17.4-7.5-23.7-21.3-24.6L437,189c22.8-3.6,35-14.1,46.1-55.7C486.7,119.2,488.5,108.7,488.5,100.3z M548.7,161.7
			c0-52.7,39.5-108.1,93.8-108.1c30.9,0,46.7,12.6,46.7,29.7c0,23.7-24.3,39.2-79.4,52.4c-3.3,14.1-4.8,24.3-4.8,31.2
			c0,11.7,4.2,14.7,11.7,14.7c10.5,0,22.8-9.9,41.9-31.5l8.7,5.4c-18.3,34.1-42.5,53-73.4,53C567,208.5,548.7,189.9,548.7,161.7
			L548.7,161.7z M613.1,123.4C637.4,112,646,101.2,646,78.2c0-3.9-1.8-6.9-5.7-6.9c-7.8,0-16.2,9-27,50.6
			C613.1,122.4,613.1,122.9,613.1,123.4L613.1,123.4z M689.2,160.5c0-73.1,67.4-153.4,162-153.4c63.2,0,108.7,37.1,108.7,93.8
			c0,69.5-46.4,110.2-93.5,110.2c-27.3,0-36.2-9.3-39.8-27.6l-0.3-1.5l20.1-34.1l-0.6-0.6c-21.6,31.5-46.7,61.1-68.9,61.1
			c-14.4,0-27.3-12-27.3-32.6c0-53,38.6-113.2,78.5-113.2c14.1,0,22.2,5.4,26.7,10.8l2.4-9h47.9L871,171.3
			c-1.1,3.3-1.7,6.7-1.8,10.2c0,6.3,2.7,10.5,9.9,10.5c27.9,0,46.7-37.7,46.7-90.5c0-54.8-27.3-77-75.5-77
			c-72.8,0-122.8,60.2-122.8,131.5c0,63.8,28.2,86,82.7,86c27.3,0,55.4-6,75.8-12.3l4.8,10.8c-22.8,12.3-51.5,20.7-87.5,20.7
			C730.9,261.2,689.2,217.1,689.2,160.5z M834.5,148.9L851.6,86c-3-1.8-6.6-3.3-9.9-3.3c-12.6,0-25.5,14.4-36.5,69.2
			c-0.5,2.9-0.8,5.8-0.9,8.7c0,6.9,2.4,9.3,6.3,9.3C817.4,169.8,825.8,161.4,834.5,148.9z M0,346.8c0-69.5,54.2-115.6,113.2-115.6
			c21.3,0,34.7,5.7,45.5,15.9l10.2-13.5h11.4l3.3,81.5l-9.9,2.1c-29.4-56-37.7-65-52.1-65c-22.5,0-36.2,18.3-48.8,77.6
			c-4.5,21.3-6.6,37.7-6.6,50.6c0,32,13.2,41,34.4,41c23.7,0,44.3-11.7,62.9-33.8l12.6,8.7c-21.3,31.8-47.6,45.8-83,45.8
			C31.5,442.1,0,398.7,0,346.8z M185.4,383.4c0-54.8,46.1-96.1,92-96.1c35,0,59,27.6,59,57.5c0,54.8-46.4,97.3-92.3,97.3
			C209.1,442.1,185.4,413.3,185.4,383.4z M276.2,362.4c6.6-23.7,9.6-37.7,9.6-46.1s-3-10.5-9.3-10.5c-12.6,0-16.8,8.4-30.9,61.1
			c-6.3,24.3-9.6,38.6-9.6,46.7c0,7.8,3,9.9,9,9.9C257.6,423.5,261.8,415.7,276.2,362.4z M341.5,383.4c0-54.8,46.1-96.1,92-96.1
			c35,0,59,27.6,59,57.5c0,54.8-46.4,97.3-92.3,97.3C365.1,442.1,341.5,413.3,341.5,383.4z M432.2,362.4c6.6-23.7,9.6-37.7,9.6-46.1
			s-3-10.5-9.3-10.5c-12.6,0-16.8,8.4-30.9,61.1c-6.3,24.3-9.6,38.6-9.6,46.7c0,7.8,3,9.9,9,9.9
			C413.7,423.5,417.8,415.7,432.2,362.4z M468.8,474.1h21.9L528.4,333c-8.7,6.4-17.1,13.2-25.2,20.4l-7.2-6.6
			c14.1-17.7,25.8-32.1,39.8-41.9l12-44.6h48.8l-7.5,27.3c2.9-0.3,5.8-0.4,8.7-0.3c38.9,0,62,23.4,62,55.1
			c0,54.8-47.6,99.7-111.7,98.2l-9,33.5h26.1l-4.2,19.5h-96.4L468.8,474.1z M604.5,334c0-17.4-7.5-23.7-21.3-24.6l-30.3,113.2
			c22.8-3.6,35-14.1,46.1-55.7C602.7,352.8,604.5,342.4,604.5,334z M664.7,395.4c0-52.7,39.5-108.1,93.8-108.1
			c30.9,0,46.7,12.6,46.7,29.7c0,23.7-24.3,39.2-79.4,52.4c-3.3,14.1-4.8,24.3-4.8,31.2c0,11.7,4.2,14.7,11.7,14.7
			c10.5,0,22.8-9.9,41.9-31.5l8.7,5.4c-18.3,34.1-42.5,53-73.4,53C682.9,442.1,664.7,423.5,664.7,395.4z M729.1,357
			c24.3-11.4,32.9-22.2,32.9-45.2c0-3.9-1.8-6.9-5.7-6.9c-7.8,0-16.2,9-27,50.6C729.1,356,729.1,356.5,729.1,357z M832.4,328.3
			l-24.9,25.2l-7.2-6.6c38.6-51.2,50.9-59.6,63.5-59.6c10.5,0,17.4,4.5,16.2,22.2l-0.6,8.1l-23.7,64.1l1.2,0.6
			c27-59.3,42.5-95,71-95c16.5,0,26.4,11.7,26.4,26.7c0,15.3-11.7,27-24,27c-16.2,0-20.1-10.2-20.7-17.1H909
			c-11.4,7.2-26.4,28.2-37.7,49.4l-18,66.5h-51.2L832.4,328.3z"/>
	</g>
</g>
</svg>
