<?xml version="1.0" encoding="utf-8"?>
<!-- Generator: Adobe Illustrator 23.0.6, SVG Export Plug-In . SVG Version: 6.00 Build 0)  -->
<svg version="1.1" id="Layer_1" xmlns="http://www.w3.org/2000/svg" xmlns:xlink="http://www.w3.org/1999/xlink" x="0px" y="0px"
	 viewBox="0 0 25 25" style="enable-background:new 0 0 25 25;" xml:space="preserve">
<style type="text/css">
	.st0{fill:#FFFFFF;}
</style>
<g>
	<path class="st0" d="M4.4,24.4c-0.1,0.6-2.3,0.5-3,0.4C1.1,24.7,1,24.5,1,24.2c0-0.6,0-1.2,0-1.8c0-2.8,0.1-5.6,0.2-8.3
		c0-1.6,0.1-3.1,0.1-4.7c0-1.7-0.1-3.5-0.1-5.2c0-0.9-0.1-1.8,0-2.7c0-0.2,0-0.6,0.4-0.7c0.4,0,0.4,0.4,0.4,0.6C2,3.7,2,6,2,8.2
		c0,1.8,0,3.5,0,5.3c0,1.7-0.2,3.3-0.2,5c0,1.6,0.1,3.2,0.1,4.9c0,0.2,0.1,0.3,0,0.6C2.9,24,4.5,23.5,4.4,24.4z"/>
	<path class="st0" d="M6,17.3c-0.1-1.6-0.1-3.1-0.1-4.7c0-1.5,0.1-2.9,0.2-4.4c0.1-0.9,0.3-1.9,0.5-2.8C6.7,4.6,6.9,3.8,7.1,3
		c0.3-0.7,0.7-1.3,1.1-1.8c0.2-0.3,1.4-0.3,1.8,0c0.7,0.6,1.2,1.4,1.2,2.3c0,0.8,0.3,1.6,0.3,2.4c0,1.3,0,2.6,0,3.9
		c0,0.8,0,1.6,0,2.4c-0.1,1.5-0.2,3-0.3,4.4c-0.1,1.3-0.2,2.6-0.3,4c-0.1,1-0.4,2-0.6,3c-0.1,0.6-0.5,1.2-1.2,1.3
		C8.5,25,7.7,24.7,7.3,24c-0.2-0.3-0.3-0.7-0.4-1c-0.2-1-0.4-2-0.5-3c0,0,0,0,0.1,0C6.3,19.1,6.1,18.2,6,17.3z M7.4,21.8
		c0.1,0.5,0.2,1.1,0.5,1.7c0.2,0.3,0.6,0.5,1,0.6c0.1,0,0.5-0.4,0.6-0.6c0.2-0.4,0.2-0.8,0.4-1.2c0.7-2.3,0.5-4.7,0.8-7.1
		c0.2-1.4,0.1-2.8,0.1-4.2c0-1.3,0.1-2.7,0-4c0-1.1-0.3-2.1-0.3-3.2c0-0.7-0.2-1.3-0.8-1.7C9.6,2,9.5,1.9,9.4,1.8
		C9.2,1.4,9,1.5,8.6,1.8c-0.8,0.7-1,1.7-1.2,2.6c-0.4,2.1-0.7,4.2-0.8,6.3c-0.1,1.8,0,3.6,0,5.4C6.8,18,7.1,20,7.4,21.8z"/>
	<path class="st0" d="M15.8,11.2c0.5,1.6,0.9,3.1,1.3,4.7c0.4,1.5,0.8,3,1.2,4.6c0.3,1.1,0.6,2.3,0.9,3.4c0,0.2,0,0.3,0.1,0.5
		c0,0.3,0,0.5-0.3,0.5c-0.3,0-0.5-0.1-0.5-0.5c-0.1-0.8-0.2-1.7-0.4-2.5c-0.4-1.6-0.8-3.1-1.3-4.6c-0.5-1.6-0.9-3.2-1.3-4.8
		c-0.3-0.9-0.6-1.7-1-2.6c0,0.1-0.1,0.2-0.1,0.4c0,1.3,0,2.5,0,3.8c0,1.1,0,2.2,0,3.2c0,0.5,0.1,1,0.1,1.4c0,0.7-0.1,1.5-0.1,2.3
		c0,1.1,0.1,2.2,0.2,3.3c0,0.3,0.1,0.6-0.3,0.6c-0.4,0-0.5-0.2-0.5-0.6c0-1.3,0-2.6-0.1-3.9c0-1.1-0.1-2.3-0.1-3.4
		c0-1.5,0.1-2.9,0.1-4.4c0-1.4-0.1-2.8-0.1-4.3c0-0.9,0.2-1.7,0.2-2.6c0.1-1.5,0-2.9,0.1-4.3c0-0.2,0.1-0.4,0.2-0.5
		c0.2,0.1,0.3,0.1,0.5,0.2c0.1,0.1,0.3,0.1,0.4,0.2c0.5,0.4,1,0.8,1.6,1.2C17,3,17.1,3.8,17.3,4.4c0.5,1.7-0.3,3-1.4,4.2
		c0,0.1-0.1,0.1-0.2,0.1c-0.2,0.1-0.3,0.2-0.5,0.3C15.4,9.8,15.6,10.5,15.8,11.2z M16.5,5.8c0.2-2-0.8-3-2-3.6
		c-0.1,2.1-0.2,4.3-0.3,6.4C15.3,8.4,16.5,6.8,16.5,5.8z"/>
	<path class="st0" d="M21.8,8.3c0.6-0.1,1.3-0.1,1.8-0.2C24,8,24.2,8.2,24.2,8.4c0,0.2,0,0.6-0.4,0.6C23.2,9,22.7,9,22.2,9
		c-0.3,0-0.4,0.1-0.4,0.4c0,1.5-0.1,3.1-0.1,4.6c0,2.4-0.1,4.8-0.1,7.2c0,0.7,0,1.4,0,2.1c0,0.3,0,0.4,0.5,0.4
		c0.5,0,1.2,0.1,1.7,0.3c0.2,0,0.3,0.3,0.4,0.5c-0.2,0.1-0.3,0.3-0.5,0.3c-0.5,0-0.9-0.1-1.3-0.1c-0.1,0-0.3,0-0.4-0.1
		c-1.2-0.1-1.2-0.1-1.1-1.3c0-1.1,0-2.2,0.1-3.2c0-1.1,0.1-2.2,0.1-3.3c0-1.6,0-3.2,0-4.9c0-1.6,0.1-3.2,0.2-4.8c0-1.7,0-3.4,0-5.1
		c0-0.3-0.1-0.6,0-0.7c0.2-0.2,0.5-0.4,0.8-0.4c0.9,0,1.7,0,2.6,0c0.3,0,0.6,0,0.6,0.4c0,0.4-0.2,0.5-0.6,0.5c-0.9,0-1.7,0-2.7,0
		C21.8,4,21.8,6.1,21.8,8.3z"/>
</g>
</svg>
