<svg xmlns="http://www.w3.org/2000/svg" viewBox="0 0 135.88 154.12"><defs><style>.cls-1{fill:#fff;}</style></defs><title>Asset 7</title><g id="Layer_2" data-name="Layer 2"><g id="Layer_1-2" data-name="Layer 1"><path class="cls-1" d="M9.12,153.62A8.63,8.63,0,0,1,.5,145V9.12A8.63,8.63,0,0,1,9.12.5a8.44,8.44,0,0,1,4.29,1.17L131.08,69.61a8.6,8.6,0,0,1,0,14.9L13.41,152.45a8.54,8.54,0,0,1-4.29,1.17Z"/><path class="cls-1" d="M9.12,1a8,8,0,0,1,4,1.1L130.83,70a8.11,8.11,0,0,1,0,14L13.16,152a8,8,0,0,1-4,1.1A8.14,8.14,0,0,1,1,145V9.12A8.13,8.13,0,0,1,9.12,1m0-1A9.11,9.11,0,0,0,0,9.12V145a9.12,9.12,0,0,0,9.12,9.12,9,9,0,0,0,4.54-1.24L131.33,84.94a9.1,9.1,0,0,0,0-15.77L13.66,1.23A9.13,9.13,0,0,0,9.12,0Z"/></g></g></svg>